<svg xmlns="http://www.w3.org/2000/svg" width="101" height="100" viewBox="0 0 101 100">
  <g id="Grupo_1043977" data-name="Grupo 1043977" transform="translate(-332 -3176)">
    <g id="Rectángulo_356238" data-name="Rectángulo 356238" transform="translate(332 3176)" fill="none" stroke="#ff6148" stroke-width="1">
      <rect width="101" height="100" rx="12" stroke="none"/>
      <rect x="0.5" y="0.5" width="100" height="99" rx="11.5" fill="none"/>
    </g>
    <g id="desarrollo-de-software" transform="translate(343 3186)">
      <circle id="Elipse_6109" data-name="Elipse 6109" cx="2.5" cy="2.5" r="2.5" transform="translate(14.914 2.914)" fill="#46ccff"/>
      <circle id="Elipse_6110" data-name="Elipse 6110" cx="2.5" cy="2.5" r="2.5" transform="translate(59.914 2.914)" fill="#46ccff"/>
      <path id="Trazado_771125" data-name="Trazado 771125" d="M26,48H41.166V60.638H26Z" transform="translate(6.331 12.135)" fill="#323232"/>
      <path id="Trazado_771126" data-name="Trazado 771126" d="M15,57H57.969v5.055H15Z" transform="translate(3.429 14.509)" fill="#b90000"/>
      <path id="Trazado_771127" data-name="Trazado 771127" d="M3,11H76.3V59.024H3Z" transform="translate(0.264 2.374)" fill="#6090bf"/>
      <path id="Trazado_771128" data-name="Trazado 771128" d="M3,45H76.3v5.055H3Z" transform="translate(0.264 11.344)" fill="#b90000"/>
      <g id="Grupo_1043976" data-name="Grupo 1043976" transform="translate(8.319 26.012)">
        <circle id="Elipse_6111" data-name="Elipse 6111" cx="2.5" cy="2.5" r="2.5" transform="translate(-0.405 8.902)" fill="#efaf22"/>
        <circle id="Elipse_6112" data-name="Elipse 6112" cx="2.5" cy="2.5" r="2.5" transform="translate(58.595 8.902)" fill="#efaf22"/>
        <path id="Trazado_771129" data-name="Trazado 771129" d="M45.748,34.9V29.847H42.854a8.556,8.556,0,0,0-.7-1.681l2.047-2.047-3.513-3.577-2.047,2.047a8.556,8.556,0,0,0-1.744-.7V21H31.847v2.894a8.556,8.556,0,0,0-1.681.7l-2.047-2.047-3.577,3.577,2.047,2.047a8.556,8.556,0,0,0-.7,1.681H23V34.9h2.894a8.556,8.556,0,0,0,.7,1.681l-2.047,2.111,3.577,3.577,2.047-2.047a8.556,8.556,0,0,0,1.681.7v2.831H36.9V40.854a8.556,8.556,0,0,0,1.681-.7l2.111,2.047,3.513-3.513-2.047-2.047a8.556,8.556,0,0,0,.7-1.744Z" transform="translate(-2.779 -21)" fill="#efaf22"/>
      </g>
      <ellipse id="Elipse_6113" data-name="Elipse 6113" cx="4" cy="3.5" rx="4" ry="3.5" transform="translate(35.914 33.914)" fill="#ffd6ba"/>
      <path id="Trazado_771130" data-name="Trazado 771130" d="M76.564,12.11H47.5V7.055H59.1a3.791,3.791,0,1,0,0-2.528H46.233a1.264,1.264,0,0,0-1.264,1.264V12.11H34.859V5.791A1.264,1.264,0,0,0,33.6,4.528H20.73a3.791,3.791,0,1,0,0,2.528h11.6V12.11H3.264A1.264,1.264,0,0,0,2,13.374V61.4a1.264,1.264,0,0,0,1.264,1.264h27.8v7.583H18.429a1.264,1.264,0,0,0-1.264,1.264v5.055a1.264,1.264,0,0,0,1.264,1.264H61.4a1.264,1.264,0,0,0,1.264-1.264V71.509A1.264,1.264,0,0,0,61.4,70.245H48.761V62.663h27.8A1.264,1.264,0,0,0,77.828,61.4V13.374A1.264,1.264,0,0,0,76.564,12.11Zm-13.9-7.583A1.264,1.264,0,1,1,61.4,5.791,1.264,1.264,0,0,1,62.662,4.528Zm-45.5,2.528a1.264,1.264,0,1,1,1.264-1.264A1.264,1.264,0,0,1,17.166,7.055Zm27.8,7.583V26.973l-1.112,1.1-.152-.063v-2a1.264,1.264,0,0,0-1.264-1.264H37.386a1.264,1.264,0,0,0-1.264,1.264v2l-.152.063-1.112-1.1V14.638Zm1.618,19.147a7.33,7.33,0,0,1,.594,1.441,1.264,1.264,0,0,0,1.264.9h1.58V38.65h-1.63a1.264,1.264,0,0,0-1.264.9,7.33,7.33,0,0,1-.594,1.441,1.264,1.264,0,0,0,.265,1.453l1.15,1.15-1.719,1.833-1.264-1.15a1.264,1.264,0,0,0-1.5-.215,7.33,7.33,0,0,1-1.441.594,1.264,1.264,0,0,0-.9,1.264V47.5H38.65v-1.63a1.264,1.264,0,0,0-.9-1.264,7.33,7.33,0,0,1-1.441-.594,1.264,1.264,0,0,0-1.5.215l-1.15,1.15-1.782-1.668,1.15-1.15a1.264,1.264,0,0,0,.215-1.5,7.33,7.33,0,0,1-.594-1.441,1.264,1.264,0,0,0-1.264-.9H29.8V36.123h1.63a1.264,1.264,0,0,0,1.264-.9,7.33,7.33,0,0,1,.594-1.441,1.264,1.264,0,0,0-.265-1.453l-1.15-1.15L33.658,29.4l1.15,1.15a1.264,1.264,0,0,0,1.5.215,7.33,7.33,0,0,1,1.441-.594,1.264,1.264,0,0,0,.9-1.264v-1.63h2.528v1.63a1.264,1.264,0,0,0,.9,1.264,7.33,7.33,0,0,1,1.441.594,1.264,1.264,0,0,0,1.453-.265l1.15-1.15L47.9,31.131l-1.15,1.15a1.264,1.264,0,0,0-.164,1.5ZM32.331,14.638V27.1l-3.147,3.134a1.264,1.264,0,0,0,0,1.795L30.6,33.443a.771.771,0,0,1-.063.152h-2a1.264,1.264,0,0,0-1.264,1.264v1.264H14.411a3.791,3.791,0,1,0,0,2.528H27.276v1.264a1.264,1.264,0,0,0,1.264,1.264h2a.771.771,0,0,1,.063.152l-1.415,1.415a1.264,1.264,0,0,0-.367.9,1.327,1.327,0,0,0,.367.9l3.577,3.577a1.264,1.264,0,0,0,1.795,0L35.971,46.7l.152.063v2a1.264,1.264,0,0,0,1.264,1.264h5.055a1.264,1.264,0,0,0,1.264-1.264v-2l.152-.063,1.415,1.415a1.264,1.264,0,0,0,1.795,0l3.577-3.577a1.327,1.327,0,0,0,.367-.9,1.264,1.264,0,0,0-.367-.9L49.228,41.33a.77.77,0,0,1,.063-.152h2a1.264,1.264,0,0,0,1.264-1.264V38.65H65.418a3.791,3.791,0,1,0,0-2.528H52.552V34.859A1.264,1.264,0,0,0,51.288,33.6h-2a.771.771,0,0,1-.063-.152l1.415-1.415a1.264,1.264,0,0,0,0-1.795L47.5,27.1V14.638H75.3V55.08H4.528V14.638ZM12.11,37.386a1.264,1.264,0,1,1-1.264-1.264A1.264,1.264,0,0,1,12.11,37.386Zm55.607,0a1.264,1.264,0,1,1,1.264,1.264A1.264,1.264,0,0,1,67.718,37.386ZM60.135,75.3H19.693V72.773H60.135Zm-13.9-5.055H33.6V62.663H46.233ZM4.528,60.135V57.607H75.3v2.528Z" transform="translate(0 0)"/>
      <path id="Trazado_771131" data-name="Trazado 771131" d="M33.055,26a5.055,5.055,0,1,0,5.055,5.055A5.055,5.055,0,0,0,33.055,26Zm0,7.583a2.528,2.528,0,1,1,2.528-2.528A2.528,2.528,0,0,1,33.055,33.583Z" transform="translate(6.859 6.331)"/>
      <path id="Trazado_771132" data-name="Trazado 771132" d="M7.264,16.528h6.319v10.11A1.264,1.264,0,0,0,14.847,27.9h7.583a1.264,1.264,0,0,0,0-2.528H16.11V15.264A1.264,1.264,0,0,0,14.847,14H7.264a1.264,1.264,0,1,0,0,2.528Z" transform="translate(1.055 3.166)"/>
      <path id="Trazado_771133" data-name="Trazado 771133" d="M60.429,14H52.847a1.264,1.264,0,0,0-1.264,1.264v10.11H45.264a1.264,1.264,0,0,0,0,2.528h7.583a1.264,1.264,0,0,0,1.264-1.264V16.528h6.319a1.264,1.264,0,1,0,0-2.528Z" transform="translate(11.08 3.166)"/>
    </g>
  </g>
</svg>
