<svg xmlns="http://www.w3.org/2000/svg" width="101" height="100" viewBox="0 0 101 100">
  <g id="Grupo_1043979" data-name="Grupo 1043979" transform="translate(-1156 -3176)">
    <g id="transferencia-de-archivos" transform="translate(1170 3189)">
      <g id="Grupo_107187" data-name="Grupo 107187" transform="translate(1.083 36.957)">
        <g id="Grupo_107183" data-name="Grupo 107183" transform="translate(0 0)">
          <path id="Trazado_163120" data-name="Trazado 163120" d="M39.53,265.013v23.658a3.2,3.2,0,0,1-3.2,3.2H10.7a3.2,3.2,0,0,1-3.2-3.2V259.2a3.2,3.2,0,0,1,3.2-3.2H30.516a3.019,3.019,0,0,1,.525.045,3.188,3.188,0,0,1,1.739.894l5.81,5.81a3.188,3.188,0,0,1,.894,1.739,3.031,3.031,0,0,1,.045.525Z" transform="translate(-7.499 -256)" fill="#e6f7fe"/>
        </g>
        <g id="Grupo_107184" data-name="Grupo 107184" transform="translate(19.379)">
          <path id="Trazado_163121" data-name="Trazado 163121" d="M154.341,264.488a3.189,3.189,0,0,0-.894-1.739l-5.81-5.81a3.187,3.187,0,0,0-1.739-.894,3.018,3.018,0,0,0-.525-.045h-3.639v6.887a5.766,5.766,0,0,0,5.766,5.766h1.121a1.6,1.6,0,0,1,1.6,1.6v18.418a3.2,3.2,0,0,1-3.2,3.2h4.164a3.2,3.2,0,0,0,3.2-3.2V265.013A3.03,3.03,0,0,0,154.341,264.488Z" transform="translate(-141.734 -256)" fill="#d3effd"/>
        </g>
        <g id="Grupo_107185" data-name="Grupo 107185" transform="translate(23.542 0.045)">
          <path id="Trazado_163122" data-name="Trazado 163122" d="M179.02,264.754h-6.842a1.6,1.6,0,0,1-1.6-1.6v-6.842a3.188,3.188,0,0,1,1.739.894l5.81,5.81A3.187,3.187,0,0,1,179.02,264.754Z" transform="translate(-170.577 -256.311)" fill="#bed8fb"/>
        </g>
        <g id="Grupo_107186" data-name="Grupo 107186" transform="translate(5.125 5.125)">
          <path id="Trazado_163123" data-name="Trazado 163123" d="M43,291.5H56.751v5.125H43Z" transform="translate(-43 -291.5)" fill="#b893f5"/>
        </g>
      </g>
      <g id="Grupo_107192" data-name="Grupo 107192" transform="translate(40.801 1.083)">
        <g id="Grupo_107188" data-name="Grupo 107188">
          <path id="Trazado_163124" data-name="Trazado 163124" d="M314.655,16.513V40.171a3.2,3.2,0,0,1-3.2,3.2H285.827a3.2,3.2,0,0,1-3.2-3.2V10.7a3.2,3.2,0,0,1,3.2-3.2h19.814a3.019,3.019,0,0,1,.525.045,3.188,3.188,0,0,1,1.739.894l5.81,5.81a3.188,3.188,0,0,1,.894,1.739,3.018,3.018,0,0,1,.045.525Z" transform="translate(-282.624 -7.5)" fill="#e6f7fe"/>
        </g>
        <g id="Grupo_107189" data-name="Grupo 107189" transform="translate(19.379 0)">
          <path id="Trazado_163125" data-name="Trazado 163125" d="M429.466,15.988a3.189,3.189,0,0,0-.894-1.739l-5.81-5.81a3.188,3.188,0,0,0-1.739-.894A3.017,3.017,0,0,0,420.5,7.5h-3.639v6.887a5.766,5.766,0,0,0,5.766,5.766h1.121a1.6,1.6,0,0,1,1.6,1.6V40.171a3.2,3.2,0,0,1-3.2,3.2h4.164a3.2,3.2,0,0,0,3.2-3.2V16.513a3.033,3.033,0,0,0-.045-.525Z" transform="translate(-416.859 -7.5)" fill="#d3effd"/>
        </g>
        <g id="Grupo_107190" data-name="Grupo 107190" transform="translate(23.542 0.045)">
          <path id="Trazado_163126" data-name="Trazado 163126" d="M454.145,16.254H447.3a1.6,1.6,0,0,1-1.6-1.6V7.811a3.188,3.188,0,0,1,1.739.894l5.81,5.81A3.187,3.187,0,0,1,454.145,16.254Z" transform="translate(-445.702 -7.811)" fill="#bed8fb"/>
        </g>
        <g id="Grupo_107191" data-name="Grupo 107191" transform="translate(5.125 5.125)">
          <path id="Trazado_163127" data-name="Trazado 163127" d="M318.125,43h13.751v5.125H318.125Z" transform="translate(-318.125 -43)" fill="#fa4d7f"/>
        </g>
      </g>
      <g id="Grupo_107193" data-name="Grupo 107193" transform="translate(12.164 11.523)">
        <path id="Trazado_163128" data-name="Trazado 163128" d="M105.652,85.664,100.488,80.5a2.333,2.333,0,0,0-3.3,3.3l1.181,1.181H86.592a2.333,2.333,0,0,0-2.333,2.333V98.15a2.333,2.333,0,0,0,4.667,0v-8.5h9.443l-1.181,1.181a2.333,2.333,0,0,0,3.3,3.3l5.164-5.164A2.333,2.333,0,0,0,105.652,85.664Z" transform="translate(-84.259 -79.816)" fill="#ffb476"/>
      </g>
      <g id="Grupo_107194" data-name="Grupo 107194" transform="translate(39.674 41.724)">
        <path id="Trazado_163129" data-name="Trazado 163129" d="M275.5,303.843l5.164,5.164a2.333,2.333,0,0,0,3.3-3.3l-1.181-1.181h11.777a2.333,2.333,0,0,0,2.333-2.333V291.356a2.333,2.333,0,1,0-4.667,0v8.5h-9.443l1.181-1.181a2.333,2.333,0,1,0-3.3-3.3l-5.164,5.164A2.333,2.333,0,0,0,275.5,303.843Z" transform="translate(-274.82 -289.023)" fill="#2efec7"/>
      </g>
      <g id="Grupo_107195" data-name="Grupo 107195" transform="translate(0 0)">
        <path id="Trazado_163130" data-name="Trazado 163130" d="M32.94,255.566l-5.81-5.812a4.243,4.243,0,0,0-2.318-1.193,4.145,4.145,0,0,0-.712-.061H4.286A4.291,4.291,0,0,0,0,252.786v29.467a4.291,4.291,0,0,0,4.286,4.286H29.911a4.291,4.291,0,0,0,4.286-4.286v-6.108a1.083,1.083,0,0,0-2.165,0v6.108a2.123,2.123,0,0,1-2.121,2.121H4.286a2.123,2.123,0,0,1-2.121-2.121V252.786a2.123,2.123,0,0,1,2.121-2.121H23.542v5.8a2.687,2.687,0,0,0,2.684,2.684h5.8v11.939a1.083,1.083,0,1,0,2.165,0V258.6a3.942,3.942,0,0,0-.062-.711,4.234,4.234,0,0,0-1.195-2.32Zm-7.232.9V251.4l5.591,5.593H26.227A.519.519,0,0,1,25.708,256.469Z" transform="translate(0 -212.626)"/>
        <path id="Trazado_163131" data-name="Trazado 163131" d="M36.583,291.29H50.334a1.083,1.083,0,0,0,1.083-1.083v-5.125A1.083,1.083,0,0,0,50.334,284H36.583a1.083,1.083,0,0,0-1.083,1.083v5.125A1.083,1.083,0,0,0,36.583,291.29Zm1.083-5.125H49.251v2.959H37.665Z" transform="translate(-30.375 -243.001)"/>
        <path id="Trazado_163132" data-name="Trazado 163132" d="M119.114,355H107.583a1.083,1.083,0,1,0,0,2.165h11.531a1.083,1.083,0,1,0,0-2.165Z" transform="translate(-91.125 -303.751)"/>
        <path id="Trazado_163133" data-name="Trazado 163133" d="M36.583,357.165h5.125a1.083,1.083,0,1,0,0-2.165H36.583a1.083,1.083,0,1,0,0,2.165Z" transform="translate(-30.375 -303.751)"/>
        <path id="Trazado_163134" data-name="Trazado 163134" d="M157.083,390.5h-5.125a1.083,1.083,0,0,0,0,2.165h5.125a1.083,1.083,0,0,0,0-2.165Z" transform="translate(-129.094 -334.126)"/>
        <path id="Trazado_163135" data-name="Trazado 163135" d="M49.2,391.583a1.083,1.083,0,0,0-1.083-1.083H36.583a1.083,1.083,0,0,0,0,2.165H48.114A1.083,1.083,0,0,0,49.2,391.583Z" transform="translate(-30.375 -334.126)"/>
        <path id="Trazado_163136" data-name="Trazado 163136" d="M126.708,426h-10.25a1.083,1.083,0,1,0,0,2.165h10.25a1.083,1.083,0,1,0,0-2.165Z" transform="translate(-98.719 -364.501)"/>
        <path id="Trazado_163137" data-name="Trazado 163137" d="M44.072,427.083A1.083,1.083,0,0,0,42.989,426H36.583a1.083,1.083,0,1,0,0,2.165h6.406A1.083,1.083,0,0,0,44.072,427.083Z" transform="translate(-30.375 -364.501)"/>
        <path id="Trazado_163138" data-name="Trazado 163138" d="M107.583,463.665h11.531a1.083,1.083,0,0,0,0-2.165H107.583a1.083,1.083,0,0,0,0,2.165Z" transform="translate(-91.125 -394.876)"/>
        <path id="Trazado_163139" data-name="Trazado 163139" d="M36.583,461.5a1.083,1.083,0,0,0,0,2.165h5.125a1.083,1.083,0,0,0,0-2.165Z" transform="translate(-30.375 -394.876)"/>
        <path id="Trazado_163140" data-name="Trazado 163140" d="M308.235,20.139a1.083,1.083,0,0,0,1.083-1.083V10.1a4.053,4.053,0,0,0-.059-.7,4.245,4.245,0,0,0-1.2-2.331l-5.811-5.811A4.233,4.233,0,0,0,299.934.061,4.127,4.127,0,0,0,299.221,0H279.407a4.291,4.291,0,0,0-4.286,4.286V33.754a4.291,4.291,0,0,0,4.286,4.286h25.625a4.291,4.291,0,0,0,4.286-4.286V24.109a1.083,1.083,0,0,0-2.165,0v9.645a2.123,2.123,0,0,1-2.121,2.121H279.407a2.123,2.123,0,0,1-2.121-2.121V4.286a2.123,2.123,0,0,1,2.121-2.121h19.257v5.8a2.687,2.687,0,0,0,2.684,2.684h5.8v8.4A1.083,1.083,0,0,0,308.235,20.139ZM300.83,7.969V2.9l5.592,5.592h-5.073a.519.519,0,0,1-.519-.519Z" transform="translate(-235.404 0)"/>
        <path id="Trazado_163141" data-name="Trazado 163141" d="M311.708,42.79h13.751a1.083,1.083,0,0,0,1.083-1.083V36.583a1.083,1.083,0,0,0-1.083-1.083H311.708a1.083,1.083,0,0,0-1.083,1.083v5.125A1.083,1.083,0,0,0,311.708,42.79Zm1.083-5.125h11.586v2.959H312.79Z" transform="translate(-265.782 -30.375)"/>
        <path id="Trazado_163142" data-name="Trazado 163142" d="M394.239,106.5H382.708a1.083,1.083,0,0,0,0,2.165h11.531a1.083,1.083,0,0,0,0-2.165Z" transform="translate(-326.532 -91.125)"/>
        <path id="Trazado_163143" data-name="Trazado 163143" d="M311.708,108.665h5.125a1.083,1.083,0,0,0,0-2.165h-5.125a1.083,1.083,0,0,0,0,2.165Z" transform="translate(-265.782 -91.125)"/>
        <path id="Trazado_163144" data-name="Trazado 163144" d="M432.208,142h-5.125a1.083,1.083,0,0,0,0,2.165h5.125a1.083,1.083,0,1,0,0-2.165Z" transform="translate(-364.501 -121.5)"/>
        <path id="Trazado_163145" data-name="Trazado 163145" d="M324.321,143.083A1.083,1.083,0,0,0,323.239,142H311.708a1.083,1.083,0,0,0,0,2.165h11.531A1.083,1.083,0,0,0,324.321,143.083Z" transform="translate(-265.782 -121.5)"/>
        <path id="Trazado_163146" data-name="Trazado 163146" d="M401.833,177.5h-10.25a1.083,1.083,0,0,0,0,2.165h10.25a1.083,1.083,0,0,0,0-2.165Z" transform="translate(-334.126 -151.876)"/>
        <path id="Trazado_163147" data-name="Trazado 163147" d="M319.2,178.583a1.083,1.083,0,0,0-1.083-1.083h-6.406a1.083,1.083,0,0,0,0,2.165h6.406A1.083,1.083,0,0,0,319.2,178.583Z" transform="translate(-265.782 -151.876)"/>
        <path id="Trazado_163148" data-name="Trazado 163148" d="M382.708,215.165h11.531a1.083,1.083,0,0,0,0-2.165H382.708a1.083,1.083,0,0,0,0,2.165Z" transform="translate(-326.532 -182.251)"/>
        <path id="Trazado_163149" data-name="Trazado 163149" d="M311.708,213a1.083,1.083,0,0,0,0,2.165h5.125a1.083,1.083,0,0,0,0-2.165Z" transform="translate(-265.782 -182.251)"/>
        <path id="Trazado_163150" data-name="Trazado 163150" d="M94.836,73.318a3.417,3.417,0,0,0-5.351,4.164H87.859a1.083,1.083,0,0,0,0,2.165h4.094a1.083,1.083,0,0,0,.766-1.848l-1.181-1.181a1.25,1.25,0,1,1,1.767-1.769l5.165,5.164a1.252,1.252,0,0,1,0,1.769l-5.165,5.164a1.25,1.25,0,1,1-1.767-1.769L92.719,84a1.083,1.083,0,0,0-.766-1.848H82.509a1.083,1.083,0,0,0-1.083,1.083v8.5a1.25,1.25,0,1,1-2.5,0V80.9a1.252,1.252,0,0,1,1.25-1.25h2.63a1.083,1.083,0,0,0,0-2.165h-2.63A3.42,3.42,0,0,0,76.76,80.9V91.734a3.416,3.416,0,1,0,6.831,0v-7.42h5.894a3.417,3.417,0,0,0,5.351,4.164L100,83.314a3.42,3.42,0,0,0,0-4.832Z" transform="translate(-65.679 -61.878)"/>
        <path id="Trazado_163151" data-name="Trazado 163151" d="M288.145,281.524a3.42,3.42,0,0,0-3.416,3.416v7.42h-5.894a3.416,3.416,0,0,0-5.351-4.164l-5.164,5.164a3.415,3.415,0,0,0,0,4.831h0l5.164,5.164a3.417,3.417,0,0,0,5.352-4.163h9.309a3.42,3.42,0,0,0,3.416-3.416V284.94A3.419,3.419,0,0,0,288.145,281.524Zm1.25,14.252a1.252,1.252,0,0,1-1.25,1.251H276.368a1.083,1.083,0,0,0-.766,1.848l1.181,1.181a1.25,1.25,0,1,1-1.768,1.768l-5.164-5.164h0a1.25,1.25,0,0,1,0-1.768l5.164-5.164a1.251,1.251,0,0,1,1.769,1.768l-1.181,1.181a1.083,1.083,0,0,0,.766,1.848h9.443a1.083,1.083,0,0,0,1.083-1.083v-8.5a1.251,1.251,0,1,1,2.5,0Z" transform="translate(-228.728 -240.882)"/>
      </g>
    </g>
    <g id="Rectángulo_356240" data-name="Rectángulo 356240" transform="translate(1156 3176)" fill="none" stroke="#ff6148" stroke-width="2">
      <rect width="101" height="100" rx="12" stroke="none"/>
      <rect x="1" y="1" width="99" height="98" rx="11" fill="none"/>
    </g>
  </g>
</svg>
