<svg xmlns="http://www.w3.org/2000/svg" width="101" height="100" viewBox="0 0 101 100">
  <g id="Grupo_1043978" data-name="Grupo 1043978" transform="translate(-750 -3176)">
    <g id="carpeta-confidencial" transform="translate(763 3188)">
      <path id="Trazado_163003" data-name="Trazado 163003" d="M232,31.843V8h28.612v9.537h9.537V53.3h-9.537V46.149a11.922,11.922,0,1,0-19.075-9.537A12.124,12.124,0,0,0,241.776,39h-.239a2.367,2.367,0,0,0-1.49.524l-5.305,4.244H232Zm0,0" transform="translate(-197.427 -6.808)" fill="#e6f7fe"/>
      <path id="Trazado_163004" data-name="Trazado 163004" d="M433.537,17.537H424V8Zm0,0" transform="translate(-360.815 -6.808)" fill="#bed8fb"/>
      <path id="Trazado_163005" data-name="Trazado 163005" d="M319.844,131.922a11.892,11.892,0,0,1-4.769,9.537V136.69a2.391,2.391,0,0,0-2.384-2.384H296.239a12.122,12.122,0,0,1-.239-2.384,11.922,11.922,0,1,1,23.843,0Zm0,0" transform="translate(-251.89 -102.118)" fill="#b487ff"/>
      <path id="Trazado_163006" data-name="Trazado 163006" d="M41.381,168v4.769H12.769v33.381h4.769a4.769,4.769,0,0,1-9.537,0V170.384A2.391,2.391,0,0,1,10.384,168Zm0,0" transform="translate(-6.808 -142.965)" fill="#ffb476"/>
      <path id="Trazado_163007" data-name="Trazado 163007" d="M68.612,200v7.153H44.769v26.228H40V200Zm0,0" transform="translate(-34.039 -170.196)" fill="#d3effd"/>
      <path id="Trazado_163008" data-name="Trazado 163008" d="M94.84,216H78.15a2.366,2.366,0,0,0-1.49.524l-5.305,4.244H44.769V247A4.762,4.762,0,0,1,40,251.765H92.456A4.767,4.767,0,0,0,97.224,247V218.384A2.391,2.391,0,0,0,94.84,216Zm0,0" transform="translate(-34.039 -183.812)" fill="#ffce61"/>
      <path id="Trazado_163009" data-name="Trazado 163009" d="M203.075,362.384v7.153a9.537,9.537,0,0,1-19.075,0v-7.153A2.391,2.391,0,0,1,186.384,360H200.69A2.391,2.391,0,0,1,203.075,362.384Zm0,0" transform="translate(-156.58 -306.353)" fill="#fa4d7f"/>
      <path id="Trazado_163010" data-name="Trazado 163010" d="M236.769,394.384A2.384,2.384,0,1,1,234.384,392,2.384,2.384,0,0,1,236.769,394.384Zm0,0" transform="translate(-197.427 -333.584)" fill="#2efec7"/>
      <path id="Trazado_163011" data-name="Trazado 163011" d="M73.914,10.236,63.678,0H33.38V23.843H3.576A3.581,3.581,0,0,0,0,27.42V63.185A5.968,5.968,0,0,0,5.96,69.145H28.042a10.718,10.718,0,0,0,17.83,0H58.415a5.968,5.968,0,0,0,5.961-5.961v-15.5h9.537ZM64.376,4.07l5.467,5.467H64.376ZM9.537,35.765V61.992H7.153V31H33.38v4.769ZM2.384,63.185V27.42a1.194,1.194,0,0,1,1.192-1.192h29.8v2.384H4.768V64.377H9.317a3.568,3.568,0,0,1-6.934-1.192ZM36.957,71.53a8.355,8.355,0,0,1-8.345-8.345V56.032A1.194,1.194,0,0,1,29.8,54.84H44.11A1.194,1.194,0,0,1,45.3,56.032v7.153A8.355,8.355,0,0,1,36.957,71.53Zm5.961-19.075H31V48.879a5.961,5.961,0,0,1,11.922,0ZM61.992,63.185a3.581,3.581,0,0,1-3.576,3.576H47.06a10.652,10.652,0,0,0,.626-3.576V56.032A3.572,3.572,0,0,0,45.3,52.675v-3.8a8.345,8.345,0,0,0-16.69,0v3.8a3.572,3.572,0,0,0-2.384,3.357v7.153a10.652,10.652,0,0,0,.626,3.576H10.7a5.9,5.9,0,0,0,1.223-3.576V38.149H37.73l5.635-4.507a1.194,1.194,0,0,1,.744-.261H60.8a1.194,1.194,0,0,1,1.192,1.192ZM45.3,29.8a10.729,10.729,0,1,1,21.459,0,10.633,10.633,0,0,1-2.384,6.741V34.573A3.581,3.581,0,0,0,60.8,31H45.372A10.707,10.707,0,0,1,45.3,29.8ZM64.376,45.3V39.893A12.993,12.993,0,0,0,69.145,29.8a13.114,13.114,0,1,0-26.154,1.377,3.576,3.576,0,0,0-1.116.6l-4.981,3.985h-1.13V2.384H61.992v9.537h9.537V45.3Zm0,0" transform="translate(0.001)"/>
      <path id="Trazado_163012" data-name="Trazado 163012" d="M227.576,384a3.568,3.568,0,0,0-1.192,6.934v4.988h2.384v-4.988A3.568,3.568,0,0,0,227.576,384Zm0,4.769a1.192,1.192,0,1,1,1.192-1.192A1.194,1.194,0,0,1,227.576,388.769Zm0,0" transform="translate(-190.619 -326.776)"/>
      <path id="Trazado_163013" data-name="Trazado 163013" d="M304,240h14.306v2.384H304Zm0,0" transform="translate(-258.698 -204.235)"/>
      <path id="Trazado_163014" data-name="Trazado 163014" d="M256,32h2.384v2.384H256Zm0,0" transform="translate(-217.851 -27.231)"/>
      <path id="Trazado_163015" data-name="Trazado 163015" d="M288,32h16.69v2.384H288Zm0,0" transform="translate(-245.082 -27.231)"/>
      <path id="Trazado_163016" data-name="Trazado 163016" d="M256,64h21.459v2.384H256Zm0,0" transform="translate(-217.851 -54.463)"/>
      <path id="Trazado_163017" data-name="Trazado 163017" d="M256,96h7.153v2.384H256Zm0,0" transform="translate(-217.851 -81.694)"/>
    </g>
    <g id="Rectángulo_356239" data-name="Rectángulo 356239" transform="translate(750 3176)" fill="none" stroke="#ff6148" stroke-width="1">
      <rect width="101" height="100" rx="12" stroke="none"/>
      <rect x="0.5" y="0.5" width="100" height="99" rx="11.5" fill="none"/>
    </g>
  </g>
</svg>
