<svg xmlns="http://www.w3.org/2000/svg" width="81.104" height="89.291" viewBox="0 0 81.104 89.291">
  <g id="adjunto-archivo" transform="translate(-23.473)">
    <g id="Grupo_1043983" data-name="Grupo 1043983" transform="translate(24.78 1.308)">
      <path id="Trazado_771138" data-name="Trazado 771138" d="M184.587,68.367H140.674a2.336,2.336,0,0,1-2.336-2.336V9.836A2.336,2.336,0,0,1,140.674,7.5h43.913a2.336,2.336,0,0,1,2.336,2.336V66.031A2.336,2.336,0,0,1,184.587,68.367Z" transform="translate(-119.613 -7.5)" fill="#c8effe"/>
      <path id="Trazado_771139" data-name="Trazado 771139" d="M385.962,9.837V66.031a2.337,2.337,0,0,1-2.337,2.337h-4.2a2.337,2.337,0,0,0,2.337-2.337V9.837A2.337,2.337,0,0,0,379.42,7.5h4.2a2.337,2.337,0,0,1,2.337,2.337Z" transform="translate(-318.652 -7.5)" fill="#99e6fc"/>
      <path id="Trazado_771140" data-name="Trazado 771140" d="M109.782,112.046H65.869a2.336,2.336,0,0,1-2.336-2.336V53.515a2.336,2.336,0,0,1,2.336-2.336h43.913a2.336,2.336,0,0,1,2.336,2.336V109.71A2.336,2.336,0,0,1,109.782,112.046Z" transform="translate(-57.854 -43.562)" fill="#eaf6ff"/>
      <path id="Trazado_771141" data-name="Trazado 771141" d="M311.566,53.515v56.2a2.337,2.337,0,0,1-2.337,2.337H305.11a2.337,2.337,0,0,0,2.337-2.337v-56.2a2.337,2.337,0,0,0-2.337-2.335h4.119A2.337,2.337,0,0,1,311.566,53.515Z" transform="translate(-257.301 -43.562)" fill="#c8effe"/>
      <path id="Trazado_771142" data-name="Trazado 771142" d="M103.958,168.85V213.54A5.956,5.956,0,0,1,98,219.5H36.927a5.956,5.956,0,0,1-5.957-5.956V179.273a5.956,5.956,0,0,1,5.957-5.956H64.3a5.729,5.729,0,0,0,5.2-3.32l1.1-2.367a5.729,5.729,0,0,1,5.2-3.32H99.419A4.539,4.539,0,0,1,103.958,168.85Z" transform="translate(-30.97 -136.963)" fill="#ffd15b"/>
      <path id="Trazado_771143" data-name="Trazado 771143" d="M400.837,168.85V213.54a5.956,5.956,0,0,1-5.956,5.956H390.56a5.956,5.956,0,0,0,5.956-5.956V168.85a4.538,4.538,0,0,0-4.538-4.54h4.32A4.539,4.539,0,0,1,400.837,168.85Z" transform="translate(-327.849 -136.963)" fill="#feb137"/>
      <path id="Trazado_771144" data-name="Trazado 771144" d="M275.932,290.757v24.349a5.956,5.956,0,0,1-5.956,5.956H240.069a7.482,7.482,0,0,1-.8-3.375V294.846a7.517,7.517,0,0,1,7.516-7.516h22.839a7.5,7.5,0,0,1,6.306,3.427Z" transform="translate(-202.943 -238.529)" fill="#feb137"/>
      <path id="Trazado_771145" data-name="Trazado 771145" d="M294.216,325.206h-22.84a7.517,7.517,0,0,1-7.517-7.517V294.85a7.517,7.517,0,0,1,7.517-7.517h22.839a7.517,7.517,0,0,1,7.517,7.517v22.839A7.517,7.517,0,0,1,294.216,325.206Z" transform="translate(-223.245 -238.531)" fill="#0593fc"/>
      <path id="Trazado_771146" data-name="Trazado 771146" d="M417.623,287.333h-4.289a7.517,7.517,0,0,1,7.517,7.517v22.839a7.517,7.517,0,0,1-7.517,7.517h4.289a7.517,7.517,0,0,0,7.517-7.517V294.85A7.517,7.517,0,0,0,417.623,287.333Z" transform="translate(-346.651 -238.531)" fill="#0181fa"/>
      <path id="Trazado_771147" data-name="Trazado 771147" d="M333.786,339.419,327,347.871a3.44,3.44,0,0,1-5.365,0l-6.783-8.452a3.212,3.212,0,0,1,2.49-5.191h2.63v-8.4a1.717,1.717,0,0,1,1.717-1.717h5.256a1.717,1.717,0,0,1,1.717,1.717v8.4h2.63A3.212,3.212,0,0,1,333.786,339.419Z" transform="translate(-264.769 -268.898)" fill="#c8effe"/>
      <path id="Trazado_771148" data-name="Trazado 771148" d="M367.428,339.419l-6.783,8.452a3.44,3.44,0,0,1-5.365,0l-.376-.469a3.419,3.419,0,0,0,2.761-1.283l5.474-6.7a3.212,3.212,0,0,0-2.49-5.191H359.5a1.482,1.482,0,0,1-1.482-1.482v-6.915a1.717,1.717,0,0,0-1.717-1.717h4.289a1.717,1.717,0,0,1,1.717,1.717v8.4h2.63A3.212,3.212,0,0,1,367.428,339.419Z" transform="translate(-298.411 -268.898)" fill="#99e6fc"/>
      <path id="Trazado_771149" data-name="Trazado 771149" d="M96.136,294.465H77.213a2.157,2.157,0,0,1-2.157-2.157V289.49a2.157,2.157,0,0,1,2.157-2.157H96.136a2.157,2.157,0,0,1,2.157,2.157v2.818A2.157,2.157,0,0,1,96.136,294.465Z" transform="translate(-67.368 -238.531)" fill="#eaf6ff"/>
      <path id="Trazado_771150" data-name="Trazado 771150" d="M181.658,289.487v2.818a2.158,2.158,0,0,1-2.157,2.157h-3.47a2.157,2.157,0,0,0,2.157-2.157v-2.818a2.157,2.157,0,0,0-2.157-2.157h3.47A2.158,2.158,0,0,1,181.658,289.487Z" transform="translate(-150.732 -238.529)" fill="#c8effe"/>
      <path id="Trazado_771151" data-name="Trazado 771151" d="M114.856,97.14H106.52a2.378,2.378,0,1,1,0-4.757h8.335a2.378,2.378,0,0,1,0,4.757Z" transform="translate(-91.381 -77.58)" fill="#0593fc"/>
      <path id="Trazado_771152" data-name="Trazado 771152" d="M151.214,94.759a2.379,2.379,0,0,1-2.377,2.379H145.3a2.379,2.379,0,0,0,0-4.758h3.537A2.378,2.378,0,0,1,151.214,94.759Z" transform="translate(-125.361 -77.577)" fill="#0181fa"/>
    </g>
    <g id="Grupo_1043984" data-name="Grupo 1043984" transform="translate(23.473 0)">
      <path id="Trazado_771153" data-name="Trazado 771153" d="M99.077,49.454V33.194a5.854,5.854,0,0,0-5.847-5.847H80.353V11.262a3.648,3.648,0,0,0-3.644-3.644h-31.9V3.644a1.03,1.03,0,0,1,1.028-1.028H89.754a1.03,1.03,0,0,1,1.028,1.028V22.49a1.308,1.308,0,1,0,2.616,0V3.644A3.648,3.648,0,0,0,89.754,0H45.841A3.648,3.648,0,0,0,42.2,3.644V7.617H32.8a3.648,3.648,0,0,0-3.644,3.644V36.53a7.275,7.275,0,0,0-5.678,7.088V77.885a7.272,7.272,0,0,0,7.264,7.264H59.6a1.308,1.308,0,1,0,0-2.616H30.737a4.654,4.654,0,0,1-4.648-4.648V43.618a4.653,4.653,0,0,1,4.648-4.648h27.37a7.059,7.059,0,0,0,6.384-4.078l1.1-2.367A4.434,4.434,0,0,1,69.6,29.963H93.23a3.235,3.235,0,0,1,3.231,3.231V48.833c-.234-.019-.47-.031-.709-.031H72.912a8.835,8.835,0,0,0-8.825,8.825v22.84a8.835,8.835,0,0,0,8.825,8.825h22.84a8.835,8.835,0,0,0,8.825-8.825V57.627a8.837,8.837,0,0,0-5.5-8.172ZM63.215,31.425l-1.1,2.367a4.434,4.434,0,0,1-4.011,2.562H31.767V11.262A1.03,1.03,0,0,1,32.8,10.233H76.708a1.03,1.03,0,0,1,1.028,1.028V27.347H69.6a7.059,7.059,0,0,0-6.384,4.078Zm38.746,49.041a6.216,6.216,0,0,1-6.209,6.209H72.912A6.216,6.216,0,0,1,66.7,80.466V57.627a6.216,6.216,0,0,1,6.209-6.209h22.84a6.3,6.3,0,0,1,6.209,6.209V80.466Z" transform="translate(-23.473 0)"/>
      <path id="Trazado_771154" data-name="Trazado 771154" d="M325.068,326.728h-1.305v-7.089a3.028,3.028,0,0,0-3.025-3.025h-5.256a3.028,3.028,0,0,0-3.025,3.025v7.089h-1.305a4.519,4.519,0,0,0-3.518,7.33l6.773,8.44a4.725,4.725,0,0,0,3.7,1.776h0a4.725,4.725,0,0,0,3.7-1.776l6.773-8.44a4.519,4.519,0,0,0-3.517-7.33Zm1.51,5.654-.022.027-6.783,8.452a2.132,2.132,0,0,1-3.325,0l-6.783-8.452-.022-.027a1.911,1.911,0,0,1,1.4-3.039h2.721a1.308,1.308,0,0,0,1.308-1.308v-8.4a.409.409,0,0,1,.409-.409h5.256a.409.409,0,0,1,.409.409v8.4a1.308,1.308,0,0,0,1.308,1.308h2.668a1.787,1.787,0,0,1,1.636,1.074A1.808,1.808,0,0,1,326.577,332.381Z" transform="translate(-257.25 -261.398)"/>
      <path id="Trazado_771155" data-name="Trazado 771155" d="M71.022,279.833a3.469,3.469,0,0,0-3.465,3.465v2.818a3.469,3.469,0,0,0,3.465,3.465H89.945a3.469,3.469,0,0,0,3.465-3.465V283.3a3.469,3.469,0,0,0-3.465-3.465ZM90.794,283.3v2.818a.85.85,0,0,1-.849.849H71.022a.85.85,0,0,1-.849-.849V283.3a.85.85,0,0,1,.849-.849H89.945A.85.85,0,0,1,90.794,283.3Z" transform="translate(-59.869 -231.031)"/>
      <path id="Trazado_771156" data-name="Trazado 771156" d="M100.328,92.256h8.335a3.686,3.686,0,1,0,0-7.373h-8.335a3.686,3.686,0,1,0,0,7.373Zm0-4.757h8.335a1.07,1.07,0,0,1,0,2.141h-8.335a1.07,1.07,0,1,1,0-2.141Z" transform="translate(-83.882 -70.08)"/>
      <path id="Trazado_771157" data-name="Trazado 771157" d="M218.789,98.521H202.225a1.308,1.308,0,1,0,0,2.616h16.564a1.308,1.308,0,1,0,0-2.616Z" transform="translate(-169.971 -81.339)"/>
      <path id="Trazado_771158" data-name="Trazado 771158" d="M165.493,141.1H154.641a1.308,1.308,0,1,0,0,2.616h10.852a1.308,1.308,0,0,0,0-2.616Z" transform="translate(-130.686 -116.494)"/>
      <path id="Trazado_771159" data-name="Trazado 771159" d="M97.951,143.718h3.7a1.308,1.308,0,1,0,0-2.616h-3.7a1.308,1.308,0,0,0,0,2.616Z" transform="translate(-83.882 -116.494)"/>
      <path id="Trazado_771160" data-name="Trazado 771160" d="M118.689,171.682H97.951a1.308,1.308,0,0,0,0,2.616h20.738a1.308,1.308,0,0,0,0-2.616Z" transform="translate(-83.882 -141.741)"/>
    </g>
  </g>
</svg>
