<svg id="subir" xmlns="http://www.w3.org/2000/svg" width="76.868" height="76.868" viewBox="0 0 76.868 76.868">
  <g id="Grupo_107086" data-name="Grupo 107086" transform="translate(1.126 1.126)">
    <path id="Trazado_162974" data-name="Trazado 162974" d="M105.3,171.474V128.44a4.974,4.974,0,0,0-4.974-4.974H45.608a4.974,4.974,0,0,0-4.974,4.974v43.033Z" transform="translate(-35.659 -106.056)" fill="#7f13ba"/>
    <path id="Trazado_162975" data-name="Trazado 162975" d="M418.687,123.466h-3.453a4.974,4.974,0,0,1,4.974,4.974v43.033h3.453V128.44A4.975,4.975,0,0,0,418.687,123.466Z" transform="translate(-354.02 -106.056)" fill="#083142"/>
    <path id="Trazado_162976" data-name="Trazado 162976" d="M73.765,198.883V157.845a1.244,1.244,0,0,1,1.244-1.244H127.24a1.244,1.244,0,0,1,1.244,1.244v41.038H73.765Z" transform="translate(-63.816 -134.216)" fill="#c0a4ee"/>
    <path id="Trazado_162977" data-name="Trazado 162977" d="M410.4,156.6H406.95a1.244,1.244,0,0,1,1.244,1.244v41.038h3.453V157.845A1.244,1.244,0,0,0,410.4,156.6Z" transform="translate(-346.979 -134.216)" fill="#a173ee"/>
    <path id="Trazado_162978" data-name="Trazado 162978" d="M77.312,448.182H12.3a4.8,4.8,0,0,1-4.8-4.8v-3.944a1.2,1.2,0,0,1,1.2-1.2H80.915a1.2,1.2,0,0,1,1.2,1.2v3.944A4.8,4.8,0,0,1,77.312,448.182Z" transform="translate(-7.5 -373.566)" fill="#e9efff"/>
    <path id="Trazado_162979" data-name="Trazado 162979" d="M456.556,438.233H453.1a1.2,1.2,0,0,1,1.2,1.2v3.944a4.8,4.8,0,0,1-4.8,4.8h3.453a4.8,4.8,0,0,0,4.8-4.8v-3.944A1.2,1.2,0,0,0,456.556,438.233Z" transform="translate(-383.141 -373.566)" fill="#d3dcfb"/>
    <path id="Trazado_162980" data-name="Trazado 162980" d="M145.008,44.808H142.52a2.487,2.487,0,0,1-2.487-2.487V9.987A2.487,2.487,0,0,1,142.52,7.5h24.872a2.487,2.487,0,0,1,2.487,2.487v2.526Z" transform="translate(-120.135 -7.5)" fill="#d2e1f1"/>
    <path id="Trazado_162982" data-name="Trazado 162982" d="M302.72,7.5h-3.453a2.487,2.487,0,0,1,2.487,2.487V17l3.453-4.484V9.987A2.487,2.487,0,0,0,302.72,7.5Z" transform="translate(-255.463 -7.5)" fill="#b0c0d2"/>
    <path id="Trazado_162983" data-name="Trazado 162983" d="M200.611,85.628H175.569a2.4,2.4,0,0,1-2.4-2.4V43.035a2.4,2.4,0,0,1,2.4-2.4h25.042a2.4,2.4,0,0,1,2.4,2.4V83.226A2.4,2.4,0,0,1,200.611,85.628Z" transform="translate(-148.295 -35.659)" fill="#f3f9ff"/>
    <path id="Trazado_162984" data-name="Trazado 162984" d="M248.181,78.741h-7.547a1.2,1.2,0,0,1-1.2-1.2V74.968a1.2,1.2,0,0,1,1.2-1.2h7.547a1.2,1.2,0,0,1,1.2,1.2V77.54A1.2,1.2,0,0,1,248.181,78.741Z" transform="translate(-204.612 -63.818)" fill="#ffca54"/>
    <path id="Trazado_162985" data-name="Trazado 162985" d="M336.42,40.633h-3.453a2.4,2.4,0,0,1,2.4,2.4V83.226a2.4,2.4,0,0,1-2.4,2.4h3.453a2.4,2.4,0,0,0,2.4-2.4V43.035A2.4,2.4,0,0,0,336.42,40.633Z" transform="translate(-284.104 -35.659)" fill="#dee4f0"/>
    <path id="Trazado_162986" data-name="Trazado 162986" d="M278.153,73.767H274.7a1.2,1.2,0,0,1,1.2,1.2V77.54a1.2,1.2,0,0,1-1.2,1.2h3.453a1.2,1.2,0,0,0,1.2-1.2V74.968A1.2,1.2,0,0,0,278.153,73.767Z" transform="translate(-234.584 -63.818)" fill="#ffb476"/>
  </g>
  <g id="Grupo_107087" data-name="Grupo 107087">
    <path id="Trazado_162988" data-name="Trazado 162988" d="M74.541,64.667H71.894V23.511a6.107,6.107,0,0,0-6.1-6.1H56.971V8.5a3.532,3.532,0,0,0-3.528-3.528H52V3.613A3.617,3.617,0,0,0,48.383,0H23.511A3.617,3.617,0,0,0,19.9,3.613v13.8H11.075a6.107,6.107,0,0,0-6.1,6.1V64.667H2.327A2.33,2.33,0,0,0,0,66.994v3.944a5.937,5.937,0,0,0,5.93,5.93H63.542a1.126,1.126,0,1,0,0-2.252H19.663V73.255a1.126,1.126,0,1,0-2.252,0v1.361H14.688V73.255a1.126,1.126,0,1,0-2.252,0v1.361H9.714V73.255a1.126,1.126,0,1,0-2.252,0v1.361H5.93a3.682,3.682,0,0,1-3.678-3.678V66.994a.075.075,0,0,1,.075-.075H29.846v2.6a2.372,2.372,0,0,0,2.37,2.37H44.652a2.372,2.372,0,0,0,2.37-2.37v-2.6H74.541a.075.075,0,0,1,.075.075v3.944a3.682,3.682,0,0,1-3.678,3.678H68.046a1.126,1.126,0,0,0,0,2.252h2.892a5.937,5.937,0,0,0,5.93-5.93V66.994A2.33,2.33,0,0,0,74.541,64.667Zm-8.748-45a3.853,3.853,0,0,1,3.848,3.848V64.667H66.92V24.755a2.372,2.372,0,0,0-2.37-2.37H56.971V19.662ZM54.719,8.5V48.693a1.278,1.278,0,0,1-1.276,1.276H28.4a1.278,1.278,0,0,1-1.276-1.276V38.434h0V8.5A1.278,1.278,0,0,1,28.4,7.226H50.581a1.093,1.093,0,0,0,.578,0h2.283A1.278,1.278,0,0,1,54.719,8.5ZM23.511,2.252H48.383a1.363,1.363,0,0,1,1.361,1.361V4.974H28.4A3.532,3.532,0,0,0,24.872,8.5V37.308H23.511a1.363,1.363,0,0,1-1.361-1.361V3.613a1.363,1.363,0,0,1,1.361-1.361ZM7.227,23.511a3.853,3.853,0,0,1,3.848-3.848H19.9v2.723H12.318a2.372,2.372,0,0,0-2.37,2.37v7.7a1.126,1.126,0,1,0,2.252,0v-7.7a.118.118,0,0,1,.118-.118H19.9v11.31a3.617,3.617,0,0,0,3.613,3.613h1.361v9.133A3.532,3.532,0,0,0,28.4,52.221H53.442a3.532,3.532,0,0,0,3.528-3.528V24.637H64.55a.118.118,0,0,1,.118.118V64.667H12.2V36.955a1.126,1.126,0,1,0-2.252,0V64.667H7.227ZM44.77,69.524a.118.118,0,0,1-.118.118H32.216a.118.118,0,0,1-.118-.118v-2.6H44.77v2.6Z" transform="translate(0 0)"/>
    <path id="Trazado_162989" data-name="Trazado 162989" d="M234.26,73.493h7.547a2.33,2.33,0,0,0,2.327-2.327V68.594a2.33,2.33,0,0,0-2.327-2.327H234.26a2.33,2.33,0,0,0-2.327,2.327v2.572a2.33,2.33,0,0,0,2.327,2.327Zm-.075-4.9a.075.075,0,0,1,.075-.075h7.547a.075.075,0,0,1,.075.075v2.572a.075.075,0,0,1-.075.075H234.26a.075.075,0,0,1-.075-.075Z" transform="translate(-197.112 -56.318)"/>
    <path id="Trazado_162990" data-name="Trazado 162990" d="M219.824,132.533h-19.9a1.126,1.126,0,0,0,0,2.252h19.9a1.126,1.126,0,1,0,0-2.252Z" transform="translate(-168.954 -111.098)"/>
    <path id="Trazado_162991" data-name="Trazado 162991" d="M219.824,165.667h-19.9a1.126,1.126,0,0,0,0,2.252h19.9a1.126,1.126,0,1,0,0-2.252Z" transform="translate(-168.954 -139.258)"/>
    <path id="Trazado_162993" data-name="Trazado 162993" d="M219.824,165.667h-19.9a1.126,1.126,0,0,0,0,2.252h19.9a1.126,1.126,0,1,0,0-2.252Z" transform="translate(-168.954 -127.772)"/>
    <path id="Trazado_162992" data-name="Trazado 162992" d="M231.416,198.8H216.493a1.126,1.126,0,1,0,0,2.252h14.923a1.126,1.126,0,1,0,0-2.252Z" transform="translate(-183.033 -167.416)"/>
    <path id="Trazado_162994" data-name="Trazado 162994" d="M231.416,198.8H216.493a1.126,1.126,0,1,0,0,2.252h14.923a1.126,1.126,0,1,0,0-2.252Z" transform="translate(-183.033 -155.931)"/>
  </g>
</svg>
