<svg xmlns="http://www.w3.org/2000/svg" width="85" height="85" viewBox="0 0 85 85">
  <g id="Grupo_1043941" data-name="Grupo 1043941" transform="translate(-548 -1563)">
    <rect id="Rectángulo_356044" data-name="Rectángulo 356044" width="85" height="85" rx="11" transform="translate(548 1563)" fill="#ff6148"/>
    <g id="wireframe" transform="translate(564 1579)">
      <path id="Trazado_771057" data-name="Trazado 771057" d="M7.5,7.5H44.414V53.59H7.5Z" transform="translate(-6.709 -6.709)" fill="#47477f"/>
      <path id="Trazado_771058" data-name="Trazado 771058" d="M7.5,7.5H44.414v5.273H7.5Z" transform="translate(-6.709 -6.709)" fill="#ffb332"/>
      <path id="Trazado_771059" data-name="Trazado 771059" d="M284.5,144.5h23.2v37.969H284.5Z" transform="translate(-254.494 -129.26)" fill="#746bf9"/>
      <path id="Trazado_771060" data-name="Trazado 771060" d="M284.5,144.5h23.2v5.273H284.5Z" transform="translate(-254.494 -129.26)" fill="#ffb332"/>
      <circle id="Elipse_6096" data-name="Elipse 6096" cx="7.383" cy="7.383" r="7.383" transform="translate(34.225 24.732)" fill="#d3dcfb"/>
      <ellipse id="Elipse_6097" data-name="Elipse 6097" cx="6.057" cy="3.164" rx="6.057" ry="3.164" transform="translate(35.55 33.17)" fill="#ff4155"/>
      <circle id="Elipse_6098" data-name="Elipse 6098" cx="2.637" cy="2.637" r="2.637" transform="translate(38.971 27.896)" fill="#ffb332"/>
      <path id="Trazado_771061" data-name="Trazado 771061" d="M324.5,414.5h14.766v5.273H324.5Z" transform="translate(-290.275 -370.783)" fill="#ff4155"/>
      <circle id="Elipse_6099" data-name="Elipse 6099" cx="7.383" cy="7.383" r="7.383" transform="translate(11.865 10.283)" fill="#d3dcfb"/>
      <path id="Trazado_771062" data-name="Trazado 771062" d="M47.5,277.5H58.047v10.547H47.5Z" transform="translate(-42.49 -248.232)" fill="#ff4155"/>
      <path id="Trazado_771063" data-name="Trazado 771063" d="M184.5,277.5h10.547v10.547H184.5Z" transform="translate(-165.041 -248.232)" fill="#ff4155"/>
      <g id="Grupo_1043940" data-name="Grupo 1043940">
        <path id="Trazado_771064" data-name="Trazado 771064" d="M270.791,26.582h1.055a.791.791,0,0,0,0-1.582h-1.055a.791.791,0,0,0,0,1.582Z" transform="translate(-241.523 -22.363)"/>
        <path id="Trazado_771065" data-name="Trazado 771065" d="M310.791,26.582h1.055a.791.791,0,0,0,0-1.582h-1.055a.791.791,0,0,0,0,1.582Z" transform="translate(-277.305 -22.363)"/>
        <path id="Trazado_771066" data-name="Trazado 771066" d="M53.209,14.449H38.5V.791A.791.791,0,0,0,37.705,0H.791A.791.791,0,0,0,0,.791v46.09a.791.791,0,0,0,.791.791H29.215v5.537a.791.791,0,0,0,.791.791h23.2A.791.791,0,0,0,54,53.209V15.24a.791.791,0,0,0-.791-.791Zm-.791,5.273H30.8V16.031H52.418Zm-23.2,19.3H20.25V30.059h8.965Zm7.7-37.441V5.273H1.582V1.582ZM1.582,46.09V6.855H36.914v7.594H30.006a.791.791,0,0,0-.791.791V28.477H19.459a.791.791,0,0,0-.791.791V39.814a.791.791,0,0,0,.791.791h9.756v1.266H19.459a.791.791,0,0,0,0,1.582h9.756V46.09ZM30.8,52.418V21.3H52.418V52.418Z"/>
        <path id="Trazado_771067" data-name="Trazado 771067" d="M417.791,163.582h1.055a.791.791,0,0,0,0-1.582h-1.055a.791.791,0,0,0,0,1.582Z" transform="translate(-373.02 -144.914)"/>
        <path id="Trazado_771068" data-name="Trazado 771068" d="M457.791,163.582h1.055a.791.791,0,0,0,0-1.582h-1.055a.791.791,0,0,0,0,1.582Z" transform="translate(-408.801 -144.914)"/>
        <path id="Trazado_771069" data-name="Trazado 771069" d="M325.174,227a8.174,8.174,0,1,0,8.174,8.174A8.174,8.174,0,0,0,325.174,227Zm0,14.766a6.58,6.58,0,0,1-5.062-2.374,6.587,6.587,0,0,1,10.125,0A6.58,6.58,0,0,1,325.174,241.766Zm-1.846-8.174a1.846,1.846,0,1,1,1.846,1.846A1.846,1.846,0,0,1,323.328,233.592Zm7.8,4.418a8.193,8.193,0,0,0-3.375-2.155,3.428,3.428,0,1,0-5.143,0,8.193,8.193,0,0,0-3.375,2.155,6.592,6.592,0,1,1,11.9,0Z" transform="translate(-283.566 -203.059)"/>
        <path id="Trazado_771070" data-name="Trazado 771070" d="M332.557,407H317.791a.791.791,0,0,0-.791.791v5.273a.791.791,0,0,0,.791.791h14.766a.791.791,0,0,0,.791-.791v-5.273A.791.791,0,0,0,332.557,407Zm-.791,5.273H318.582v-3.691h13.184Z" transform="translate(-283.566 -364.074)"/>
        <path id="Trazado_771071" data-name="Trazado 771071" d="M113.174,106.348A8.174,8.174,0,1,0,105,98.174,8.174,8.174,0,0,0,113.174,106.348Zm0-14.766a6.592,6.592,0,1,1-6.592,6.592,6.592,6.592,0,0,1,6.592-6.592Z" transform="translate(-93.926 -80.508)"/>
        <path id="Trazado_771072" data-name="Trazado 771072" d="M150.234,141.791a.789.789,0,0,0,1.118,0l2.078-2.077,2.078,2.077a.791.791,0,0,0,1.118-1.118l-2.077-2.078,2.077-2.078a.791.791,0,0,0-1.118-1.118l-2.078,2.077-2.078-2.077a.791.791,0,0,0-1.118,1.118l2.077,2.078-2.077,2.078a.79.79,0,0,0,0,1.118Z" transform="translate(-134.182 -120.929)"/>
        <path id="Trazado_771073" data-name="Trazado 771073" d="M51.338,270H40.791a.791.791,0,0,0-.791.791v10.547a.791.791,0,0,0,.791.791H51.338a.791.791,0,0,0,.791-.791V270.791A.791.791,0,0,0,51.338,270Zm-.791,10.547H41.582v-8.965h8.965Z" transform="translate(-35.781 -241.523)"/>
        <path id="Trazado_771074" data-name="Trazado 771074" d="M51.338,397H40.791a.791.791,0,0,0,0,1.582H51.338a.791.791,0,0,0,0-1.582Z" transform="translate(-35.781 -355.129)"/>
        <path id="Trazado_771075" data-name="Trazado 771075" d="M70.065,305.4a.789.789,0,0,0,1.118,0l1.55-1.549,1.55,1.549a.791.791,0,0,0,1.118-1.118l-1.549-1.55,1.549-1.55a.791.791,0,0,0-1.118-1.118l-1.55,1.549-1.55-1.549a.791.791,0,1,0-1.118,1.118l1.549,1.55-1.549,1.55a.79.79,0,0,0,0,1.118Z" transform="translate(-62.45 -268.192)"/>
        <path id="Trazado_771076" data-name="Trazado 771076" d="M207.234,305.736a.789.789,0,0,0,1.118,0l1.55-1.549,1.55,1.549a.791.791,0,0,0,1.118-1.118l-1.549-1.55,1.549-1.55a.791.791,0,0,0-1.118-1.118l-1.55,1.549-1.55-1.549a.791.791,0,0,0-1.118,1.118l1.549,1.55-1.549,1.55a.79.79,0,0,0,0,1.118Z" transform="translate(-185.17 -268.526)"/>
        <path id="Trazado_771077" data-name="Trazado 771077" d="M355.291,433.582h.527a.791.791,0,0,0,0-1.582h-.527a.791.791,0,0,0,0,1.582Z" transform="translate(-317.111 -386.438)"/>
        <path id="Trazado_771078" data-name="Trazado 771078" d="M385.291,433.582h.527a.791.791,0,0,0,0-1.582h-.527a.791.791,0,0,0,0,1.582Z" transform="translate(-343.947 -386.438)"/>
        <path id="Trazado_771079" data-name="Trazado 771079" d="M415.291,433.582h.527a.791.791,0,0,0,0-1.582h-.527a.791.791,0,0,0,0,1.582Z" transform="translate(-370.783 -386.438)"/>
      </g>
    </g>
  </g>
</svg>
