<svg xmlns="http://www.w3.org/2000/svg" width="85" height="85" viewBox="0 0 85 85">
  <g id="Grupo_1043942" data-name="Grupo 1043942" transform="translate(-758 -1563)">
    <rect id="Rectángulo_356045" data-name="Rectángulo 356045" width="85" height="85" rx="11" transform="translate(758 1563)" fill="#ff6148"/>
    <g id="Filled_outline" data-name="Filled outline" transform="translate(756.191 1561.191)">
      <path id="Trazado_771080" data-name="Trazado 771080" d="M91.84,72h38.4a3.84,3.84,0,0,1,3.84,3.84V105.6a2.88,2.88,0,0,1-2.88,2.88H90.88A2.88,2.88,0,0,1,88,105.6V75.84A3.84,3.84,0,0,1,91.84,72Z" transform="translate(-63.359 -49.279)" fill="#4db7e5"/>
      <path id="Trazado_771081" data-name="Trazado 771081" d="M432.96,72H432v36.484h1.92V72.121A3.848,3.848,0,0,0,432.96,72Z" transform="translate(-366.074 -49.279)" fill="#48add9"/>
      <path id="Trazado_771082" data-name="Trazado 771082" d="M160.644,24h-28.8A3.84,3.84,0,0,0,128,27.84V68.165h36.484V27.84A3.84,3.84,0,0,0,160.644,24Z" transform="translate(-98.558 -7.04)" fill="#348fd9"/>
      <path id="Trazado_771083" data-name="Trazado 771083" d="M175.044,100,140,135.044h35.044Z" transform="translate(-109.118 -73.919)" fill="#3086cd"/>
      <path id="Trazado_771084" data-name="Trazado 771084" d="M200.963,132.482q0,.484-.036.96a12.465,12.465,0,0,1-10.708,11.4c-.257.037-.516.065-.778.085q-.475.036-.96.036t-.96-.036c-.262-.02-.521-.048-.778-.085a12.321,12.321,0,0,1-2.907-.772,12.481,12.481,0,0,1-7.8-10.628q-.036-.475-.036-.96t.036-.96a12.467,12.467,0,0,1,10.572-11.381q.452-.068.913-.1t.96-.036q.485,0,.96.036c.262.02.521.048.778.085a12.317,12.317,0,0,1,2.9.771,12.524,12.524,0,0,1,6.433,5.829,12.382,12.382,0,0,1,1.371,4.8Q200.963,132,200.963,132.482Z" transform="translate(-140.798 -91.518)" fill="#4db7e5"/>
      <path id="Trazado_771085" data-name="Trazado 771085" d="M200.927,133.442q.036-.475.036-.96t-.036-.96h-4.783a24.421,24.421,0,0,0-.658-4.8h4.07a12.408,12.408,0,0,0-1.236-1.92h-3.389a19.744,19.744,0,0,0-1.807-3.909,12.317,12.317,0,0,0-2.9-.77l.67.864a16.818,16.818,0,0,1,2,3.815h-3.45v-4.765q-.475-.036-.96-.036t-.96.036V124.8h-3.45a16.756,16.756,0,0,1,2.014-3.83c.012-.016.022-.032.032-.048l.491-.783a12.361,12.361,0,0,0-2.769.751,19.682,19.682,0,0,0-1.807,3.909h-3.389a12.409,12.409,0,0,0-1.236,1.92h4.07a24.4,24.4,0,0,0-.658,4.8h-4.783q-.036.475-.036.96t.036.96h4.784a24.06,24.06,0,0,0,.917,5.761h-3.776a12.529,12.529,0,0,0,1.515,1.92h2.912a18.68,18.68,0,0,0,1.45,2.948,12.322,12.322,0,0,0,2.907.772l-.67-.865a15.9,15.9,0,0,1-1.609-2.854h3.057v3.8q.475.036.96.036t.96-.036v-3.8H192.5a15.836,15.836,0,0,1-1.609,2.854l-.67.865a12.323,12.323,0,0,0,2.907-.772,18.572,18.572,0,0,0,1.45-2.948h2.912A12.529,12.529,0,0,0,199,139.2h-3.776a24.1,24.1,0,0,0,.917-5.761ZM187.521,139.2h-3.777a21.95,21.95,0,0,1-1-5.761h4.78Zm0-7.681H182.74a22.311,22.311,0,0,1,.716-4.8h4.065Zm5.7,7.681h-3.777v-5.761h4.78a21.994,21.994,0,0,1-1,5.761Zm-3.777-7.681v-4.8h4.065a22.344,22.344,0,0,1,.716,4.8Z" transform="translate(-140.798 -91.518)" fill="#60d1e0"/>
      <path id="Trazado_771086" data-name="Trazado 771086" d="M103.286,360.96a3.278,3.278,0,0,1-2.318.96H93.123a3.278,3.278,0,0,1-2.318-.96,3.278,3.278,0,0,0-2.318-.96H72v2.88a2.88,2.88,0,0,0,2.88,2.88h44.165a2.88,2.88,0,0,0,2.88-2.88V360H105.6a3.278,3.278,0,0,0-2.318.96Z" transform="translate(-49.279 -302.715)" fill="#e0e0de"/>
      <path id="Trazado_771087" data-name="Trazado 771087" d="M434.88,360v2.88a2.88,2.88,0,0,1-2.88,2.88h3.84a2.88,2.88,0,0,0,2.88-2.88V360Z" transform="translate(-366.074 -302.715)" fill="#d6d6d4"/>
      <path id="Trazado_771088" data-name="Trazado 771088" d="M50.883,354.16v12a2.134,2.134,0,0,1-.3,1.089,2.156,2.156,0,0,1-1.865,1.072H26.16A2.156,2.156,0,0,1,24.3,367.25a2.134,2.134,0,0,1-.3-1.089v-12a2.134,2.134,0,0,1,.3-1.089A2.156,2.156,0,0,1,26.16,352H48.723a2.156,2.156,0,0,1,1.865,1.072A2.134,2.134,0,0,1,50.883,354.16Z" transform="translate(-7.04 -295.675)" fill="#ffb531"/>
      <path id="Trazado_771089" data-name="Trazado 771089" d="M52.753,353.072C49.78,354.727,45,355.8,39.606,355.8s-10.174-1.074-13.146-2.729A2.156,2.156,0,0,1,28.325,352H50.888A2.156,2.156,0,0,1,52.753,353.072Z" transform="translate(-9.205 -295.675)" fill="#ffcb73"/>
      <path id="Trazado_771090" data-name="Trazado 771090" d="M52.753,459.059a2.156,2.156,0,0,1-1.865,1.072H28.325a2.156,2.156,0,0,1-1.865-1.072c2.973-1.655,7.754-2.729,13.146-2.729S49.78,457.4,52.753,459.059Z" transform="translate(-9.205 -387.484)" fill="#ffa912"/>
      <path id="Trazado_771091" data-name="Trazado 771091" d="M58.561,216A10.561,10.561,0,0,0,48,226.561v5.761h3.84v-5.761a6.721,6.721,0,1,1,13.442,0v5.761h3.84v-5.761A10.561,10.561,0,0,0,58.561,216Z" transform="translate(-28.16 -175.997)" fill="#e0e0de"/>
      <path id="Trazado_771092" data-name="Trazado 771092" d="M117.758,394.789a2.88,2.88,0,1,0-3.84,2.7v2.1h1.92v-2.1A2.876,2.876,0,0,0,117.758,394.789Z" transform="translate(-84.476 -330.783)" fill="#95573a"/>
      <path id="Trazado_771093" data-name="Trazado 771093" d="M128.966,56.325h-.96V26.561a4.806,4.806,0,0,0-4.8-4.8V20.8a4.806,4.806,0,0,0-4.8-4.8H89.6a4.806,4.806,0,0,0-4.8,4.8v.96a4.806,4.806,0,0,0-4.8,4.8V38.083h1.92V26.561a2.884,2.884,0,0,1,2.88-2.88V37.123h1.92V20.8a2.884,2.884,0,0,1,2.88-2.88h28.8a2.884,2.884,0,0,1,2.88,2.88V53.445h1.92V23.681a2.884,2.884,0,0,1,2.88,2.88V56.325H112.644a4.205,4.205,0,0,0-2.993,1.241,2.309,2.309,0,0,1-1.645.679h-4.964v1.92h4.964a4.217,4.217,0,0,0,3-1.241,2.3,2.3,0,0,1,1.635-.679h15.362v1.92a1.922,1.922,0,0,1-1.92,1.92H103.043v1.92h23.043a3.845,3.845,0,0,0,3.84-3.84v-2.88A.96.96,0,0,0,128.966,56.325Z" transform="translate(-56.319)"/>
      <path id="Trazado_771094" data-name="Trazado 771094" d="M120,272h1.92v6.721H120Z" transform="translate(-91.518 -225.276)"/>
      <path id="Trazado_771095" data-name="Trazado 771095" d="M159.995,48h1.92v1.92h-1.92Z" transform="translate(-126.714 -28.16)"/>
      <path id="Trazado_771096" data-name="Trazado 771096" d="M191.995,48h1.92v1.92h-1.92Z" transform="translate(-154.873 -28.16)"/>
      <path id="Trazado_771097" data-name="Trazado 771097" d="M223.995,48h1.92v1.92h-1.92Z" transform="translate(-183.033 -28.16)"/>
      <path id="Trazado_771098" data-name="Trazado 771098" d="M160,80h28.8v1.92H160Z" transform="translate(-126.718 -56.319)"/>
      <path id="Trazado_771099" data-name="Trazado 771099" d="M181.143,136.583c-.2-.052-.408-.111-.609-.176l-.587,1.828c.236.076.477.146.711.206a13.44,13.44,0,1,0-7.9-20.237A13.273,13.273,0,0,0,171,122.342l1.869.442a11.347,11.347,0,0,1,1.238-3.1h2.97a24.528,24.528,0,0,0-.676,5.761c0,.665.027,1.337.08,2l1.914-.153c-.023-.293-.041-.588-.053-.884h4.78v5.761h-2.88v1.92h2.88v2.837A11.5,11.5,0,0,1,181.143,136.583Zm10.55-2.5a11.566,11.566,0,0,1-2.185,1.518c.241-.491.466-1,.668-1.518Zm1.742-1.92h-2.609a24.147,24.147,0,0,0,.918-5.761h3.821A11.319,11.319,0,0,1,193.435,132.165ZM181.49,114.219a11.468,11.468,0,0,1,1.631-.254v3.8h-3.448a16.978,16.978,0,0,1,1.817-3.544Zm3.551-.254a11.491,11.491,0,0,1,1.631.254,16.976,16.976,0,0,1,1.817,3.544h-3.448Zm4.064,5.718a22.33,22.33,0,0,1,.716,4.8h-4.78v-4.8Zm6.457,4.8h-3.818a24.361,24.361,0,0,0-.658-4.8h2.969a11.412,11.412,0,0,1,1.506,4.8Zm-2.9-6.721H190.53a20.628,20.628,0,0,0-1.031-2.492,11.415,11.415,0,0,1,3.165,2.492Zm-14-2.492a20.63,20.63,0,0,0-1.031,2.492H175.5A11.413,11.413,0,0,1,178.664,115.271Zm-.323,9.213a22.323,22.323,0,0,1,.716-4.8h4.064v4.8Zm6.7,1.92h4.781a21.993,21.993,0,0,1-1,5.761h-3.776Zm3.055,7.681a16.01,16.01,0,0,1-1.421,2.583,11.455,11.455,0,0,1-1.633.254v-2.838Z" transform="translate(-136.398 -84.481)"/>
      <path id="Trazado_771100" data-name="Trazado 771100" d="M41.923,224.341v-4.82a11.521,11.521,0,1,0-23.043,0v4.82A3.233,3.233,0,0,0,16,227.55v11.785a3.232,3.232,0,0,0,3.228,3.228H41.575a3.232,3.232,0,0,0,3.228-3.228V227.55a3.233,3.233,0,0,0-2.88-3.209ZM30.4,209.92a9.612,9.612,0,0,1,9.6,9.6v4.8h-1.92v-4.8a7.681,7.681,0,1,0-15.362,0v4.8H20.8v-4.8A9.612,9.612,0,0,1,30.4,209.92Zm5.761,14.4H24.641v-4.8a5.761,5.761,0,1,1,11.521,0Zm6.721,15.014a1.31,1.31,0,0,1-1.308,1.308H19.228a1.31,1.31,0,0,1-1.308-1.308V227.55a1.31,1.31,0,0,1,1.308-1.308H41.575a1.31,1.31,0,0,1,1.308,1.308Z" transform="translate(0 -168.957)"/>
      <path id="Trazado_771101" data-name="Trazado 771101" d="M114.887,392a2.88,2.88,0,0,0-.96,5.6v2.085h1.92V397.6a2.88,2.88,0,0,0-.96-5.6Zm0,3.84a.96.96,0,1,1,.96-.96A.96.96,0,0,1,114.887,395.84Z" transform="translate(-84.485 -330.875)"/>
    </g>
  </g>
</svg>
