<svg xmlns="http://www.w3.org/2000/svg" xmlns:xlink="http://www.w3.org/1999/xlink" width="85" height="85" viewBox="0 0 85 85">
  <defs>
    <clipPath id="clip-path">
      <path id="path7221" d="M0-682.665H63.636v63.636H0Z" transform="translate(0 682.665)"/>
    </clipPath>
  </defs>
  <g id="Grupo_1043943" data-name="Grupo 1043943" transform="translate(-968 -1563)">
    <rect id="Rectángulo_356046" data-name="Rectángulo 356046" width="85" height="85" rx="11" transform="translate(968 1563)" fill="#ff6148"/>
    <g id="g7215" transform="translate(979 2256.665)">
      <g id="g7217" transform="translate(0 -682.665)">
        <g id="g7219" clip-path="url(#clip-path)">
          <g id="g7225" transform="translate(21.426 1.23)">
            <path id="path7227" d="M-198.461-110.044l-2.3,2.3a1.3,1.3,0,0,1-1.842,0l-2.936-2.936v49.2a1.3,1.3,0,0,1-1.3,1.3H-210.1a1.3,1.3,0,0,1-1.3-1.3v-49.2l-2.936,2.936a1.3,1.3,0,0,1-1.842,0l-2.3-2.3a1.3,1.3,0,0,1,0-1.842l9.089-9.089a1.3,1.3,0,0,1,1.842,0l9.089,9.089a1.3,1.3,0,0,1,0,1.842" transform="translate(218.863 121.356)" fill="#fcdd45"/>
          </g>
          <g id="g7229" transform="translate(31.813 11.908)">
            <path id="path7231" d="M-28.552-372.758v-38.319h-2.309a.621.621,0,0,0-.621.621c0,4.425-.006,31.175,0,37.7Z" transform="translate(31.487 411.078)" fill="#f8c52d"/>
          </g>
          <g id="g7233" transform="translate(28.588 1.23)">
            <path id="path7235" d="M-128.8-110.044l-2.3,2.3a1.288,1.288,0,0,1-.481.3,1.3,1.3,0,0,0-.009-1.832l-9.09-9.09a1.3,1.3,0,0,0-1.358-.306l2.309-2.309a1.3,1.3,0,0,1,1.842,0l9.089,9.089a1.3,1.3,0,0,1,0,1.842" transform="translate(142.04 121.356)" fill="#f8c52d"/>
          </g>
          <g id="g7237" transform="translate(20.495 0.298)">
            <path id="path7239" d="M-139.955-129.678h-3.256a2.237,2.237,0,0,1-2.235-2.235v-46.945l-1.344,1.344a2.22,2.22,0,0,1-1.58.655,2.22,2.22,0,0,1-1.58-.655l-2.3-2.3a2.237,2.237,0,0,1,0-3.16l9.089-9.089a2.237,2.237,0,0,1,3.16,0l9.089,9.089a2.22,2.22,0,0,1,.655,1.58,2.22,2.22,0,0,1-.655,1.58l-2.3,2.3a2.219,2.219,0,0,1-1.58.655,2.22,2.22,0,0,1-1.58-.655l-1.344-1.344v4.1a.932.932,0,0,1-.932.932.932.932,0,0,1-.932-.932v-6.354a.932.932,0,0,1,.575-.861.932.932,0,0,1,1.016.2l2.936,2.936a.369.369,0,0,0,.262.109.368.368,0,0,0,.262-.108l2.3-2.3a.369.369,0,0,0,.108-.262.368.368,0,0,0-.108-.262l-9.09-9.09a.371.371,0,0,0-.524,0l-9.089,9.089a.371.371,0,0,0,0,.524l2.3,2.3a.368.368,0,0,0,.262.109.369.369,0,0,0,.262-.109l2.936-2.936a.932.932,0,0,1,1.016-.2.932.932,0,0,1,.575.861v49.2a.371.371,0,0,0,.37.37h3.256a.371.371,0,0,0,.37-.37v-38.7a.932.932,0,0,1,.932-.932.932.932,0,0,1,.932.932v38.7A2.237,2.237,0,0,1-139.955-129.678Z" transform="translate(152.905 192.719)"/>
          </g>
          <g id="g7241" transform="translate(0.932 13.741)">
            <path id="path7243" d="M-102.414-74.054l3.087-3.087a1.3,1.3,0,0,0,0-1.842l-2.3-2.3a1.3,1.3,0,0,0-1.842,0l-9.089,9.09a1.3,1.3,0,0,0,0,1.842l9.089,9.089a1.3,1.3,0,0,0,1.842,0l2.3-2.3a1.3,1.3,0,0,0,0-1.842l-2.679-2.68a20.265,20.265,0,0,1,17.02,19.977v2.93h5.861v-2.93a26.131,26.131,0,0,0-23.288-25.943" transform="translate(112.942 81.667)" fill="#fb4a59"/>
          </g>
          <g id="g7245" transform="translate(10.082 21.354)">
            <path id="path7247" d="M-13.416,0A26.131,26.131,0,0,1,9.872,25.943v2.931H6.942V26.88c0-12.369-8.478-22.5-21.217-24.64a.621.621,0,0,1-.335-1.052Z" transform="translate(14.795)" fill="#f82f41"/>
          </g>
          <g id="g7249" transform="translate(0 12.81)">
            <path id="path7251" d="M-49.207-162.864h-5.861A.932.932,0,0,1-56-163.8v-2.93a19.49,19.49,0,0,0-13.048-18.256l.3.3a2.219,2.219,0,0,1,.654,1.58,2.22,2.22,0,0,1-.654,1.58l-2.3,2.3a2.22,2.22,0,0,1-1.58.654,2.22,2.22,0,0,1-1.58-.654l-2.577-2.577a.932.932,0,0,1,0-1.318.932.932,0,0,1,1.318,0l2.577,2.577a.369.369,0,0,0,.262.108.369.369,0,0,0,.262-.108l2.3-2.3a.369.369,0,0,0,.108-.262.368.368,0,0,0-.108-.262l-2.679-2.68a.932.932,0,0,1-.171-1.083.932.932,0,0,1,.978-.5,21.069,21.069,0,0,1,17.8,20.9v2h4v-2A25.108,25.108,0,0,0-72.6-191.743a.932.932,0,0,1-.779-.617.932.932,0,0,1,.22-.969l3.087-3.087a.371.371,0,0,0,0-.524l-2.3-2.3a.371.371,0,0,0-.524,0l-9.089,9.089a.369.369,0,0,0-.108.262.369.369,0,0,0,.108.262l3.584,3.584a.932.932,0,0,1,0,1.318.932.932,0,0,1-1.318,0l-3.584-3.584a2.22,2.22,0,0,1-.654-1.58,2.22,2.22,0,0,1,.654-1.58l9.089-9.09a2.237,2.237,0,0,1,3.16,0l2.3,2.3a2.237,2.237,0,0,1,0,3.16l-1.769,1.769a26.969,26.969,0,0,1,22.243,26.6v2.93A.932.932,0,0,1-49.207-162.864Z" transform="translate(83.956 201.214)"/>
          </g>
          <g id="g7253" transform="translate(28.888 20.711)">
            <path id="path7255" d="M-325.241-92.131l-9.089-9.089a1.3,1.3,0,0,0-1.842,0l-2.3,2.3a1.3,1.3,0,0,0,0,1.842l3.087,3.087a26.131,26.131,0,0,0-23.288,25.943v6.838a1.3,1.3,0,0,0,1.3,1.3h3.256a1.3,1.3,0,0,0,1.3-1.3v-6.838a20.265,20.265,0,0,1,17.02-19.977l-2.679,2.679a1.3,1.3,0,0,0,0,1.842l2.3,2.3a1.3,1.3,0,0,0,1.842,0l9.089-9.089a1.3,1.3,0,0,0,0-1.842" transform="translate(358.675 101.602)" fill="#31a7fb"/>
          </g>
          <g id="g7257" transform="translate(50.089 20.711)">
            <path id="path7259" d="M-118.994-110.053l-9.089,9.089a1.3,1.3,0,0,1-1.842,0l-1.3-1.3,7.788-7.788a1.3,1.3,0,0,0,0-1.842l-7.788-7.788,1.3-1.3a1.3,1.3,0,0,1,1.842,0l9.089,9.089a1.3,1.3,0,0,1,0,1.842" transform="translate(131.226 121.366)" fill="#1c96f9"/>
          </g>
          <g id="g7261" transform="translate(27.955 19.779)">
            <path id="path7263" d="M-100.648-211.064H-103.9a2.237,2.237,0,0,1-2.235-2.235v-6.837a26.969,26.969,0,0,1,22.243-26.6l-1.769-1.769a2.219,2.219,0,0,1-.655-1.58,2.22,2.22,0,0,1,.655-1.58l2.3-2.3a2.22,2.22,0,0,1,1.58-.655,2.22,2.22,0,0,1,1.58.655l9.089,9.089a2.22,2.22,0,0,1,.655,1.58,2.22,2.22,0,0,1-.655,1.58l-9.089,9.089a2.238,2.238,0,0,1-3.16,0l-2.3-2.3a2.22,2.22,0,0,1-.655-1.58,2.22,2.22,0,0,1,.655-1.58l.306-.306a19.371,19.371,0,0,0-10.1,8.007.932.932,0,0,1-1.286.292.932.932,0,0,1-.292-1.286,21.192,21.192,0,0,1,14.56-9.648.932.932,0,0,1,.978.5.932.932,0,0,1-.171,1.083l-2.679,2.679a.368.368,0,0,0-.109.262.369.369,0,0,0,.109.262l2.3,2.3a.371.371,0,0,0,.524,0l9.089-9.089a.369.369,0,0,0,.109-.262.368.368,0,0,0-.108-.262l-9.089-9.089a.369.369,0,0,0-.262-.109.368.368,0,0,0-.262.108l-2.3,2.3a.369.369,0,0,0-.108.262.368.368,0,0,0,.108.262l3.087,3.087a.932.932,0,0,1,.22.969.932.932,0,0,1-.779.617,25.108,25.108,0,0,0-22.456,25.016v6.837a.371.371,0,0,0,.37.37h3.256a.371.371,0,0,0,.37-.37v-6.837a21.033,21.033,0,0,1,1.323-7.366.932.932,0,0,1,1.2-.548.932.932,0,0,1,.548,1.2,19.174,19.174,0,0,0-1.206,6.715v6.837A2.237,2.237,0,0,1-100.648-211.064Z" transform="translate(106.138 254.624)"/>
          </g>
        </g>
      </g>
    </g>
  </g>
</svg>
