<svg xmlns="http://www.w3.org/2000/svg" width="85" height="85" viewBox="0 0 85 85">
  <g id="Grupo_1043973" data-name="Grupo 1043973" transform="translate(-1178 -1563)">
    <rect id="Rectángulo_356047" data-name="Rectángulo 356047" width="85" height="85" rx="11" transform="translate(1178 1563)" fill="#ff6148"/>
    <g id="conexion" transform="translate(1189 1574)">
      <g id="Grupo_1043972" data-name="Grupo 1043972">
        <g id="Grupo_1043944" data-name="Grupo 1043944">
          <path id="Trazado_771102" data-name="Trazado 771102" d="M38,56.4c3.59.52,6,1.49,6,2.6,0,1.66-5.37,3-12,3s-12-1.34-12-3c0-1.11,2.41-2.08,6-2.6V57a1,1,0,0,0,1,1H37a1,1,0,0,0,1-1Z" fill="#969faa"/>
        </g>
        <g id="Grupo_1043945" data-name="Grupo 1043945">
          <path id="Trazado_771103" data-name="Trazado 771103" d="M38,56.4V57a1,1,0,0,1-1,1H27a1,1,0,0,1-1-1V52H38Z" fill="#aab2bd"/>
        </g>
        <g id="Grupo_1043946" data-name="Grupo 1043946">
          <path id="Trazado_771104" data-name="Trazado 771104" d="M10,46H54v4a2.006,2.006,0,0,1-2,2H12a2.006,2.006,0,0,1-2-2Z" fill="#ccd1d9"/>
        </g>
        <g id="Grupo_1043947" data-name="Grupo 1043947">
          <path id="Trazado_771105" data-name="Trazado 771105" d="M54,46H10V24a2,2,0,0,1,2-2H52a2,2,0,0,1,2,2Z" fill="#69d6f4"/>
        </g>
        <g id="Grupo_1043948" data-name="Grupo 1043948">
          <circle id="Elipse_6100" data-name="Elipse 6100" cx="8" cy="8" r="8" transform="translate(2 26)" fill="#e6e9ed"/>
        </g>
        <g id="Grupo_1043949" data-name="Grupo 1043949">
          <circle id="Elipse_6101" data-name="Elipse 6101" cx="8" cy="8" r="8" transform="translate(2 2)" fill="#e6e9ed"/>
        </g>
        <g id="Grupo_1043950" data-name="Grupo 1043950">
          <circle id="Elipse_6102" data-name="Elipse 6102" cx="8" cy="8" r="8" transform="translate(46 26)" fill="#e6e9ed"/>
        </g>
        <g id="Grupo_1043951" data-name="Grupo 1043951">
          <circle id="Elipse_6103" data-name="Elipse 6103" cx="13" cy="13" r="13" transform="translate(19 10)" fill="#e6e9ed"/>
        </g>
        <g id="Grupo_1043952" data-name="Grupo 1043952">
          <circle id="Elipse_6104" data-name="Elipse 6104" cx="8" cy="8" r="8" transform="translate(46 2)" fill="#e6e9ed"/>
        </g>
        <g id="Grupo_1043953" data-name="Grupo 1043953">
          <path id="Trazado_771106" data-name="Trazado 771106" d="M58.95,40.28v.01a8.019,8.019,0,0,1-9.9,0v-.01a5,5,0,0,1,9.9,0Z" fill="#fcd770"/>
        </g>
        <g id="Grupo_1043954" data-name="Grupo 1043954">
          <path id="Trazado_771107" data-name="Trazado 771107" d="M58.95,16.28v.01a8.019,8.019,0,0,1-9.9,0v-.01a5,5,0,0,1,9.9,0Z" fill="#b4dd7f"/>
        </g>
        <g id="Grupo_1043955" data-name="Grupo 1043955">
          <path id="Trazado_771108" data-name="Trazado 771108" d="M14.95,16.28v.01a8.019,8.019,0,0,1-9.9,0v-.01a5,5,0,0,1,9.9,0Z" fill="#4fc1e9"/>
        </g>
        <g id="Grupo_1043956" data-name="Grupo 1043956">
          <path id="Trazado_771109" data-name="Trazado 771109" d="M14.95,40.28v.01a8.019,8.019,0,0,1-9.9,0v-.01a5,5,0,0,1,9.9,0Z" fill="#ff826e"/>
        </g>
        <g id="Grupo_1043957" data-name="Grupo 1043957">
          <path id="Trazado_771110" data-name="Trazado 771110" d="M35.39,18a7.932,7.932,0,0,1-4.92-1.7,12.117,12.117,0,0,1-3.15,1.59L27,18H26a2.012,2.012,0,0,0-1.2.4l-.54-1.61A5.246,5.246,0,0,1,24,15.16a5.14,5.14,0,0,1,1.07-3.15,12.951,12.951,0,0,1,13.86,0A5.14,5.14,0,0,1,40,15.16a5.247,5.247,0,0,1-.26,1.63L39.2,18.4A2.012,2.012,0,0,0,38,18H35.39Z" fill="#656d78"/>
        </g>
        <g id="Grupo_1043958" data-name="Grupo 1043958">
          <path id="Trazado_771111" data-name="Trazado 771111" d="M31,32h2l.96,3.85a12.88,12.88,0,0,1-3.92,0Z" fill="#ff826e"/>
        </g>
        <g id="Grupo_1043959" data-name="Grupo 1043959">
          <path id="Trazado_771112" data-name="Trazado 771112" d="M33,32H31l-1-2,2-1,2,1Z" fill="#fc6e51"/>
        </g>
        <g id="Grupo_1043960" data-name="Grupo 1043960">
          <path id="Trazado_771113" data-name="Trazado 771113" d="M41.23,32.15a12.912,12.912,0,0,1-7.27,3.7L33,32l1-2,2,1,1.43-3.39a9.974,9.974,0,0,1,3.8,4.54Z" fill="#fcd770"/>
        </g>
        <g id="Grupo_1043961" data-name="Grupo 1043961">
          <path id="Trazado_771114" data-name="Trazado 771114" d="M30,30l1,2-.96,3.85a12.912,12.912,0,0,1-7.27-3.7,10,10,0,0,1,3.62-4.43,2.734,2.734,0,0,1,.43-.26L28,31Z" fill="#fcd770"/>
        </g>
        <g id="Grupo_1043962" data-name="Grupo 1043962">
          <path id="Trazado_771115" data-name="Trazado 771115" d="M37.43,27.61,36,31l-2-1-2-1,2.64-2.64A9.385,9.385,0,0,1,37.43,27.61Z" fill="#ffc729"/>
        </g>
        <g id="Grupo_1043963" data-name="Grupo 1043963">
          <path id="Trazado_771116" data-name="Trazado 771116" d="M32,29l-2,1-2,1-1.18-3.54v-.01l2.54-1.09Z" fill="#ffc729"/>
        </g>
        <g id="Grupo_1043964" data-name="Grupo 1043964">
          <circle id="Elipse_6105" data-name="Elipse 6105" cx="3" cy="3" r="3" transform="translate(51 30)" fill="#f0d0b4"/>
        </g>
        <g id="Grupo_1043965" data-name="Grupo 1043965">
          <circle id="Elipse_6106" data-name="Elipse 6106" cx="3" cy="3" r="3" transform="translate(51 6)" fill="#f0d0b4"/>
        </g>
        <g id="Grupo_1043966" data-name="Grupo 1043966">
          <path id="Trazado_771117" data-name="Trazado 771117" d="M39.2,18.4A2.027,2.027,0,0,1,40,20a2.015,2.015,0,0,1-2,2H36.5l.5-4h1A2.012,2.012,0,0,1,39.2,18.4Z" fill="#f0d0b4"/>
        </g>
        <g id="Grupo_1043967" data-name="Grupo 1043967">
          <path id="Trazado_771118" data-name="Trazado 771118" d="M34.64,26.36,32,29l-2.64-2.64a9.86,9.86,0,0,1,5.28,0Z" fill="#f0d0b4"/>
        </g>
        <g id="Grupo_1043968" data-name="Grupo 1043968">
          <path id="Trazado_771119" data-name="Trazado 771119" d="M37,18l-.5,4-.17,1.37A3.01,3.01,0,0,1,33.35,26h-2.7a3.01,3.01,0,0,1-2.98-2.63L27.5,22,27,18l.32-.11a12.117,12.117,0,0,0,3.15-1.59A7.932,7.932,0,0,0,35.39,18Z" fill="#f0d0b4"/>
        </g>
        <g id="Grupo_1043969" data-name="Grupo 1043969">
          <path id="Trazado_771120" data-name="Trazado 771120" d="M27,18l.5,4H26a2.015,2.015,0,0,1-2-2,2,2,0,0,1,2-2Z" fill="#f0d0b4"/>
        </g>
        <g id="Grupo_1043970" data-name="Grupo 1043970">
          <circle id="Elipse_6107" data-name="Elipse 6107" cx="3" cy="3" r="3" transform="translate(7 30)" fill="#f0d0b4"/>
        </g>
        <g id="Grupo_1043971" data-name="Grupo 1043971">
          <circle id="Elipse_6108" data-name="Elipse 6108" cx="3" cy="3" r="3" transform="translate(7 6)" fill="#f0d0b4"/>
        </g>
      </g>
      <path id="Trazado_771121" data-name="Trazado 771121" d="M55,25.059V24a3,3,0,0,0-3-3H45.84a13.867,13.867,0,0,0-1.324-4.235l2.3-1.361A8.99,8.99,0,1,0,45.8,13.685L43.5,15.041a13.973,13.973,0,0,0-23.007,0L18.2,13.685A9.061,9.061,0,1,0,17.18,15.4l2.3,1.361A13.886,13.886,0,0,0,18.159,21H12a3,3,0,0,0-3,3v1.059A9,9,0,0,0,9,42.941V50a3,3,0,0,0,3,3H25v2.557c-3.965.682-6,1.835-6,3.443,0,3.158,8.172,4,13,4s13-.842,13-4c0-1.608-2.035-2.76-6-3.443V53H52a3,3,0,0,0,3-3V42.941a9,9,0,0,0,0-17.882Zm-4.823-9.2a3.986,3.986,0,0,1,7.646,0,6.965,6.965,0,0,1-7.646,0ZM52,9a2,2,0,1,1,2,2A2,2,0,0,1,52,9Zm2-6a7,7,0,0,1,5.4,11.445,6.032,6.032,0,0,0-2.522-2.684,4,4,0,1,0-5.762,0A6.032,6.032,0,0,0,48.6,14.446,7,7,0,0,1,54,3ZM6.177,15.857a3.986,3.986,0,0,1,7.646,0,6.965,6.965,0,0,1-7.646,0ZM8,9a2,2,0,1,1,2,2A2,2,0,0,1,8,9Zm7.4,5.445a6.032,6.032,0,0,0-2.522-2.684,4,4,0,1,0-5.762,0A6.032,6.032,0,0,0,4.6,14.446a7,7,0,1,1,10.806,0ZM52,23a1,1,0,0,1,1,1v1.059a9.005,9.005,0,0,0-6.545,4.05l-1.522-.761A13.906,13.906,0,0,0,46,23Zm0,10a2,2,0,1,1,2,2A2,2,0,0,1,52,33Zm2,4a4.015,4.015,0,0,1,3.823,2.857,6.965,6.965,0,0,1-7.646,0A4.015,4.015,0,0,1,54,37Zm-1,5.941V45H11V42.941A8.969,8.969,0,0,0,18.438,30.9l1.536-.768a13.962,13.962,0,0,0,24.052,0l1.536.768A8.969,8.969,0,0,0,53,42.941ZM8,33a2,2,0,1,1,2,2A2,2,0,0,1,8,33Zm2,4a4.015,4.015,0,0,1,3.823,2.857,6.965,6.965,0,0,1-7.646,0A4.015,4.015,0,0,1,10,37ZM30.648,25a2,2,0,0,1-1.984-1.752l-.572-4.577a12.94,12.94,0,0,0,2.344-1.16A8.928,8.928,0,0,0,35.385,19h.482l-.531,4.248A2,2,0,0,1,33.352,25ZM26,19h.117l.25,2H26a1,1,0,0,1,0-2Zm12,0a1,1,0,0,1,0,2h-.367l.25-2Zm-6,8c.185,0,.363.029.546.041L32,27.586l-.546-.546C31.637,27.029,31.815,27,32,27Zm0,3.118.658.329L32.382,31h-.764l-.276-.553ZM31.78,33h.439l.491,1.964c-.236.014-.47.036-.71.036s-.474-.022-.71-.036ZM34.7,34.682l-.641-2.565.388-.775,2.061,1.03,1.345-3.2A8.964,8.964,0,0,1,40,31.922a11.962,11.962,0,0,1-5.3,2.76Zm.791-5.054-1.8-.9L34.915,27.5a8.938,8.938,0,0,1,1.247.536ZM29.085,27.5l1.227,1.227-1.728.864-.555-1.663a8.971,8.971,0,0,1,1.056-.428ZM26.3,29.056l1.118,3.354,2.137-1.068.388.775L29.3,34.682A11.974,11.974,0,0,1,24,31.921a8.955,8.955,0,0,1,2.3-2.865ZM44,23a11.928,11.928,0,0,1-2.55,7.37,10.956,10.956,0,0,0-5.284-4.55A3.964,3.964,0,0,0,37.32,23.5l.062-.5H38a3,3,0,0,0,3-3,2.97,2.97,0,0,0-.661-1.855l.345-1.035A6.156,6.156,0,0,0,41,15.162c0-.027-.006-.053-.007-.08A11.938,11.938,0,0,1,44,23ZM38.224,12.76a4.109,4.109,0,0,1,.776,2.4,4.178,4.178,0,0,1-.213,1.316l-.194.581a3.051,3.051,0,0,0-.462-.047l0-.012H37.15a5.856,5.856,0,0,1-4.18-4.243l-1.939.485A7.854,7.854,0,0,0,32.7,16.449a6.907,6.907,0,0,1-3.775-3.821l-1.857.743a8.952,8.952,0,0,0,1.759,2.748,11.023,11.023,0,0,1-1.83.826L26.837,17H26a2.974,2.974,0,0,0-.593.06l-.193-.58A4.172,4.172,0,0,1,25,15.162a4.1,4.1,0,0,1,.778-2.4,11.885,11.885,0,0,1,12.446,0ZM23.007,15.082c0,.027-.007.053-.007.08a6.167,6.167,0,0,0,.316,1.949l.345,1.033A2.983,2.983,0,0,0,26,23h.618l.062.5a3.975,3.975,0,0,0,1.154,2.324,10.956,10.956,0,0,0-5.284,4.55,11.927,11.927,0,0,1,.457-15.288ZM12,23h6a13.906,13.906,0,0,0,1.067,5.348l-1.522.761A9,9,0,0,0,11,25.059V24a1,1,0,0,1,1-1ZM3,34a7,7,0,1,1,12.4,4.445,6.032,6.032,0,0,0-2.522-2.684,4,4,0,1,0-5.762,0A6.032,6.032,0,0,0,4.6,38.446,6.974,6.974,0,0,1,3,34ZM32,61c-6.455,0-10.394-1.242-10.966-2,.244-.286,1.32-.938,4.057-1.438A2,2,0,0,0,27,59H37a2,2,0,0,0,1.909-1.434c2.737.5,3.813,1.152,4.057,1.438C42.394,59.758,38.455,61,32,61Zm5-4H27V53H37Zm15-6H51V49H49v2H47V49H45v2H43V49H41v2H12a1,1,0,0,1-1-1V47H53v3A1,1,0,0,1,52,51Zm7.4-12.555a6.032,6.032,0,0,0-2.522-2.684,4,4,0,1,0-5.762,0A6.032,6.032,0,0,0,48.6,38.446a7,7,0,1,1,10.806,0Z"/>
    </g>
  </g>
</svg>
