<svg xmlns="http://www.w3.org/2000/svg" xmlns:xlink="http://www.w3.org/1999/xlink" width="715" height="541" viewBox="0 0 715 541">
  <defs>
    <clipPath id="clip-path">
      <path id="Trazado_165434" data-name="Trazado 165434" d="M5.478,2.738A2.739,2.739,0,1,0,2.74,5.478a2.739,2.739,0,0,0,2.738-2.74" fill="#ffb476"/>
    </clipPath>
    <clipPath id="clip-path-2">
      <path id="Trazado_165436" data-name="Trazado 165436" d="M5.478,2.739A2.739,2.739,0,1,0,2.739,5.478h0A2.741,2.741,0,0,0,5.478,2.739" fill="#ffb476"/>
    </clipPath>
    <clipPath id="clip-path-3">
      <path id="Trazado_165438" data-name="Trazado 165438" d="M2.739,5.476A2.738,2.738,0,1,0,0,2.736,2.738,2.738,0,0,0,2.739,5.476Z" fill="#ffb476"/>
    </clipPath>
    <clipPath id="clip-path-4">
      <path id="Trazado_165440" data-name="Trazado 165440" d="M5.476,2.737a2.738,2.738,0,1,0-2.738,2.74,2.739,2.739,0,0,0,2.738-2.74" fill="#ffb476"/>
    </clipPath>
    <clipPath id="clip-path-5">
      <path id="Trazado_165442" data-name="Trazado 165442" d="M5.476,2.737A2.738,2.738,0,1,0,2.738,5.476,2.738,2.738,0,0,0,5.476,2.737" fill="#ffb476"/>
    </clipPath>
    <clipPath id="clip-path-6">
      <path id="Trazado_165444" data-name="Trazado 165444" d="M2.739,5.476A2.738,2.738,0,1,0,0,2.737,2.738,2.738,0,0,0,2.739,5.476Z" fill="#ffb476"/>
    </clipPath>
    <clipPath id="clip-path-8">
      <path id="Trazado_165448" data-name="Trazado 165448" d="M5.478,2.739a2.739,2.739,0,1,0-2.74,2.739h0A2.742,2.742,0,0,0,5.478,2.739" fill="#ffb476"/>
    </clipPath>
    <clipPath id="clip-path-10">
      <path id="Trazado_165452" data-name="Trazado 165452" d="M5.476,2.737a2.738,2.738,0,1,0-2.738,2.74,2.738,2.738,0,0,0,2.738-2.74" fill="#ffb476"/>
    </clipPath>
  </defs>
  <g id="Grupo_1044016" data-name="Grupo 1044016" transform="translate(-442.999 -3961)">
    <g id="Grupo_1043675" data-name="Grupo 1043675" transform="translate(52.999)">
      <line id="Línea_259" data-name="Línea 259" x2="58" transform="translate(612.5 4334.5)" fill="none" stroke="#083142" stroke-linecap="round" stroke-width="2"/>
      <g id="Grupo_1043665" data-name="Grupo 1043665" transform="translate(483.727 4145.201)">
        <g id="Rectángulo_356063" data-name="Rectángulo 356063" transform="translate(0.274 -0.201)" fill="#083142" stroke="#083142" stroke-width="1">
          <rect width="434" height="281" rx="10" stroke="none"/>
          <rect x="0.5" y="0.5" width="433" height="280" rx="9.5" fill="none"/>
        </g>
        <g id="Rectángulo_356061" data-name="Rectángulo 356061" transform="translate(15.274 -0.201)" fill="#fff" stroke="#083142" stroke-width="1">
          <rect width="419" height="277" rx="10" stroke="none"/>
          <rect x="0.5" y="0.5" width="418" height="276" rx="9.5" fill="none"/>
        </g>
        <g id="Rectángulo_356062" data-name="Rectángulo 356062" transform="translate(39.274 15.799)" fill="#cbcbe7" stroke="#083142" stroke-width="1">
          <rect width="370" height="216" rx="4" stroke="none"/>
          <rect x="0.5" y="0.5" width="369" height="215" rx="3.5" fill="none"/>
        </g>
        <g id="Elipse_5038" data-name="Elipse 5038" transform="translate(219.274 3.799)" fill="#fff" stroke="#083142" stroke-width="1">
          <ellipse cx="2.5" cy="3" rx="2.5" ry="3" stroke="none"/>
          <ellipse cx="2.5" cy="3" rx="2" ry="2.5" fill="none"/>
        </g>
        <g id="Grupo_1043664" data-name="Grupo 1043664" transform="translate(210.885 243.902)">
          <g id="Elipse_5039" data-name="Elipse 5039" transform="translate(0.389 -0.102)" fill="#fff" stroke="#083142" stroke-width="1">
            <ellipse cx="11" cy="12" rx="11" ry="12" stroke="none"/>
            <ellipse cx="11" cy="12" rx="10.5" ry="11.5" fill="none"/>
          </g>
          <g id="Elipse_5040" data-name="Elipse 5040" transform="translate(4.389 3.898)" fill="#fff" stroke="#083142" stroke-width="1">
            <ellipse cx="7" cy="7.5" rx="7" ry="7.5" stroke="none"/>
            <ellipse cx="7" cy="7.5" rx="6.5" ry="7" fill="none"/>
          </g>
        </g>
        <g id="Trazado_770852" data-name="Trazado 770852" transform="translate(152.201 280.901)" fill="#fff">
          <path d="M 86.70966339111328 55.73215103149414 L 0.6526082158088684 55.73215103149414 L 15.56821060180664 0.3930715620517731 L 101.6252517700195 0.3930715620517731 L 86.70966339111328 55.73215103149414 Z" stroke="none"/>
          <path d="M 15.95127868652344 0.8930587768554688 L 1.305221557617188 55.23213958740234 L 86.32658386230469 55.23213958740234 L 100.9726409912109 0.8930587768554688 L 15.95127868652344 0.8930587768554688 M 15.18511962890625 -0.1069412231445312 L 102.2778625488281 -0.1069412231445312 L 87.09274291992188 56.23213958740234 L 0 56.23213958740234 L 15.18511962890625 -0.1069412231445312 Z" stroke="none" fill="#083142"/>
        </g>
        <path id="Rectángulo_356064" data-name="Rectángulo 356064" d="M9,0H168a9,9,0,0,1,9,9V23a0,0,0,0,1,0,0H0a0,0,0,0,1,0,0V9A9,9,0,0,1,9,0Z" transform="translate(128.274 333.799)" fill="#083142"/>
      </g>
      <path id="Unión_4" data-name="Unión 4" d="M190.337,134.882V135H48.857c-.2,0-.4,0-.6,0s-.418,0-.628,0H43.508v-.228a48.41,48.41,0,1,1,20.938-93.8,60.463,60.463,0,0,1,114.325-.417A48.39,48.39,0,1,1,193.735,135Q192.021,135,190.337,134.882Z" transform="translate(521 4001)" fill="#cbc7e5"/>
      <g id="Unión_2" data-name="Unión 2" transform="translate(528 3989)" fill="#fee6d1">
        <path d="M 193.7353515625 134 C 193.5160369873047 134 193.3260345458984 133.9987487792969 193.154541015625 133.9962158203125 L 193.1470947265625 133.99609375 L 193.1396636962891 133.99609375 L 49.9423828125 133.99609375 L 49.9423828125 133.9787139892578 L 48.92513275146484 133.9952850341797 C 48.73556900024414 133.99853515625 48.53094482421875 134 48.26172637939453 134 C 41.88141250610352 134 35.69247817993164 132.7466888427734 29.86678886413574 130.2748718261719 C 24.2392578125 127.8871231079102 19.18491363525391 124.4686279296875 14.84419536590576 120.1143112182617 C 10.50335121154785 115.7598724365234 7.095351696014404 110.6894683837891 4.714882850646973 105.0439682006836 C 2.250507831573486 99.19947052001953 1.0009765625 92.99059295654297 1.0009765625 86.58984375 C 1.0009765625 80.18865966796875 2.250507831573486 73.97962188720703 4.714882850646973 68.13521575927734 C 7.095320224761963 62.48987579345703 10.50328922271729 57.41975021362305 14.84416389465332 53.06565475463867 C 19.18478965759277 48.71181106567383 24.23913192749023 45.29368591308594 29.86675834655762 42.90621948242188 C 35.69235229492188 40.43478012084961 41.88132095336914 39.18165588378906 48.26172637939453 39.18165588378906 C 53.70310211181641 39.18165588378906 59.03532028198242 40.09981155395508 64.1102294921875 41.91059494018555 L 65.06447601318359 42.25109481811523 L 65.39244842529297 41.29243850708008 C 67.37672424316406 35.49243927001953 70.23982238769531 30.04618835449219 73.90225982666016 25.10499954223633 C 77.52350616455078 20.2193431854248 81.84979248046875 15.92875003814697 86.76091766357422 12.35243797302246 C 91.73122406005859 8.733031272888184 97.19682312011719 5.922187328338623 103.0059127807617 3.998031139373779 C 109.0117874145508 2.008687496185303 115.2952270507812 1 121.6816329956055 1 C 128.0303497314453 1 134.2786712646484 1.997343778610229 140.2529754638672 3.964343786239624 C 146.0317535400391 5.866937637329102 151.4738464355469 8.647375106811523 156.4281005859375 12.22840595245361 C 161.3222198486328 15.76596832275391 165.6422882080078 20.01253128051758 169.2682647705078 24.85015678405762 C 172.9336700439453 29.74034309387207 175.8135070800781 35.13440704345703 177.8277587890625 40.88246917724609 L 178.1514434814453 41.80618667602539 L 179.0819091796875 41.50234222412109 C 183.7974700927734 39.96243667602539 188.7276306152344 39.18165588378906 193.7353515625 39.18165588378906 C 200.1158142089844 39.18165588378906 206.3050384521484 40.43478012084961 212.1311340332031 42.90625 C 217.7592620849609 45.29372024536133 222.8141632080078 48.71187591552734 227.1554107666016 53.06571960449219 C 231.4969482421875 57.41987609863281 234.9054718017578 62.4900016784668 237.2863159179688 68.13528442382812 C 239.7511901855469 73.97975158691406 241.0009765625 80.18875122070312 241.0009765625 86.58984375 C 241.0009765625 92.93612670898438 239.7716674804688 99.09615325927734 237.34716796875 104.8988418579102 C 235.0052947998047 110.5037536621094 231.6495361328125 115.5488739013672 227.3730773925781 119.8941268920898 C 223.0994720458984 124.2365036010742 218.1166687011719 127.6664352416992 212.5630950927734 130.088623046875 C 206.8202209472656 132.5933685302734 200.7096710205078 133.9077453613281 194.4011688232422 133.9952239990234 L 194.2144622802734 133.997802734375 C 194.0683746337891 133.9992980957031 193.9129180908203 134 193.7353515625 134 Z" stroke="none"/>
        <path d="M 193.7353515625 133 C 193.9083557128906 133 194.0596923828125 132.9993133544922 194.2015991210938 132.9978942871094 L 194.3873138427734 132.9953155517578 C 200.5621948242188 132.9096832275391 206.5429077148438 131.6233367919922 212.1633148193359 129.1719970703125 C 217.5992584228516 126.8011245727539 222.4767608642578 123.4435958862305 226.6603546142578 119.1926879882812 C 230.8469085693359 114.9387817382812 234.1320037841797 109.9999389648438 236.4244384765625 104.5133438110352 C 238.7976684570312 98.83340454101562 240.0009765625 92.80306243896484 240.0009765625 86.58984375 C 240.0009765625 80.32296752929688 238.7776336669922 74.24468994140625 236.3649139404297 68.52387237548828 C 234.0343170166016 62.99771881103516 230.6975402832031 58.03440475463867 226.4472503662109 53.77178192138672 C 222.197509765625 49.50968933105469 217.2494812011719 46.16371917724609 211.7406005859375 43.82684326171875 C 206.0387268066406 41.40806198120117 199.9808807373047 40.18165588378906 193.7353515625 40.18165588378906 C 188.8332214355469 40.18165588378906 184.0075378417969 40.94584274291992 179.3923187255859 42.45293807983398 L 177.5314178466797 43.06062316894531 L 176.8840026855469 41.21315765380859 C 174.9036254882812 35.56171798706055 172.0720977783203 30.25818824768066 168.4681091308594 25.44990539550781 C 164.9026031494141 20.69300079345703 160.6546630859375 16.51734352111816 155.84228515625 13.03887462615967 C 150.9714813232422 9.518124580383301 145.6212615966797 6.78459358215332 139.9402618408203 4.914187431335449 C 134.0670318603516 2.98046875 127.923942565918 2 121.6816329956055 2 C 115.4022598266602 2 109.2246322631836 2.991625070571899 103.3203506469727 4.947312355041504 C 97.60954284667969 6.838937282562256 92.23619842529297 9.602343559265137 87.34957122802734 13.16081237792969 C 82.5205078125 16.67740631103516 78.2664794921875 20.89634323120117 74.70563507080078 25.70046806335449 C 71.10456848144531 30.5588436126709 68.28950500488281 35.91365814208984 66.33860015869141 41.61612319946289 L 65.68269348144531 43.53340530395508 L 63.77416229248047 42.85243606567383 C 58.80741500854492 41.08024978637695 53.5882568359375 40.18165588378906 48.26172637939453 40.18165588378906 C 42.01625823974609 40.18165588378906 35.95866394042969 41.40806198120117 30.25728988647461 43.82681274414062 C 24.74894523620605 46.16365814208984 19.8015079498291 49.50959396362305 15.55235195159912 53.77168655395508 C 11.30275821685791 58.03421783447266 7.966538906097412 62.99753189086914 5.636320114135742 68.52375030517578 C 3.224070310592651 74.24452972412109 2.0009765625 80.32284545898438 2.0009765625 86.58984375 C 2.0009765625 92.85640716552734 3.224070310592651 98.93456268310547 5.636320114135742 104.6554412841797 C 7.966570377349854 110.1818466186523 11.30282020568848 115.1454391479492 15.55241394042969 119.4083099365234 C 19.80163192749023 123.6708450317383 24.74910163879395 127.0171585083008 30.25738334655762 129.3543090820312 C 35.95882034301758 131.7734069824219 42.01638412475586 133 48.26172637939453 133 C 48.52497482299805 133 48.72428894042969 132.9985961914062 48.90791320800781 132.9954376220703 L 50.9423828125 132.9613189697266 L 50.9423828125 132.99609375 L 193.1694488525391 132.9963073730469 C 193.3359069824219 132.998779296875 193.5210418701172 133 193.7353515625 133 M 193.7353515625 135 C 193.5361328125 135 193.3369140625 134.9990386962891 193.1396636962891 134.99609375 L 48.9423828125 134.9951324462891 C 48.7158203125 134.9990386962891 48.4892578125 135 48.26172637939453 135 C 21.60741424560547 135 0.0009765625 113.32421875 0.0009765625 86.58984375 C 0.0009765625 59.85353088378906 21.60741424560547 38.18165588378906 48.26172637939453 38.18165588378906 C 53.9384765625 38.18165588378906 59.38575744628906 39.16309356689453 64.4462890625 40.96875 C 72.6025390625 17.12793731689453 95.14747619628906 0 121.6816329956055 0 C 148.0586090087891 0 170.4941253662109 16.93065643310547 178.7714691162109 40.55175018310547 C 183.4814453125 39.01368713378906 188.5097503662109 38.18165588378906 193.7353515625 38.18165588378906 C 220.3896636962891 38.18165588378906 242.0009765625 59.85353088378906 242.0009765625 86.58984375 C 242.0009765625 113.0966873168945 220.7558441162109 134.6298675537109 194.4150390625 134.9951324462891 L 194.4150390625 134.99609375 L 194.3632965087891 134.99609375 C 194.1533203125 134.9990386962891 193.9443511962891 135 193.7353515625 135 Z" stroke="none" fill="#083142"/>
      </g>
      <g id="Grupo_1043663" data-name="Grupo 1043663" transform="translate(43 -39)">
        <rect id="Rectángulo_356060" data-name="Rectángulo 356060" width="168" height="106" rx="7" transform="translate(408 4035)" fill="#f2b784"/>
        <g id="Rectángulo_356059" data-name="Rectángulo 356059" transform="translate(416 4028)" fill="#ff6148" stroke="#ff6148" stroke-width="1">
          <rect width="168" height="106" rx="7" stroke="none"/>
          <rect x="0.5" y="0.5" width="167" height="105" rx="6.5" fill="none"/>
        </g>
        <text id="Todas_sus_licencias_son_gratuitas." data-name="Todas sus licencias son gratuitas." transform="translate(429 4077)" fill="#fff" font-size="16" font-family="SegoeUI, Segoe UI"><tspan x="0" y="17">Todas sus licencias </tspan><tspan x="0" y="36">son gratuitas.</tspan></text>
        <text id="Freeware" transform="translate(500 4063)" fill="#fff" font-size="16" font-family="SegoeUI-Bold, Segoe UI" font-weight="700"><tspan x="-34.133" y="0">Freeware</tspan></text>
      </g>
      <g id="Grupo_1043667" data-name="Grupo 1043667" transform="translate(432 -67)">
        <rect id="Rectángulo_356060-2" data-name="Rectángulo 356060" width="254" height="114" rx="7" transform="translate(408 4035)" fill="#fee6d1"/>
        <g id="Rectángulo_356059-2" data-name="Rectángulo 356059" transform="translate(416 4028)" fill="#fff" stroke="#ff6148" stroke-width="1">
          <rect width="257" height="117" rx="7" stroke="none"/>
          <rect x="0.5" y="0.5" width="256" height="116" rx="6.5" fill="none"/>
        </g>
        <text id="Son_gratuitas_pero_con_funcionamiento_restringido." data-name="Son gratuitas pero con funcionamiento restringido." transform="translate(429 4082)" fill="#12263f" font-size="16" font-family="SegoeUI, Segoe UI"><tspan x="0" y="17">Son gratuitas pero con </tspan><tspan x="0" y="36">funcionamiento restringido.</tspan></text>
        <text id="Shareware" transform="translate(542 4068)" fill="#ff6148" font-size="16" font-family="SegoeUI-BoldItalic, Segoe UI" font-weight="700" font-style="italic"><tspan x="-39.645" y="0">Shareware</tspan></text>
      </g>
      <g id="Grupo_1043668" data-name="Grupo 1043668" transform="translate(432 61)">
        <rect id="Rectángulo_356060-3" data-name="Rectángulo 356060" width="256" height="115" rx="7" transform="translate(408 4035)" fill="#fee6d1"/>
        <g id="Rectángulo_356059-3" data-name="Rectángulo 356059" transform="translate(416 4028)" fill="#fff" stroke="#ff6148" stroke-width="1">
          <rect width="257" height="117" rx="7" stroke="none"/>
          <rect x="0.5" y="0.5" width="256" height="116" rx="6.5" fill="none"/>
        </g>
        <text id="Logra_ser_transformado_usado_y_redistribuido_con_las_transformaciones_del_código." data-name="Logra ser transformado, usado y redistribuido con las transformaciones del código." transform="translate(431 4074)" fill="#12263f" font-size="16" font-family="SegoeUI, Segoe UI"><tspan x="0" y="17">Logra ser transformado, usado </tspan><tspan x="0" y="36">y redistribuido con las </tspan><tspan x="0" y="55">transformaciones del código.</tspan></text>
        <text id="Free_libre" data-name="Free / libre" transform="translate(545 4060)" fill="#ff6148" font-size="16" font-family="SegoeUI-BoldItalic, Segoe UI" font-weight="700" font-style="italic"><tspan x="-40.633" y="0">Free /</tspan><tspan y="0" xml:space="preserve" font-family="SegoeUI-Bold, Segoe UI" font-style="normal"> libre</tspan></text>
      </g>
      <g id="Grupo_1043669" data-name="Grupo 1043669" transform="translate(432 190)">
        <rect id="Rectángulo_356060-4" data-name="Rectángulo 356060" width="256" height="115" rx="7" transform="translate(408 4035)" fill="#fee6d1"/>
        <g id="Rectángulo_356059-4" data-name="Rectángulo 356059" transform="translate(416 4028)" fill="#fff" stroke="#ff6148" stroke-width="1">
          <rect width="257" height="117" rx="7" stroke="none"/>
          <rect x="0.5" y="0.5" width="256" height="116" rx="6.5" fill="none"/>
        </g>
        <text id="Poseedor_tanto_del_código_abierto_como_cerrado." data-name="Poseedor tanto del código abierto como cerrado." transform="translate(431 4082)" fill="#12263f" font-size="16" font-family="SegoeUI, Segoe UI"><tspan x="0" y="17">Poseedor tanto del código </tspan><tspan x="0" y="36">abierto como cerrado.</tspan></text>
        <text id="Owner_propietario" data-name="Owner / propietario" transform="translate(545 4068)" fill="#ff6148" font-size="16" font-family="SegoeUI-BoldItalic, Segoe UI" font-weight="700" font-style="italic"><tspan x="-74.887" y="0">Owner / </tspan><tspan y="0" font-family="SegoeUI-Bold, Segoe UI" font-style="normal">propietario</tspan></text>
      </g>
      <g id="Grupo_1043670" data-name="Grupo 1043670" transform="translate(432 324)">
        <rect id="Rectángulo_356060-5" data-name="Rectángulo 356060" width="256" height="143" rx="7" transform="translate(408 4035)" fill="#fee6d1"/>
        <g id="Rectángulo_356059-5" data-name="Rectángulo 356059" transform="translate(416 4028)" fill="#fff" stroke="#ff6148" stroke-width="1">
          <rect width="257" height="145" rx="7" stroke="none"/>
          <rect x="0.5" y="0.5" width="256" height="144" rx="6.5" fill="none"/>
        </g>
        <text id="Ofrecen_licencias_de_compra_por_medio_de_un_único_pago_o_alquileres_más_económicos_por_funcionalidades._" data-name="Ofrecen  licencias de compra por medio de un único pago o alquileres más económicos, por funcionalidades. " transform="translate(431 4082)" fill="#12263f" font-size="16" font-family="SegoeUI, Segoe UI"><tspan x="0" y="17" xml:space="preserve">Ofrecen  licencias de compra </tspan><tspan x="0" y="36">por medio de un único pago o </tspan><tspan x="0" y="55">alquileres más económicos, por </tspan><tspan x="0" y="74">funcionalidades. </tspan></text>
        <text id="Proveedores_de_software" data-name="Proveedores de software" transform="translate(545 4068)" fill="#ff6148" font-size="16" font-family="SegoeUI-Bold, Segoe UI" font-weight="700"><tspan x="-92.977" y="0">Proveedores de</tspan><tspan y="0" xml:space="preserve" font-family="SegoeUI-BoldItalic, Segoe UI" font-style="italic"> software</tspan></text>
      </g>
      <path id="Trazado_770854" data-name="Trazado 770854" d="M-6819.337-7279.743v-244.649h188.8v-55.25" transform="translate(7266.844 11665.742)" fill="none" stroke="#083142" stroke-width="2" stroke-dasharray="6"/>
      <path id="Trazado_770856" data-name="Trazado 770856" d="M-6706.167-7628v137.156h77.366v-109.945h62" transform="translate(7416 11716.795)" fill="none" stroke="#ff6148" stroke-width="2" stroke-dasharray="6"/>
      <path id="Trazado_770857" data-name="Trazado 770857" d="M-6746-7579.641v169.727h195.75" transform="translate(7399.452 11668.641)" fill="none" stroke="#ff6148" stroke-width="2" stroke-dasharray="6"/>
      <circle id="Elipse_5051" data-name="Elipse 5051" cx="6" cy="6" r="6" transform="translate(844 4111)" fill="#ff6148"/>
      <circle id="Elipse_5052" data-name="Elipse 5052" cx="6" cy="6" r="6" transform="translate(844 4253)" fill="#ff6148"/>
      <circle id="Elipse_5054" data-name="Elipse 5054" cx="6" cy="6" r="6" transform="translate(844 4380)" fill="#ff6148"/>
      <circle id="Elipse_5053" data-name="Elipse 5053" cx="6" cy="6" r="6" transform="translate(844 3983)" fill="#ff6148"/>
      <circle id="Elipse_5055" data-name="Elipse 5055" cx="6" cy="6" r="6" transform="translate(704 4083)" fill="#ff6148"/>
      <circle id="Elipse_5056" data-name="Elipse 5056" cx="6" cy="6" r="6" transform="translate(684 4083)" fill="#ff6148"/>
      <circle id="Elipse_5057" data-name="Elipse 5057" cx="6" cy="6" r="6" transform="translate(647 4083)" fill="#ff6148"/>
      <circle id="Elipse_5058" data-name="Elipse 5058" cx="6" cy="6" r="6" transform="translate(630 4083)" fill="#ff6148"/>
      <line id="Línea_263" data-name="Línea 263" x1="291" transform="translate(553.5 4386.5)" fill="none" stroke="#ff6148" stroke-width="2" stroke-dasharray="6"/>
      <path id="Trazado_770858" data-name="Trazado 770858" d="M-6577.8-7711h-35.489v147h-124.1v-45.542" transform="translate(7427 11700)" fill="none" stroke="#ff6148" stroke-width="2" stroke-dasharray="6"/>
      <rect id="Rectángulo_356070" data-name="Rectángulo 356070" width="30.41" height="113.825" rx="15.205" transform="translate(527.992 4289.006) rotate(45)" fill="#ffb476"/>
      <g id="Grupo_1043673" data-name="Grupo 1043673">
        <g id="Grupo_1043666" data-name="Grupo 1043666" transform="translate(390 4358.215)">
          <rect id="Rectángulo_356069" data-name="Rectángulo 356069" width="183" height="131" rx="6" transform="translate(0 -0.215)" fill="#cbc7e5"/>
          <g id="Rectángulo_356065" data-name="Rectángulo 356065" transform="translate(10 -0.215)" fill="#fff" stroke="#083142" stroke-width="1">
            <rect width="173" height="123" rx="6" stroke="none"/>
            <rect x="0.5" y="0.5" width="172" height="122" rx="5.5" fill="none"/>
          </g>
          <path id="Rectángulo_356066" data-name="Rectángulo 356066" d="M6,0H167a6,6,0,0,1,6,6V25a0,0,0,0,1,0,0H0a0,0,0,0,1,0,0V6A6,6,0,0,1,6,0Z" transform="translate(10 -0.215)" fill="#083142"/>
          <g id="Elipse_5041" data-name="Elipse 5041" transform="translate(16.999 6.785)" fill="none" stroke="#fff" stroke-width="2">
            <circle cx="4.5" cy="4.5" r="4.5" stroke="none"/>
            <circle cx="4.5" cy="4.5" r="3.5" fill="none"/>
          </g>
          <g id="Elipse_5042" data-name="Elipse 5042" transform="translate(29 6.785)" fill="none" stroke="#fff" stroke-width="2">
            <circle cx="4.5" cy="4.5" r="4.5" stroke="none"/>
            <circle cx="4.5" cy="4.5" r="3.5" fill="none"/>
          </g>
          <g id="Elipse_5043" data-name="Elipse 5043" transform="translate(40 6.785)" fill="none" stroke="#fff" stroke-width="2">
            <circle cx="4.5" cy="4.5" r="4.5" stroke="none"/>
            <circle cx="4.5" cy="4.5" r="3.5" fill="none"/>
          </g>
        </g>
        <g id="Elipse_5044" data-name="Elipse 5044" transform="translate(418 4400)" fill="#fee6d1" stroke="#ff6148" stroke-width="1">
          <ellipse cx="23.5" cy="24" rx="23.5" ry="24" stroke="none"/>
          <ellipse cx="23.5" cy="24" rx="23" ry="23.5" fill="none"/>
        </g>
        <g id="Grupo_1043672" data-name="Grupo 1043672" transform="translate(0 -1.135)">
          <g id="Grupo_1043671" data-name="Grupo 1043671">
            <line id="Línea_260" data-name="Línea 260" x2="81.474" transform="translate(477.086 4413.134)" fill="none" stroke="#083142" stroke-linecap="round" stroke-width="2"/>
            <line id="Línea_261" data-name="Línea 261" x2="81.474" transform="translate(477.086 4424.372)" fill="none" stroke="#083142" stroke-linecap="round" stroke-width="2"/>
            <line id="Línea_262" data-name="Línea 262" x2="81.474" transform="translate(477.086 4437.014)" fill="none" stroke="#083142" stroke-linecap="round" stroke-width="2"/>
          </g>
        </g>
      </g>
      <g id="Grupo_1043674" data-name="Grupo 1043674" transform="translate(721.007 4056.5) rotate(-90)">
        <g id="Group_881454" data-name="Group 881454" transform="translate(56.488 0)">
          <g id="Grupo_108438" data-name="Grupo 108438" transform="translate(0 0)">
            <path id="Trazado_165433" data-name="Trazado 165433" d="M5.478,2.738A2.739,2.739,0,1,0,2.74,5.478a2.739,2.739,0,0,0,2.738-2.74" fill="#ffb476"/>
            <g id="Grupo_108437" data-name="Grupo 108437" clip-path="url(#clip-path)">
              <g id="Group_881453" data-name="Group 881453" transform="translate(0.001 0.001)">
                <rect id="Rectangle_298909" data-name="Rectangle 298909" width="5.477" height="5.477" fill="#ffb476"/>
              </g>
            </g>
          </g>
        </g>
        <g id="Group_881456" data-name="Group 881456" transform="translate(56.488 21.343)">
          <g id="Grupo_108440" data-name="Grupo 108440" transform="translate(0 0)">
            <path id="Trazado_165435" data-name="Trazado 165435" d="M5.478,2.739A2.739,2.739,0,1,0,2.739,5.478h0A2.741,2.741,0,0,0,5.478,2.739" fill="#ffb476"/>
            <g id="Grupo_108439" data-name="Grupo 108439" clip-path="url(#clip-path-2)">
              <g id="Group_881455" data-name="Group 881455" transform="translate(0.001 0.001)">
                <rect id="Rectangle_298910" data-name="Rectangle 298910" width="5.477" height="5.477" fill="#ffb476"/>
              </g>
            </g>
          </g>
        </g>
        <g id="Group_881458" data-name="Group 881458" transform="translate(56.488 44.51)">
          <g id="Grupo_108442" data-name="Grupo 108442">
            <path id="Trazado_165437" data-name="Trazado 165437" d="M2.739,5.476A2.738,2.738,0,1,0,0,2.736,2.738,2.738,0,0,0,2.739,5.476Z" fill="#ffb476"/>
            <g id="Grupo_108441" data-name="Grupo 108441" clip-path="url(#clip-path-3)">
              <g id="Group_881457" data-name="Group 881457" transform="translate(0 -0.001)">
                <rect id="Rectangle_298911" data-name="Rectangle 298911" width="5.477" height="5.476" fill="#ffb476"/>
              </g>
            </g>
          </g>
        </g>
        <g id="Group_881460" data-name="Group 881460" transform="translate(37.928 0.001)">
          <g id="Grupo_108444" data-name="Grupo 108444" transform="translate(0)">
            <path id="Trazado_165439" data-name="Trazado 165439" d="M5.476,2.737a2.738,2.738,0,1,0-2.738,2.74,2.739,2.739,0,0,0,2.738-2.74" fill="#ffb476"/>
            <g id="Grupo_108443" data-name="Grupo 108443" clip-path="url(#clip-path-4)">
              <g id="Group_881459" data-name="Group 881459" transform="translate(-0.001 -0.001)">
                <rect id="Rectangle_298912" data-name="Rectangle 298912" width="5.477" height="5.477" fill="#ffb476"/>
              </g>
            </g>
          </g>
        </g>
        <g id="Group_881462" data-name="Group 881462" transform="translate(37.928 21.345)">
          <g id="Grupo_108446" data-name="Grupo 108446" transform="translate(0 0)">
            <path id="Trazado_165441" data-name="Trazado 165441" d="M5.476,2.737A2.738,2.738,0,1,0,2.738,5.476,2.738,2.738,0,0,0,5.476,2.737" fill="#ffb476"/>
            <g id="Grupo_108445" data-name="Grupo 108445" clip-path="url(#clip-path-5)">
              <g id="Group_881461" data-name="Group 881461" transform="translate(-0.001 -0.001)">
                <rect id="Rectangle_298913" data-name="Rectangle 298913" width="5.477" height="5.477" fill="#ffb476"/>
              </g>
            </g>
          </g>
        </g>
        <g id="Group_881464" data-name="Group 881464" transform="translate(37.926 44.51)">
          <g id="Grupo_108448" data-name="Grupo 108448" transform="translate(0)">
            <path id="Trazado_165443" data-name="Trazado 165443" d="M2.739,5.476A2.738,2.738,0,1,0,0,2.737,2.738,2.738,0,0,0,2.739,5.476Z" fill="#ffb476"/>
            <g id="Grupo_108447" data-name="Grupo 108447" clip-path="url(#clip-path-6)">
              <g id="Group_881463" data-name="Group 881463" transform="translate(0 -0.001)">
                <rect id="Rectangle_298914" data-name="Rectangle 298914" width="5.477" height="5.476" fill="#ffb476"/>
              </g>
            </g>
          </g>
        </g>
        <g id="Group_881454-2" data-name="Group 881454" transform="translate(18.561 0)">
          <g id="Grupo_108450" data-name="Grupo 108450" transform="translate(0 0)">
            <path id="Trazado_165445" data-name="Trazado 165445" d="M5.478,2.738A2.739,2.739,0,1,0,2.74,5.478a2.739,2.739,0,0,0,2.738-2.74" fill="#ffb476"/>
            <g id="Grupo_108449" data-name="Grupo 108449" clip-path="url(#clip-path)">
              <g id="Group_881453-2" data-name="Group 881453" transform="translate(0.001 0.001)">
                <rect id="Rectangle_298909-2" data-name="Rectangle 298909" width="5.477" height="5.477" fill="#ffb476"/>
              </g>
            </g>
          </g>
        </g>
        <g id="Group_881456-2" data-name="Group 881456" transform="translate(18.561 21.343)">
          <g id="Grupo_108452" data-name="Grupo 108452" transform="translate(0 0)">
            <path id="Trazado_165447" data-name="Trazado 165447" d="M5.478,2.739a2.739,2.739,0,1,0-2.74,2.739h0A2.742,2.742,0,0,0,5.478,2.739" fill="#ffb476"/>
            <g id="Grupo_108451" data-name="Grupo 108451" clip-path="url(#clip-path-8)">
              <g id="Group_881455-2" data-name="Group 881455" transform="translate(0.001 0.001)">
                <rect id="Rectangle_298910-2" data-name="Rectangle 298910" width="5.477" height="5.477" fill="#ffb476"/>
              </g>
            </g>
          </g>
        </g>
        <g id="Group_881458-2" data-name="Group 881458" transform="translate(18.562 44.51)">
          <g id="Grupo_108454" data-name="Grupo 108454" transform="translate(0)">
            <path id="Trazado_165449" data-name="Trazado 165449" d="M2.739,5.476A2.738,2.738,0,1,0,0,2.736,2.738,2.738,0,0,0,2.739,5.476Z" fill="#ffb476"/>
            <g id="Grupo_108453" data-name="Grupo 108453" clip-path="url(#clip-path-3)">
              <g id="Group_881457-2" data-name="Group 881457" transform="translate(0 -0.001)">
                <rect id="Rectangle_298911-2" data-name="Rectangle 298911" width="5.477" height="5.476" fill="#ffb476"/>
              </g>
            </g>
          </g>
        </g>
        <g id="Group_881460-2" data-name="Group 881460" transform="translate(0.001 0.001)">
          <g id="Grupo_108456" data-name="Grupo 108456" transform="translate(0)">
            <path id="Trazado_165451" data-name="Trazado 165451" d="M5.476,2.737a2.738,2.738,0,1,0-2.738,2.74,2.738,2.738,0,0,0,2.738-2.74" fill="#ffb476"/>
            <g id="Grupo_108455" data-name="Grupo 108455" clip-path="url(#clip-path-10)">
              <g id="Group_881459-2" data-name="Group 881459" transform="translate(-0.001 -0.001)">
                <rect id="Rectangle_298912-2" data-name="Rectangle 298912" width="5.477" height="5.477" fill="#ffb476"/>
              </g>
            </g>
          </g>
        </g>
        <g id="Group_881462-2" data-name="Group 881462" transform="translate(0.001 21.345)">
          <g id="Grupo_108458" data-name="Grupo 108458" transform="translate(0 0)">
            <path id="Trazado_165453" data-name="Trazado 165453" d="M5.476,2.737A2.738,2.738,0,1,0,2.738,5.476,2.738,2.738,0,0,0,5.476,2.737" fill="#ffb476"/>
            <g id="Grupo_108457" data-name="Grupo 108457" clip-path="url(#clip-path-5)">
              <g id="Group_881461-2" data-name="Group 881461" transform="translate(-0.001 -0.001)">
                <rect id="Rectangle_298913-2" data-name="Rectangle 298913" width="5.477" height="5.477" fill="#ffb476"/>
              </g>
            </g>
          </g>
        </g>
        <g id="Group_881464-2" data-name="Group 881464" transform="translate(0 44.51)">
          <g id="Grupo_108460" data-name="Grupo 108460" transform="translate(0)">
            <path id="Trazado_165455" data-name="Trazado 165455" d="M2.739,5.476A2.738,2.738,0,1,0,0,2.737,2.738,2.738,0,0,0,2.739,5.476Z" fill="#ffb476"/>
            <g id="Grupo_108459" data-name="Grupo 108459" clip-path="url(#clip-path-6)">
              <g id="Group_881463-2" data-name="Group 881463" transform="translate(0 -0.001)">
                <rect id="Rectangle_298914-2" data-name="Rectangle 298914" width="5.477" height="5.476" fill="#ffb476"/>
              </g>
            </g>
          </g>
        </g>
      </g>
    </g>
  </g>
</svg>
