<svg xmlns="http://www.w3.org/2000/svg" width="336.305" height="262.057" viewBox="0 0 336.305 262.057"><g transform="translate(-18185.211 9606.68)"><ellipse cx="115.749" cy="118.003" rx="115.749" ry="118.003" transform="translate(18290.018 -9585.929)" fill="#e6e6e6"/><ellipse cx="105.376" cy="105.376" rx="105.376" ry="105.376" transform="translate(18185.211 -9555.377)" fill="#e6e6e6"/><g transform="translate(18197.498 -9621.988)"><g transform="translate(143.468 15.309)"><g transform="translate(5.059 18.605)"><g transform="translate(0 0)"><path d="M243.435,119.313l.859-37.625s8.378-1.627,15.843-13.014c4.94-7.536,3.118-15.52,4.068-18.828.581-2.023,5.349-1.616,7.439-1.373,1.98.23,5.253,1.332,6.627,4.464,2.548,5.806-1.018,19.7-1.018,19.7s-1.556,2.829,2.4,2.829h14.127a7.693,7.693,0,0,1,5.024,1.8,5.714,5.714,0,0,1,2.068,4.994c-.424,5.375-3.254,7.78-3.254,8.912s1.556,3.112.424,6.365-1.839,2.971-1.839,4.527a25.4,25.4,0,0,1-1.274,7.922,11.525,11.525,0,0,1-2.122,3.537s.424,5.092-.99,8.063-7.356,4.527-9.336,4.527-16.126-2.829-20.087-3.819S247.254,117.474,243.435,119.313Z" transform="translate(-243.435 -48.268)" fill="#12263f"/></g></g><g transform="translate(0 18.906)"><g transform="translate(0 0)"><path d="M234.474,119.972V81.92s8.378-1.627,15.843-13.014a63.477,63.477,0,0,0,8.117-16.931,4.322,4.322,0,0,1,4.606-3.147,6.584,6.584,0,0,1,5.737,4.14c2.548,5.806-1.343,19.9-1.343,19.9s-1.556,2.829,2.4,2.829h14.127a7.7,7.7,0,0,1,5.024,1.8,5.714,5.714,0,0,1,2.067,4.994c-.424,5.375-3.253,7.78-3.253,8.912s1.556,3.112.424,6.365-1.839,2.971-1.839,4.527a25.4,25.4,0,0,1-1.273,7.922,11.525,11.525,0,0,1-2.122,3.537s.424,5.092-.99,8.063-7.356,4.527-9.336,4.527-16.126-2.829-20.087-3.819S238.293,118.133,234.474,119.972Z" transform="translate(-234.474 -48.8)" fill="#f59d36"/></g></g><g transform="translate(10.625 14.45)"><path d="M259.4,45.817a26.09,26.09,0,0,1-3.142-2.339A26.167,26.167,0,0,1,253.3,40.91a26.164,26.164,0,0,1,3.143,2.339A26.22,26.22,0,0,1,259.4,45.817Z" transform="translate(-253.296 -40.907)" fill="#263238"/></g><g transform="translate(16.368 4.678)"><path d="M269.85,34a9.809,9.809,0,0,1-1.1-1.412c-.644-.9-1.5-2.169-2.38-3.608s-1.626-2.777-2.136-3.76a9.857,9.857,0,0,1-.758-1.625,12.008,12.008,0,0,1,.94,1.524c.555.955,1.325,2.27,2.2,3.707s1.7,2.718,2.3,3.646A12.051,12.051,0,0,1,269.85,34Z" transform="translate(-263.469 -23.596)" fill="#263238"/></g><g transform="translate(28.122)"><path d="M284.438,15.309a51.319,51.319,0,0,1,.147,5.49,51.311,51.311,0,0,1-.147,5.49,51.565,51.565,0,0,1-.147-5.49A51.574,51.574,0,0,1,284.438,15.309Z" transform="translate(-284.291 -15.309)" fill="#263238"/></g><g transform="translate(35.906 8.592)"><path d="M303.175,30.531a22.194,22.194,0,0,1-2.442,2.65,22.156,22.156,0,0,1-2.65,2.443,22.2,22.2,0,0,1,2.443-2.65A22.2,22.2,0,0,1,303.175,30.531Z" transform="translate(-298.08 -30.529)" fill="#263238"/></g><g transform="translate(40.839 15.275)"><g transform="translate(0 0)"><path d="M310.96,42.371a14.678,14.678,0,0,1-1.965,2.173,14.7,14.7,0,0,1-2.173,1.965,14.694,14.694,0,0,1,1.965-2.173A14.714,14.714,0,0,1,310.96,42.371Z" transform="translate(-306.819 -42.368)" fill="#263238"/></g></g><g transform="translate(33.233 35.374)"><path d="M300.306,77.974a6.615,6.615,0,0,1-.893,1.137c-.585.674-1.421,1.581-2.384,2.543s-1.87,1.8-2.544,2.383a6.609,6.609,0,0,1-1.138.893,7.543,7.543,0,0,1,1-1.045l2.478-2.439,2.439-2.476A7.615,7.615,0,0,1,300.306,77.974Z" transform="translate(-293.346 -77.973)" fill="#455a64"/></g><g transform="translate(34.346 30.285)"><path d="M301.926,68.96a5.059,5.059,0,0,1-.821,1.031,27.656,27.656,0,0,1-2.29,2.2c-.939.81-1.81,1.512-2.44,2.021a6.3,6.3,0,0,1-1.056.785,29.554,29.554,0,0,1,3.3-3.029c.934-.807,1.753-1.562,2.335-2.123A6.975,6.975,0,0,1,301.926,68.96Z" transform="translate(-295.317 -68.958)" fill="#455a64"/></g><g transform="translate(35.033 25.696)"><path d="M302.068,60.831a3.451,3.451,0,0,1-.655.852,13.193,13.193,0,0,1-1.93,1.732c-1.644,1.167-2.892,2.2-2.947,2.143a13.7,13.7,0,0,1,2.77-2.378C300.921,62,302,60.764,302.068,60.831Z" transform="translate(-296.534 -60.828)" fill="#455a64"/></g><g transform="translate(34.943 21.868)"><path d="M300.443,54.05a12.286,12.286,0,0,1-1.937,1.85,12.273,12.273,0,0,1-2.129,1.627,12.368,12.368,0,0,1,1.938-1.85A12.316,12.316,0,0,1,300.443,54.05Z" transform="translate(-296.374 -54.047)" fill="#455a64"/></g><g transform="translate(33.51 19.605)"><g transform="translate(0 0)"><path d="M296.468,50.047a8.527,8.527,0,0,1-2.631,1.737,8.536,8.536,0,0,1,2.631-1.737Z" transform="translate(-293.835 -50.038)" fill="#455a64"/></g></g><g transform="translate(34.788 42.079)"><path d="M300.4,89.853a13.747,13.747,0,0,1-2.055,1.955A13.757,13.757,0,0,1,296.1,93.54a27.379,27.379,0,0,1,4.3-3.687Z" transform="translate(-296.099 -89.85)" fill="#455a64"/></g><g transform="translate(53.429 55.347)"><path d="M337.777,113.356a46.966,46.966,0,0,1-4.244,3.086,46.865,46.865,0,0,1-4.411,2.843,47.1,47.1,0,0,1,4.245-3.086A46.746,46.746,0,0,1,337.777,113.356Z" transform="translate(-329.121 -113.354)" fill="#455a64"/></g><g transform="translate(56.705 48.894)"><path d="M340.082,101.928a33.395,33.395,0,0,1-5.155,3.546,33.357,33.357,0,0,1,5.155-3.546Z" transform="translate(-334.926 -101.924)" fill="#455a64"/></g><g transform="translate(53.533 64.58)"><path d="M335.7,129.714c.042.075-1.448.957-3.206,2.161s-3.128,2.264-3.183,2.2a4.063,4.063,0,0,1,.824-.789c.537-.453,1.307-1.047,2.193-1.652s1.721-1.1,2.338-1.439A4.061,4.061,0,0,1,335.7,129.714Z" transform="translate(-329.306 -129.71)" fill="#455a64"/></g><g transform="translate(51.722 71.599)"><path d="M332.654,142.147a57.138,57.138,0,0,1-6.555,4.918,57.1,57.1,0,0,1,6.555-4.918Z" transform="translate(-326.098 -142.144)" fill="#455a64"/></g><g transform="translate(48.958 80.586)"><path d="M328.455,158.066a5.383,5.383,0,0,1-.942.917c-.612.532-1.486,1.235-2.491,1.956s-1.951,1.325-2.651,1.734a5.3,5.3,0,0,1-1.17.6,6.431,6.431,0,0,1,1.059-.774c.668-.453,1.59-1.08,2.591-1.8s1.888-1.39,2.531-1.879A6.375,6.375,0,0,1,328.455,158.066Z" transform="translate(-321.201 -158.064)" fill="#455a64"/></g><g transform="translate(45.936 87.882)"><path d="M324.31,170.99a6.814,6.814,0,0,1-1.115,1.049c-.721.611-1.75,1.416-2.921,2.257s-2.264,1.557-3.074,2.046a6.854,6.854,0,0,1-1.351.72,9.427,9.427,0,0,1,1.239-.9c.778-.531,1.846-1.272,3.014-2.11s2.211-1.613,2.963-2.181A9.322,9.322,0,0,1,324.31,170.99Z" transform="translate(-315.848 -170.988)" fill="#455a64"/></g><g transform="translate(47.977 27.235)"><path d="M322.4,63.849a14.8,14.8,0,0,1-2.94-.147,29.287,29.287,0,0,1,5.879,0A14.8,14.8,0,0,1,322.4,63.849Z" transform="translate(-319.464 -63.554)" fill="#263238"/></g></g><g transform="translate(50.546 50.777)"><g transform="translate(17.163)"><g transform="translate(1.773 5.029)"><path d="M105.987,104.827a44.46,44.46,0,0,1-2.244-7.341,15.539,15.539,0,0,1,.29-7.6c.12-.369,1.17-2.858,1.558-2.836.277.015-.338,2.322-.187,2.556a13.181,13.181,0,0,1,1.8,7.615,34.686,34.686,0,0,1-1.219,7.608" transform="translate(-103.41 -87.049)" fill="#263238"/></g><g transform="translate(3.607 0.726)"><path d="M122.321,115.095c-.057-1.809-.1-3.237-.082-3.237s6.178-.887,6.326-7.052c.071-2.977-.281-9.118-.663-14.674a11.49,11.49,0,0,0-11.329-10.7l-.595-.007c-6.419.3-9.75,5.919-9.273,12.328l.957,22.468,4.575,5.01a5.8,5.8,0,0,0,10.085-4.136Z" transform="translate(-106.659 -79.425)" fill="#bd8c83"/></g><g transform="translate(11.221 30.69)"><path d="M128.148,134.972a14.9,14.9,0,0,1-8-2.467s1.844,4.722,8,4.238Z" transform="translate(-120.148 -132.505)" fill="#896360"/></g><g transform="translate(21.527 15.675)"><path d="M140.162,106.713a.881.881,0,0,1-.86.879.842.842,0,0,1-.9-.8.881.881,0,0,1,.858-.88A.844.844,0,0,1,140.162,106.713Z" transform="translate(-138.404 -105.908)" fill="#263238"/></g><g transform="translate(20.057 13.024)"><path d="M139.279,102.156c-.111.113-.772-.388-1.719-.4s-1.647.457-1.748.34c-.05-.052.063-.258.369-.475a2.417,2.417,0,0,1,1.4-.414,2.322,2.322,0,0,1,1.367.458C139.237,101.9,139.333,102.1,139.279,102.156Z" transform="translate(-135.8 -101.21)" fill="#263238"/></g><g transform="translate(12.701 15.772)"><path d="M124.528,106.885a.88.88,0,0,1-.859.878.842.842,0,0,1-.9-.8.882.882,0,0,1,.859-.879A.843.843,0,0,1,124.528,106.885Z" transform="translate(-122.77 -106.08)" fill="#263238"/></g><g transform="translate(10.771 13.299)"><path d="M122.83,102.644c-.111.114-.773-.387-1.72-.4s-1.647.457-1.749.34c-.05-.052.063-.258.369-.475a2.415,2.415,0,0,1,1.4-.414,2.327,2.327,0,0,1,1.367.458C122.787,102.385,122.884,102.593,122.83,102.644Z" transform="translate(-119.35 -101.698)" fill="#263238"/></g><g transform="translate(17.213 13.665)"><path d="M131.113,110.246a6.318,6.318,0,0,1,1.542-.26c.242-.022.472-.067.514-.232a1.23,1.23,0,0,0-.153-.719l-.694-1.85a31.637,31.637,0,0,1-1.551-4.838,31.7,31.7,0,0,1,1.937,4.7q.347.975.664,1.861a1.4,1.4,0,0,1,.114.951.605.605,0,0,1-.4.349,1.629,1.629,0,0,1-.412.052A6.127,6.127,0,0,1,131.113,110.246Z" transform="translate(-130.761 -102.346)" fill="#263238"/></g><g transform="translate(10.184 10.317)"><path d="M122.638,97.144c-.1.256-1.041.125-2.154.248-1.115.1-2.015.417-2.16.185-.065-.112.094-.352.459-.6a3.768,3.768,0,0,1,3.287-.331C122.476,96.818,122.68,97.022,122.638,97.144Z" transform="translate(-118.31 -96.416)" fill="#263238"/></g><g transform="translate(19.963 9.816)"><path d="M138.862,96.491c-.164.217-.82,0-1.6,0-.785-.029-1.448.16-1.6-.063-.068-.108.034-.325.322-.532a2.322,2.322,0,0,1,2.584.052C138.841,96.164,138.934,96.385,138.862,96.491Z" transform="translate(-135.634 -95.527)" fill="#263238"/></g><g transform="translate(0 17.413)"><path d="M104.408,109.2c-.1-.047-4.222-1.3-4.137,2.914s4.3,3.261,4.307,3.14S104.408,109.2,104.408,109.2Z" transform="translate(-100.27 -108.985)" fill="#bd8c83"/></g><g transform="translate(1.072 18.786)"><path d="M104.084,114.738c-.019-.013-.072.052-.2.112a.735.735,0,0,1-.549.023,1.819,1.819,0,0,1-.874-1.614,2.431,2.431,0,0,1,.185-1.056.85.85,0,0,1,.541-.575.375.375,0,0,1,.437.192c.059.117.034.2.056.208s.089-.073.051-.246a.468.468,0,0,0-.172-.261.553.553,0,0,0-.408-.1,1.033,1.033,0,0,0-.754.669,2.5,2.5,0,0,0-.231,1.18,1.908,1.908,0,0,0,1.109,1.8.788.788,0,0,0,.669-.125C104.079,114.84,104.1,114.745,104.084,114.738Z" transform="translate(-102.169 -111.418)" fill="#896360"/></g><g transform="translate(1.966)"><path d="M123.739,82.661c.671-.4-1.441-2.546-3.139-3.258-2.568-1.076-6.458-1.672-8.775-.94a10.163,10.163,0,0,0-6.424,4.948,16.588,16.588,0,0,0-1.614,8.521,5.033,5.033,0,0,0,.669,2.558c.616.915,1.763,1.469,1.751,2.756a1.768,1.768,0,0,0,.476,1.274c.795.8,1.716,0,2.128-.786a12.214,12.214,0,0,0,.951-5.547,12.338,12.338,0,0,0-.383-4c-.227-.7-.577-1.351-.765-2.059a2.533,2.533,0,0,1,.237-2.114,2.636,2.636,0,0,1,.333-.356,4.4,4.4,0,0,1,4.338-.957c2.4.771,6.489,1.907,7.524,1.071a6.494,6.494,0,0,0,1.832-1.97Z" transform="translate(-103.752 -78.139)" fill="#263238"/></g><g transform="translate(15.581 23.362)"><path d="M131.143,120.66c.027.069-.149.224-.5.322a2.507,2.507,0,0,1-2.55-.886c-.215-.3-.257-.525-.194-.563.142-.086.645.538,1.53.83C130.3,120.682,131.085,120.5,131.143,120.66Z" transform="translate(-127.871 -119.525)" fill="#263238"/></g></g><g transform="translate(14.249 105.396)"><g transform="translate(10.448 94.79)"><path d="M128.784,434.64l-2.358,12.623s12.038,6.636,11.829,9.012l-24.638-3.694,2.868-19.818Z" transform="translate(-113.616 -432.762)" fill="#1b314b"/><g transform="translate(4.48 12.273)"><path d="M122.423,454.52a1.018,1.018,0,0,0-.868,1.044.978.978,0,0,0,1.027.87,1.073,1.073,0,0,0,.913-1.11,1.014,1.014,0,0,0-1.169-.786" transform="translate(-121.553 -454.503)" fill="#e0e0e0"/></g><g transform="translate(0 17.832)"><path d="M113.616,466.337l.367-1.987,23.486,4.285s1.025.642.785,1.4Z" transform="translate(-113.616 -464.35)" fill="#263238"/></g><g transform="translate(10.779 14.248)"><path d="M135.159,458.189c-.022.12-.632.084-1.282.382-.658.281-1.041.756-1.145.692-.107-.04.18-.732.973-1.079S135.2,458.082,135.159,458.189Z" transform="translate(-132.711 -458.001)" fill="#263238"/></g><g transform="translate(13.767 15.816)"><path d="M139.888,460.854c.01.12-.542.247-1.027.694s-.684.968-.8.945c-.116,0-.093-.715.52-1.26S139.9,460.739,139.888,460.854Z" transform="translate(-138.004 -460.779)" fill="#263238"/></g><g transform="translate(16.565 17.262)"><path d="M143.05,465.283c-.113.01-.19-.617.217-1.23s1.01-.79,1.045-.682c.054.109-.365.408-.692.916S143.172,465.289,143.05,465.283Z" transform="translate(-142.96 -463.341)" fill="#263238"/></g><g transform="translate(10.865 10.864)"><path d="M135.443,452.642c-.067.1-.594-.146-1.281-.2s-1.249.079-1.3-.034c-.056-.1.527-.465,1.335-.388S135.516,452.556,135.443,452.642Z" transform="translate(-132.862 -452.007)" fill="#263238"/></g></g><g transform="translate(5.13 99.687)"><path d="M116.636,441.437l-.227,12.839s12.974,4.543,13.163,6.919l-24.91.454-.467-20.019Z" transform="translate(-104.195 -441.437)" fill="#12263f"/><g transform="translate(3.784 11.854)"><path d="M111.607,462.481a1.017,1.017,0,0,0-.682,1.174.978.978,0,0,0,1.158.686,1.073,1.073,0,0,0,.716-1.246,1.014,1.014,0,0,0-1.283-.58" transform="translate(-110.899 -462.435)" fill="#e0e0e0"/></g><g transform="translate(0.467 18.193)"><path d="M105.023,475.684l.032-2.019,23.871.32s1.118.462,1.007,1.245Z" transform="translate(-105.023 -473.665)" fill="#263238"/></g><g transform="translate(10.37 12.599)"><path d="M124.811,463.861c0,.121-.609.188-1.2.59-.6.387-.9.919-1.013.873-.113-.021.055-.752.78-1.226S124.836,463.749,124.811,463.861Z" transform="translate(-122.565 -463.756)" fill="#263238"/></g><g transform="translate(13.626 13.691)"><path d="M129.956,465.737c.03.117-.493.334-.9.856-.419.51-.513,1.068-.634,1.065-.114.021-.211-.69.3-1.329S129.95,465.62,129.956,465.737Z" transform="translate(-128.333 -465.69)" fill="#263238"/></g><g transform="translate(16.634 14.722)"><path d="M133.816,469.632c-.11.028-.29-.577.01-1.249s.864-.947.917-.847c.071.1-.292.463-.53,1.018S133.937,469.618,133.816,469.632Z" transform="translate(-133.662 -467.516)" fill="#263238"/></g><g transform="translate(9.755 9.357)"><path d="M124.064,458.428c-.049.112-.61-.046-1.3.014s-1.219.286-1.284.183c-.072-.087.443-.546,1.252-.605S124.122,458.331,124.064,458.428Z" transform="translate(-121.476 -458.012)" fill="#263238"/></g></g><path d="M95.108,264.845l.331,12.7,3.752,39.435s-1.2,19.208-1.955,30.054c-.659,9.418,1.244,25.741,1.244,25.741l15.852-.413,4.251-54.712,2.635-34.121,5.351-17.837Z" transform="translate(-95.108 -264.845)" fill="#1565c0"/><g transform="translate(15.091)"><path d="M145.93,267.731l1,51.573a21.609,21.609,0,0,1-1.266,7.72l-13.619,37.94-.672,2.5-9.531-2.043,4.628-100.58Z" transform="translate(-121.841 -264.845)" fill="#1565c0"/></g><g transform="translate(19.221 12)"><path d="M135.829,286.1a1.525,1.525,0,0,1,.012.247c0,.179,0,.419.006.727,0,.656,0,1.594-.007,2.794,0,2.426-.071,5.935-.186,10.271-.252,8.67-.834,20.64-1.883,33.823-1.027,13.19-2.231,25.1-3.113,33.718-.45,4.295-.815,7.776-1.069,10.2-.13,1.191-.233,2.121-.3,2.772-.037.3-.065.542-.086.72a1.546,1.546,0,0,1-.04.244,1.535,1.535,0,0,1,.01-.247c.014-.178.033-.418.057-.724.059-.653.142-1.586.25-2.779.231-2.429.565-5.914.975-10.214.829-8.623,2-20.535,3.026-33.72,1.048-13.179,1.662-25.14,1.968-33.8.142-4.333.243-7.84.279-10.265.027-1.2.048-2.136.063-2.792.01-.307.018-.547.024-.726A1.52,1.52,0,0,1,135.829,286.1Z" transform="translate(-129.158 -286.103)" fill="#455a64"/></g><g transform="translate(1.69 3.257)"><path d="M108.469,270.614a2.012,2.012,0,0,1-.051.584,8.846,8.846,0,0,1-.41,1.545,10.123,10.123,0,0,1-7.73,6.548,8.839,8.839,0,0,1-1.591.151,1.985,1.985,0,0,1-.584-.046c0-.056.835-.024,2.134-.31a10.516,10.516,0,0,0,7.577-6.418C108.308,271.434,108.414,270.6,108.469,270.614Z" transform="translate(-98.102 -270.614)" fill="#455a64"/></g><g transform="translate(25.091 4.484)"><path d="M141.188,273.583a.816.816,0,1,1-.837-.795A.816.816,0,0,1,141.188,273.583Z" transform="translate(-139.557 -272.788)" fill="#455a64"/></g><g transform="translate(35.171 2.219)"><path d="M161.827,277.931a5.144,5.144,0,0,1-1.145-1.019,12.567,12.567,0,0,1-3.166-6.606,5.155,5.155,0,0,1-.077-1.53c.049,0,.1.578.283,1.494a14.638,14.638,0,0,0,3.118,6.5C161.437,277.493,161.86,277.895,161.827,277.931Z" transform="translate(-157.412 -268.776)" fill="#455a64"/></g></g><g transform="translate(0 114.243)"><g transform="translate(0 5.657)"><path d="M69.866,301.839l29.6-11.3,10.219,23.146L78.4,324.586Z" transform="translate(-69.866 -290.538)" fill="#afafaf"/></g><g transform="translate(8.073)"><path d="M97.814,298.215a17.734,17.734,0,0,1-2.743-2.821c-.011-.243-.424-2.063-.786-3.625a1.478,1.478,0,0,1,1.657-1.867l2.007-.772a12.806,12.806,0,0,0-1.824-2.734,20.331,20.331,0,0,0-3.647-2.381l-.3-3.5-8.009,1.6,1.161,8.039s1.983,7.546,2.873,8.268a9.572,9.572,0,0,0,3.387,1.069c1,1.152,3.025.659,3.025.659,2.287,1.325,2.15-.337,2.15-.337a.461.461,0,0,0,.238.122A1,1,0,0,0,97.814,298.215Z" transform="translate(-84.167 -280.516)" fill="#bd8c83"/></g><g transform="translate(15.845 12.11)"><path d="M97.967,301.968A4.685,4.685,0,0,0,98,303.342a7.12,7.12,0,0,0,.99,3.161,6.4,6.4,0,0,0,2.543,2.067,4.333,4.333,0,0,0,1.255.5,6.078,6.078,0,0,0-1.134-.717,7.143,7.143,0,0,1-2.371-2.048,8.074,8.074,0,0,1-1.038-3A6.16,6.16,0,0,0,97.967,301.968Z" transform="translate(-97.936 -301.968)" fill="#896360"/></g><g transform="translate(14.079 13.028)"><path d="M94.886,303.594a2.632,2.632,0,0,0-.038,1.259,9.005,9.005,0,0,0,.259,1.337,4.153,4.153,0,0,0,.712,1.533,6.989,6.989,0,0,0,1.25,1.088l1.078.767a4.2,4.2,0,0,0,1.046.638c.03-.039-.314-.357-.894-.84-.289-.24-.64-.526-1.034-.829a8.036,8.036,0,0,1-1.176-1.056,4.235,4.235,0,0,1-.673-1.4,12.62,12.62,0,0,1-.323-1.281C94.942,304.067,94.936,303.6,94.886,303.594Z" transform="translate(-94.807 -303.594)" fill="#896360"/></g><g transform="translate(12.226 14.248)"><path d="M91.555,305.755a9.658,9.658,0,0,0,.736,2.969,1.348,1.348,0,0,0,.383.567,4.571,4.571,0,0,0,.439.386,5.5,5.5,0,0,0,.82.535c.5.262.847.32.86.275s-.288-.187-.729-.492a8.355,8.355,0,0,1-.743-.574,5.368,5.368,0,0,1-.4-.377,1.094,1.094,0,0,1-.3-.432c-.26-.811-.523-1.519-.717-2.036A3.748,3.748,0,0,0,91.555,305.755Z" transform="translate(-91.525 -305.755)" fill="#896360"/></g></g><g transform="translate(0.542 32.047)"><g transform="translate(42.516 11.162)"><path d="M146.142,154.682s6.932,3.469,9.653,7.4,7.418,11.055,7.418,11.055l6.263-16.274,9.391,4.167s-5.365,19.431-6.355,21.558c-1.372,2.946-4.641,5.585-9.762,5.275s-3.485-.176-6.847-3.325l-4.541-5.3Z" transform="translate(-146.142 -154.682)" fill="#12263f"/><g transform="translate(4.307 15.157)" opacity="0.3"><path d="M153.772,181.532a50.832,50.832,0,0,0,5.807,15,36.257,36.257,0,0,1-2.957-3.34c-.772-.912-1.87-2.181-1.87-2.181-.3-3.187-.981-9.481-.981-9.481" transform="translate(-153.772 -181.532)"/></g><g transform="translate(17.176 17.998)"><path d="M177.567,194.484a4.492,4.492,0,0,1-.288-1.138c-.138-.71-.3-1.7-.431-2.793s-.216-2.092-.253-2.815a4.474,4.474,0,0,1,.007-1.174,38.921,38.921,0,0,1,.539,3.953A39.062,39.062,0,0,1,177.567,194.484Z" transform="translate(-176.568 -186.565)" fill="#263238"/></g></g><g transform="translate(19.88)"><path d="M106.391,139.365l-.347-3.36a1.093,1.093,0,0,1,1.32-1.071c4.006.854,15.736,3.4,15.874,4.015.084.371.011,2.826-.034,4.872l-16.814-4.456" transform="translate(-106.044 -134.909)" fill="#12263f"/></g><g transform="translate(0 13.343)"><path d="M76.737,158.546s-4.151,2.948-4.865,10.893c-.439,4.877-1.045,36.5-1.045,36.5l6.757,26.342,10.774-2.725L84.534,201.8l.372-24.1Z" transform="translate(-70.827 -158.546)" fill="#12263f"/></g><g transform="translate(6.757 31.113)"><path d="M82.8,245.992a.837.837,0,0,1,.186-.065l.555-.158,2.14-.574,7.863-2.042-.088.131c-.81-5.555-1.883-12.919-3.058-20.98-.275-1.915-.544-3.791-.8-5.591l0-.012v-.012c.133-7.57.249-14.228.333-19.02.054-2.367.1-4.272.129-5.611q.031-.959.049-1.51l.02-.391a.494.494,0,0,1,.016-.133.467.467,0,0,1,.012.133c0,.1.005.233.008.391q0,.55,0,1.511c-.008,1.34-.021,3.245-.036,5.612-.057,4.793-.137,11.451-.227,19.022l0-.024c.26,1.8.531,3.675.807,5.591l2.981,20.991.015.106-.1.025-7.889,1.941-2.156.513-.563.125A.857.857,0,0,1,82.8,245.992Z" transform="translate(-82.797 -190.024)" fill="#263238"/></g><g transform="translate(5.227 3.581)"><path d="M95.776,141.252s-12.408,6.13-15.006,9.763C77.619,155.42,86.339,169.5,87,173c.32,1.678,2.4,14.289,1.419,24.237a170.526,170.526,0,0,0-.741,19.9l40.062-3.23c0-6.987-1.806-12.379-3.009-21.25l-3.011-28.947-4.351-14.876-6.189-2.617Z" transform="translate(-80.086 -141.252)" fill="#12263f"/><g transform="translate(40.899 17.572)"><path d="M152.543,172.381a1.184,1.184,0,0,1,.07.305c.038.237.084.529.141.883.116.768.27,1.882.451,3.259.361,2.754.82,6.565,1.262,10.78s.785,8.04,1,10.809c.109,1.385.189,2.506.235,3.281l.046.894a1.172,1.172,0,0,1-.005.313,1.171,1.171,0,0,1-.058-.308c-.028-.239-.063-.532-.1-.889-.084-.819-.2-1.926-.334-3.272-.284-2.805-.668-6.6-1.093-10.8-.455-4.19-.867-7.983-1.171-10.786-.145-1.345-.264-2.451-.352-3.27-.033-.357-.06-.651-.082-.891A1.183,1.183,0,0,1,152.543,172.381Z" transform="translate(-152.537 -172.381)" fill="#263238"/></g><g transform="translate(2.178 10.063)"><path d="M92.5,169.534c-.058,0-.014-.831-.277-2.126a10.447,10.447,0,0,0-6.248-7.631c-1.217-.513-2.041-.633-2.029-.691a1.889,1.889,0,0,1,.58.056,8.639,8.639,0,0,1,1.531.429,10.037,10.037,0,0,1,6.383,7.8,8.674,8.674,0,0,1,.119,1.586A1.877,1.877,0,0,1,92.5,169.534Z" transform="translate(-83.944 -159.078)" fill="#263238"/></g><g transform="translate(21.33 43.454)"><path d="M134.228,228.963a3.844,3.844,0,0,1-.783-.112,18.649,18.649,0,0,1-2.09-.523,24.351,24.351,0,0,1-2.994-1.129,25.328,25.328,0,0,1-6.536-4.289,24.441,24.441,0,0,1-2.227-2.3,18.718,18.718,0,0,1-1.312-1.71,3.8,3.8,0,0,1-.414-.673c.049-.034.685.893,1.892,2.237a27.912,27.912,0,0,0,2.252,2.229,27.254,27.254,0,0,0,6.465,4.242,27.946,27.946,0,0,0,2.941,1.18C133.136,228.691,134.24,228.905,134.228,228.963Z" transform="translate(-117.87 -218.228)" fill="#263238"/></g><g transform="translate(7.521 28.918)" opacity="0.3"><path d="M94.74,192.479c-2.578,15.36-1.27,31.586,2.695,46.647l1.026-.081A189.114,189.114,0,0,0,94.74,192.479Z" transform="translate(-93.409 -192.479)"/></g><g transform="translate(26.743 55.146)" opacity="0.3"><path d="M127.46,238.941a35.569,35.569,0,0,0,13.225,2.685,3.93,3.93,0,0,1-3.234,1.38,10.193,10.193,0,0,1-3.638-.353c-2.283-.7-4.968-1.768-6.353-3.712" transform="translate(-127.46 -238.941)"/></g></g><g transform="translate(20.226 3.704)"><path d="M123.359,146.584a2.754,2.754,0,0,1-.689.125,10.2,10.2,0,0,1-1.91.008,23.854,23.854,0,0,1-6.08-1.567c-2.3-.828-4.415-1.512-5.867-2.222a9.365,9.365,0,0,1-1.648-.968,2.956,2.956,0,0,1-.39-.346c-.082-.086-.122-.134-.115-.142.021-.023.2.155.571.395a11.6,11.6,0,0,0,1.668.872c1.456.654,3.574,1.3,5.88,2.135a26.805,26.805,0,0,0,6,1.637A21.2,21.2,0,0,0,123.359,146.584Z" transform="translate(-106.657 -141.471)" fill="#263238"/></g><g transform="translate(22.218 0.352)"><path d="M110.49,135.532a13.3,13.3,0,0,1,0,2.362,13.252,13.252,0,0,1-.13,2.359,12.233,12.233,0,0,1,.133-4.722Z" transform="translate(-110.186 -135.532)" fill="#263238"/></g><g transform="translate(28.285 1.661)"><path d="M121.065,137.851a17.177,17.177,0,0,1,.177,2.79,17.251,17.251,0,0,1,.015,2.8,18.441,18.441,0,0,1-.192-5.585Z" transform="translate(-120.932 -137.851)" fill="#263238"/></g><g transform="translate(35.419 3.431)"><path d="M133.682,140.987a13.444,13.444,0,0,1-.076,5.48,23.7,23.7,0,0,1,.026-2.741A23.8,23.8,0,0,1,133.682,140.987Z" transform="translate(-133.571 -140.987)" fill="#263238"/></g><g transform="translate(20.848 4.115)" opacity="0.3"><path d="M107.759,142.2a8.525,8.525,0,0,0,3.605,2.644,26.692,26.692,0,0,0,5.679,2.266,10.67,10.67,0,0,0,6.041-.146,23.455,23.455,0,0,1-7.731-1.772c-2.487-.933-5.127-2.02-7.564-2.983" transform="translate(-107.759 -142.198)"/></g></g><g transform="translate(68.109 15.697)"><g transform="translate(0 6.076)"><path d="M199.343,132.537l-3.52.5-.411-4.771-.629-4.2.268-7.357-3.58,4.278a3.318,3.318,0,0,0-.526,1.541l-.364,12.914-.064,5.524,6.263,3.93-.134-6.573,1.454-1.555A6.277,6.277,0,0,0,199.343,132.537Z" transform="translate(-190.518 -116.709)" fill="#bd8c83"/></g><g transform="translate(4.136)"><g transform="translate(3.928 0.002)"><rect width="14.54" height="39.077" fill="#12263f"/></g><g transform="translate(0 0.002)"><rect width="14.54" height="39.077" fill="#f59d36"/></g><g transform="translate(3.613 6.182)"><path d="M210.808,120.179a3.281,3.281,0,1,1-3.281-3.281A3.281,3.281,0,0,1,210.808,120.179Z" transform="translate(-204.246 -116.898)" fill="#fff"/></g><g transform="translate(14.525 5.88)"><path d="M227.495,116.363a20.187,20.187,0,0,1-1.836,2.9A20.167,20.167,0,0,1,223.58,122a20.2,20.2,0,0,1,1.837-2.9A20.168,20.168,0,0,1,227.495,116.363Z" transform="translate(-223.576 -116.362)" fill="#455a64"/></g><g transform="translate(14.525 10.203)"><path d="M227.495,124.021a20.208,20.208,0,0,1-1.836,2.9,20.183,20.183,0,0,1-2.079,2.734,20.181,20.181,0,0,1,1.837-2.9A20.152,20.152,0,0,1,227.495,124.021Z" transform="translate(-223.576 -124.02)" fill="#455a64"/></g><g transform="translate(14.525 14.526)"><path d="M227.495,131.679a20.172,20.172,0,0,1-1.836,2.9,20.183,20.183,0,0,1-2.079,2.734,40.163,40.163,0,0,1,3.915-5.635Z" transform="translate(-223.576 -131.678)" fill="#455a64"/></g><g transform="translate(14.525 18.849)"><path d="M227.495,139.337a20.172,20.172,0,0,1-1.836,2.9,20.168,20.168,0,0,1-2.079,2.734,40.125,40.125,0,0,1,3.915-5.636Z" transform="translate(-223.576 -139.336)" fill="#455a64"/></g><g transform="translate(14.525 23.172)"><path d="M227.495,147a20.208,20.208,0,0,1-1.836,2.9,20.179,20.179,0,0,1-2.079,2.734A40.077,40.077,0,0,1,227.495,147Z" transform="translate(-223.576 -146.995)" fill="#455a64"/></g><g transform="translate(14.525 27.495)"><path d="M227.495,154.654a40.037,40.037,0,0,1-3.915,5.635,40.165,40.165,0,0,1,3.915-5.635Z" transform="translate(-223.576 -154.653)" fill="#455a64"/></g><g transform="translate(14.525 31.818)"><path d="M227.495,162.312a40.039,40.039,0,0,1-3.915,5.635,40.163,40.163,0,0,1,3.915-5.635Z" transform="translate(-223.576 -162.311)" fill="#455a64"/></g><g transform="translate(14.486 2.066)"><path d="M227.425,109.608a20.145,20.145,0,0,1-1.837,2.9,20.155,20.155,0,0,1-2.078,2.734,20.147,20.147,0,0,1,1.836-2.9A20.118,20.118,0,0,1,227.425,109.608Z" transform="translate(-223.506 -109.607)" fill="#455a64"/></g><g transform="translate(14.599)"><path d="M226.03,105.948a14.095,14.095,0,0,1-2.317,3.336,14.095,14.095,0,0,1,2.317-3.336Z" transform="translate(-223.707 -105.946)" fill="#455a64"/></g></g><g transform="translate(1.169 10.754)"><g transform="translate(0.002 0.148)"><path d="M192.592,130.532a26.8,26.8,0,0,1,2.821-4.051,3.8,3.8,0,0,1,1.206-1.055,1.429,1.429,0,0,1,1.522.11,1.5,1.5,0,0,1,.251,1.7,5.718,5.718,0,0,1-1.1,1.462,3,3,0,0,0-.857,1.589,4.919,4.919,0,0,0,.31,1.688,5.544,5.544,0,0,1-1.443,5.183" transform="translate(-192.592 -125.259)" fill="#bd8c83"/></g><path d="M195.3,137.039c-.021-.02.188-.23.485-.663a5.71,5.71,0,0,0,.863-2.027,5.426,5.426,0,0,0,.111-1.512,7.523,7.523,0,0,0-.369-1.716,2.659,2.659,0,0,1-.1-1.009,2.406,2.406,0,0,1,.386-.993c.386-.605.949-1.066,1.334-1.643a2,2,0,0,0,.36-.92,1.111,1.111,0,0,0-1.812-1.055,4.931,4.931,0,0,0-1.25,1.185c-.357.427-.679.833-.964,1.211-.569.757-1,1.4-1.287,1.839a4.894,4.894,0,0,1-.471.68,3.631,3.631,0,0,1,.367-.743,21.9,21.9,0,0,1,1.213-1.906c.275-.39.59-.808.942-1.246a5.059,5.059,0,0,1,1.31-1.272,1.853,1.853,0,0,1,1-.252,1.3,1.3,0,0,1,.987.491,1.891,1.891,0,0,1-.137,2.162c-.426.63-.984,1.083-1.337,1.636a2.109,2.109,0,0,0-.347.865,2.4,2.4,0,0,0,.083.9,7.513,7.513,0,0,1,.349,1.772,5.478,5.478,0,0,1-.154,1.576,5.38,5.38,0,0,1-.98,2.049,3.74,3.74,0,0,1-.415.458C195.37,137,195.312,137.047,195.3,137.039Z" transform="translate(-192.589 -124.996)" fill="#896360"/></g></g></g><g transform="translate(172.395 67.936)"><g transform="translate(1.866 68.216)"><g transform="translate(32.605 4.741)"><path d="M355.167,237.777c-.813.452-8.386.54-8.386.54l.3,6.079,15.032,1.467Z" transform="translate(-346.781 -237.777)" fill="#ff725e"/></g><path d="M289.54,229.378a2.541,2.541,0,0,0-.518,1.182c-.008.476,13.172,10.132,15.874,12.106a1.814,1.814,0,0,0,1.075.35l18.094-.027.1-1.44s-16.523-11.751-16.84-11.722S289.54,229.378,289.54,229.378Z" transform="translate(-289.022 -229.378)" fill="#263238"/><g transform="translate(2.298 0.883)"><path d="M309.063,231.16c-.247.023-15.971-.217-15.971-.217s11.945,8.977,14.049,10.513a1.412,1.412,0,0,0,.837.272l16.7.321Z" transform="translate(-293.092 -230.943)" fill="#fafafa"/></g><g transform="translate(18.604 2.164)"><path d="M336.011,237.215h-1.266s-4.587-3.374-5.061-3.48c-.206-.046-3.739-.523-3.739-.523l-3.958,1.525s-.211.891,1.371,1.052a7.8,7.8,0,0,0,3.407-.679,41.007,41.007,0,0,0,5.028,4.328c1.5.835,4.413,2.144,4.413,2.144Z" transform="translate(-321.977 -233.212)" fill="#ffbe9d"/></g></g><g transform="translate(34.471 72.958)" opacity="0.3"><path d="M355.167,237.777c-.813.452-8.386.54-8.386.54l.3,6.079,15.032,1.467Z" transform="translate(-346.781 -237.777)"/></g><g transform="translate(43.052 151.472)"><g transform="translate(0.069)"><path d="M376.648,376.862l7.224,17.5-21.726,9.1c-.742-2.128,8.753-11,8.753-11l-5.088-11.022Z" transform="translate(-362.105 -376.862)" fill="#1565c0"/></g><g transform="translate(14.389 11.832)" opacity="0.6"><path d="M388.27,397.831a.963.963,0,0,1,1.038.755.925.925,0,0,1-.74,1.035,1.015,1.015,0,0,1-1.095-.806.96.96,0,0,1,.889-.991" transform="translate(-387.472 -397.822)" fill="#fff"/></g><g transform="translate(0 15.733)"><path d="M383.819,406.5l-.729-1.766-20.6,9.4s-.791.826-.4,1.461Z" transform="translate(-361.983 -404.733)" fill="#fff"/></g><g transform="translate(8.46 15.261)"><path d="M376.974,404.268c.047.1.6-.069,1.263.053.668.1,1.13.452,1.209.369.089-.062-.335-.629-1.142-.764S376.911,404.18,376.974,404.268Z" transform="translate(-376.97 -403.896)" fill="#263238"/></g><g transform="translate(6.579 17.372)"><path d="M373.639,407.793c.019.113.554.1,1.1.4.557.282.851.729.955.68.107-.025-.08-.677-.769-1.034S373.6,407.691,373.639,407.793Z" transform="translate(-373.637 -407.635)" fill="#263238"/></g><g transform="translate(4.827 19.286)"><path d="M372.135,412.54c.106-.018.032-.61-.484-1.077s-1.109-.491-1.117-.383c-.024.112.429.289.847.679S372.025,412.573,372.135,412.54Z" transform="translate(-370.533 -411.026)" fill="#263238"/></g><g transform="translate(7.571 12.006)"><path d="M375.407,399.117c.085.078.51-.272,1.127-.483s1.164-.217,1.181-.331-.591-.3-1.314-.046S375.32,399.055,375.407,399.117Z" transform="translate(-375.394 -398.131)" fill="#263238"/></g><g transform="translate(7.02 7.245)"><path d="M374.42,392.649a2.215,2.215,0,0,0,1.086-.461,5.352,5.352,0,0,0,.992-.826,5.72,5.72,0,0,0,.486-.593,1.464,1.464,0,0,0,.221-.393.5.5,0,0,0-.187-.585.629.629,0,0,0-.566-.048,1.527,1.527,0,0,0-.384.228,4.149,4.149,0,0,0-1.307,1.594,1.962,1.962,0,0,0-.27,1.151c.063.015.169-.419.52-1.02a4.7,4.7,0,0,1,.741-.953,4.37,4.37,0,0,1,.544-.454c.2-.157.4-.24.5-.163.038.03.047.044.027.132a1.189,1.189,0,0,1-.163.289,6.309,6.309,0,0,1-.437.569,6.531,6.531,0,0,1-.883.844C374.792,392.392,374.394,392.592,374.42,392.649Z" transform="translate(-374.419 -389.697)" fill="#263238"/></g><g transform="translate(4.616 7.152)"><path d="M372.767,392.672a1.885,1.885,0,0,0-.154-1.171,3.816,3.816,0,0,0-1.2-1.674.978.978,0,0,0-.925-.259.553.553,0,0,0-.327.494,1.6,1.6,0,0,0,.056.445,2.62,2.62,0,0,0,.306.733,2.71,2.71,0,0,0,.935.929c.66.386,1.156.327,1.15.287a9.417,9.417,0,0,1-.994-.523,2.718,2.718,0,0,1-.773-.878,2.452,2.452,0,0,1-.243-.637c-.063-.246-.054-.468.042-.48a.677.677,0,0,1,.53.2,3.891,3.891,0,0,1,.517.477,4.229,4.229,0,0,1,.665,1C372.649,392.235,372.7,392.679,372.767,392.672Z" transform="translate(-370.159 -389.531)" fill="#263238"/></g></g><g transform="translate(17.674 158.585)"><g transform="translate(0.063)"><path d="M332.945,389.462l6.364,17.83-22.143,8.031c-.638-2.162,9.278-10.564,9.278-10.564L321.9,393.5Z" transform="translate(-317.137 -389.462)" fill="#1565c0"/></g><g transform="translate(15.024 11.847)" opacity="0.6"><path d="M344.485,410.456a.962.962,0,0,1,1,.806.925.925,0,0,1-.789,1,1.016,1.016,0,0,1-1.055-.858c0-.473.469-1.015.937-.947" transform="translate(-343.641 -410.448)" fill="#fff"/></g><g transform="translate(0 16.03)"><path d="M339.261,419.659l-.642-1.8-21.034,8.391s-.83.786-.467,1.44Z" transform="translate(-317.026 -417.859)" fill="#fff"/></g><g transform="translate(8.966 14.989)"><path d="M332.913,416.341c.042.107.6-.04,1.259.115.663.137,1.106.506,1.191.427.092-.057-.3-.645-1.1-.819S332.853,416.25,332.913,416.341Z" transform="translate(-332.909 -416.015)" fill="#263238"/></g><g transform="translate(6.995 16.983)"><path d="M329.418,419.682c.013.113.548.128,1.081.452.542.308.815.769.921.725.108-.02-.047-.68-.717-1.071S329.382,419.578,329.418,419.682Z" transform="translate(-329.417 -419.546)" fill="#263238"/></g><g transform="translate(5.155 18.794)"><path d="M327.688,424.336c.107-.012.061-.607-.431-1.1s-1.084-.544-1.1-.437c-.029.111.415.309.813.719S327.577,424.365,327.688,424.336Z" transform="translate(-326.159 -422.754)" fill="#263238"/></g><g transform="translate(8.207 11.731)"><path d="M331.575,411.147c.081.082.523-.247,1.149-.427s1.172-.16,1.2-.273-.576-.332-1.31-.11S331.492,411.081,331.575,411.147Z" transform="translate(-331.564 -410.242)" fill="#263238"/></g><g transform="translate(7.792 6.977)"><path d="M330.829,404.661a2.208,2.208,0,0,0,1.107-.408,5.268,5.268,0,0,0,1.031-.777,5.629,5.629,0,0,0,.514-.568,1.455,1.455,0,0,0,.24-.383.5.5,0,0,0-.159-.593.631.631,0,0,0-.563-.076,1.552,1.552,0,0,0-.395.208,4.211,4.211,0,0,0-.6.487,4.163,4.163,0,0,0-.779,1.042,1.967,1.967,0,0,0-.326,1.137c.062.018.189-.411.57-.994a4.74,4.74,0,0,1,.787-.916,4.387,4.387,0,0,1,.566-.427c.212-.147.411-.221.509-.138.036.032.045.047.021.133a1.2,1.2,0,0,1-.177.279,6.218,6.218,0,0,1-.465.548,6.539,6.539,0,0,1-.923.8A8.125,8.125,0,0,0,330.829,404.661Z" transform="translate(-330.828 -401.822)" fill="#263238"/></g><g transform="translate(5.508 6.684)"><path d="M329.265,404.538a1.877,1.877,0,0,0-.1-1.177,3.826,3.826,0,0,0-1.118-1.73.977.977,0,0,0-.911-.3.552.552,0,0,0-.351.478,1.589,1.589,0,0,0,.033.448,2.628,2.628,0,0,0,.27.747,2.71,2.71,0,0,0,.889.974c.641.417,1.139.382,1.135.342a9.476,9.476,0,0,1-.967-.57,2.712,2.712,0,0,1-.729-.915,2.422,2.422,0,0,1-.212-.648c-.051-.248-.032-.47.066-.478a.677.677,0,0,1,.519.223,3.887,3.887,0,0,1,.493.5,4.238,4.238,0,0,1,.616,1.029C329.169,404.1,329.2,404.543,329.265,404.538Z" transform="translate(-326.784 -401.302)" fill="#263238"/></g></g><g transform="translate(40.84)"><g transform="translate(0 6.723)"><path d="M359.643,120.444a3.636,3.636,0,0,0-.975,3.095c.091,1.12.43,2.214.452,3.337.043,2.177-1.1,4.248-1.055,6.425s1.267,4.2,1.473,6.373c.194,2.059,2.581,3.6,2.068,5.606s-3.9,4.711-2.9,6.518a1.706,1.706,0,0,0,.812.82,2.069,2.069,0,0,0,1.117,0l5.2-.984a3.37,3.37,0,0,0,1.783-.715,3.122,3.122,0,0,0,.725-1.994c.424-4.364-.593-8.721-1.146-13.071a62.1,62.1,0,0,1-.044-15.3" transform="translate(-358.063 -120.444)" fill="#263238"/></g><g transform="translate(0.78)"><g transform="translate(1.203 2.281)"><g transform="translate(6.659 33.824)"><path d="M373.373,172.494Z" transform="translate(-373.373 -172.494)" fill="#ffbe9d"/></g><path d="M361.594,122.58a10.1,10.1,0,0,1,9.5-9.992,9.813,9.813,0,0,1,10.394,9.569l-.236,22.105a1.924,1.924,0,0,1-.421,1.175,9.012,9.012,0,0,1-5.982,3.255,9.445,9.445,0,0,1-5.716-1.611,1.885,1.885,0,0,1-.839-1.678l.257-4.934a.032.032,0,0,0-.031-.034,6.71,6.71,0,0,1-1.379-.135c-1.281-.409-4.513-1.92-5.284-6.873A100.156,100.156,0,0,1,361.594,122.58Z" transform="translate(-361.577 -112.576)" fill="#ffbe9d"/><g transform="translate(4.529 10.563)"><path d="M371.819,138.434a5.853,5.853,0,0,0-1.416-.252c-.222-.023-.434-.067-.47-.216a1.1,1.1,0,0,1,.152-.649l.669-1.668a28.437,28.437,0,0,0,1.506-4.362,28.631,28.631,0,0,0-1.859,4.234l-.641,1.678a1.247,1.247,0,0,0-.12.859.552.552,0,0,0,.364.321,1.52,1.52,0,0,0,.378.052A5.754,5.754,0,0,0,371.819,138.434Z" transform="translate(-369.599 -131.287)" fill="#263238"/></g></g><g transform="translate(2.569 15.328)"><path d="M364,136.408a.8.8,0,0,0,.777.805.776.776,0,0,0,.841-.718.8.8,0,0,0-.777-.806A.777.777,0,0,0,364,136.408Z" transform="translate(-363.997 -135.688)" fill="#263238"/></g><g transform="translate(2.773 13.178)"><path d="M364.368,132.8c.087.134.755-.369,1.626-.3.871.052,1.458.641,1.565.519.052-.054-.028-.291-.282-.557a1.928,1.928,0,0,0-1.237-.573,1.954,1.954,0,0,0-1.31.4C364.437,132.511,364.324,132.735,364.368,132.8Z" transform="translate(-364.359 -131.88)" fill="#263238"/></g><g transform="translate(10.833 15.428)"><path d="M378.637,136.586a.8.8,0,0,0,.777.8.776.776,0,0,0,.841-.719.8.8,0,0,0-.777-.8A.776.776,0,0,0,378.637,136.586Z" transform="translate(-378.636 -135.866)" fill="#263238"/></g><g transform="translate(11.142 13.256)"><path d="M379.2,133.161c.114.122.753-.471,1.694-.527s1.656.43,1.752.294c.047-.06-.072-.285-.386-.512a2.191,2.191,0,0,0-2.751.186C379.231,132.87,379.143,133.107,379.2,133.161Z" transform="translate(-379.183 -132.017)" fill="#263238"/></g><g transform="translate(8.091 27.927)"><path d="M373.862,160.219a14.142,14.142,0,0,0,7.6-2.213s-1.356,4.378-7.683,3.792Z" transform="translate(-373.778 -158.006)" fill="#eb996e"/></g><g transform="translate(8.221 21.476)"><path d="M374.1,147.162a1.6,1.6,0,0,1,1.414-.573,1.435,1.435,0,0,1,.989.523.883.883,0,0,1,.063,1.023,1.073,1.073,0,0,1-1.147.283,3.291,3.291,0,0,1-1.112-.655.952.952,0,0,1-.248-.253.283.283,0,0,1,0-.32" transform="translate(-374.009 -146.58)" fill="#eb996e"/></g><g transform="translate(7.722 20.586)"><path d="M375.92,145c-.142-.008-.149.923-.964,1.583s-1.823.557-1.831.688c-.014.058.224.181.65.192a2.393,2.393,0,0,0,1.528-.521,2.019,2.019,0,0,0,.747-1.327C376.09,145.228,375.985,145,375.92,145Z" transform="translate(-373.125 -145.003)" fill="#263238"/></g><g transform="translate(10.833 10.741)"><path d="M378.64,128.179c.081.235.955.137,1.976.274,1.025.117,1.844.424,1.985.217.063-.1-.077-.321-.406-.552a3.518,3.518,0,0,0-3.017-.374C378.8,127.888,378.6,128.068,378.64,128.179Z" transform="translate(-378.636 -127.562)" fill="#263238"/></g><g transform="translate(2.842 10.354)"><path d="M364.507,127.861c.164.185.753-.053,1.475-.106.72-.078,1.34.05,1.47-.161.056-.1-.051-.292-.328-.46a2.173,2.173,0,0,0-2.373.216C364.507,127.564,364.434,127.77,364.507,127.861Z" transform="translate(-364.48 -126.878)" fill="#263238"/></g><g transform="translate(9.197)"><path d="M376.56,109.672a2.96,2.96,0,0,1,2.335-1.112c3.9-.313,8.038,2.312,9.97,5.71s1.707,8.25-.126,11.7l-1.464.151c-3-.392-7.476-9.141-11.374-14.074C375.416,111.438,376.118,110.316,376.56,109.672Z" transform="translate(-375.737 -108.535)" fill="#263238"/></g><g transform="translate(0 0.357)"><path d="M361.906,111.958c1.742-1.721,4.519-3.775,7.778-2.264.427.973-.652,2.119-1.531,2.772-1.288.956-2.4,1.585-3.248,2.274-1.717,1.393-3.889,3.745-4.241,6.5-.022.173-.156.189-.328.15a5,5,0,0,1-.823-2.735A7.238,7.238,0,0,1,361.906,111.958Z" transform="translate(-359.446 -109.168)" fill="#263238"/></g><g transform="translate(19.804 15.563)"><path d="M394.623,136.305c.093-.042,3.754-1.2,3.717,2.562s-3.806,2.949-3.812,2.841S394.623,136.305,394.623,136.305Z" transform="translate(-394.528 -136.104)" fill="#ffbe9d"/></g><g transform="translate(20.964 16.783)"><path d="M396.586,141.234c.016-.012.065.047.176.1a.655.655,0,0,0,.489.015,1.62,1.62,0,0,0,.765-1.447,2.166,2.166,0,0,0-.174-.94.758.758,0,0,0-.488-.508.333.333,0,0,0-.388.176c-.052.1-.029.18-.049.186s-.08-.064-.048-.219a.416.416,0,0,1,.15-.234.5.5,0,0,1,.363-.092.92.92,0,0,1,.679.59,2.227,2.227,0,0,1,.217,1.051,1.7,1.7,0,0,1-.972,1.615.7.7,0,0,1-.6-.106C396.592,141.325,396.573,141.241,396.586,141.234Z" transform="translate(-396.583 -138.265)" fill="#eb996e"/></g></g></g><g transform="translate(1.241 15.516)"><path d="M302.25,154.883l-5.53,2.856-2.22-3.728a17.683,17.683,0,0,1-2.913-2.094l-1.972-2.23a2.05,2.05,0,0,1-.5-1.79.6.6,0,0,1,.172-.347l.548-.964s-.3-1.371-.387-2.238a7.121,7.121,0,0,1,.644-2.452l-2.066-4.425a1.138,1.138,0,0,1,.167-1.252.481.481,0,0,1,.684-.1c.705.476,2.761,4.054,2.761,4.054l.763.738.974.157s-.289-1.377.306-1.688l2.816,2.033,2.326,3.259s.46,4.709,1.079,5.965S302.25,154.883,302.25,154.883Z" transform="translate(-287.916 -136.02)" fill="#ffbe9d"/><g transform="translate(2.165 5.857)"><path d="M293.29,149.9a7.581,7.581,0,0,1-1.531-3.506c.052-.014.282.815.706,1.779S293.334,149.874,293.29,149.9Z" transform="translate(-291.751 -146.397)" fill="#eb996e"/></g><g transform="translate(1.715 9.596)"><path d="M291.608,155.033a2.114,2.114,0,0,1-.444-.968,2.949,2.949,0,0,1-.2-1.045,3.464,3.464,0,0,1,.369.994A6.622,6.622,0,0,1,291.608,155.033Z" transform="translate(-290.954 -153.02)" fill="#eb996e"/></g><g transform="translate(3.248 3.348)"><path d="M293.672,141.952a9.392,9.392,0,0,1,.652.889c.395.554.953,1.309,1.6,2.123.321.408.633.791.92,1.136a3.657,3.657,0,0,0,.848.8,1.807,1.807,0,0,0,1.023.273.553.553,0,0,1-.3.058,1.611,1.611,0,0,1-.793-.22,3.533,3.533,0,0,1-.909-.8c-.3-.342-.612-.724-.934-1.132-.645-.817-1.191-1.588-1.559-2.163A5.219,5.219,0,0,1,293.672,141.952Z" transform="translate(-293.671 -141.951)" fill="#eb996e"/></g><g transform="translate(5.353 4.033)"><path d="M299.678,147.349c-.029.006-.08-.268-.253-.671a3.9,3.9,0,0,0-.987-1.373,5.041,5.041,0,0,1-.716-.655,1.425,1.425,0,0,1-.306-.753,1.57,1.57,0,0,1,.042-.73c.032,0,.007.282.083.71a1.382,1.382,0,0,0,.308.667,5.842,5.842,0,0,0,.708.627,3.513,3.513,0,0,1,.987,1.462A1.632,1.632,0,0,1,299.678,147.349Z" transform="translate(-297.399 -143.165)" fill="#eb996e"/></g></g><g transform="translate(49.447 13.734)"><path d="M373.311,132.864" transform="translate(-373.311 -132.864)" fill="none" stroke="#4e585d" stroke-miterlimit="10" stroke-width="1"/></g><g transform="translate(8.366 30.165)"><g transform="translate(28.126 2.938)"><path d="M383.6,211.982V202.2s1.05-15.234,1.05-19.93-5.532-15.1-5.532-15.1l-9.063.273-6.672.147c-.068,0-11.021,10.612-11.021,10.612a31.23,31.23,0,0,0-1.864,13.732,25.465,25.465,0,0,0,.773,3.822l2.354,9.213s1.319,6.142,1.774,8.275c.357,1.678,18.985.872,27.086.719C384.422,213.932,383.6,211.982,383.6,211.982Z" transform="translate(-350.362 -167.175)" fill="#1565c0"/></g><path d="M306.314,161.971s11.623,16.619,12.023,16.619,13.988-9.571,13.988-9.571,5.948-4.41,9.55-3.609-1.016,16.7-1.016,16.7-18.614,10.593-24.885,11.128-14.367-24.555-14.367-24.555l-1.069-1.434Z" transform="translate(-300.538 -161.971)" fill="#1565c0"/><g transform="translate(28.021 21.21)"><path d="M360.391,199.544a1.59,1.59,0,0,1-.3.19l-.883.5L355.937,202l-2.267,1.211c-.412.213-.818.452-1.276.662a7.129,7.129,0,0,0-1.316.687,1.4,1.4,0,0,0-.62,1.256,8.656,8.656,0,0,0,.229,1.616c.23,1.1.58,2.212.84,3.4.979,4.688,2.176,8.863,2.918,11.917.378,1.525.661,2.766.842,3.626l.2.993a1.559,1.559,0,0,1,.049.351,1.613,1.613,0,0,1-.106-.338c-.065-.254-.148-.579-.251-.98l-.933-3.6c-.793-3.037-2.022-7.206-3-11.909-.254-1.157-.605-2.283-.834-3.4a8.834,8.834,0,0,1-.228-1.675,1.688,1.688,0,0,1,.178-.845,1.881,1.881,0,0,1,.561-.628l4.926-2.527,3.315-1.689.908-.446A1.628,1.628,0,0,1,360.391,199.544Z" transform="translate(-350.176 -199.543)" fill="#263238"/></g><g transform="translate(17.014 16.576)"><path d="M331.035,197.514a9.153,9.153,0,0,1,.411-6.18c.086.027-.344,1.364-.45,3.074S331.124,197.5,331.035,197.514Z" transform="translate(-330.678 -191.334)" fill="#263238"/></g><g transform="translate(14.782 16.616)"><path d="M326.741,196.593a5.75,5.75,0,0,1,.933-2.919,6.235,6.235,0,0,1,2.067-2.265,26.686,26.686,0,0,0-1.814,2.414A19.284,19.284,0,0,0,326.741,196.593Z" transform="translate(-326.723 -191.406)" fill="#263238"/></g><g transform="translate(38.835 5.262)"><path d="M372.2,182.889c-.052-.012.122-.689.217-1.8a13.364,13.364,0,0,0-2.054-8.3c-.6-.94-1.073-1.457-1.032-1.493.015-.014.142.1.362.334a8.64,8.64,0,0,1,.843,1.043,12.189,12.189,0,0,1,2.088,8.438,8.607,8.607,0,0,1-.26,1.316A1.573,1.573,0,0,1,372.2,182.889Z" transform="translate(-369.333 -171.293)" fill="#263238"/></g><g transform="translate(47.054 6.388)" opacity="0.3"><path d="M396.53,176.268a5.693,5.693,0,0,1-1.087-2.981l-11.356,2.553a3.524,3.524,0,0,0,.914,3.614,10.128,10.128,0,0,0,3.324,2.067,7.9,7.9,0,0,0,4.659,1.018,6.794,6.794,0,0,0,2.893-1.585,3.844,3.844,0,0,0,1.322-1.636A3.9,3.9,0,0,0,396.53,176.268Z" transform="translate(-383.892 -173.287)"/></g><g transform="translate(28.527 19.402)" opacity="0.3"><path d="M351.482,202.917l-.41.485a9.814,9.814,0,0,0,11.592-7.061A47.622,47.622,0,0,1,351.482,202.917Z" transform="translate(-351.072 -196.341)"/></g><g transform="translate(12.858 16.619)" opacity="0.3"><path d="M328.257,191.411c-2.342.894-4.667,3.377-4.924,5.87a1.43,1.43,0,0,0,.054.69.567.567,0,0,0,.535.375c.352-.032.507-.447.6-.788a15.283,15.283,0,0,1,3.735-6.148Z" transform="translate(-323.316 -191.411)"/></g></g><g transform="translate(50.022 1.145)"><path d="M398.655,144.947a5.85,5.85,0,0,1-2.825-5.963,30.227,30.227,0,0,1,1.408-3.932,4.063,4.063,0,0,0-.443-3.965,14.01,14.01,0,0,0-2.081-1.437,5.315,5.315,0,0,1-1.782-2.849c-.058-1.082.017-2.2-.026-3.28a13.695,13.695,0,0,0-11.364-12.958L375.62,112.7a15.15,15.15,0,0,0,3.371,7.328,32.159,32.159,0,0,1,2.638,3.1,4.492,4.492,0,0,1,.708,3.866c-.408,1.128-1.441,1.946-1.833,3.08-.774,2.234,1.194,4.607.827,6.944a4.9,4.9,0,0,1-.812,1.923,10.733,10.733,0,0,1-1.526.476,10.95,10.95,0,0,0-3.044,1.019,3.014,3.014,0,0,0-1.614,2.6,48.169,48.169,0,0,1,7.546.037c-1.7,2.248-3,6.364-2.493,6.867.663.664,5.41,1.8,6.345,1.869,3.926.3,3.118-2.309,7.025-2.8a2.055,2.055,0,0,0,1.167-.406,1.946,1.946,0,0,0,.375-1.7c-.138-1.119-.436-2.244-.657-3.363A6.01,6.01,0,0,0,398.655,144.947Z" transform="translate(-374.33 -110.564)" fill="#263238"/><g transform="translate(3.823 2.608)"><path d="M383.924,150.471a.292.292,0,0,1-.031-.1,2.1,2.1,0,0,1-.056-.295,3.327,3.327,0,0,1,.063-1.149,5.848,5.848,0,0,1,.7-1.682,19.9,19.9,0,0,1,1.38-1.967,8.819,8.819,0,0,0,1.387-2.489,3.5,3.5,0,0,0,.14-1.541,3.974,3.974,0,0,0-.624-1.525c-.308-.49-.673-.97-.986-1.515a3.383,3.383,0,0,1-.511-1.861,4.5,4.5,0,0,1,.587-1.905c.312-.592.68-1.153,1-1.74a5.155,5.155,0,0,0,.637-3.712,9.131,9.131,0,0,0-1.4-3.317c-.637-.974-1.354-1.827-2.006-2.641a24.162,24.162,0,0,1-1.726-2.348,8.382,8.382,0,0,1-1.37-3.969,5.32,5.32,0,0,1,.077-1.147,1.967,1.967,0,0,1,.1-.387,8.011,8.011,0,0,0-.068,1.527,8.542,8.542,0,0,0,1.431,3.865,24.991,24.991,0,0,0,1.739,2.3,32.815,32.815,0,0,1,2.044,2.646,9.325,9.325,0,0,1,1.458,3.414,5.855,5.855,0,0,1,.042,1.986,5.794,5.794,0,0,1-.705,1.919c-.648,1.187-1.5,2.273-1.559,3.515a3.111,3.111,0,0,0,.469,1.712c.3.523.659,1,.972,1.51a4.229,4.229,0,0,1,.65,1.63,3.726,3.726,0,0,1-.163,1.651,8.894,8.894,0,0,1-1.454,2.541,21.207,21.207,0,0,0-1.406,1.926,5.963,5.963,0,0,0-.729,1.625A4.282,4.282,0,0,0,383.924,150.471Z" transform="translate(-381.103 -115.184)" fill="#455a64"/></g></g><g transform="translate(0 79.408)"><g transform="translate(27.665 5.005)"><path d="M348.79,258.229l-2.448-.159c-.99,1.192-1.6,2.664-2.61,3.839a9.672,9.672,0,0,1-4.15,2.672,28.878,28.878,0,0,1-4.859,1.116,5.608,5.608,0,0,0,.21,1.535,1.893,1.893,0,0,0,.963,1.163,2.685,2.685,0,0,0,1.423.089,26.79,26.79,0,0,0,7.416-2.069,7.431,7.431,0,0,0,3.348-2.456C349.167,262.318,349,260.184,348.79,258.229Z" transform="translate(-334.724 -258.07)" fill="#455a64"/></g><g transform="translate(26.857 35.434)"><path d="M333.294,313.218c.429.509,20.779,46.965,20.779,46.965s13.778-5.784,13.439-6.294-16.438-41.915-16.438-41.915Z" transform="translate(-333.294 -311.974)" fill="#263238"/></g><g transform="translate(0 0.24)"><path d="M355,249.8l-27.445-.167-.367,6.058c-1.523,3.471-3,5.243-5.034,5.9-8.332,2.707-29.622,9.7-32.7,11.514-3.84,2.259-3.283,8.2-3.735,12.268s22.3,54.438,22.3,54.438l15.747-6.722-12.853-41.011-.9-5.2,43.553-.628s8.3-2.079,8.075-13.6S355,249.8,355,249.8Z" transform="translate(-285.717 -249.629)" fill="#263238"/></g><g transform="translate(52.573 20.422)"><path d="M388.646,285.381a3.7,3.7,0,0,1,.19.8,12.474,12.474,0,0,1,.174,2.234,13.832,13.832,0,0,1-7.309,12.128,12.5,12.5,0,0,1-2.058.889,3.717,3.717,0,0,1-.8.206,25.641,25.641,0,0,0,2.752-1.276,14.175,14.175,0,0,0,7.2-11.951A25.51,25.51,0,0,0,388.646,285.381Z" transform="translate(-378.848 -285.381)" fill="#ff725e"/></g><g transform="translate(38.289)"><g transform="translate(0.053 0.809)"><path d="M357.249,250.937a2.926,2.926,0,0,0-2.849.173,2.2,2.2,0,0,0-.728,2.09,3.091,3.091,0,0,0,1.249,1.894,2.084,2.084,0,0,0,2.354.261,1.855,1.855,0,0,0,.7-1.275,5.5,5.5,0,0,0-.066-1.486,3.306,3.306,0,0,0-.385-1.349,1.133,1.133,0,0,0-1.194-.558" transform="translate(-353.637 -250.638)" fill="#455a64"/></g><g transform="translate(2.418)"><path d="M387.509,249.2a99.289,99.289,0,0,1,4.68,13.237,33.2,33.2,0,0,1,.789,13.923c-.581,3.2-1.373,6.941-4.132,8.67a5.271,5.271,0,0,1-3.415,1.18c-5.126.269-14.344.11-19.474-.075-2.477-.089-5.652.234-8.129.145,7.481-6.53,11.886-17.494,10.231-27.285a6.024,6.024,0,0,0-1.939-4.019,7.189,7.189,0,0,0-3.915-.933c-1.359-.078-1.717.262-2.945.262-1.88,0-1.615-4.527-.3-4.867Z" transform="translate(-357.827 -249.204)" fill="#455a64"/></g><g transform="translate(15.323 20.205)"><path d="M391.95,285a4.209,4.209,0,0,1-.221.775c-.156.495-.418,1.2-.773,2.054a37.408,37.408,0,0,1-8.028,11.97c-.658.654-1.209,1.163-1.607,1.5a4.236,4.236,0,0,1-.633.5,4.3,4.3,0,0,1,.555-.583c.373-.357.9-.887,1.535-1.556a42.362,42.362,0,0,0,7.986-11.908c.378-.842.668-1.531.857-2.011A4.236,4.236,0,0,1,391.95,285Z" transform="translate(-380.688 -284.996)" fill="#263238"/></g><g transform="translate(18.067 27.697)"><path d="M396.53,298.269a2.176,2.176,0,0,1-.3.483c-.208.3-.532.722-.949,1.227a28.611,28.611,0,0,1-7.825,6.537c-.571.321-1.042.564-1.376.715a2.079,2.079,0,0,1-.53.212c-.021-.042.691-.422,1.8-1.106a34.966,34.966,0,0,0,7.773-6.494C395.991,298.874,396.492,298.24,396.53,298.269Z" transform="translate(-385.548 -298.268)" fill="#263238"/></g><g transform="translate(3.906 36.797)"><path d="M391.286,314.535c0,.081-6.9.147-15.41.147s-15.412-.066-15.412-.147,6.9-.147,15.412-.147S391.286,314.454,391.286,314.535Z" transform="translate(-360.464 -314.388)" fill="#263238"/></g><g transform="translate(5.078 4.647)"><path d="M377.243,262.132c-.036.042-.7-.556-1.884-1.344a19.072,19.072,0,0,0-2.172-1.236,18.828,18.828,0,0,0-5.84-1.74,19.181,19.181,0,0,0-2.495-.154c-1.426.009-2.3.148-2.312.094a2.563,2.563,0,0,1,.611-.135,12.712,12.712,0,0,1,1.7-.166,16.708,16.708,0,0,1,2.532.093,17.526,17.526,0,0,1,5.927,1.765,16.76,16.76,0,0,1,2.169,1.308,12.735,12.735,0,0,1,1.33,1.067A2.571,2.571,0,0,1,377.243,262.132Z" transform="translate(-362.54 -257.437)" fill="#263238"/></g><g transform="translate(15.037 5.1)"><path d="M388.972,260.676a5.648,5.648,0,0,1-1.33-.177c-.813-.153-1.93-.4-3.148-.74s-2.3-.7-3.081-.982a5.586,5.586,0,0,1-1.232-.532,6.6,6.6,0,0,1,1.3.335c.791.235,1.882.56,3.094.9s2.315.616,3.114.821A6.61,6.61,0,0,1,388.972,260.676Z" transform="translate(-380.181 -258.238)" fill="#263238"/></g><g transform="translate(1.959 0.134)"><path d="M359.052,254.559a1.5,1.5,0,0,1-.875-.38,2.835,2.835,0,0,1-.441-4.18c.4-.451.764-.583.776-.554.028.042-.282.234-.614.685a2.825,2.825,0,0,0,.411,3.888C358.727,254.39,359.07,254.513,359.052,254.559Z" transform="translate(-357.015 -249.442)" fill="#263238"/></g><g transform="translate(0.501 3.209)"><path d="M356.307,255.011c-.012.084-.479.064-.981.288s-.813.565-.883.517c-.072-.032.17-.532.766-.786S356.333,254.937,356.307,255.011Z" transform="translate(-354.431 -254.889)" fill="#263238"/></g><g transform="translate(0 0.838)"><path d="M357.555,255.246c.012,0-.024.15-.222.313a1.52,1.52,0,0,1-1,.289,3,3,0,0,1-1.471-.478,2.818,2.818,0,0,1-1.18-1.484,2.632,2.632,0,0,1,.09-1.9,2.247,2.247,0,0,1,1.1-1.1,2.032,2.032,0,0,1,1.022-.2c.246.023.371.08.367.1a2.863,2.863,0,0,0-1.3.288,2.11,2.11,0,0,0-.943,1.022,2.439,2.439,0,0,0-.058,1.695,2.636,2.636,0,0,0,1.049,1.349,2.964,2.964,0,0,0,1.333.5,1.535,1.535,0,0,0,.926-.174C357.463,255.349,357.533,255.23,357.555,255.246Z" transform="translate(-353.544 -250.689)" fill="#263238"/></g></g><g transform="translate(45.584 4.79)" opacity="0.3"><path d="M381.035,264.483l-.007-.023a4.511,4.511,0,0,0-1.377-1.86c-3.443-3.143-8.882-5.4-13.183-4.821a17.809,17.809,0,0,1,8.66,3.135,30.272,30.272,0,0,1,4.278,4.4A.935.935,0,0,0,381.035,264.483Z" transform="translate(-366.467 -257.689)"/></g><g transform="translate(56.479 28.103)"><g opacity="0.3"><path d="M396.36,298.987a32.164,32.164,0,0,1-10.592,8.7c2.309-.425,5.217-.992,7.129-2.345C394.917,303.917,396.609,301.448,396.36,298.987Z" transform="translate(-385.768 -298.987)"/></g></g></g></g><g transform="translate(112.02 96.563)"><g transform="translate(0 39.7)"><g transform="translate(0 73.995)"><path d="M178.765,426.127l3.352-.051,7.406-65.044-3.3-.379Z" transform="translate(-178.765 -360.653)" fill="#455a64"/></g><g transform="translate(19.654 73.995)"><path d="M213.581,426.127l3.352-.051,7.406-65.044-3.3-.379Z" transform="translate(-213.581 -360.653)" fill="#455a64"/></g><g transform="translate(68.139 74.713)"><path d="M310.228,426.8l-3.352-.051-7.406-64.447,3.3-.379Z" transform="translate(-299.47 -361.926)" fill="#455a64"/></g><g transform="translate(46.525 74.713)"><path d="M271.94,426.8l-3.352-.051-7.406-64.447,3.3-.379Z" transform="translate(-261.181 -361.926)" fill="#455a64"/></g><g transform="translate(5.22 78.142)"><g transform="translate(0 0)"><rect width="67.649" height="7.008" transform="translate(67.649 7.008) rotate(180)" fill="#455a64"/></g></g><g transform="translate(5.22)"><path d="M231.413,229.574l-42.859.529-.541,77.612,49.214.672Z" transform="translate(-188.012 -229.574)" fill="#455a64"/></g></g><g transform="translate(2.327)"><g transform="translate(0 33.829)"><g transform="translate(7.935)"><path d="M254.495,255.414c-.224-1.5-4.709-6.462-4.709-6.462s-2.242-9-2.915-11.654a8.8,8.8,0,0,0-.975-2.174,17.521,17.521,0,0,0-6.547-6.315l-6.207-3.49-1.485-3.3-15.95-2.841-3.216,3.694s-12.041,4.571-13.621,5.959c-1.939,1.7,3.357,30.109,3.357,30.109s-4.11,17.239-4.976,20.805.381,8.578.381,8.578l8.16-7.8c2.272-2.851,6.313-6.3,9.9-6.246l30.624.135-1.218-8.578,24.761,4.816s4.261-8.308,4.6-8.475S254.495,255.414,254.495,255.414Z" transform="translate(-196.944 -219.173)" fill="#2ec49f"/></g><g transform="translate(26.907 4.389)"><path d="M230.567,226.952a131.135,131.135,0,0,0,4.349,13.766A32.925,32.925,0,0,1,236.892,252v24.228l14.684-1-2.2-15.96s-1.79-10.3-2.291-14.211c-.458-3.585-2.04-14.5-2.04-14.5S236.715,233.213,230.567,226.952Z" transform="translate(-230.552 -226.947)" fill="#fff"/></g><g transform="translate(59.666 36.162)"><path d="M288.6,289.332a.925.925,0,0,1,0-.37,5.49,5.49,0,0,1,.193-.987,6.629,6.629,0,0,1,4.524-4.533,5.434,5.434,0,0,1,.987-.2.944.944,0,0,1,.37,0c.006.046-.515.1-1.3.374a7.049,7.049,0,0,0-4.4,4.411C288.7,288.818,288.644,289.339,288.6,289.332Z" transform="translate(-288.584 -283.233)" fill="#263238"/></g><g transform="translate(60.437 35.776)"><path d="M289.949,283.221a5.878,5.878,0,0,1,4.56-.375c-.016.08-1.037-.119-2.3-.009S289.978,283.3,289.949,283.221Z" transform="translate(-289.949 -282.548)" fill="#263238"/></g><g transform="translate(10.464 45.82)"><g transform="translate(0 3.848)" opacity="0.3"><path d="M202.7,307.159l-1.274,1.445a10.293,10.293,0,0,0,5.173,3.421,26.35,26.35,0,0,0,6.241.565,9.008,9.008,0,0,0,2.524-.24,11.8,11.8,0,0,1,2.468-.763,6.409,6.409,0,0,1,1.713.244,3.339,3.339,0,0,0,1.716.028,1.357,1.357,0,0,0,1-1.266A90.47,90.47,0,0,0,202.7,307.159Z" transform="translate(-201.423 -307.159)"/></g><g transform="translate(17.304)"><path d="M257.962,306.043l-3.6-3.827-7.411-1.875s-6.791,2.034-6.954,2.028-5.91-1.57-5.91-1.57l-2.009,7.368,10.352.71,11.82-.474s.616-.574.251-.966,1.976.664,2.252.676.811.224,1.175-.217A1.559,1.559,0,0,0,257.962,306.043Z" transform="translate(-232.076 -300.342)" fill="#ffbe9d"/></g><g transform="translate(31.663 5.007)"><path d="M265.576,311.3a6.445,6.445,0,0,1-1.178-.335c-.718-.228-1.712-.533-2.824-.818s-2.131-.5-2.87-.644a6.351,6.351,0,0,1-1.192-.278,5,5,0,0,1,1.223.093,26.266,26.266,0,0,1,2.9.571,25.365,25.365,0,0,1,2.82.9A4.969,4.969,0,0,1,265.576,311.3Z" transform="translate(-257.513 -309.211)" fill="#eb996e"/></g><g transform="translate(31.835 2.792)"><path d="M269.172,308.2a15.7,15.7,0,0,1-1.644-.531c-1.009-.34-2.419-.757-3.987-1.194a20.933,20.933,0,0,0-4.018-.992,9.819,9.819,0,0,0-1.707.067,1.35,1.35,0,0,1,.444-.15,4.879,4.879,0,0,1,1.273-.1,17.389,17.389,0,0,1,4.079.924c1.569.438,2.979.886,3.978,1.274.5.191.9.361,1.17.487A1.558,1.558,0,0,1,269.172,308.2Z" transform="translate(-257.817 -305.288)" fill="#eb996e"/></g></g><g transform="translate(0 9.653)"><path d="M192.748,236.273s-2.63,1.725-3.93,7.075-6.931,27.2-5.776,30.465,23.619,6.475,23.619,6.475l2.662-11.231-11.408-3.121s.145-10.4.289-14.712S192.748,236.273,192.748,236.273Z" transform="translate(-182.887 -236.273)" fill="#2ec49f"/></g><g transform="translate(24.139 44.112)"><path d="M227.8,297.316l3.676.9-2.211,8.477-3.612-.579Z" transform="translate(-225.649 -297.316)" fill="#fff"/></g><g transform="translate(0.052 39.37)"><path d="M183,295.582c.019,0-.011.187.055.529a2.49,2.49,0,0,0,.783,1.275,10.806,10.806,0,0,0,5.2,2.091h.008l.009,0c1.08.354,2.311.637,3.627.935s2.733.6,4.228.9c2.988.611,6.3,1.254,9.8,1.91l-.152.1c.253-1.042.522-2.143.794-3.26.631-2.577,1.241-5.074,1.82-7.44l.09.154-10.139-2.894-.006,0-.006,0a10.019,10.019,0,0,0-4.422-.775,9.763,9.763,0,0,0-3.337.784,11.258,11.258,0,0,0-1.918,1.062l-.465.338a.885.885,0,0,1-.164.109.938.938,0,0,1,.145-.133c.1-.082.246-.211.448-.364a10.345,10.345,0,0,1,1.906-1.12,9.727,9.727,0,0,1,3.375-.842,10.119,10.119,0,0,1,4.512.749l-.011,0,10.152,2.847.119.033-.029.121c-.576,2.368-1.184,4.864-1.811,7.442-.272,1.117-.541,2.218-.8,3.259l-.03.122-.123-.023c-3.506-.66-6.811-1.312-9.8-1.938-1.495-.312-2.908-.622-4.227-.926s-2.543-.6-3.642-.972l.017,0a10.691,10.691,0,0,1-5.245-2.2A2.481,2.481,0,0,1,183,296.12,1.542,1.542,0,0,1,183,295.582Z" transform="translate(-182.979 -288.915)" fill="#263238"/></g><g transform="translate(7.129 37.303)"><path d="M204.031,288.012c-.032.033-.412-.316-1.1-.774a10.483,10.483,0,0,0-6.075-1.77c-.825.019-1.333.109-1.342.064a4.185,4.185,0,0,1,1.332-.252,9.3,9.3,0,0,1,6.193,1.8A4.179,4.179,0,0,1,204.031,288.012Z" transform="translate(-195.517 -285.254)" fill="#263238"/></g><g transform="translate(13.81 21.763)"><path d="M210.681,257.725a3.424,3.424,0,0,1,.007.685c-.01.441-.048,1.077-.108,1.862-.126,1.569-.36,3.735-.77,6.1a42.517,42.517,0,0,1-1.417,5.992c-.125.374-.254.708-.365,1l-.326.736a3.338,3.338,0,0,1-.35.591,3.4,3.4,0,0,1,.256-.633l.282-.746c.1-.3.211-.631.324-1.006a52.919,52.919,0,0,0,1.334-5.98c.409-2.36.672-4.515.845-6.077l.192-1.851A3.324,3.324,0,0,1,210.681,257.725Z" transform="translate(-207.351 -257.725)" fill="#263238"/></g><g transform="translate(23.202 3.409)"><path d="M230.954,237.809c-.018,0-.053-.129-.177-.349a2.168,2.168,0,0,0-.768-.775,2.046,2.046,0,0,0-3.065,1.24l-.071.336-.156-.31a31.518,31.518,0,0,1-1.563-3.64A17.8,17.8,0,0,1,224,227.878c0-.42.064-.8.09-1.128.062-.329.108-.612.163-.841a3.9,3.9,0,0,1,.226-.7,15.219,15.219,0,0,0-.291,2.67,19.007,19.007,0,0,0,1.22,6.354,34.852,34.852,0,0,0,1.528,3.624l-.228.025a2.239,2.239,0,0,1,1.579-1.6,2.2,2.2,0,0,1,1.8.29,2.065,2.065,0,0,1,.755.855,1.318,1.318,0,0,1,.1.278C230.956,237.774,230.96,237.808,230.954,237.809Z" transform="translate(-223.988 -225.212)" fill="#263238"/></g><g transform="translate(42.38 2.842)"><path d="M258.211,238.484a3.7,3.7,0,0,1-.118-.608,6.347,6.347,0,0,1-.108-1.714,3.587,3.587,0,0,1,1.233-2.264,2.34,2.34,0,0,1,1.486-.533,2.025,2.025,0,0,1,1.564.7l-.225.129-.485-1.222c-.953-2.408-1.8-4.593-2.4-6.18l-.7-1.883a3.861,3.861,0,0,1-.222-.7,3.96,3.96,0,0,1,.32.667l.78,1.854c.647,1.569,1.524,3.744,2.478,6.153l.483,1.222.312.789-.537-.66a1.778,1.778,0,0,0-1.362-.614,2.114,2.114,0,0,0-1.34.465,3.466,3.466,0,0,0-1.2,2.1,7.241,7.241,0,0,0,.029,1.678A2.547,2.547,0,0,1,258.211,238.484Z" transform="translate(-257.962 -224.207)" fill="#263238"/></g><g transform="translate(52.106 18.387)"><path d="M275.2,251.745c.073-.01,1.228,7.761,2.58,17.355s2.389,17.384,2.316,17.394-1.228-7.759-2.58-17.357S275.122,251.756,275.2,251.745Z" transform="translate(-275.192 -251.745)" fill="#263238"/></g><g transform="translate(24.524 12.26)" opacity="0.3"><path d="M226.331,240.891a16.021,16.021,0,0,0,1.273,5.772,4.092,4.092,0,0,1,2.02-1.617,3.216,3.216,0,0,1,2.886,1.193,5.238,5.238,0,0,0-.922-2.206,2.584,2.584,0,0,0-2.026-1.059,1.794,1.794,0,0,0-1.706,1.391l-1.465-3.441" transform="translate(-226.331 -240.891)"/></g><g transform="translate(10.915 10.487)"><path d="M207.2,245.14c-.049,0-.033-.535-.187-1.371a8.34,8.34,0,0,0-1.243-3.04,8.953,8.953,0,0,0-1.168-1.389,7.919,7.919,0,0,0-1.172-.912c-.717-.453-1.224-.628-1.206-.674.006-.018.135.015.366.089A2.706,2.706,0,0,1,203,238a4.46,4.46,0,0,1,.525.263,6.984,6.984,0,0,1,1.241.894,8.253,8.253,0,0,1,1.223,1.421,7.59,7.59,0,0,1,1.207,3.158,5.307,5.307,0,0,1,.05,1.026A1.019,1.019,0,0,1,207.2,245.14Z" transform="translate(-202.222 -237.75)" fill="#263238"/></g></g><g transform="translate(17.242)"><g transform="translate(5.04 3.984)"><path d="M242.478,174.827a10.952,10.952,0,0,0-12.243-8.41l-.562.081c-6,1.226-8.315,7.008-6.924,12.975L227,200.542l.821,2.194a11.111,11.111,0,0,0,13.66,1.417l.13-1.237-1.273-6.786s5.69-1.743,4.923-7.572C244.889,185.741,243.655,180,242.478,174.827Z" transform="translate(-222.357 -166.304)" fill="#ffbe9d"/></g><g transform="translate(15.117 32.661)"><path d="M248.156,218.238a14.257,14.257,0,0,1-7.946-1.133s2.4,3.93,8.127,2.569Z" transform="translate(-240.21 -217.105)" fill="#eb996e"/></g><g transform="translate(22.566 16.298)"><path d="M255.061,188.762a.84.84,0,0,1-.68.954.8.8,0,0,1-.965-.626.84.84,0,0,1,.68-.954A.8.8,0,0,1,255.061,188.762Z" transform="translate(-253.404 -188.119)" fill="#263238"/></g><g transform="translate(13.818 17.4)"><path d="M239.564,190.715a.839.839,0,0,1-.68.953.8.8,0,0,1-.965-.625.841.841,0,0,1,.68-.955A.8.8,0,0,1,239.564,190.715Z" transform="translate(-237.907 -190.071)" fill="#263238"/></g><g transform="translate(11.811 15.964)"><path d="M237.746,188.172c-.091.124-.807-.242-1.728-.1s-1.533.683-1.648.589c-.056-.041.023-.251.289-.5a2.448,2.448,0,0,1,1.3-.6,2.337,2.337,0,0,1,1.395.217C237.667,187.937,237.791,188.117,237.746,188.172Z" transform="translate(-234.353 -187.527)" fill="#263238"/></g><g transform="translate(20.405 14.828)"><path d="M252.986,186.158c-.091.124-.811-.242-1.735-.1s-1.54.684-1.656.59c-.056-.041.023-.251.291-.5a2.467,2.467,0,0,1,1.306-.606,2.352,2.352,0,0,1,1.4.216C252.906,185.922,253.031,186.1,252.986,186.158Z" transform="translate(-249.577 -185.513)" fill="#263238"/></g><g transform="translate(17.953 15.778)"><path d="M246.722,194.589a5.977,5.977,0,0,1,1.414-.471c.225-.056.435-.133.451-.294a1.174,1.174,0,0,0-.25-.655l-.926-1.642a30.1,30.1,0,0,1-2.172-4.329,30.3,30.3,0,0,1,2.515,4.145c.314.578.614,1.128.9,1.656a1.334,1.334,0,0,1,.248.879.58.58,0,0,1-.327.388,1.563,1.563,0,0,1-.38.11A5.867,5.867,0,0,1,246.722,194.589Z" transform="translate(-245.234 -187.197)" fill="#263238"/></g><g transform="translate(10.62 12.583)"><path d="M236.329,182.1c-.072.251-.98.2-2.029.4-1.052.18-1.884.548-2.039.338-.07-.1.063-.342.391-.6a3.591,3.591,0,0,1,3.1-.56C236.15,181.8,236.359,181.983,236.329,182.1Z" transform="translate(-232.243 -181.538)" fill="#263238"/></g><g transform="translate(19.791 11.592)"><path d="M252.316,180.488c-.17.229-.967.116-1.894.225-.93.082-1.692.356-1.9.166-.093-.093,0-.313.322-.549a3.133,3.133,0,0,1,1.495-.531,3.077,3.077,0,0,1,1.562.216C252.256,180.182,252.39,180.378,252.316,180.488Z" transform="translate(-248.49 -179.781)" fill="#263238"/></g><g transform="translate(2.982)"><path d="M241.984,166.39a1.122,1.122,0,0,0-1.275-.76,2.374,2.374,0,0,0,.756-.505.808.808,0,0,0,.18-.846c-.2-.434-.791-.459-1.264-.535a3.026,3.026,0,0,1-1.642-.837,25.99,25.99,0,0,1-1.527-2.22,3.9,3.9,0,0,0-6.094.047,4.064,4.064,0,0,0-6.376,1.755A4.742,4.742,0,0,0,218.9,168.4l3.9,1.8a1.977,1.977,0,0,1,2.193-1.986c1.135.188,1.986,1.375,3.136,1.328.895-.037,1.568-.814,2.4-1.145a4.266,4.266,0,0,1,3.162.3,12.323,12.323,0,0,0,3.052,1.113,6.063,6.063,0,0,0,3.652-.878,3.887,3.887,0,0,0,1.271-1.01A1.721,1.721,0,0,0,241.984,166.39Z" transform="translate(-218.712 -159.247)" fill="#263238"/></g><g transform="translate(2.799 2.948)"><path d="M223.086,170.689l16.638-2.058a7.669,7.669,0,0,0-2.849-2.462,13.093,13.093,0,0,0-7.9-1.6c-2.711.348-7.735,4.447-9.423,6.6a4.288,4.288,0,0,0-1.15,3.011c.065,2.187,1.626,4.455,2.413,6.5.406,1.053,1.364,4.277,1.364,4.277h0c.913-.137,1.147-.913.876-1.8l-.689-3.519a5.409,5.409,0,0,0,.722-6.49C222.8,172.854,222.08,171.45,223.086,170.689Z" transform="translate(-218.388 -164.469)" fill="#263238"/></g><g transform="translate(0 8.949)"><path d="M219.915,184.054c-1.2-2.848-2.346-5.915-1.791-8.954l-.5.038-.189.174a2.345,2.345,0,0,0-2.194,3.9,2.028,2.028,0,0,0-1.815,2,3.765,3.765,0,0,0,.765,1.882,4.558,4.558,0,0,1,.859,1.85,1.462,1.462,0,0,1-.931,1.633,1.676,1.676,0,0,0,1.994.694,3.325,3.325,0,0,1-.973,1.577,3.857,3.857,0,0,0,3.742-.531,3.208,3.208,0,0,0,1.49-1.748A4.023,4.023,0,0,0,219.915,184.054Z" transform="translate(-213.43 -175.1)" fill="#263238"/></g><g transform="translate(3.069 21.325)"><path d="M222.416,197.069c-.1-.029-4.168-.606-3.468,3.353s4.531,2.44,4.518,2.325S222.416,197.069,222.416,197.069Z" transform="translate(-218.867 -197.024)" fill="#ffbe9d"/></g><g transform="translate(4.477 22.701)"><path d="M223.427,202.472c-.02-.01-.06.06-.168.134a.7.7,0,0,1-.514.1,1.733,1.733,0,0,1-1.061-1.392,2.321,2.321,0,0,1,.019-1.022.81.81,0,0,1,.425-.621.357.357,0,0,1,.441.117c.072.1.062.185.084.188s.073-.081.012-.239a.445.445,0,0,0-.2-.22.524.524,0,0,0-.4-.033.984.984,0,0,0-.612.741,2.378,2.378,0,0,0-.044,1.146,1.819,1.819,0,0,0,1.309,1.532.75.75,0,0,0,.612-.217C223.437,202.569,223.442,202.476,223.427,202.472Z" transform="translate(-221.361 -199.461)" fill="#eb996e"/></g><g transform="translate(1.961 9.573)"><path d="M217.031,185.184c-.011.009-.129-.137-.128-.455a1.512,1.512,0,0,1,.623-1.127,4.628,4.628,0,0,1,1.774-.657,2.259,2.259,0,0,0,1.711-1.139,3.332,3.332,0,0,0,.065-2.129c-.174-.658-.423-1.246-.572-1.758a2.984,2.984,0,0,1-.174-1.714,7.731,7.731,0,0,0,.384,1.644c.173.5.44,1.063.641,1.754a3.507,3.507,0,0,1-.06,2.334,1.985,1.985,0,0,1-.855.916,4.026,4.026,0,0,1-1.073.372,4.793,4.793,0,0,0-1.712.555,1.452,1.452,0,0,0-.63.957A3.49,3.49,0,0,0,217.031,185.184Z" transform="translate(-216.903 -176.205)" fill="#455a64"/></g><g transform="translate(0.708 9.273)"><path d="M214.9,183.328c-.015.008-.1-.1-.165-.345a1.742,1.742,0,0,1,.077-1.049,1.823,1.823,0,0,1,.407-.625,2.063,2.063,0,0,1,.723-.448,2.22,2.22,0,0,0,.72-.4.926.926,0,0,0,.214-.766c-.024-.305-.108-.619-.138-.94a4.711,4.711,0,0,1-.005-.917,4.39,4.39,0,0,1,.4-1.493,1.106,1.106,0,0,1,.816-.665c.265-.029.389.077.378.089s-.138-.029-.355.031a1.019,1.019,0,0,0-.64.641,4.636,4.636,0,0,0-.317,1.42,4.825,4.825,0,0,0,.023.861c.03.294.116.6.145.95a1.217,1.217,0,0,1-.308,1.006,2.366,2.366,0,0,1-.829.451,1.662,1.662,0,0,0-1.035.892A2.254,2.254,0,0,0,214.9,183.328Z" transform="translate(-214.685 -175.674)" fill="#455a64"/></g><g transform="translate(5.573 2.008)"><path d="M240.741,164.46c.026,0-.275.253-.827.068a2.361,2.361,0,0,1-.828-.552,3.245,3.245,0,0,0-1.022-.712,2.787,2.787,0,0,0-2.983.554c-.451.415-.829.966-1.353,1.452a2.6,2.6,0,0,1-.943.579,2.171,2.171,0,0,1-1.148.027c-.75-.173-1.368-.547-2.015-.7a5.068,5.068,0,0,0-1.912-.116,4.983,4.983,0,0,0-2.9,1.395,5.488,5.488,0,0,0-1.228,1.839c-.194.492-.251.785-.277.779-.011,0-.005-.076.015-.217a4.266,4.266,0,0,1,.148-.6,5.2,5.2,0,0,1,1.186-1.953,5.118,5.118,0,0,1,3.016-1.525,5.276,5.276,0,0,1,2.025.1c.7.164,1.329.538,2.007.69a1.871,1.871,0,0,0,.987-.018,2.3,2.3,0,0,0,.831-.509c.491-.447.879-1,1.363-1.437a2.916,2.916,0,0,1,1.674-.782,3.1,3.1,0,0,1,1.592.237,3.329,3.329,0,0,1,1.056.789,2.372,2.372,0,0,0,.751.565A1.145,1.145,0,0,0,240.741,164.46Z" transform="translate(-223.302 -162.804)" fill="#455a64"/></g><g transform="translate(17.298 24.475)"><path d="M244.123,202.6c.123-.043.369.791,1.257,1.175s1.751.033,1.792.147c.027.049-.151.221-.524.34a2.169,2.169,0,0,1-1.482-.076,1.887,1.887,0,0,1-1-1C244.032,202.851,244.065,202.617,244.123,202.6Z" transform="translate(-244.072 -202.603)" fill="#263238"/></g></g><g transform="translate(4.869 92.856)"><g transform="translate(72.674 16.478)"><path d="M329.353,354.806a7.857,7.857,0,0,0-5.648-1.863l-3.453,10.977c2.531.111,5.056,1.417,7.5.748a5.35,5.35,0,0,0,3.724-4.4A6.356,6.356,0,0,0,329.353,354.806Z" transform="translate(-320.252 -352.928)" fill="#2ec49f"/></g><g transform="translate(73.299 16.082)"><path d="M324.249,352.378c.007-.089.375-.157,1.047-.151a8.52,8.52,0,0,1,2.827.533,7.686,7.686,0,0,1,3.443,2.673,7.125,7.125,0,0,1,1.148,2.381,6.276,6.276,0,0,1,.085,2.88,5.815,5.815,0,0,1-1.255,2.62,5.472,5.472,0,0,1-2.228,1.546,7.967,7.967,0,0,1-4.346.281,13.54,13.54,0,0,1-2.708-.841c-.609-.263-.927-.456-.9-.542s.4-.063,1.047.045,1.57.3,2.694.406a7.746,7.746,0,0,0,3.753-.485,4.433,4.433,0,0,0,1.69-1.246,4.72,4.72,0,0,0,.951-2.05,5.659,5.659,0,0,0-.935-4.291,7.39,7.39,0,0,0-2.815-2.514,12.8,12.8,0,0,0-2.519-.881C324.6,352.579,324.241,352.473,324.249,352.378Z" transform="translate(-321.359 -352.227)" fill="#f5f5f5"/></g><g transform="translate(36.665 57.41)"><path d="M263.978,425.437l-7.515,21.053,26.146,9.483c.753-2.553-10.955-12.473-10.955-12.473l5.368-13.292Z" transform="translate(-256.463 -425.437)" fill="#2ec49f"/><g transform="translate(6.33 13.988)" opacity="0.6"><path d="M268.864,450.226a1.137,1.137,0,0,0-1.18.951,1.092,1.092,0,0,0,.932,1.178,1.2,1.2,0,0,0,1.245-1.013c.006-.558-.553-1.2-1.105-1.118" transform="translate(-267.677 -450.217)" fill="#fff"/></g><g transform="translate(0 18.928)"><path d="M256.463,461.093l.759-2.125,24.835,9.907s.981.929.552,1.7Z" transform="translate(-256.463 -458.968)" fill="#fff"/></g><g transform="translate(12.755 17.699)"><path d="M281.966,457.174c-.05.126-.71-.047-1.487.135-.782.162-1.306.6-1.405.5-.109-.068.358-.762,1.3-.966S282.037,457.068,281.966,457.174Z" transform="translate(-279.058 -456.79)" fill="#263238"/></g><g transform="translate(15.593 20.053)"><path d="M286.486,461.12c-.015.134-.647.151-1.276.533-.641.364-.962.908-1.087.856-.127-.023.056-.8.847-1.264S286.528,461,286.486,461.12Z" transform="translate(-284.086 -460.96)" fill="#263238"/></g><g transform="translate(18.305 22.191)"><path d="M288.946,466.616c-.126-.015-.072-.717.509-1.3s1.28-.642,1.295-.516c.034.131-.49.366-.96.85S289.077,466.649,288.946,466.616Z" transform="translate(-288.89 -464.747)" fill="#263238"/></g><g transform="translate(13.781 13.851)"><path d="M283.645,451.041c-.1.1-.618-.292-1.357-.5s-1.385-.189-1.411-.322.679-.393,1.546-.13S283.744,450.964,283.645,451.041Z" transform="translate(-280.875 -449.974)" fill="#263238"/></g><g transform="translate(13.592 8.239)"><path d="M284,443.384a2.613,2.613,0,0,1-1.307-.482,6.249,6.249,0,0,1-1.217-.917,6.591,6.591,0,0,1-.607-.672,1.724,1.724,0,0,1-.283-.452.592.592,0,0,1,.187-.7.743.743,0,0,1,.666-.089,1.819,1.819,0,0,1,.466.246,4.989,4.989,0,0,1,.713.574,4.91,4.91,0,0,1,.92,1.231,2.324,2.324,0,0,1,.384,1.342c-.073.021-.223-.485-.672-1.173a5.553,5.553,0,0,0-.929-1.082,5.116,5.116,0,0,0-.668-.5c-.251-.173-.485-.261-.6-.163-.043.037-.052.055-.024.157a1.394,1.394,0,0,0,.209.33,7.163,7.163,0,0,0,.548.646,7.72,7.72,0,0,0,1.09.944C283.549,443.1,284.029,443.315,284,443.384Z" transform="translate(-280.541 -440.031)" fill="#263238"/></g><g transform="translate(16.762 7.892)"><path d="M286.214,443.239a2.219,2.219,0,0,1,.113-1.39,4.523,4.523,0,0,1,.7-1.369,4.57,4.57,0,0,1,.622-.674,1.153,1.153,0,0,1,1.075-.358.653.653,0,0,1,.414.564,1.918,1.918,0,0,1-.039.529,3.106,3.106,0,0,1-.32.882,3.2,3.2,0,0,1-1.049,1.15c-.757.492-1.345.452-1.34.4a11.269,11.269,0,0,0,1.142-.673,3.206,3.206,0,0,0,.861-1.08,2.862,2.862,0,0,0,.25-.765c.06-.293.037-.555-.077-.565a.8.8,0,0,0-.614.263,4.629,4.629,0,0,0-.581.592,5,5,0,0,0-.728,1.215C286.328,442.717,286.291,443.245,286.214,443.239Z" transform="translate(-286.156 -439.418)" fill="#263238"/></g></g><g transform="translate(0 0.664)"><path d="M210.36,325.429c-3.966.092-7.728.653-10.46,3.529-3.623,3.815-8.1,9.25-8.358,13.019-.38,5.634,3.018,7.308,5.5,8.682a6.887,6.887,0,0,0,3.6.833l45.841-.348,1.439-7.765-29.648-7.307,1.232-11.159Z" transform="translate(-191.513 -324.914)" fill="#263238"/></g><g transform="translate(26.763)"><path d="M240.154,324.4l14.42-.664s24.911,1.385,30.225,6.255,4.649,10.406,2.878,15.72-17.38,39.3-17.38,39.3a5.871,5.871,0,0,1,.553,4.317,5.7,5.7,0,0,1-4.071,3.877l-13.863-5.095s-1.882-.664-.554-2.436a6.128,6.128,0,0,1,2.214-2.1V380.03s4.871-8.856,5.314-10.074S265,350.714,265,350.714l3.1-5.329s-7.5-3.526-14-6.083l-15.181-3.742Z" transform="translate(-238.922 -323.738)" fill="#263238"/></g><g transform="translate(42.255 60.228)"><path d="M275.5,433.934c-.028.033-.465-.312-1.217-.8a16.433,16.433,0,0,0-6.473-2.461c-.884-.137-1.441-.169-1.439-.212a5.39,5.39,0,0,1,1.463.025,13.831,13.831,0,0,1,6.554,2.492A5.392,5.392,0,0,1,275.5,433.934Z" transform="translate(-266.367 -430.43)" fill="#455a64"/></g><g transform="translate(53.597 54.893)"><path d="M291.173,427.383a4.793,4.793,0,0,1-.8-.848c-.468-.549-1.09-1.327-1.743-2.213s-1.21-1.712-1.595-2.322a4.782,4.782,0,0,1-.57-1.021,5.458,5.458,0,0,1,.725.915l1.653,2.27,1.675,2.254A5.462,5.462,0,0,1,291.173,427.383Z" transform="translate(-286.458 -420.978)" fill="#455a64"/></g><g transform="translate(55.57 16.772)"><path d="M297.776,353.457c.008.043-.509.154-1.313.421a13.8,13.8,0,0,0-5.553,3.467c-.593.606-.919,1.022-.955,1a4.746,4.746,0,0,1,.817-1.124,11.785,11.785,0,0,1,5.635-3.519A4.776,4.776,0,0,1,297.776,353.457Z" transform="translate(-289.953 -353.449)" fill="#455a64"/></g><g transform="translate(49.21 14.225)"><path d="M278.688,375.558a1.312,1.312,0,0,1,.057-.3c.055-.221.126-.5.213-.845l.83-3.093c.735-2.636,1.734-6.219,2.837-10.179.575-1.985,1.069-3.879,1.624-5.593a11.662,11.662,0,0,1,2.61-3.982,14.907,14.907,0,0,1,2.478-2.043c.321-.2.571-.358.748-.451a1.336,1.336,0,0,1,.273-.135c.012.021-.347.236-.962.671A16.555,16.555,0,0,0,287,351.7a11.739,11.739,0,0,0-2.516,3.937c-.532,1.69-1.026,3.605-1.6,5.584l-2.911,10.154c-.378,1.271-.686,2.311-.912,3.07l-.261.832A1.316,1.316,0,0,1,278.688,375.558Z" transform="translate(-278.686 -348.938)" fill="#455a64"/></g><g transform="translate(35.352 2.817)"><path d="M255.242,340.8c-.073.007-.376-2.69-.677-6.022s-.485-6.04-.412-6.046.376,2.689.677,6.022S255.315,340.789,255.242,340.8Z" transform="translate(-254.137 -328.728)" fill="#455a64"/></g><g transform="translate(5.807 16.882)"><path d="M208.448,358.844c-.041.02-.263-.416-.715-1.056a10.379,10.379,0,0,0-4.736-3.7c-.729-.283-1.206-.393-1.2-.437a3.911,3.911,0,0,1,1.261.26,9.093,9.093,0,0,1,4.83,3.773A3.908,3.908,0,0,1,208.448,358.844Z" transform="translate(-201.8 -353.643)" fill="#455a64"/></g><g transform="translate(8.87 9.784)"><path d="M219.646,343.58c-.025.041-.637-.351-1.7-.833a15.977,15.977,0,0,0-8.862-1.271c-1.152.164-1.848.369-1.862.322a1.915,1.915,0,0,1,.478-.181,10.491,10.491,0,0,1,1.354-.327,14.515,14.515,0,0,1,8.973,1.288,10.366,10.366,0,0,1,1.207.694A1.873,1.873,0,0,1,219.646,343.58Z" transform="translate(-207.226 -341.069)" fill="#455a64"/></g><g transform="translate(20.769 12.179)"><path d="M263.355,352.256a1.857,1.857,0,0,1-.36-.06l-1.018-.221-3.736-.839c-3.155-.707-7.52-1.654-12.359-2.613s-9.238-1.744-12.424-2.293l-3.774-.647-1.025-.183a1.876,1.876,0,0,1-.355-.082,1.859,1.859,0,0,1,.363.029l1.033.134c.9.121,2.191.313,3.789.564,3.2.5,7.6,1.259,12.445,2.218s9.2,1.936,12.349,2.69c1.573.376,2.843.693,3.718.922l1.007.269A1.835,1.835,0,0,1,263.355,352.256Z" transform="translate(-228.304 -345.313)" fill="#455a64"/></g><g transform="translate(18.787 6.089)"><path d="M232.769,341.575a15.541,15.541,0,0,0-.634-1.465,6.424,6.424,0,0,0-1.049-1.356,16.822,16.822,0,0,0-1.6-1.388,24.287,24.287,0,0,0-3.284-2.04,10.806,10.806,0,0,1-1.4-.8,8.836,8.836,0,0,1,1.488.63,19.054,19.054,0,0,1,3.361,2,14.858,14.858,0,0,1,1.62,1.429,6.072,6.072,0,0,1,1.038,1.438,5.013,5.013,0,0,1,.409,1.121A1.245,1.245,0,0,1,232.769,341.575Z" transform="translate(-224.794 -334.525)" fill="#455a64"/></g><g transform="translate(75.622 20.067)"><path d="M327.672,359.289c.059.057-.708.832-1.3,2.01s-.793,2.247-.873,2.232a5.834,5.834,0,0,1,2.177-4.242Z" transform="translate(-325.474 -359.286)" fill="#263238"/></g></g><g transform="translate(52.534 55.398)" opacity="0.3"><path d="M275.949,257.382,279.23,280.5l.164.369A49.6,49.6,0,0,0,275.949,257.382Z" transform="translate(-275.949 -257.382)"/></g><g transform="translate(33.181 68.085)"><path d="M278.691,280.453l-10.67,18.661-26.289.572-.065,1.191,25.455-.189.807-.028,26.88.053,5.432-9.368,6.939-9.945a.982.982,0,0,0-.809-1.543l-26.832.1A.981.981,0,0,0,278.691,280.453Z" transform="translate(-241.666 -279.856)" fill="#e0e0e0"/><g transform="translate(49.861 11.488)"><path d="M338.707,300.207s1.381,1.266,1.163,2.341-.145,1.875-1.163,1.948a1.549,1.549,0,0,1-1.381,1.6,1.7,1.7,0,0,1-1.652,1.977s-.6,1.8-1.838,1.367a10.931,10.931,0,0,1-2.036-.945l-.364-.655s-1.821-.684-1.372-1.713c.272-.624,1.214-.786,1.214-.786a1.768,1.768,0,0,1,.116-1.6c.437-.587,1.858-.1,1.858-.1a2,2,0,0,1,.45-1.391c.484-.574,2.747.986,2.747.986l1.235-1.474Z" transform="translate(-329.993 -300.207)" fill="#ffbe9d"/><g transform="translate(1.284 5.129)"><path d="M336.664,312.03a25.221,25.221,0,0,1-4.4-2.732,25.254,25.254,0,0,1,4.4,2.732Z" transform="translate(-332.268 -309.294)" fill="#eb996e"/></g><g transform="translate(3.259 3.429)"><path d="M339.839,308.741a21.326,21.326,0,0,1-4.072-2.455,21.315,21.315,0,0,1,4.072,2.455Z" transform="translate(-335.766 -306.281)" fill="#eb996e"/></g><g transform="translate(5.081 2.18)"><path d="M339,304.077a7.165,7.165,0,0,1,1.866.991,17.131,17.131,0,0,1,1.755,1.164,5.644,5.644,0,0,1-1.9-.938A10.35,10.35,0,0,1,339,304.077Z" transform="translate(-338.995 -304.068)" fill="#eb996e"/></g></g><g transform="translate(27.432 0.57)"><path d="M328.346,281a.475.475,0,0,1-.128.014l-.378.014-1.451.025-5.338.042-17.611.039h-1.282a1.057,1.057,0,0,0-.977.461l-1.2,2.155-2.266,4.09-3.85,6.918-2.616,4.653-.723,1.258-.194.323a.445.445,0,0,1-.074.106.473.473,0,0,1,.05-.119l.171-.337.68-1.283,2.542-4.694,3.8-6.946,2.252-4.1,1.2-2.173a1.325,1.325,0,0,1,1.2-.581h1.282l17.611.039,5.338.042,1.451.025.378.013A.476.476,0,0,1,328.346,281Z" transform="translate(-290.261 -280.866)" fill="#263238"/></g><g transform="translate(46.238 9.627)"><path d="M323.938,297.371a1.134,1.134,0,1,0,1.695-.2A1.212,1.212,0,0,0,323.938,297.371Z" transform="translate(-323.574 -296.909)" fill="#fff"/></g></g><g transform="translate(59.231 93.996)"><path d="M299.609,368.246a.45.45,0,0,1,.037-.119l.133-.34.537-1.3,2.042-4.815,7.006-16.268-.008.024a22.6,22.6,0,0,0,.662-5,12.849,12.849,0,0,0-1.149-5.8,10.421,10.421,0,0,0-1.607-2.323,10.644,10.644,0,0,0-1.945-1.883A11.316,11.316,0,0,0,303,329.281c-.785-.313-1.556-.6-2.311-.842-1.508-.5-2.939-.881-4.254-1.191-2.632-.619-4.8-.951-6.3-1.165l-1.728-.23-.449-.061a.653.653,0,0,1-.152-.03.59.59,0,0,1,.155,0l.453.032c.4.033.984.086,1.736.176a61.87,61.87,0,0,1,6.329,1.076c1.323.3,2.763.672,4.283,1.162.761.242,1.538.522,2.331.833a11.492,11.492,0,0,1,2.373,1.158,14.267,14.267,0,0,1,3.655,4.3,13.092,13.092,0,0,1,1.184,5.928,22.71,22.71,0,0,1-.675,5.068l0,.012-.005.012-7.1,16.228-2.122,4.78-.583,1.281-.157.329A.46.46,0,0,1,299.609,368.246Z" transform="translate(-287.812 -325.757)" fill="#455a64"/></g></g></g><g transform="translate(28.481 275.444)"><path d="M283.927,476.275c0,.081-56.674.147-126.568.147-69.919,0-126.58-.066-126.58-.147s56.662-.147,126.58-.147C227.253,476.128,283.927,476.193,283.927,476.275Z" transform="translate(-30.779 -476.128)" fill="#263238"/></g><g transform="translate(99.436 35.861)"><g transform="translate(0 0)"><g transform="translate(0.078 0.098)"><path d="M158.13,82.492l5.543-3.145a14.851,14.851,0,1,0-3.957-3.557l-.007-.005Z" transform="translate(-156.611 -51.89)" fill="#fff"/></g><path d="M158.069,82.416l1.525-6.72a.056.056,0,0,1,.067-.042.054.054,0,0,1,.021.01l.007.005-.078.079a14.824,14.824,0,0,1-3.007-7.121,13.389,13.389,0,0,1-.12-2.351c.023-.4.033-.816.067-1.231l.189-1.254A14.975,14.975,0,0,1,162.7,54.51,14.8,14.8,0,0,1,168.433,52a15.136,15.136,0,0,1,6.607.174,14.646,14.646,0,0,1,6.109,3.183,14.912,14.912,0,0,1,4.085,5.723,15.15,15.15,0,0,1,1.022,6.657,14.649,14.649,0,0,1-1.806,6.11,15.067,15.067,0,0,1-8.675,7.046,16.058,16.058,0,0,1-4.829.643,14.779,14.779,0,0,1-7.361-2.22h.055l-5.569,3.1,5.516-3.192a.056.056,0,0,1,.055,0,14.739,14.739,0,0,0,7.309,2.156,15.919,15.919,0,0,0,4.773-.656,14.9,14.9,0,0,0,8.546-6.978,14.46,14.46,0,0,0,1.771-6.026,14.952,14.952,0,0,0-1.013-6.558A14.716,14.716,0,0,0,181,55.527a14.443,14.443,0,0,0-6.015-3.137,14.946,14.946,0,0,0-6.51-.178,14.626,14.626,0,0,0-5.659,2.466,14.814,14.814,0,0,0-5.9,9.147q-.1.627-.191,1.239c-.036.41-.047.817-.071,1.217a13.237,13.237,0,0,0,.108,2.325A14.768,14.768,0,0,0,159.7,75.68a.056.056,0,0,1-.078.079l-.006-.005.089-.032Z" transform="translate(-156.473 -51.717)" fill="#263238"/><g transform="translate(6.548 9.423)"><path d="M168.072,74.647l2.13-2.13,4.108,3.652,8.065-7.76,1.978,2.13-10.347,9.739Z" transform="translate(-168.072 -68.408)" fill="#f59d36"/></g></g></g><g transform="translate(59.535 184.142)"><g transform="translate(11.76 6.46)"><g transform="translate(0.149 0.147)"><path d="M110.76,410.936h-2.468l-1.405-84.842h5.279Z" transform="translate(-106.886 -326.095)" fill="#e0e0e0"/></g><path d="M110.645,410.823s0-.154,0-.444.006-.725.011-1.284c.014-1.134.034-2.79.06-4.923.06-4.276.147-10.455.255-18.11.238-15.3.568-36.487.935-60.083l.147.15h-5.279l.147-.15c.686,41.483,1.21,76.02,1.292,84.843l-.033-.033,1.853.019c.409.006.615.014.615.014s-.19.008-.6.014l-1.872.019h-.033v-.033c-.211-8.821-.831-43.357-1.519-84.84l0-.15H112.2l0,.149c-.415,23.637-.788,44.863-1.057,60.188-.145,7.64-.262,13.808-.344,18.075-.044,2.119-.078,3.763-.1,4.888q-.02.826-.031,1.264C110.654,410.683,110.645,410.823,110.645,410.823Z" transform="translate(-106.622 -325.834)" fill="#263238"/></g><g transform="translate(173.526 6.702)"><g transform="translate(0.148 0.147)"><path d="M396.7,411.123h-2.468l-.788-84.6h5.279Z" transform="translate(-393.447 -326.523)" fill="#e0e0e0"/></g><path d="M396.59,411.009s0-.154,0-.443.011-.723.02-1.28c.022-1.13.054-2.781.1-4.909.091-4.264.224-10.425.387-18.059.349-15.256.833-36.384,1.372-59.912l.147.15h-5.278l.147-.148c.384,41.361.657,75.8.675,84.6l-.033-.033,1.854.019c.409.006.614.014.614.014s-.19.008-.6.014l-1.872.019h-.033v-.033c-.146-8.8-.515-43.238-.9-84.6v-.148h5.577l0,.15c-.588,23.569-1.115,44.735-1.5,60.017-.2,7.618-.363,13.768-.475,18.023-.06,2.112-.106,3.752-.138,4.874q-.026.823-.041,1.261C396.6,410.87,396.59,411.009,396.59,411.009Z" transform="translate(-393.185 -326.263)" fill="#263238"/></g><g transform="translate(0.037 0.147)"><rect width="197.073" height="6.998" fill="#e0e0e0"/></g><path d="M85.827,314.537s.335-.007,1-.011l2.956-.01,11.4-.021,42.053-.045,139.669-.06h.147v7.292H282.9l-197.073-.111H85.79v-.037c.01-2.4.017-4.155.021-5.31s.015-1.687.015-1.687c0,.249.012,2.241.036,7l-.036-.036,197.073-.111-.147.147v-7l.147.147-139.56-.06-42.087-.045-11.431-.021-2.975-.011C86.176,314.544,85.827,314.537,85.827,314.537Z" transform="translate(-85.79 -314.39)" fill="#263238"/><g transform="translate(0.349 0.249)"><path d="M127.843,314.833s-.018.028-.063.076-.111.121-.205.209a4.1,4.1,0,0,1-.991.645,6.446,6.446,0,0,1-1.9.518,16.522,16.522,0,0,1-2.655.095,31.669,31.669,0,0,1-3.2-.3,34.873,34.873,0,0,0-3.64-.353,27.235,27.235,0,0,0-8.193,1.29c-2.812.816-5.439,1.744-7.952,2.309a26.487,26.487,0,0,1-3.626.584,18.848,18.848,0,0,1-3.223-.005,12.77,12.77,0,0,1-4.419-1.148,6.963,6.963,0,0,1-1.366-.83.43.43,0,0,1,.095.049l.263.159a9.551,9.551,0,0,0,1.055.555,13.1,13.1,0,0,0,4.391,1.076,18.977,18.977,0,0,0,3.183-.019,26.664,26.664,0,0,0,3.587-.6c2.491-.571,5.107-1.5,7.932-2.321a27.179,27.179,0,0,1,8.282-1.285,34.141,34.141,0,0,1,3.665.373c1.136.156,2.2.285,3.171.32a16.816,16.816,0,0,0,2.627-.064,6.542,6.542,0,0,0,1.879-.477A4.87,4.87,0,0,0,127.843,314.833Z" transform="translate(-86.408 -314.832)" fill="#fff"/></g><g transform="translate(2.2 0.335)"><path d="M107.714,315.005a4.713,4.713,0,0,1-.6.413,14.324,14.324,0,0,1-1.8.94,17.973,17.973,0,0,1-2.941.971,19.379,19.379,0,0,1-3.841.488,17.618,17.618,0,0,1-6.869-1.151,4.262,4.262,0,0,1-1.658-1.1,1.845,1.845,0,0,1-.271-.422c-.041-.1-.058-.159-.05-.161a4.373,4.373,0,0,0,.4.538,4.508,4.508,0,0,0,1.658,1.02,18.293,18.293,0,0,0,6.785,1.079,19.962,19.962,0,0,0,3.788-.466,19.133,19.133,0,0,0,2.922-.92,17.986,17.986,0,0,0,1.822-.879A5.063,5.063,0,0,1,107.714,315.005Z" transform="translate(-89.687 -314.984)" fill="#fff"/></g><g transform="translate(50.731 1.755)"><path d="M191.4,320.536a2.709,2.709,0,0,1,.306.089,6.9,6.9,0,0,0,.909.2,6.481,6.481,0,0,0,3.449-.438l-.01.089a9.371,9.371,0,0,0-4.277-1.353,9.83,9.83,0,0,0-5.562,1.174c-.208.122-.41.272-.431.454s.142.348.369.451a2.944,2.944,0,0,0,.764.217l.839.155c1.127.2,2.292.406,3.5.55a25.518,25.518,0,0,0,3.721.205,16.767,16.767,0,0,0,1.91-.148c.318-.044.636-.094.951-.162a5.626,5.626,0,0,0,.92-.242,3.09,3.09,0,0,0,1.194-.7.946.946,0,0,0,.229-1.075,2.031,2.031,0,0,0-.937-.85,8.231,8.231,0,0,0-1.308-.519,21.506,21.506,0,0,0-5.474-.922,27.482,27.482,0,0,0-9.343,1.176,25.068,25.068,0,0,0-5.625,2.5c-.6.377-1.064.675-1.359.9l-.347.24a.755.755,0,0,1-.124.077.682.682,0,0,1,.107-.091l.331-.255c.286-.23.74-.539,1.334-.927a24.179,24.179,0,0,1,5.621-2.564,27.377,27.377,0,0,1,9.418-1.227,21.683,21.683,0,0,1,5.549.924,8.387,8.387,0,0,1,1.351.535,2.232,2.232,0,0,1,1.032.945,1.115,1.115,0,0,1-.263,1.263,3.314,3.314,0,0,1-1.289.761,5.841,5.841,0,0,1-.959.252c-.321.069-.646.12-.97.165a16.875,16.875,0,0,1-1.943.15,25.6,25.6,0,0,1-3.763-.212c-1.215-.147-2.384-.353-3.513-.56l-.839-.157a3.2,3.2,0,0,1-.826-.24,1.077,1.077,0,0,1-.346-.246.475.475,0,0,1-.126-.378c.043-.278.307-.447.521-.576a10.031,10.031,0,0,1,5.7-1.177,9.432,9.432,0,0,1,4.342,1.412l.08.052-.09.037a6.492,6.492,0,0,1-3.524.4A4.6,4.6,0,0,1,191.4,320.536Z" transform="translate(-175.659 -317.5)" fill="#fff"/></g><g transform="translate(84.985 0.432)"><path d="M243.181,315.155a.973.973,0,0,1,.194.352,2.2,2.2,0,0,1,.13,1.051,4.889,4.889,0,0,1-1.919,3.054,9.467,9.467,0,0,1-1.793,1.237,8.89,8.89,0,0,1-1.73.681,9.8,9.8,0,0,1-1.254.255,2.135,2.135,0,0,1-.472.033c-.008-.036.662-.112,1.668-.419a9.505,9.505,0,0,0,1.665-.7,9.889,9.889,0,0,0,1.739-1.221,5.054,5.054,0,0,0,1.926-2.933A3.151,3.151,0,0,0,243.181,315.155Z" transform="translate(-236.337 -315.155)" fill="#fff"/></g><g transform="translate(98.481 2.161)"><path d="M288.982,322.834a10.388,10.388,0,0,0-.9-.715A7.166,7.166,0,0,0,285,320.99a8.442,8.442,0,0,0-2.347.055,12.348,12.348,0,0,1-2.75.206,6.087,6.087,0,0,1-2.738-1.091,10,10,0,0,0-2.751-1.325,12.328,12.328,0,0,0-6.111-.077,15.988,15.988,0,0,0-4.521,1.859,24.024,24.024,0,0,0-2.621,1.817l-.669.536a1.64,1.64,0,0,1-.242.181,1.4,1.4,0,0,1,.206-.208c.141-.133.355-.323.638-.563a21.037,21.037,0,0,1,2.585-1.875,15.747,15.747,0,0,1,4.562-1.923,12.48,12.48,0,0,1,6.254.067,10.137,10.137,0,0,1,2.814,1.357,5.865,5.865,0,0,0,2.62,1.063,12.346,12.346,0,0,0,2.692-.186,8.53,8.53,0,0,1,2.406-.031,7,7,0,0,1,3.116,1.208A3.706,3.706,0,0,1,288.982,322.834Z" transform="translate(-260.245 -318.218)" fill="#fff"/></g><g transform="translate(127.692 0.213)"><path d="M343.114,314.768a1.642,1.642,0,0,1-.215.239,9.112,9.112,0,0,1-.673.65,17.687,17.687,0,0,1-2.877,2.076,25.062,25.062,0,0,1-4.992,2.247,24.187,24.187,0,0,1-3.218.834,20.262,20.262,0,0,1-3.6.376,21.393,21.393,0,0,1-6.833-1.154,24.57,24.57,0,0,1-4.965-2.287,18.54,18.54,0,0,1-2.856-2.094c-.317-.265-.521-.5-.675-.649a1.641,1.641,0,0,1-.217-.239,1.9,1.9,0,0,1,.254.213c.165.139.38.366.706.622a20.407,20.407,0,0,0,2.89,2.034,25.2,25.2,0,0,0,4.947,2.23,21.422,21.422,0,0,0,6.745,1.126,20.2,20.2,0,0,0,3.551-.368,24.254,24.254,0,0,0,3.189-.814,25.735,25.735,0,0,0,4.974-2.192,19.343,19.343,0,0,0,2.908-2.015c.327-.255.539-.483.7-.623A2,2,0,0,1,343.114,314.768Z" transform="translate(-311.992 -314.768)" fill="#fff"/></g><g transform="translate(134.619 0.146)"><path d="M343.944,314.649a.72.72,0,0,1-.168.11c-.115.065-.283.167-.51.281-.448.238-1.117.558-1.974.907a23.886,23.886,0,0,1-3.118,1.031,16.637,16.637,0,0,1-4.069.565,19.827,19.827,0,0,1-7.225-1.483,17.038,17.038,0,0,1-1.957-.933c-.224-.12-.385-.227-.5-.3s-.167-.11-.162-.116a7.425,7.425,0,0,1,.711.347,21.445,21.445,0,0,0,1.98.872,20.637,20.637,0,0,0,7.149,1.411,16.947,16.947,0,0,0,4-.541,26.013,26.013,0,0,0,3.11-.983c.86-.331,1.538-.631,2-.847A6.86,6.86,0,0,1,343.944,314.649Z" transform="translate(-324.262 -314.648)" fill="#fff"/></g><g transform="translate(154.375 0.667)"><path d="M379.223,315.768a1,1,0,0,1-.228,0l-.645-.033-.465-.029-.555,0c-.4,0-.851-.015-1.35.018l-.785.034-.846.08c-.587.041-1.2.154-1.854.242a33.05,33.05,0,0,0-4.12,1,31.815,31.815,0,0,0-3.859,1.542c-.555.292-1.1.549-1.569.839l-.692.4-.611.4c-.4.248-.726.5-1.02.72l-.412.3-.325.272-.456.373a.841.841,0,0,1-.172.121c-.006,0,.04-.055.135-.148l.424-.4.312-.285.4-.317c.287-.227.61-.489,1-.746l.606-.415.689-.416c.468-.3,1.013-.563,1.57-.861a30.148,30.148,0,0,1,3.887-1.57,31.527,31.527,0,0,1,4.164-.992c.66-.085,1.281-.192,1.875-.226l.855-.069.792-.022c.5-.024.961,0,1.362.011l.558.02.466.046.643.071A.972.972,0,0,1,379.223,315.768Z" transform="translate(-359.26 -315.572)" fill="#fff"/></g><g transform="translate(91.113 0.883)"><path d="M286.838,321.707a8.041,8.041,0,0,0-1.084-1.047,10.8,10.8,0,0,0-3.971-1.8,26.049,26.049,0,0,0-3.1-.555c-1.13-.146-2.348-.26-3.623-.439a36.281,36.281,0,0,1-3.935-.8,30.89,30.89,0,0,0-4.2-.823,21.23,21.23,0,0,0-8.178.917,33.456,33.456,0,0,0-3.326,1.213c-1.019.424-1.954.843-2.8,1.232-1.7.78-3.046,1.443-3.977,1.9l-1.071.533-.28.136a.478.478,0,0,1-.1.041s.027-.023.087-.058l.267-.152c.237-.133.589-.324,1.047-.565.916-.482,2.254-1.164,3.942-1.961.844-.4,1.777-.824,2.8-1.255a32.966,32.966,0,0,1,3.341-1.239,21.287,21.287,0,0,1,8.286-.942,30.6,30.6,0,0,1,4.236.834,36.816,36.816,0,0,0,3.905.807c1.265.182,2.482.3,3.616.456a25.563,25.563,0,0,1,3.119.584,10.518,10.518,0,0,1,3.985,1.88A4.234,4.234,0,0,1,286.838,321.707Z" transform="translate(-247.193 -315.954)" fill="#fff"/></g><g transform="translate(76.466 0.251)"><path d="M231.15,314.834a1.235,1.235,0,0,1-.029.447,4.446,4.446,0,0,1-.385,1.181,7.165,7.165,0,0,1-3.029,3.147,22.8,22.8,0,0,1-4.49,1.678c-.6.161-1.091.278-1.433.35a2.807,2.807,0,0,1-.539.091,2.81,2.81,0,0,1,.511-.164l1.4-.408a25.975,25.975,0,0,0,4.414-1.712,7.455,7.455,0,0,0,3-3.035A8.069,8.069,0,0,0,231.15,314.834Z" transform="translate(-221.246 -314.834)" fill="#fff"/></g><g transform="translate(40.62 0.249)"><path d="M157.748,321.727a3.139,3.139,0,0,1,.48-.375c.317-.234.8-.553,1.4-.932a42.615,42.615,0,0,1,5.026-2.63c2.048-.914,3.961-1.645,5.35-2.163.695-.259,1.26-.462,1.652-.6a4.036,4.036,0,0,1,.62-.195,3.833,3.833,0,0,1-.58.264l-1.619.656c-1.369.55-3.267,1.3-5.306,2.21a52.376,52.376,0,0,0-5.041,2.569c-.617.363-1.11.664-1.445.879A3.648,3.648,0,0,1,157.748,321.727Z" transform="translate(-157.747 -314.832)" fill="#fff"/></g><g transform="translate(19.259 0.459)"><path d="M150.553,315.281c0,.023-.456-.047-1.271,0a10.591,10.591,0,0,0-3.288.812,31.361,31.361,0,0,0-4.271,2.327,22.946,22.946,0,0,1-2.572,1.353,16.525,16.525,0,0,1-3.076.961,34.856,34.856,0,0,1-6.3.614c-1.949.047-3.7.015-5.166.064a31.313,31.313,0,0,0-3.454.274c-.4.061-.716.111-.926.151a2.118,2.118,0,0,1-.326.048,1.92,1.92,0,0,1,.314-.086c.207-.053.518-.116.921-.188a27.42,27.42,0,0,1,3.465-.338c1.472-.067,3.226-.05,5.165-.106a35.624,35.624,0,0,0,6.242-.624,16.424,16.424,0,0,0,3.026-.942,23.1,23.1,0,0,0,2.552-1.329,30.233,30.233,0,0,1,4.326-2.3,10.3,10.3,0,0,1,3.357-.763,7.226,7.226,0,0,1,.952.025A2.027,2.027,0,0,1,150.553,315.281Z" transform="translate(-119.907 -315.202)" fill="#fff"/></g><g transform="translate(178.968 0.249)"><path d="M402.826,321.727a3.148,3.148,0,0,1,.479-.375c.317-.234.8-.553,1.4-.932a42.567,42.567,0,0,1,5.026-2.63c2.048-.914,3.961-1.645,5.35-2.163.695-.259,1.26-.462,1.652-.6a4.036,4.036,0,0,1,.62-.195,3.833,3.833,0,0,1-.58.264l-1.619.656c-1.369.55-3.267,1.3-5.306,2.21a52.377,52.377,0,0,0-5.041,2.569c-.617.363-1.111.664-1.445.879A3.651,3.651,0,0,1,402.826,321.727Z" transform="translate(-402.825 -314.832)" fill="#fff"/></g><g transform="translate(157.607 0.459)"><path d="M395.631,315.281c0,.023-.456-.047-1.272,0a10.6,10.6,0,0,0-3.288.812,31.355,31.355,0,0,0-4.271,2.327,22.946,22.946,0,0,1-2.572,1.353,16.525,16.525,0,0,1-3.076.961,34.857,34.857,0,0,1-6.3.614c-1.949.047-3.7.015-5.166.064a31.312,31.312,0,0,0-3.454.274c-.4.061-.716.111-.927.151a2.107,2.107,0,0,1-.326.048,1.921,1.921,0,0,1,.314-.086c.207-.053.518-.116.921-.188a27.419,27.419,0,0,1,3.465-.338c1.472-.067,3.226-.05,5.165-.106a35.624,35.624,0,0,0,6.242-.624,16.424,16.424,0,0,0,3.026-.942,23.144,23.144,0,0,0,2.552-1.329,30.232,30.232,0,0,1,4.326-2.3,10.3,10.3,0,0,1,3.357-.763,7.231,7.231,0,0,1,.952.025A2.027,2.027,0,0,1,395.631,315.281Z" transform="translate(-364.985 -315.202)" fill="#fff"/></g><g transform="translate(136.025 0.02)"><path d="M363.543,314.525c0,.054-8.236.1-18.393.1s-18.4-.044-18.4-.1,8.234-.1,18.4-.1S363.543,314.47,363.543,314.525Z" transform="translate(-326.754 -314.426)" fill="#263238"/></g></g></g></g></svg>