<svg xmlns="http://www.w3.org/2000/svg" width="385.51" height="245.894" viewBox="0 0 385.51 245.894"><g transform="translate(-18154.936 9959.929)"><ellipse cx="115.749" cy="118.003" rx="115.749" ry="118.003" transform="translate(18290.018 -9959.929)" fill="#e6e6e6"/><ellipse cx="105.376" cy="105.376" rx="105.376" ry="105.376" transform="translate(18185.211 -9929.377)" fill="#e6e6e6"/><g transform="translate(18127.289 -9998.826)"><g transform="translate(83.64 77.963)"><path d="M126.944,108.176c.011.046.019.093.03.139l-.022.009Z" transform="translate(-126.944 -108.176)" fill="#263238"/></g><g transform="translate(36.291 273.663)"><g transform="translate(0 0)"><path d="M412.294,455.374s.413-.011,1.261-.016l3.873-.016v.066l-184.649.114-134.216-.043-40.672-.047L46.832,455.4l-2.875-.015c-.648-.005-.98-.015-.98-.015s.332-.01.98-.015l2.875-.015,11.059-.028,40.672-.047,134.216-.043,184.649.114v.066l-3.873-.016C412.707,455.385,412.294,455.374,412.294,455.374Z" transform="translate(-42.977 -455.227)" fill="#263238"/></g></g><g transform="translate(165.594 38.898)"><g transform="translate(0.137 0.147)"><path d="M303.55,56.124h-28.6a2.425,2.425,0,0,1-2.421-2.54l.58-12.118a2.424,2.424,0,0,1,2.421-2.308h28.6a2.424,2.424,0,0,1,2.421,2.54l-.58,12.118A2.424,2.424,0,0,1,303.55,56.124Z" transform="translate(-272.523 -39.158)" fill="#fafafa"/></g><path d="M303.444,56.01a2.988,2.988,0,0,0,.944-.225,2.409,2.409,0,0,0,1.426-2.195c.107-2.459.26-5.992.449-10.352-.009-1.072.352-2.322-.448-3.228a2.282,2.282,0,0,0-1.482-.826c-.588-.044-1.243-.01-1.879-.019l-8.212.014-18.817.011a2.292,2.292,0,0,0-1.949,1.1,2.323,2.323,0,0,0-.33,1.1q-.03.613-.059,1.223-.118,2.435-.232,4.8t-.226,4.628q-.028.568-.055,1.128a2.811,2.811,0,0,0,.073,1.062,2.292,2.292,0,0,0,1.342,1.484,2.506,2.506,0,0,0,1,.168l1.064,0,2.085,0,3.986.007,7.155.018,10.361.046,2.817.028.733.015a1.568,1.568,0,0,1,.249.015,1.54,1.54,0,0,1-.249.015l-.733.015-2.817.028-10.361.047-7.155.018-3.986.007-2.085,0-1.064,0a2.794,2.794,0,0,1-1.106-.184,2.567,2.567,0,0,1-1.506-1.659,3.087,3.087,0,0,1-.086-1.153q.027-.561.053-1.128.107-2.269.218-4.628t.228-4.8q.029-.609.058-1.222a2.617,2.617,0,0,1,.371-1.237,2.586,2.586,0,0,1,2.2-1.239l18.817.011,8.212.014c.649.012,1.26-.022,1.91.029a2.515,2.515,0,0,1,1.627.916,2.55,2.55,0,0,1,.564,1.7q-.043.858-.085,1.678c-.228,4.358-.413,7.889-.542,10.347a2.488,2.488,0,0,1-.557,1.529,2.4,2.4,0,0,1-1.675.888C303.528,56.017,303.444,56.01,303.444,56.01Z" transform="translate(-272.28 -38.898)" fill="#263238"/><g transform="translate(120.148 6.521)"><path d="M485.349,61.151l1.224-7.658,5.217-3.031,4.283,4.593-1.291,7.854Z" transform="translate(-485.349 -50.462)" fill="#1565c0"/></g><g transform="translate(29.614 3.52)"><g transform="translate(0.155 11.791)"><path d="M439.57,76.039l-6.331,138.954-102.093-2.9-6.074-10.611L336.052,72.34l95.012-6.289Z" transform="translate(-325.072 -66.051)" fill="#e0e0e0"/></g><g transform="translate(99.817 11.791)" opacity="0.3"><path d="M510.316,214.993l-8.506-9.988,6.331-138.954,8.506,9.988Z" transform="translate(-501.81 -66.051)"/></g><g transform="translate(0 10.265)"><g transform="translate(0.155 0.121)"><path d="M431.064,64.964l-6.331,138.954-99.662-3.523,7.539-136.836Z" transform="translate(-325.072 -63.559)" fill="#fafafa"/></g><path d="M430.944,64.871l-98.455-1.286.121-.112c-2.1,38.238-4.7,85.6-7.511,136.837l-.142-.155,1.645.058,98.016,3.479-.138.127c3.818-82.061,6.409-137.762,6.464-138.948-.053,1.185-2.538,56.892-6.2,138.96l-.006.133-.132,0-98.017-3.452-1.645-.058-.15-.006.008-.149c2.833-51.232,5.452-98.6,7.566-136.834l.007-.114.114,0Z" transform="translate(-324.797 -63.345)" fill="#263238"/></g><g transform="translate(17.841 39.903)"><rect width="37.466" height="3.952" rx="1.976" transform="translate(37.45 5.048) rotate(-178.321)" fill="#e0e0e0"/></g><g transform="translate(17.506 47.541)"><rect width="37.466" height="3.952" rx="1.976" transform="translate(37.45 5.048) rotate(-178.321)" fill="#e0e0e0"/></g><g transform="translate(17.17 55.18)"><rect width="37.466" height="3.952" rx="1.976" transform="translate(37.45 5.048) rotate(-178.321)" fill="#e0e0e0"/></g><g transform="translate(16.835 62.818)"><rect width="37.466" height="3.952" rx="1.976" transform="matrix(-1, -0.029, 0.029, -1, 37.45, 5.048)" fill="#e0e0e0"/></g><g transform="translate(16.499 70.457)"><rect width="37.466" height="3.952" rx="1.976" transform="translate(37.45 5.048) rotate(-178.321)" fill="#e0e0e0"/></g><g transform="translate(16.164 78.095)"><rect width="37.466" height="3.952" rx="1.976" transform="translate(37.45 5.048) rotate(-178.321)" fill="#e0e0e0"/></g><g transform="translate(15.828 85.733)"><rect width="37.466" height="3.952" rx="1.976" transform="translate(37.45 5.048) rotate(-178.321)" fill="#e0e0e0"/></g><g transform="translate(57.442 79.238)"><rect width="37.466" height="3.952" rx="1.976" transform="matrix(-1, -0.029, 0.029, -1, 37.45, 5.048)" fill="#e0e0e0"/></g><g transform="translate(57.107 86.876)"><rect width="37.466" height="3.952" rx="1.976" transform="translate(37.45 5.048) rotate(-178.321)" fill="#e0e0e0"/></g><g transform="translate(56.702 94.931)"><rect width="37.466" height="3.952" rx="1.976" transform="translate(37.45 5.048) rotate(-178.321)" fill="#e0e0e0"/></g><g transform="translate(56.297 102.985)"><rect width="37.466" height="3.952" rx="1.976" transform="translate(37.45 5.048) rotate(-178.321)" fill="#e0e0e0"/></g><g transform="translate(55.892 111.04)"><rect width="37.466" height="3.952" rx="1.976" transform="translate(37.45 5.048) rotate(-178.321)" fill="#e0e0e0"/></g><g transform="translate(55.487 119.095)"><rect width="37.466" height="3.952" rx="1.976" transform="translate(37.45 5.048) rotate(-178.321)" fill="#e0e0e0"/></g><g transform="translate(55.082 127.15)"><rect width="37.466" height="3.952" rx="1.976" transform="translate(37.45 5.048) rotate(-178.321)" fill="#e0e0e0"/></g><g transform="translate(12.45 133.193)"><path d="M348.16,285.293l76.813,2.252a1.324,1.324,0,0,0,1.362-1.284l.038-1.3a1.324,1.324,0,0,0-1.285-1.362l-76.812-2.252a1.323,1.323,0,0,0-1.361,1.284l-.038,1.3A1.323,1.323,0,0,0,348.16,285.293Z" transform="translate(-346.875 -281.342)" fill="#e0e0e0"/></g><g transform="translate(18.443 29.957)"><rect width="26.128" height="3.952" rx="1.976" transform="translate(26.116 4.716) rotate(-178.321)" fill="#e0e0e0"/></g><g transform="translate(5.661 22.327)"><path d="M334.837,212.763s.164.015.485.03l1.428.061,5.514.209,20.466.722,69.137,2.335.148.005.007-.148c.261-5.5.535-11.257.813-17.122,1.475-31.514,2.811-60.041,3.778-80.7.469-10.321.848-18.674,1.11-24.456.124-2.883.22-5.122.286-6.649.029-.755.052-1.333.067-1.729s.012-.59.012-.59-.02.2-.043.588-.055.974-.1,1.728c-.079,1.526-.195,3.766-.343,6.647-.285,5.78-.7,14.131-1.207,24.45-.99,20.654-2.357,49.179-3.867,80.692-.277,5.865-.55,11.626-.81,17.121l.155-.143-69.141-2.234-20.47-.631-5.516-.156-1.429-.034C335,212.759,334.837,212.763,334.837,212.763Z" transform="translate(-334.837 -84.734)" fill="#263238"/></g><g transform="translate(13.759 24.65)"><path d="M349.2,218.719s.155.015.458.03l1.348.062,5.209.213,19.366.74,65.7,2.41.147.005.008-.147c.35-6.63.714-13.526,1.086-20.573,1.621-31.1,3.088-59.243,4.15-79.624.516-10.185.934-18.426,1.223-24.131.138-2.844.244-5.054.317-6.561.033-.745.058-1.315.075-1.706s.015-.583.015-.583-.021.2-.046.581-.059.96-.1,1.705c-.086,1.506-.212,3.715-.374,6.558-.312,5.7-.762,13.944-1.319,24.126-1.085,20.38-2.583,48.525-4.239,79.62-.37,7.047-.732,13.943-1.081,20.573l.155-.141-65.7-2.307-19.369-.65-5.21-.162-1.349-.035C349.352,218.715,349.2,218.719,349.2,218.719Z" transform="translate(-349.197 -88.854)" fill="#263238"/></g><g transform="translate(45.917)"><g transform="translate(0.843 8.544)"><path d="M407.721,61.764l1.5-1.473,17.947.088.87,1.641Z" transform="translate(-407.721 -60.292)" fill="#263238"/></g><g transform="translate(0.735 10.016)"><rect width="8.552" height="20.323" transform="matrix(-0.013, 1, -1, -0.013, 20.43, 0.256)" fill="#263238"/></g><g transform="translate(0 17.834)"><rect width="1.707" height="21.735" rx="0.854" transform="matrix(-0.013, 1, -1, -0.013, 21.755, 0.274)" fill="#263238"/></g><g transform="translate(5.673)"><path d="M426.014,61.809H426l-8.938-.113a.788.788,0,0,1-.73-1.063l2.633-7.08a4.668,4.668,0,1,1,5.443.09l2.35,7.13a.788.788,0,0,1-.748,1.035Zm-4.26-16.1h-.109a4.169,4.169,0,0,0-4,4.164,4.108,4.108,0,0,0,1.816,3.345l.184.124-2.786,7.491a.224.224,0,0,0,.025.205.221.221,0,0,0,.183.1l8.938.113a.216.216,0,0,0,.184-.092.223.223,0,0,0,.033-.2l-2.487-7.545.188-.117a4.1,4.1,0,0,0-2.174-7.583Z" transform="translate(-416.287 -45.14)" fill="#455a64"/></g><g transform="translate(0.861 17.824)"><path d="M427.807,77.023a.985.985,0,0,0-.2-.012L427.019,77l-2.148-.045-7.089-.116-7.091-.08-2.149-.007-.585.007a.96.96,0,0,0-.2.014.95.95,0,0,0,.2.02l.584.025,2.148.059c1.814.043,4.321.09,7.09.129s5.275.063,7.09.067c.907,0,1.642,0,2.15-.008.254-.006.45-.008.585-.017A.9.9,0,0,0,427.807,77.023Z" transform="translate(-407.753 -76.75)" fill="#455a64"/></g><g transform="translate(1.151 9.824)"><path d="M428.322,62.835a.993.993,0,0,0-.2-.012l-.584-.015-2.148-.045-7.089-.116-7.091-.08-2.149-.006-.584.006a.961.961,0,0,0-.2.014.921.921,0,0,0,.2.02l.584.025,2.148.059c1.815.042,4.321.089,7.09.129s5.276.062,7.09.067c.907,0,1.642,0,2.15-.008.254-.005.45-.008.585-.016A.933.933,0,0,0,428.322,62.835Z" transform="translate(-408.268 -62.563)" fill="#455a64"/></g></g><g transform="translate(15.064 95.393)"><g transform="translate(0 0)"><rect width="34.628" height="31.513" rx="8.925" transform="translate(0.923 0) rotate(1.679)" fill="#ebebeb"/></g><g transform="translate(0.121 10.312)"><path d="M351.818,246.445a.844.844,0,0,1,.374-.671l11.331-7.6a2.346,2.346,0,0,1,3,.055.753.753,0,0,0,.149.1l5.136,2.637a.846.846,0,0,0,.977-.148l7.782-7.609a2.415,2.415,0,0,1,3.5.3l2.5,3.135a.847.847,0,0,1,.184.535l-.118,12.66a4.781,4.781,0,0,1-4.932,4.734l-25.333-.8a4.782,4.782,0,0,1-4.627-4.954Z" transform="translate(-351.727 -232.596)" fill="#e0e0e0"/></g><g transform="translate(9.033 4.324)"><circle cx="3.461" cy="3.461" r="3.461" transform="translate(0 2.43) rotate(-20.555)" fill="#e0e0e0"/></g></g><g transform="translate(59.793 42.059)"><g transform="translate(0 0)"><rect width="34.628" height="31.513" rx="8.925" transform="translate(0.923 0) rotate(1.679)" fill="#ebebeb"/></g><g transform="translate(0.152 10.312)"><path d="M431.178,151.433l11.69-7.844a2.345,2.345,0,0,1,3.064.116l5.758,2.957,8.217-8.034a2.414,2.414,0,0,1,3.5.3l2.684,3.369-.114,12.12a5.6,5.6,0,0,1-5.78,5.548l-23.667-.748a5.6,5.6,0,0,1-5.422-5.806Z" transform="translate(-431.102 -138.014)" fill="#e0e0e0"/></g><g transform="translate(10.028 5.319)"><circle cx="3.461" cy="3.461" r="3.461" fill="#e0e0e0"/></g></g></g><g transform="translate(48.128 56.541)"><path d="M359.648,146.727a1.483,1.483,0,0,1-.455-.127,2.5,2.5,0,0,1-1.032-.872,2.931,2.931,0,0,1-.5-2.069,4.119,4.119,0,0,1,1.369-2.47,7.193,7.193,0,0,1,3.083-1.516,16.95,16.95,0,0,1,3.909-.505,17.224,17.224,0,0,1,8.679,2.2,6.334,6.334,0,0,1,1.839,1.544,3.828,3.828,0,0,1,.826,2.194,2.927,2.927,0,0,1-.824,2.106,4.836,4.836,0,0,1-1.833,1.15,12.421,12.421,0,0,1-3.894.63,22.111,22.111,0,0,1-3.427-.148,21.457,21.457,0,0,1-4.815-1.162c-.549-.2-.968-.38-1.246-.513a2.673,2.673,0,0,1-.419-.212,2.9,2.9,0,0,1,.442.158c.285.114.709.273,1.261.459a22.918,22.918,0,0,0,4.8,1.064,22.581,22.581,0,0,0,3.393.111,12.3,12.3,0,0,0,3.808-.639,4.585,4.585,0,0,0,1.724-1.089,2.649,2.649,0,0,0,.741-1.907,3.549,3.549,0,0,0-.77-2.023,6.071,6.071,0,0,0-1.757-1.469,17.112,17.112,0,0,0-8.528-2.184,16.92,16.92,0,0,0-3.852.47,7.031,7.031,0,0,0-3,1.435,3.965,3.965,0,0,0-1.345,2.338,2.836,2.836,0,0,0,.436,1.983,2.558,2.558,0,0,0,.963.882C359.491,146.681,359.653,146.712,359.648,146.727Z" transform="translate(-357.63 -139.166)" fill="#263238"/></g><g transform="translate(62.703 135.314)"><path d="M385.494,286.423a1.484,1.484,0,0,1-.454-.127,2.507,2.507,0,0,1-1.032-.872,2.935,2.935,0,0,1-.5-2.069,4.119,4.119,0,0,1,1.369-2.47,7.192,7.192,0,0,1,3.083-1.516,16.946,16.946,0,0,1,3.909-.505,17.222,17.222,0,0,1,8.679,2.2,6.35,6.35,0,0,1,1.839,1.543,3.83,3.83,0,0,1,.826,2.195,2.928,2.928,0,0,1-.824,2.106,4.837,4.837,0,0,1-1.833,1.15,12.425,12.425,0,0,1-3.895.63,22.1,22.1,0,0,1-3.426-.148,21.456,21.456,0,0,1-4.816-1.162c-.549-.2-.968-.38-1.246-.512a2.7,2.7,0,0,1-.419-.213,2.866,2.866,0,0,1,.442.158c.285.114.709.273,1.261.459a22.9,22.9,0,0,0,4.8,1.064,22.586,22.586,0,0,0,3.393.111,12.3,12.3,0,0,0,3.808-.639,4.585,4.585,0,0,0,1.724-1.089,2.647,2.647,0,0,0,.741-1.907,3.552,3.552,0,0,0-.769-2.023,6.082,6.082,0,0,0-1.757-1.469,17.118,17.118,0,0,0-8.528-2.184,16.913,16.913,0,0,0-3.852.47,7.034,7.034,0,0,0-3,1.435,3.971,3.971,0,0,0-1.345,2.338,2.839,2.839,0,0,0,.436,1.983,2.564,2.564,0,0,0,.963.883C385.338,286.377,385.5,286.408,385.494,286.423Z" transform="translate(-383.476 -278.862)" fill="#263238"/></g><g transform="translate(45.785 30.743)"><path d="M355.492,100.978a1.487,1.487,0,0,1-.455-.127,2.506,2.506,0,0,1-1.032-.872,2.935,2.935,0,0,1-.5-2.069,4.118,4.118,0,0,1,1.369-2.47,7.189,7.189,0,0,1,3.083-1.516,16.945,16.945,0,0,1,3.909-.505,17.225,17.225,0,0,1,8.68,2.2,6.341,6.341,0,0,1,1.839,1.544,3.823,3.823,0,0,1,.826,2.194,2.927,2.927,0,0,1-.824,2.106,4.837,4.837,0,0,1-1.833,1.15,12.425,12.425,0,0,1-3.895.63,22.172,22.172,0,0,1-3.426-.148,21.464,21.464,0,0,1-4.816-1.162c-.549-.2-.968-.381-1.246-.512a2.768,2.768,0,0,1-.42-.213,2.881,2.881,0,0,1,.443.158c.285.114.709.273,1.261.459a22.912,22.912,0,0,0,4.8,1.063,22.58,22.58,0,0,0,3.393.111,12.3,12.3,0,0,0,3.808-.639,4.581,4.581,0,0,0,1.724-1.089,2.647,2.647,0,0,0,.741-1.907,3.548,3.548,0,0,0-.769-2.023,6.086,6.086,0,0,0-1.757-1.469,17.115,17.115,0,0,0-8.528-2.184,16.912,16.912,0,0,0-3.852.47,7.037,7.037,0,0,0-3,1.435,3.966,3.966,0,0,0-1.344,2.338,2.836,2.836,0,0,0,.435,1.983,2.562,2.562,0,0,0,.963.882C355.336,100.932,355.5,100.963,355.492,100.978Z" transform="translate(-353.474 -93.417)" fill="#263238"/></g><g transform="translate(133.845 117.424)"><path d="M510.123,247.136l7.753.193,3.7,4.767-3.981,4.857-7.956-.233Z" transform="translate(-509.638 -247.136)" fill="#2ec49f"/></g><g transform="translate(134.579 103.825)"><path d="M511.425,223.019l7.753.193,3.7,4.767-3.981,4.857-7.956-.233Z" transform="translate(-510.94 -223.019)" fill="#455a64"/></g><g transform="translate(4.599 6.042)"><path d="M.352,0h24.4a.352.352,0,0,1,.352.352v0A.352.352,0,0,1,24.755.7H.352A.352.352,0,0,1,0,.352v0A.352.352,0,0,1,.352,0Z" fill="#e0e0e0"/></g><g transform="translate(4.599 8.277)"><path d="M.352,0h24.4a.352.352,0,0,1,.352.352v0A.352.352,0,0,1,24.755.7H.352A.352.352,0,0,1,0,.352v0A.352.352,0,0,1,.352,0Z" fill="#e0e0e0"/></g><g transform="translate(4.599 10.513)"><path d="M.352,0h24.4a.352.352,0,0,1,.352.352v0A.352.352,0,0,1,24.755.7H.352A.352.352,0,0,1,0,.352v0A.352.352,0,0,1,.352,0Z" fill="#e0e0e0"/></g><g transform="translate(34.232 8.128)"><path d="M332.986,53.312c.065-.049,3.967,5,8.715,11.285s8.546,11.414,8.482,11.463-3.966-5-8.716-11.286S332.922,53.361,332.986,53.312Z" transform="translate(-332.986 -53.311)" fill="#263238"/></g><g transform="translate(33.133 6.719)"><circle cx="0.955" cy="0.955" r="0.955" fill="#263238"/></g><g transform="translate(29.49 184.104)"><g transform="translate(0.137 0.147)"><path d="M355.847,382.611h-28.6a2.423,2.423,0,0,1-2.421-2.54l.58-12.118a2.424,2.424,0,0,1,2.421-2.308h28.6a2.424,2.424,0,0,1,2.421,2.54l-.581,12.118A2.423,2.423,0,0,1,355.847,382.611Z" transform="translate(-324.82 -365.645)" fill="#fafafa"/></g><g transform="translate(0 0)"><path d="M355.741,382.5a2.985,2.985,0,0,0,.943-.225,2.409,2.409,0,0,0,1.426-2.195c.107-2.459.26-5.992.449-10.352-.01-1.072.352-2.322-.448-3.228a2.284,2.284,0,0,0-1.483-.826c-.587-.044-1.243-.01-1.879-.019l-8.212.014-18.817.012a2.292,2.292,0,0,0-1.949,1.1,2.322,2.322,0,0,0-.329,1.1l-.059,1.222q-.118,2.435-.232,4.8t-.225,4.628q-.028.568-.055,1.128a2.812,2.812,0,0,0,.073,1.062,2.3,2.3,0,0,0,1.342,1.485,2.512,2.512,0,0,0,1,.168h1.064l2.085,0,3.987.007,7.155.018,10.361.047,2.817.027.732.015a1.573,1.573,0,0,1,.25.015,1.544,1.544,0,0,1-.25.015l-.732.015-2.817.028-10.361.047-7.155.018-3.987.007-2.085,0H327.29a2.77,2.77,0,0,1-1.105-.184,2.567,2.567,0,0,1-1.506-1.658,3.1,3.1,0,0,1-.086-1.153q.026-.562.053-1.128.107-2.268.218-4.629t.227-4.8q.029-.609.058-1.222a2.617,2.617,0,0,1,.372-1.237,2.584,2.584,0,0,1,2.2-1.239l18.817.011,8.212.014c.65.012,1.261-.022,1.91.029a2.509,2.509,0,0,1,1.627.916,2.549,2.549,0,0,1,.564,1.7q-.043.858-.084,1.678c-.229,4.358-.414,7.889-.542,10.347a2.5,2.5,0,0,1-.557,1.528,2.433,2.433,0,0,1-.959.716,2.461,2.461,0,0,1-.717.172C355.825,382.5,355.741,382.5,355.741,382.5Z" transform="translate(-324.577 -365.385)" fill="#263238"/></g></g><g transform="translate(34.089 190.146)"><path d="M.352,0h24.4a.352.352,0,0,1,.352.352v0A.352.352,0,0,1,24.755.7H.352A.352.352,0,0,1,0,.352v0A.352.352,0,0,1,.352,0Z" fill="#e0e0e0"/></g><g transform="translate(34.089 192.382)"><path d="M.352,0h24.4a.352.352,0,0,1,.352.352v0A.352.352,0,0,1,24.755.7H.352A.352.352,0,0,1,0,.352v0A.352.352,0,0,1,.352,0Z" fill="#e0e0e0"/></g><g transform="translate(34.089 194.617)"><path d="M.352,0h24.4a.352.352,0,0,1,.352.352v0A.352.352,0,0,1,24.755.7H.352A.352.352,0,0,1,0,.352v0A.352.352,0,0,1,.352,0Z" fill="#e0e0e0"/></g><g transform="translate(50.79 144.541)"><path d="M383.04,295.224c.072.037-4.5,8.958-10.214,19.922s-10.4,19.826-10.475,19.788,4.5-8.956,10.214-19.923S382.968,295.187,383.04,295.224Z" transform="translate(-362.351 -295.224)" fill="#263238"/></g><g transform="translate(49.836 183.296)"><path d="M362.568,364.907a.955.955,0,1,1-.955-.955A.955.955,0,0,1,362.568,364.907Z" transform="translate(-360.658 -363.952)" fill="#263238"/></g></g><g transform="translate(256.712 212.113)"><g transform="translate(0 0)"><g transform="translate(17.361)"><g transform="translate(37.183 17.21)"><path d="M0,0H82.58a1.713,1.713,0,0,1,1.713,1.713v0A1.713,1.713,0,0,1,82.58,3.426H0a0,0,0,0,1,0,0V0A0,0,0,0,1,0,0Z" fill="#f59d36"/></g><g transform="translate(5.005 19.066)"><path d="M504.589,380.009c0,.068-6.953.124-15.529.124s-15.531-.055-15.531-.124,6.952-.124,15.531-.124S504.589,379.941,504.589,380.009Z" transform="translate(-473.53 -379.886)" fill="#263238"/></g><g transform="translate(0 0)"><path d="M10.318,0H47.464a0,0,0,0,1,0,0V20.636a0,0,0,0,1,0,0H10.318A10.318,10.318,0,0,1,0,10.318v0A10.318,10.318,0,0,1,10.318,0Z" fill="#f59d36"/></g><g transform="translate(37.183 0)"><path d="M.78,0h81.8a1.713,1.713,0,0,1,1.713,1.713v0A1.713,1.713,0,0,1,82.58,3.426H.78A.78.78,0,0,1,0,2.646V.78A.78.78,0,0,1,.78,0Z" fill="#f59d36"/></g><g transform="translate(39.698 3.426)"><path d="M614.318,365.934H541.946a6.892,6.892,0,0,1-6.892-6.892h0a6.892,6.892,0,0,1,6.892-6.892h72.372A17.05,17.05,0,0,0,614.318,365.934Z" transform="translate(-535.054 -352.149)" fill="#f5f5f5"/></g><g opacity="0.3"><path d="M504.353,366.71H472.475a7.82,7.82,0,0,1-7.82-7.82v-5.06a7.757,7.757,0,0,1,7.756-7.756h32.727C497.667,350.6,498.225,361.44,504.353,366.71Z" transform="translate(-464.655 -346.074)"/></g><g transform="translate(43.816 10.835)"><path d="M608.711,365.412c0,.068-14.855.124-33.175.124s-33.178-.055-33.178-.124,14.851-.123,33.178-.123S608.711,365.343,608.711,365.412Z" transform="translate(-542.358 -365.288)" fill="#263238"/></g><g transform="translate(50.644 13.898)"><path d="M620.819,370.845c0,.068-14.855.124-33.175.124s-33.178-.055-33.178-.124,14.852-.123,33.178-.123S620.819,370.776,620.819,370.845Z" transform="translate(-554.466 -370.721)" fill="#263238"/></g><g transform="translate(48.631 6.49)"><path d="M617.249,357.706c0,.068-14.855.124-33.175.124s-33.178-.055-33.178-.124,14.851-.123,33.178-.123S617.249,357.638,617.249,357.706Z" transform="translate(-550.896 -357.583)" fill="#263238"/></g><g transform="translate(5.005 1.59)"><path d="M504.589,349.017c0,.068-6.953.123-15.529.123s-15.531-.055-15.531-.123,6.952-.124,15.531-.124S504.589,348.948,504.589,349.017Z" transform="translate(-473.53 -348.893)" fill="#263238"/></g></g><g transform="translate(0 35.122)"><g transform="translate(0 0)"><path d="M13.288,0H55.974a5.152,5.152,0,0,1,5.152,5.152V21.424a5.152,5.152,0,0,1-5.152,5.152H13.288A13.288,13.288,0,0,1,0,13.288v0A13.288,13.288,0,0,1,13.288,0Z" fill="#2ec49f"/></g><g transform="translate(47.886 0)"><path d="M1.273,0H106.35a2.206,2.206,0,0,1,2.206,2.206v0a2.206,2.206,0,0,1-2.206,2.206H1.273A1.273,1.273,0,0,1,0,3.139V1.273A1.273,1.273,0,0,1,1.273,0Z" fill="#2ec49f"/></g><g transform="translate(47.886 22.164)"><path d="M1.273,0H106.35a2.206,2.206,0,0,1,2.206,2.206v0a2.206,2.206,0,0,1-2.206,2.206H1.273A1.273,1.273,0,0,1,0,3.139V1.273A1.273,1.273,0,0,1,1.273,0Z" fill="#2ec49f"/></g><g transform="translate(51.124 4.412)"><path d="M626.611,433.935h-93.2a8.876,8.876,0,0,1-8.876-8.876h0a8.876,8.876,0,0,1,8.876-8.876h93.2A21.95,21.95,0,0,0,626.611,433.935Z" transform="translate(-524.53 -416.182)" fill="#f5f5f5"/></g><g transform="translate(0)" opacity="0.3"><path d="M484.992,434.934H447.013a13.145,13.145,0,0,1-13.145-13.146h0a13.43,13.43,0,0,1,13.43-13.43H486C476.381,414.187,477.1,428.146,484.992,434.934Z" transform="translate(-433.868 -408.358)"/></g><g transform="translate(56.428 13.989)"><path d="M619.388,433.289c0,.068-19.131.124-42.724.124s-42.728-.055-42.728-.124,19.127-.123,42.728-.123S619.388,433.22,619.388,433.289Z" transform="translate(-533.936 -433.165)" fill="#263238"/></g><g transform="translate(65.221 17.935)"><path d="M634.983,440.286c0,.068-19.131.124-42.725.124s-42.728-.055-42.728-.124,19.127-.123,42.728-.123S634.983,440.218,634.983,440.286Z" transform="translate(-549.53 -440.163)" fill="#263238"/></g><g transform="translate(62.629 10.327)"><path d="M630.385,426.8c0,.068-19.131.123-42.725.123s-42.728-.055-42.728-.123,19.126-.124,42.728-.124S630.385,426.727,630.385,426.8Z" transform="translate(-544.932 -426.672)" fill="#263238"/></g><g transform="translate(6.445 24.59)"><path d="M485.3,452.09c0,.068-8.955.124-20,.124s-20-.055-20-.124,8.953-.123,20-.123S485.3,452.021,485.3,452.09Z" transform="translate(-445.297 -451.966)" fill="#263238"/></g><g transform="translate(6.445 2.082)"><path d="M485.3,412.174c0,.068-8.955.124-20,.124s-20-.055-20-.124,8.953-.123,20-.123S485.3,412.106,485.3,412.174Z" transform="translate(-445.297 -412.051)" fill="#263238"/></g></g><g transform="translate(27.337 19.879)"><g transform="translate(0 0.123)"><path d="M7.608,0h41.7a.354.354,0,0,1,.354.354V14.863a.354.354,0,0,1-.354.354H7.608A7.608,7.608,0,0,1,0,7.608v0A7.608,7.608,0,0,1,7.608,0Z" fill="#455a64"/></g><g transform="translate(38.906 0.123)"><path d="M.816,0h85.59A1.792,1.792,0,0,1,88.2,1.792v0a1.792,1.792,0,0,1-1.792,1.792H.816A.816.816,0,0,1,0,2.768V.816A.816.816,0,0,1,.816,0Z" fill="#455a64"/></g><g transform="translate(38.906 11.755)"><path d="M.816,0h85.59A1.792,1.792,0,0,1,88.2,1.792v0a1.792,1.792,0,0,1-1.792,1.792H.816A.816.816,0,0,1,0,2.768V.816A.816.816,0,0,1,.816,0Z" fill="#455a64"/></g><g transform="translate(41.536 3.708)"><path d="M638.944,395.95H560.03a4.024,4.024,0,0,1-4.024-4.023h0a4.024,4.024,0,0,1,4.024-4.023h78.914A6.076,6.076,0,0,0,638.944,395.95Z" transform="translate(-556.006 -387.903)" fill="#f5f5f5"/></g><g transform="translate(0 0.123)" opacity="0.3"><path d="M523.882,396.762H489.893a7.547,7.547,0,0,1-7.547-7.547h0a7.669,7.669,0,0,1,7.669-7.669H524.7C516.887,384.883,517.471,392.876,523.882,396.762Z" transform="translate(-482.346 -381.546)"/></g><g transform="translate(45.846 6.974)"><path d="M633.076,393.819c0,.068-15.543.123-34.712.123s-34.716-.055-34.716-.123,15.54-.124,34.716-.124S633.076,393.751,633.076,393.819Z" transform="translate(-563.649 -393.695)" fill="#263238"/></g><g transform="translate(52.99 9.14)"><path d="M645.746,397.66c0,.068-15.543.124-34.712.124s-34.716-.055-34.716-.124,15.54-.124,34.716-.124S645.746,397.591,645.746,397.66Z" transform="translate(-576.318 -397.536)" fill="#263238"/></g><g transform="translate(5.236 13.703)"><path d="M524.13,405.752c0,.068-7.275.123-16.248.123s-16.25-.055-16.25-.123,7.274-.124,16.25-.124S524.13,405.683,524.13,405.752Z" transform="translate(-491.632 -405.628)" fill="#263238"/></g><g transform="translate(5.236 1.792)"><path d="M524.13,384.629c0,.068-7.275.123-16.248.123s-16.25-.055-16.25-.123,7.274-.124,16.25-.124S524.13,384.56,524.13,384.629Z" transform="translate(-491.632 -384.505)" fill="#263238"/></g><g transform="translate(6.855)"><path d="M613.717,381.451c0,.068-26.689.124-59.6.124s-59.61-.055-59.61-.124,26.683-.124,59.61-.124S613.717,381.382,613.717,381.451Z" transform="translate(-494.502 -381.327)" fill="#263238"/></g></g><g transform="translate(105.542 6.387)"><path d="M621.034,357.4v8.265l2.865-1.837,3.2,1.837V357.4Z" transform="translate(-621.034 -357.401)" fill="#ff725e"/></g></g></g><g transform="translate(364.664 77.041)"><g transform="translate(0.129 0.12)"><path d="M660.912,106.754H635.341a9.8,9.8,0,0,0-9.8,9.8h0a9.8,9.8,0,0,0,9.237,9.775l2.315,4.006,2.892-3.977h20.931a9.8,9.8,0,0,0,9.8-9.8h0A9.8,9.8,0,0,0,660.912,106.754Z" transform="translate(-625.537 -106.754)" fill="#fff"/></g><path d="M660.812,106.661s.088,0,.26,0l.767.027a10.35,10.35,0,0,1,2.865.721,10.123,10.123,0,0,1,3.753,2.8,10.582,10.582,0,0,1,1.516,2.536,9.64,9.64,0,0,1,.717,3.242,9.838,9.838,0,0,1-2.482,7.076,10.078,10.078,0,0,1-3.46,2.518,10.556,10.556,0,0,1-4.474.821l-20.391.016.118-.06-2.892,3.978-.133.183-.113-.2-.943-1.631-1.372-2.375.118.073a10.907,10.907,0,0,1-2.866-.6,10.4,10.4,0,0,1-2.532-1.385,9.911,9.911,0,0,1-1.52-14.451,9.814,9.814,0,0,1,4.025-2.783c.189-.067.374-.142.564-.2l.576-.147a9.382,9.382,0,0,1,1.154-.209c.385-.051.771-.047,1.151-.073h1.122l8.238.017,11.891.046,3.223.026.837.014c.189.005.285.015.285.015s-.1.01-.285.015l-.837.014-3.223.027-11.891.046-8.238.018-1.122,0c-.371.027-.748.023-1.123.074a9.211,9.211,0,0,0-1.124.207l-.561.145c-.185.058-.365.132-.549.2a9.566,9.566,0,0,0-3.912,2.72,9.646,9.646,0,0,0,1.493,14.044,10.124,10.124,0,0,0,2.459,1.343,10.628,10.628,0,0,0,2.782.58l.08.006.039.067,1.373,2.375.942,1.631-.245-.013,2.893-3.977.044-.06h.074l20.391.016a10.3,10.3,0,0,0,4.376-.788,9.855,9.855,0,0,0,3.386-2.445,9.645,9.645,0,0,0,2.459-6.913,9.494,9.494,0,0,0-.683-3.185,10.463,10.463,0,0,0-1.473-2.5,10.09,10.09,0,0,0-3.675-2.8A10.823,10.823,0,0,0,660.812,106.661Z" transform="translate(-625.308 -106.541)" fill="#263238"/><g transform="translate(8.515 6.859)"><path d="M643.375,118.706l.917,1.858,2.05.3-1.484,1.446.35,2.042-1.834-.964-1.834.964.35-2.042-1.484-1.446,2.05-.3Z" transform="translate(-640.408 -118.706)" fill="#afafaf"/></g><g transform="translate(16.294 6.859)"><path d="M657.17,118.706l.917,1.858,2.05.3-1.484,1.446.35,2.042-1.834-.964-1.834.964.35-2.042-1.484-1.446,2.05-.3Z" transform="translate(-654.203 -118.706)" fill="#afafaf"/></g><g transform="translate(24.073 6.859)"><path d="M670.965,118.706l.917,1.858,2.05.3-1.484,1.446.35,2.042-1.834-.964-1.834.964.35-2.042L668,120.861l2.05-.3Z" transform="translate(-667.998 -118.706)" fill="#afafaf"/></g><g transform="translate(31.852 6.859)"><path d="M684.76,118.706l.917,1.858,2.05.3-1.484,1.446.35,2.042-1.834-.964-1.834.964.35-2.042-1.483-1.446,2.05-.3Z" transform="translate(-681.793 -118.706)" fill="#afafaf"/></g></g><g transform="translate(97.034 87.072)"><g transform="translate(0)"><g transform="translate(0 0.129)"><path d="M150.7,145.967l4.175.4a13.5,13.5,0,1,0-2.259-4.277l0-.007Z" transform="translate(-150.697 -124.557)" fill="#fff"/></g><path d="M150.7,145.867s.051-.09.139-.258l.382-.743,1.448-2.849-.109.006,0,.006a.062.062,0,0,0,.086.02.063.063,0,0,0,.026-.072,13.512,13.512,0,0,1-.354-6.558,13.17,13.17,0,0,1,1.493-4.008,13.3,13.3,0,0,1,7.763-6.227,13.3,13.3,0,0,1,15.622,6.462l.377.73.307.758a14.3,14.3,0,0,1,.5,1.542,13.529,13.529,0,0,1-.946,9.125,13.408,13.408,0,0,1-22.518,2.432l-.043-.023-3.087-.261-.809-.065c-.183-.014-.284-.017-.284-.017a2.363,2.363,0,0,0,.257.035l.789.091,3.124.341-.043-.023a13.424,13.424,0,0,0,5.236,4.075,13.624,13.624,0,0,0,17.631-6.461,13.792,13.792,0,0,0,.978-9.32,14.609,14.609,0,0,0-.513-1.577l-.314-.774-.385-.746a13.6,13.6,0,0,0-20.716-4,13.485,13.485,0,0,0-3.122,3.792,13.322,13.322,0,0,0-1.489,4.08,13.488,13.488,0,0,0,.424,6.632l.113-.052,0-.006a.062.062,0,0,0-.086-.02.063.063,0,0,0-.023.026l-1.4,2.923-.349.739C150.729,145.788,150.692,145.87,150.7,145.867Z" transform="translate(-150.696 -124.328)" fill="#263238"/><g transform="translate(6.617 4.081)"><g transform="translate(0)"><path d="M165.944,131.565,162.43,144.3l4.306,3.071,9.683,2.359,3.839-14.377Z" transform="translate(-162.43 -131.565)" fill="#f5f5f5"/></g><g transform="translate(0 12.164)"><path d="M164.3,153.136l-1.871.57a5.685,5.685,0,0,0,1.512,1.763,8.214,8.214,0,0,0,2.794,1.308A5.458,5.458,0,0,1,164.3,153.136Z" transform="translate(-162.43 -153.136)" fill="#ebebeb"/></g><g transform="translate(4.146 5.037)"><path d="M180.668,143.371c-.006.024-2.448-.6-5.453-1.394s-5.438-1.456-5.431-1.48,2.448.6,5.454,1.394S180.674,143.347,180.668,143.371Z" transform="translate(-169.783 -140.497)" fill="#e0e0e0"/></g><g transform="translate(3.58 6.987)"><path d="M179.664,146.83c-.007.024-2.448-.6-5.453-1.393s-5.438-1.456-5.431-1.48,2.448.6,5.454,1.393S179.67,146.806,179.664,146.83Z" transform="translate(-168.779 -143.956)" fill="#e0e0e0"/></g><g transform="translate(3.181 8.743)"><path d="M178.957,149.944c-.006.024-2.448-.6-5.453-1.394s-5.438-1.456-5.431-1.48,2.448.6,5.454,1.394S178.963,149.92,178.957,149.944Z" transform="translate(-168.072 -147.07)" fill="#e0e0e0"/></g><g transform="translate(2.728 10.416)"><path d="M178.152,152.91c-.006.024-2.448-.6-5.453-1.394s-5.437-1.456-5.431-1.48,2.447.6,5.453,1.394S178.158,152.886,178.152,152.91Z" transform="translate(-167.268 -150.036)" fill="#e0e0e0"/></g></g></g></g><g transform="translate(27.647 77.128)"><g transform="translate(0.137 0.137)"><path d="M53.991,131.437l-1.092-4.05a13.5,13.5,0,1,0-3.207,3.62l0,.006Z" transform="translate(-27.89 -106.937)" fill="#fff"/></g><path d="M53.885,131.331s-.1-.016-.29-.039l-.829-.1-3.177-.351.044.1,0-.006a.063.063,0,0,0-.089-.087,13.5,13.5,0,0,1-6.013,2.641,13.567,13.567,0,0,1-8.837-1.567,13.328,13.328,0,0,1-3.457-20.388l.55-.61.6-.554a14.3,14.3,0,0,1,1.267-1.013,13.534,13.534,0,0,1,8.873-2.329A13.408,13.408,0,0,1,52.74,127.251l-.006.048c.365,1.292.647,2.29.843,2.981.1.332.17.59.224.779s.083.272.083.272a2.36,2.36,0,0,0-.058-.252l-.193-.77-.781-3.043-.007.048a13.416,13.416,0,0,0,1.969-6.336,13.624,13.624,0,0,0-12.256-14.225,13.791,13.791,0,0,0-9.067,2.368,14.566,14.566,0,0,0-1.3,1.035l-.614.567-.563.623a13.6,13.6,0,0,0,3.556,20.8,13.482,13.482,0,0,0,4.649,1.586,13.3,13.3,0,0,0,4.343-.043,13.491,13.491,0,0,0,6.057-2.733l-.089-.087,0,.006a.062.062,0,0,0,.011.087.066.066,0,0,0,.033.013l3.228.279.815.066A2.438,2.438,0,0,0,53.885,131.331Z" transform="translate(-27.647 -106.695)" fill="#263238"/><g transform="translate(6.269 8.272)"><path d="M45.849,133.222l-7.086-4.74,1.654-2.473,4.751,3.178,5.912-7.824,2.373,1.793Z" transform="translate(-38.763 -121.364)" fill="#f59d36"/></g></g><g transform="translate(255.3 62.477)"><g transform="translate(73.608 6.634)"><g transform="translate(0 5.352)"><g transform="translate(0 10.039)"><path d="M564.755,119.769s-2.562,9.578-2.782,16.355l-.073,2.258s5.652,4.693,10.393,4.982l3.974-9.771Z" transform="translate(-561.899 -119.769)" fill="#263238"/></g><g transform="translate(1.733)"><path d="M591.2,117.88c-1.081-4.671-1.5-10.108-5.38-13.155-2.883-2.26-6.167-2.89-9.827-2.737a12.968,12.968,0,0,0-5.407,1.8c-2.152,1.219-3.064,3.689-4.1,5.934-2.08,4.5-1.817,10.585-.408,12.278l18.79,9.923c3.752-1.953,6.1-2.73,6.7-7.732A18.326,18.326,0,0,0,591.2,117.88Z" transform="translate(-564.973 -101.967)" fill="#263238"/><g transform="translate(1.311 2.936)"><path d="M586.636,110.709l-11.825-3.489c-3.81-.555-6.538,4.055-6.931,7.884-.437,4.255-.8,9.466-.422,12.668.764,6.439,5.637,7.446,5.637,7.446,0-.021.011.1-.027,2l-.015,3.919a3.25,3.25,0,0,0,.931,2.653c1.744,2.26,4.923,2.561,8.671,1.175a5.4,5.4,0,0,0,3.849-4.623l2.056-27.269A2.252,2.252,0,0,0,586.636,110.709Z" transform="translate(-567.299 -107.174)" fill="#ae7461"/><g transform="translate(1.703 13.046)"><path d="M570.32,131.02a.822.822,0,0,0,.759.859.786.786,0,0,0,.875-.707.822.822,0,0,0-.758-.859A.787.787,0,0,0,570.32,131.02Z" transform="translate(-570.318 -130.309)" fill="#263238"/></g><g transform="translate(1.351 10.987)"><path d="M569.707,127.46c.1.111.738-.325,1.621-.288s1.512.5,1.613.4c.049-.046-.047-.244-.321-.46a2.256,2.256,0,0,0-1.286-.452,2.165,2.165,0,0,0-1.3.363C569.758,127.22,569.658,127.41,569.707,127.46Z" transform="translate(-569.695 -126.659)" fill="#263238"/></g><g transform="translate(9.467 13.173)"><path d="M584.089,131.246a.821.821,0,0,0,.759.859.786.786,0,0,0,.875-.707.822.822,0,0,0-.758-.859A.786.786,0,0,0,584.089,131.246Z" transform="translate(-584.087 -130.535)" fill="#263238"/></g><g transform="translate(10.039 11.092)"><path d="M585.113,127.645c.1.111.738-.324,1.621-.287s1.513.5,1.613.4c.049-.046-.046-.243-.321-.46a2.251,2.251,0,0,0-1.286-.452,2.17,2.17,0,0,0-1.3.362C585.166,127.4,585.065,127.595,585.113,127.645Z" transform="translate(-585.102 -126.844)" fill="#263238"/></g><g transform="translate(4.385 10.276)"><path d="M577.3,132.739a5.864,5.864,0,0,0-1.424-.315c-.224-.032-.436-.085-.468-.241a1.149,1.149,0,0,1,.177-.663l.735-1.691a29.439,29.439,0,0,0,1.674-4.433,29.706,29.706,0,0,0-2.027,4.288q-.37.891-.707,1.7a1.308,1.308,0,0,0-.152.88.565.565,0,0,0,.358.345,1.521,1.521,0,0,0,.381.068A5.743,5.743,0,0,0,577.3,132.739Z" transform="translate(-575.075 -125.397)" fill="#263238"/></g><g transform="translate(5.754 26.096)"><path d="M577.519,155.4a16.289,16.289,0,0,0,8.66-1.949s-2.294,4.394-8.676,3.544Z" transform="translate(-577.503 -153.452)" fill="#6f4439"/></g><g transform="translate(6.76 18.953)"><path d="M582,141.412a1.281,1.281,0,0,0-1.042-.622,1.665,1.665,0,0,0-1.547.692,1.038,1.038,0,0,0-.1.745c.051.129.01.065.106.156a2.916,2.916,0,0,0,1.162.786,1.252,1.252,0,0,0,1.339-.434A1.277,1.277,0,0,0,582,141.412Z" transform="translate(-579.287 -140.784)" fill="#6f4439"/></g><g transform="translate(6.424 18.37)"><path d="M581.61,139.751c-.143-.015-.188.943-1.039,1.586s-1.866.492-1.88.626c-.016.059.219.2.65.227a2.388,2.388,0,0,0,1.567-.467,2.083,2.083,0,0,0,.81-1.334C581.773,139.991,581.676,139.748,581.61,139.751Z" transform="translate(-578.691 -139.751)" fill="#263238"/></g><g transform="translate(9.714 8.148)"><path d="M584.527,122.136c.064.248.953.219,1.973.444,1.025.2,1.828.587,1.985.386.071-.1-.052-.336-.367-.6a3.515,3.515,0,0,0-3.015-.633C584.71,121.85,584.5,122.019,584.527,122.136Z" transform="translate(-584.525 -121.624)" fill="#263238"/></g><g transform="translate(1.398 8.231)"><path d="M569.816,122.951c.2.174.844-.13,1.652-.257.8-.152,1.515-.083,1.642-.313.055-.111-.082-.294-.409-.439a2.517,2.517,0,0,0-1.392-.131,2.484,2.484,0,0,0-1.261.59C569.791,122.647,569.727,122.864,569.816,122.951Z" transform="translate(-569.778 -121.77)" fill="#263238"/></g></g><g transform="translate(8.752 2.292)"><path d="M580.524,106.032c-.011.046-.02.092-.03.139l.022.01Z" transform="translate(-580.494 -106.032)" fill="#263238"/></g><g transform="translate(0.185 1.547)"><path d="M582.166,136.728c.181-1.678-.494-3.364-.3-5.04.207-1.777,1.359-3.3,1.831-5.026.757-2.764-.281-5.7-.661-8.559a6.78,6.78,0,0,1-4.162-2.4,18.778,18.778,0,0,1-2.815-5.172A8.657,8.657,0,0,0,577.8,115.5a2.334,2.334,0,0,1-1.995-.648,5.217,5.217,0,0,1-1.171-1.817,14.208,14.208,0,0,1-1.133-5.12,18.4,18.4,0,0,0,.836,7.476,3.2,3.2,0,0,0-1.392.053,1.525,1.525,0,0,1-1.324-.281,1.67,1.67,0,0,1-.363-.854,19.193,19.193,0,0,1-.213-6.514,19.858,19.858,0,0,0-1.468,3.609,6.993,6.993,0,0,0-.027,3.851.565.565,0,0,1-.8,0,1.348,1.348,0,0,1-.348-.8,9.909,9.909,0,0,1,.211-3.242,16.409,16.409,0,0,0-1.206,3.7,5.526,5.526,0,0,1-2.007,3.253,17.072,17.072,0,0,1,.16-4.912,14.858,14.858,0,0,1,1.44-3.9,11.582,11.582,0,0,1,2.6-3.612c1.886-1.652,2.674-.941,3.878-.311l.143.06c0-.029.006-.059.01-.089l.054-.257a18.065,18.065,0,0,1,9.513.445c2.27.74,2.478,5.628,3.032,3.3.335-1.405,2.157-.122,2.179-.082,2.677,4.829,5.515,12.49,5.645,24.595h0Z" transform="translate(-565.3 -104.711)" fill="#263238"/></g></g></g><g transform="translate(17.846)"><path d="M602.232,94.5a6.031,6.031,0,0,0-4.163-2.026,4.544,4.544,0,0,0-4.019,2.093,3.662,3.662,0,0,0,.5,4.38l1.978,1.582a5.414,5.414,0,0,0,4.493.436,3.905,3.905,0,0,0,2.536-3.564A4.6,4.6,0,0,0,602.232,94.5Z" transform="translate(-593.546 -92.476)" fill="#263238"/></g><g transform="translate(17.8 5.55)"><path d="M600.67,107.579c-.383.179-1.466-1.479-3.4-2.783-1.9-1.348-3.838-1.773-3.806-2.195.017-.192.561-.346,1.444-.255a7.392,7.392,0,0,1,5.49,3.792C600.8,106.931,600.844,107.5,600.67,107.579Z" transform="translate(-593.464 -102.319)" fill="#455a64"/></g></g><g transform="translate(60.912 46.186)"><g transform="translate(0 16.925)"><path d="M549.579,199.572l7.409-6.94,5.02,7.974c-.1.715-6.5,14.5-9.269,17.359-3.161,3.26-7.469,3.008-9.37-1.493-1.5-3.548-3.986-14.474-3.986-14.474Z" transform="translate(-539.383 -192.632)" fill="#5793ce"/></g><g transform="translate(7.062 1.861)"><path d="M563.12,167.049c-1.77.638-5.841,2.863-7.027,4.323a11.122,11.122,0,0,0-1.5,2.313c-.928,2.04-2.689,17.162-2.689,17.162l7.892,5.715,6.87-26.449-.439-4.194Z" transform="translate(-551.907 -165.919)" fill="#5793ce"/></g><g transform="translate(13.885)"><path d="M565.779,209.267l.5-3.907A126.988,126.988,0,0,1,564.2,192.34a36.4,36.4,0,0,1,1.963-16.612c.195-.574,5.348-11.248,5.348-11.248s1.082,3.288,5.431,2.51c6.064-1.084,8.273-4.372,8.273-4.372l7.835,1.694s3.053,12.26,3.5,16.322c.241,2.178-2.628,14.488-2.628,14.488l4.621,6.912c.139.34-2.007,9.787-2.427,10.178s-7.936,2.135-8.03,2.457-14.33,6.282-14.321,6.038-6.85-8.39-6.85-8.39Z" transform="translate(-564.007 -162.618)" fill="#5793ce"/></g><g transform="translate(12.991 14.577)"><path d="M563.315,188.469a1.1,1.1,0,0,1-.019.285c-.026.219-.058.487-.1.811-.084.7-.2,1.723-.307,2.985a42.814,42.814,0,0,0,.184,9.86c.507,3.833,1.246,7.261,1.723,9.753.243,1.246.428,2.256.546,2.956.05.323.091.589.125.807a1.032,1.032,0,0,1,.024.285,1.072,1.072,0,0,1-.082-.274c-.048-.215-.108-.479-.18-.8-.16-.737-.374-1.729-.636-2.936-.528-2.48-1.3-5.907-1.811-9.756a39.706,39.706,0,0,1-.1-9.918c.131-1.264.282-2.281.4-2.982.06-.35.112-.621.152-.8A1.014,1.014,0,0,1,563.315,188.469Z" transform="translate(-562.421 -188.469)" fill="#263238"/></g></g><g transform="translate(73 88.534)"><path d="M598.523,240.352c1.4,2.384,4.612,11.51,5.859,16.17,5.69,21.267,10.5,49.868,12.1,55.7,2.131,7.767,6.9,25.338,9.33,37.04l-11.662,5.086s-15.273-41.156-19.44-51.269c-4.318-10.479-11.521-30.245-11.521-30.245l-4.161,78.4-11.171.345s-3.82-22.092-5.34-35.3S560.832,275.9,560.82,269c-.016-8.4,3.625-27.3,3.625-27.3s4.357,3.271,12.527,2.019c6.507-1,20-6,20-6Z" transform="translate(-560.82 -237.716)" fill="#263238"/><g transform="translate(14.986 8.723)"><path d="M587.4,253.185a5.282,5.282,0,0,0,.065.9c.06.577.162,1.411.3,2.439.273,2.057.7,4.893,1.258,8.01s1.14,5.927,1.6,7.951c.228,1.013.422,1.83.566,2.392a5.28,5.28,0,0,0,.251.867,5.417,5.417,0,0,0-.141-.891c-.122-.619-.282-1.43-.475-2.41-.406-2.034-.954-4.845-1.512-7.96s-1.016-5.941-1.341-7.989c-.158-.985-.289-1.8-.39-2.425A5.384,5.384,0,0,0,587.4,253.185Z" transform="translate(-587.397 -253.185)" fill="#455a64"/></g><g transform="translate(16.952 8.254)"><path d="M592.909,252.657c.015,0-.018-.14-.218-.228a1.435,1.435,0,0,0-.851-.028,1.719,1.719,0,0,0-.557.228.936.936,0,0,0-.381.62,1.43,1.43,0,0,0,.639,1.419,1.472,1.472,0,0,0,1.557.07,1.014,1.014,0,0,0,.43-.58,1.445,1.445,0,0,0,.042-.6,1.218,1.218,0,0,0-.376-.767c-.161-.133-.282-.143-.285-.13s.089.07.2.209a1.232,1.232,0,0,1,.252.708.983.983,0,0,1-.407.936,1.231,1.231,0,0,1-1.258-.085,1.185,1.185,0,0,1-.535-1.131.7.7,0,0,1,.257-.468,1.61,1.61,0,0,1,.47-.225,1.528,1.528,0,0,1,.761-.064C592.829,252.577,592.887,252.672,592.909,252.657Z" transform="translate(-590.882 -252.353)" fill="#455a64"/></g><g transform="translate(11.833 28.49)"><path d="M581.806,288.243a10.936,10.936,0,0,0,1.351.927c.845.552,2,1.33,3.24,2.243s2.323,1.789,3.1,2.433a10.984,10.984,0,0,0,1.284,1.017,7.868,7.868,0,0,0-1.149-1.172,38.423,38.423,0,0,0-6.367-4.7A7.923,7.923,0,0,0,581.806,288.243Z" transform="translate(-581.805 -288.24)" fill="#455a64"/></g><g transform="translate(40.119 67.28)"><path d="M631.966,360.652a1.548,1.548,0,0,0,.483.016c.31-.006.758-.04,1.309-.1a23.41,23.41,0,0,0,8.235-2.58c.488-.263.875-.491,1.133-.663s.4-.272.387-.289a17.3,17.3,0,0,0-1.614.769,29.394,29.394,0,0,1-8.171,2.561A17.439,17.439,0,0,0,631.966,360.652Z" transform="translate(-631.966 -357.029)" fill="#455a64"/></g><g transform="translate(42.013 66.408)"><path d="M635.325,358.785a4.387,4.387,0,0,0,1.144-.3c.692-.231,1.636-.59,2.652-1.048s1.911-.926,2.543-1.291a4.391,4.391,0,0,0,.987-.654c-.042-.074-1.629.774-3.65,1.68S635.3,358.7,635.325,358.785Z" transform="translate(-635.324 -355.483)" fill="#455a64"/></g></g><g transform="translate(67.836 194.262)"><g transform="translate(0.005)"><path d="M563.8,425.214l-.059,11.639s-11.85,3.849-12.071,6l22.564.924.835-18.131Z" transform="translate(-551.671 -425.214)" fill="#263238"/></g><g transform="translate(17.958 10.901)"><path d="M584.644,444.592a.921.921,0,0,1,.594,1.078.885.885,0,0,1-1.063.6.972.972,0,0,1-.623-1.144.92.92,0,0,1,1.175-.5" transform="translate(-583.509 -444.545)" fill="#e0e0e0"/></g><g transform="translate(0 16.531)"><path d="M574.231,456.561l.012-1.831-21.638-.2s-1.023.4-.938,1.108Z" transform="translate(-551.662 -454.529)" fill="#455a64"/></g><g transform="translate(11.714 11.421)"><path d="M572.437,445.556c0,.11.548.183,1.075.559s.8.851.9.812c.1-.017-.035-.682-.682-1.127S572.417,445.454,572.437,445.556Z" transform="translate(-572.436 -445.468)" fill="#fff"/></g><g transform="translate(9.307 12.351)"><path d="M568.168,447.158c-.03.105.44.312.8.794s.443.978.553.978c.1.022.205-.62-.248-1.211S568.174,447.052,568.168,447.158Z" transform="translate(-568.167 -447.117)" fill="#fff"/></g><g transform="translate(7.042 13.234)"><path d="M564.956,450.617c.1.028.275-.517.017-1.132s-.764-.876-.814-.786c-.066.088.255.425.459.933S564.847,450.6,564.956,450.617Z" transform="translate(-564.151 -448.682)" fill="#fff"/></g><g transform="translate(12.019 8.504)"><path d="M572.979,440.649c.042.1.554-.029,1.175.039s1.1.284,1.159.192c.067-.077-.389-.5-1.122-.573S572.929,440.561,572.979,440.649Z" transform="translate(-572.976 -440.295)" fill="#fff"/></g></g><g transform="translate(123.861 193.042)"><path d="M660.413,423.049l4.322,13.4,6.475,9.614a1.443,1.443,0,0,1-.474,2.055h0a1.433,1.433,0,0,1-1.32.065c-2.707-1.24-12.642-5.852-12.9-6.851-.3-1.157-5.5-13.834-5.5-13.834Z" transform="translate(-651.016 -423.049)" fill="#263238"/><g transform="translate(5.186 17.387)"><path d="M674.747,461.567l-14.535-7.684.2.564a2.171,2.171,0,0,0,.95,1.161c1.19.7,4.517,2.556,12.03,6.039a1.442,1.442,0,0,0,1.36-.08Z" transform="translate(-660.212 -453.883)" fill="#455a64"/></g><g transform="translate(5.376 12.111)" opacity="0.6"><path d="M661.6,444.563a.872.872,0,0,1,.6,1,.839.839,0,0,1-.984.6.922.922,0,0,1-.63-1.061.871.871,0,0,1,1.093-.514" transform="translate(-660.549 -444.526)" fill="#fff"/></g><g transform="translate(14.606 18.002)"><path d="M676.97,457.289a3.113,3.113,0,0,1,2.235-2.266c0-.037-.2-.082-.53-.017a2.3,2.3,0,0,0-1.729,1.753C676.886,457.086,676.934,457.29,676.97,457.289Z" transform="translate(-676.918 -454.974)" fill="#fff"/></g><g transform="translate(16.207 20.114)"><path d="M679.776,460.374c.083.036.36-.546.979-.982a11.7,11.7,0,0,1,1.241-.62,1.6,1.6,0,0,0-1.422.369C679.87,459.643,679.694,460.362,679.776,460.374Z" transform="translate(-679.757 -458.719)" fill="#fff"/></g><g transform="translate(12.09 15.867)"><path d="M672.467,453.969a7.406,7.406,0,0,1,3.221-2.764,3.943,3.943,0,0,0-3.221,2.764Z" transform="translate(-672.456 -451.187)" fill="#fff"/></g><g transform="translate(10.442 13.248)"><path d="M669.538,447.979c.063.067.691-.5,1.635-.863s1.781-.4,1.781-.493a3.582,3.582,0,0,0-3.417,1.356Z" transform="translate(-669.533 -446.543)" fill="#fff"/></g><g transform="translate(9.073 9.401)"><path d="M667.111,441.1a4.584,4.584,0,0,1,3.6-1.114c.012-.036-.191-.152-.559-.222a3.144,3.144,0,0,0-2.7.836C667.183,440.868,667.081,441.08,667.111,441.1Z" transform="translate(-667.106 -439.72)" fill="#fff"/></g><g transform="translate(7.899 6.368)"><path d="M667.6,437.078a1.219,1.219,0,0,0-.157-.509,3.7,3.7,0,0,0-.858-1.178,1.643,1.643,0,0,0-.922-.509.581.581,0,0,0-.575.337.947.947,0,0,0,0,.674,2.039,2.039,0,0,0,2.308,1.195,2.366,2.366,0,0,0,1.788-1.932.823.823,0,0,0-.188-.658.57.57,0,0,0-.661-.089,2.019,2.019,0,0,0-.718.76,4.136,4.136,0,0,0-.548,1.349,1.269,1.269,0,0,0-.044.531,6.61,6.61,0,0,1,.775-1.759,1.883,1.883,0,0,1,.642-.648.3.3,0,0,1,.36.046.56.56,0,0,1,.1.44,2.111,2.111,0,0,1-1.569,1.657,1.771,1.771,0,0,1-1.974-.986.686.686,0,0,1-.019-.47.314.314,0,0,1,.315-.19,1.479,1.479,0,0,1,.789.416A5.472,5.472,0,0,1,667.6,437.078Z" transform="translate(-665.025 -434.342)" fill="#fff"/></g></g><g transform="translate(57.453 60.763)"><path d="M538.218,188.469l5.381,5.558.218,4.84-6.246,1.436h-.318l-.4-3.124-3.6-4.786Z" transform="translate(-533.25 -188.469)" fill="#ae7461"/></g><g transform="translate(0 1.577)"><path d="M488.027,138.674a32.765,32.765,0,0,1-46.312,1.515h0a32.756,32.756,0,1,1,46.312-1.515Zm-44.812-.087a30.6,30.6,0,1,0-9.071-16.334A30.366,30.366,0,0,0,443.214,138.587Z" transform="translate(-431.363 -83.509)" fill="#455a64"/></g><g transform="translate(0 1.577)"><path d="M488.027,138.674a32.765,32.765,0,0,1-46.312,1.515h0a32.756,32.756,0,1,1,46.312-1.515Zm-44.812-.087a30.6,30.6,0,1,0-9.071-16.334A30.366,30.366,0,0,0,443.214,138.587Z" transform="translate(-431.363 -83.509)" fill="#263238"/></g><g transform="translate(0.805)"><path d="M489.454,135.877a32.766,32.766,0,0,1-46.312,1.515h0a32.756,32.756,0,1,1,46.312-1.515Zm-44.812-.087a30.6,30.6,0,1,0-9.071-16.334A30.368,30.368,0,0,0,444.642,135.79Z" transform="translate(-432.791 -80.712)" fill="#455a64"/></g><g transform="translate(52.82 53.727)"><path d="M566.057,218.791l1.042-1.009c.93-.9.409-2.957-.567-3.956l-36.6-37.835-4.895,4.736,36.55,37.778A3.277,3.277,0,0,0,566.057,218.791Z" transform="translate(-525.033 -175.991)" fill="#455a64"/></g><g transform="translate(56.9 58.069)"><path d="M535.476,183.909a.861.861,0,0,0-.74-.2,1.443,1.443,0,0,0-.581.4,6.641,6.641,0,0,0-1.886,4.59,2.035,2.035,0,0,0,.839,1.892l.735-.426c.228-.294.909-.786,1-1.147.38-1.52-.166-1.457.788-4.093A.909.909,0,0,0,535.476,183.909Z" transform="translate(-532.269 -183.69)" fill="#ae7461"/><g transform="translate(1.681 1.093)"><path d="M536.6,186.91a3.623,3.623,0,0,1,.728-.959,1.059,1.059,0,0,1,.968-.289c.508.16.754.89.7,1.57a5.909,5.909,0,0,1-.631,1.932q-.9,1.961-1.808,3.92l-.35-.257a.5.5,0,0,1-.781-.173,2.078,2.078,0,0,1-.172-1.067A10.233,10.233,0,0,1,536.6,186.91Z" transform="translate(-535.25 -185.629)" fill="#ae7461"/></g><g transform="translate(3.041 3.17)"><path d="M538.542,192.425a9.164,9.164,0,0,1,1.81-2.426,2.228,2.228,0,0,1,.841-.638.791.791,0,0,1,.945.277,1.092,1.092,0,0,1-.128.961,44.879,44.879,0,0,1-3.113,5.466l-1.081-1.089C537.325,194.093,538.126,193.345,538.542,192.425Z" transform="translate(-537.662 -189.311)" fill="#ae7461"/></g></g><g transform="translate(70.892 47.88)"><g transform="translate(0 20.682)"><path d="M576.212,210.177l-.992-.21-5.194-4.427-2.842-2.388a1.733,1.733,0,0,0-.832-.383l-2.813-.47a1.6,1.6,0,0,0,.843,1.93l1.542.8,1.411,1.667-.18.361s-9.246,1.434-9.823,2.139a.961.961,0,0,0,.257,1.475,1.492,1.492,0,0,0,.706.064,1.679,1.679,0,0,0,.9,1.988s-1.026,1.347.769,1.988a2.9,2.9,0,0,0,1.539,1.347,66.547,66.547,0,0,0,7.117.962l6.628.01,1.331.218Z" transform="translate(-557.083 -202.299)" fill="#ae7461"/><g transform="translate(0.997 8.172)"><path d="M558.851,217.068a7.371,7.371,0,0,0,2.557.138,10.218,10.218,0,0,0,2.53-.376,12.592,12.592,0,0,0-2.548.085A24.484,24.484,0,0,0,558.851,217.068Z" transform="translate(-558.851 -216.791)" fill="#6f4439"/></g><g transform="translate(2.108 10.342)"><path d="M560.82,220.719c0,.041.24.074.625.125s.918.123,1.52.161a13.175,13.175,0,0,0,1.533-.033,2.44,2.44,0,0,0,.631-.057c.011-.042-.234-.123-.628-.149s-.935-.014-1.52-.052-1.13-.079-1.524-.076S560.819,220.68,560.82,220.719Z" transform="translate(-560.82 -220.639)" fill="#6f4439"/></g><g transform="translate(2.693 12.32)"><path d="M561.858,224.2a10.942,10.942,0,0,0,2.492.334,5.918,5.918,0,0,1,1.706.265c.407.153.593.372.629.339.028-.014-.113-.3-.544-.526a4.514,4.514,0,0,0-1.769-.368A10.988,10.988,0,0,0,561.858,224.2Z" transform="translate(-561.858 -224.147)" fill="#6f4439"/></g></g><g transform="translate(19.093)"><path d="M604.794,165.622s3.908.674,6.87,6.5c1.638,3.219,9.291,22.573,9.745,24.271,1.942,7.261-1.816,11.942-5.434,12.26-3.982.35-24.578-6.3-24.578-6.3l-.455-8.8,18.787,2.852-9.026-17.52S600.357,167.217,604.794,165.622Z" transform="translate(-590.942 -165.622)" fill="#5793ce"/><g transform="translate(18.401 30.784)"><path d="M630.277,225.024a3.2,3.2,0,0,0-.5-1.173,7.921,7.921,0,0,0-4.925-3.514,3.2,3.2,0,0,0-1.273-.1c0,.05.481.086,1.223.3a8.939,8.939,0,0,1,4.8,3.427C630.04,224.6,630.231,225.043,630.277,225.024Z" transform="translate(-623.574 -220.215)" fill="#263238"/></g></g><g transform="translate(18.934 13.907)"><path d="M610.693,218.65a.3.3,0,0,1-.1-.013l-.282-.06c-.25-.051-.61-.159-1.082-.288-.939-.272-2.305-.69-4.026-1.238-3.44-1.1-8.3-2.7-14.017-4.636l-.087-.03,0-.092c-.133-2.532-.278-5.292-.429-8.171l-.009-.18.178.029,4.622.748,14.168,2.312-.139.192-6.24-12.216-1.749-3.473-.453-.924a2.15,2.15,0,0,1-.143-.325,2.261,2.261,0,0,1,.182.305l.49.906,1.816,3.439,6.334,12.166.121.234-.26-.042-14.172-2.284-4.621-.751.168-.151c.144,2.879.282,5.64.409,8.172l-.091-.121,13.981,4.737,4,1.311c.467.141.823.263,1.067.328l.275.082A.321.321,0,0,1,610.693,218.65Z" transform="translate(-590.66 -190.284)" fill="#263238"/></g><g transform="translate(28.488 0.353)"><path d="M612.9,166.251c.027.046-.532.368-1.31,1.039a11.144,11.144,0,0,0-3.741,6.887c-.139,1.018-.1,1.662-.158,1.665a1.349,1.349,0,0,1-.066-.45,7.181,7.181,0,0,1,.018-1.238,9.772,9.772,0,0,1,.338-1.811,10.368,10.368,0,0,1,2.143-3.944,9.714,9.714,0,0,1,1.335-1.269,7.161,7.161,0,0,1,1.028-.69A1.361,1.361,0,0,1,612.9,166.251Z" transform="translate(-607.602 -166.248)" fill="#263238"/></g></g></g><g transform="translate(139.345 63.819)"><g transform="translate(0 58.746)"><path d="M229.689,187.272s-4.152,23.1-3.951,25.255,1.3,5.595,3.809,6.184a11.252,11.252,0,0,0,4.81,0l-3.007-28.367Z" transform="translate(-225.73 -187.272)" fill="#ffbf9d"/></g><g transform="translate(9.941)"><g transform="translate(2.239 4.015)"><g transform="translate(3.596)"><path d="M254.012,125.216l-.291-23.866c-.266-5.934,2.967-11.035,8.906-11.137l.55.023a10.619,10.619,0,0,1,10.174,10.192c.2,5.145.359,10.832.211,13.582-.306,5.692-6.039,6.342-6.039,6.342s-.036,3.465-.032,5.138l-4.584,6.36v.34Z" transform="translate(-253.706 -90.213)" fill="#ffbf9d"/></g><g transform="translate(10.089 27.641)"><path d="M272.546,141.73a13.766,13.766,0,0,1-7.324-2.5s1.607,4.356,7.311,4.078Z" transform="translate(-265.222 -139.231)" fill="#ff9a6c"/></g><g transform="translate(19.801 14.36)"><path d="M284.071,116.448a.814.814,0,0,1-.818.788.779.779,0,0,1-.808-.768.815.815,0,0,1,.818-.789A.779.779,0,0,1,284.071,116.448Z" transform="translate(-282.445 -115.679)" fill="#263238"/></g><g transform="translate(18.714 11.758)"><path d="M283.729,111.987c-.105.1-.7-.38-1.578-.413s-1.535.377-1.625.266c-.045-.049.065-.236.354-.429a2.231,2.231,0,0,1,1.307-.344,2.144,2.144,0,0,1,1.251.461C283.7,111.746,283.781,111.942,283.729,111.987Z" transform="translate(-280.517 -111.065)" fill="#263238"/></g><g transform="translate(11.985 14.36)"><path d="M270.209,116.448a.813.813,0,0,1-.818.788.778.778,0,0,1-.808-.767.815.815,0,0,1,.818-.789A.779.779,0,0,1,270.209,116.448Z" transform="translate(-268.583 -115.679)" fill="#263238"/></g><g transform="translate(10.126 11.607)"><path d="M268.5,111.718c-.105.1-.7-.38-1.578-.413s-1.535.377-1.626.266c-.044-.05.065-.236.355-.429a2.229,2.229,0,0,1,1.306-.345,2.151,2.151,0,0,1,1.251.461C268.468,111.477,268.552,111.673,268.5,111.718Z" transform="translate(-265.287 -110.796)" fill="#263238"/></g><g transform="translate(16.091 12.075)"><path d="M275.975,118.935a5.818,5.818,0,0,1,1.432-.2c.224-.014.438-.05.482-.2a1.139,1.139,0,0,0-.122-.668l-.59-1.729a29.255,29.255,0,0,1-1.3-4.512,29.255,29.255,0,0,1,1.661,4.4c.2.607.384,1.185.562,1.738a1.3,1.3,0,0,1,.08.882.562.562,0,0,1-.381.312,1.527,1.527,0,0,1-.382.037A5.68,5.68,0,0,1,275.975,118.935Z" transform="translate(-275.864 -111.626)" fill="#263238"/></g><g transform="translate(9.732 8.79)"><path d="M268.592,106.814c-.128.218-.968-.052-2-.117-1.032-.086-1.9.06-2-.175-.041-.112.142-.306.513-.471a3.483,3.483,0,0,1,3.046.222C268.5,106.491,268.65,106.71,268.592,106.814Z" transform="translate(-264.589 -105.801)" fill="#263238"/></g><g transform="translate(18.553 9.153)"><path d="M283.751,107.4c-.187.194-.894-.031-1.751-.064-.856-.058-1.587.092-1.749-.12-.07-.1.049-.3.371-.479a2.763,2.763,0,0,1,1.433-.288,2.716,2.716,0,0,1,1.387.436C283.74,107.1,283.834,107.306,283.751,107.4Z" transform="translate(-280.231 -106.446)" fill="#263238"/></g><g transform="translate(0 15.138)"><path d="M251.231,117.294c-.1-.046-3.865-1.319-3.9,2.58s3.885,3.131,3.893,3.019S251.231,117.294,251.231,117.294Z" transform="translate(-247.33 -117.059)" fill="#ffbf9d"/></g><g transform="translate(0.989 16.392)"><path d="M250.81,122.375c-.017-.013-.068.047-.183.1a.681.681,0,0,1-.508.006,1.68,1.68,0,0,1-.764-1.515,2.246,2.246,0,0,1,.2-.97.785.785,0,0,1,.516-.517.346.346,0,0,1,.4.19c.051.109.025.187.046.194s.085-.065.054-.226a.429.429,0,0,0-.151-.246.512.512,0,0,0-.374-.1.955.955,0,0,0-.715.6,2.3,2.3,0,0,0-.246,1.084,1.764,1.764,0,0,0,.975,1.693.729.729,0,0,0,.623-.1C250.8,122.468,250.824,122.382,250.81,122.375Z" transform="translate(-249.083 -119.283)" fill="#ff9a6c"/></g><g transform="translate(13.32 19.926)"><path d="M271.083,125.549c.134-.008.14.886.909,1.519s1.722.529,1.729.655c.012.056-.212.175-.615.187a2.229,2.229,0,0,1-1.444-.5,1.945,1.945,0,0,1-.7-1.274C270.923,125.766,271.021,125.544,271.083,125.549Z" transform="translate(-270.951 -125.549)" fill="#263238"/></g></g><path d="M276.708,92.194a.924.924,0,0,0-.428-.545,2.849,2.849,0,0,0-1.455-.253,8.217,8.217,0,0,1-3.557-.936,4.068,4.068,0,0,0,1.057-.725,2.448,2.448,0,0,0,.732-2.425.543.543,0,0,0-.3-.376c-.253-.081-.477.166-.656.361a2.106,2.106,0,0,1-1.993.817,3.455,3.455,0,0,1-1.477-.455c-.017-.017-.032-.037-.049-.055-.2-.212-.4-.414-.589-.61v0h0A12.9,12.9,0,0,0,264,83.961a13.24,13.24,0,0,0-7.064-.637,5.352,5.352,0,0,0-4.09,4.118,4.116,4.116,0,0,0-4.135-.435l-.034-.015c-1.516.521-2.391,2.106-2.854,3.641-.025.084-.047.169-.072.254a5.985,5.985,0,0,1-2.054,1.961c-.147.083-.315.186-.335.353s.119.306.254.4a3,3,0,0,0,1.216.522,6.723,6.723,0,0,1-.513,1.055c-.174.287-.38.63-.235.932a.637.637,0,0,0,.663.3,1.862,1.862,0,0,0,.707-.31l-.519,1.2a3.57,3.57,0,0,0,1.643-.091c.3,1.444.515,4.112.875,5.092a5.915,5.915,0,0,1,1.807.1c.673.232.4,1.424,1.284,1.094.449-.167,1.155-1.855,1.31-2.309a22.261,22.261,0,0,0,1.071-9.412,7.153,7.153,0,0,1,2.228-1.57l-.068.06c1.6-.536,3.41-1.06,4.914-.294,1.167.594,1.842,1.819,2.708,2.8a8.162,8.162,0,0,0,5.989,3c.2,1.723.238,4.539.3,6.146l1.408-3.2v.013a6.384,6.384,0,0,0,.3-.565l.031-.058v-.007a10.075,10.075,0,0,1,.462-.908l.015.014a1,1,0,0,0,1.481-1.326,2.271,2.271,0,0,0-.479-.493,1.587,1.587,0,0,0,1.507.409,1.245,1.245,0,0,0,.895-1.222,1.059,1.059,0,0,0-.621-.857,3.58,3.58,0,0,0,2.04-.425C276.44,93.073,276.838,92.7,276.708,92.194Z" transform="translate(-243.359 -83.092)" fill="#263238"/><g transform="translate(2.795 5.026)"><path d="M256.794,92.005a4.873,4.873,0,0,0-.579.517,4.1,4.1,0,0,0-.9,1.885,7.232,7.232,0,0,0-.162,1.449c-.008.525.028,1.088.061,1.682a15.1,15.1,0,0,1,.021,1.871,6.664,6.664,0,0,1-.14.986,2.058,2.058,0,0,1-.414.953.86.86,0,0,1-.808.262,1.282,1.282,0,0,1-.72-.418,2.958,2.958,0,0,1-.533-1.457l.12.016a4.8,4.8,0,0,1-.708,1.188,1.7,1.7,0,0,1-1.117.592,1.093,1.093,0,0,1-.587-.11.944.944,0,0,1-.4-.4.981.981,0,0,1-.116-.507.709.709,0,0,1,.188-.442l.06.055a3.682,3.682,0,0,1-1.236.906,3.4,3.4,0,0,1-.381.143.682.682,0,0,1-.136.032.666.666,0,0,1,.129-.054c.085-.034.212-.083.37-.161a3.8,3.8,0,0,0,1.194-.92l.06.055a.732.732,0,0,0-.047.847.856.856,0,0,0,.358.353,1,1,0,0,0,.532.092,1.591,1.591,0,0,0,1.036-.563,4.694,4.694,0,0,0,.682-1.162l.085-.182.036.2a2.86,2.86,0,0,0,.507,1.392,1.154,1.154,0,0,0,.644.373.726.726,0,0,0,.687-.222,1.946,1.946,0,0,0,.382-.892,6.589,6.589,0,0,0,.139-.965,15.365,15.365,0,0,0-.014-1.856c-.03-.593-.062-1.159-.049-1.691a7.159,7.159,0,0,1,.181-1.467,4.031,4.031,0,0,1,.951-1.9A2.307,2.307,0,0,1,256.794,92.005Z" transform="translate(-248.315 -92.005)" fill="#455a64"/></g><g transform="translate(11.474 1.859)"><path d="M281.094,95.308a.212.212,0,0,1-.046.038l-.144.1a1.906,1.906,0,0,1-.243.152,3.065,3.065,0,0,1-.35.179,5.063,5.063,0,0,1-2.447.411,6.464,6.464,0,0,1-3.429-1.31,11.2,11.2,0,0,1-2.919-3.444c-.407-.7-.738-1.407-1.1-2.066a7.575,7.575,0,0,0-1.255-1.751,3.889,3.889,0,0,0-1.632-1.016,2.775,2.775,0,0,0-.866-.11,3.071,3.071,0,0,0-.8.143,3.3,3.3,0,0,0-1.851,1.531,3.979,3.979,0,0,0-.3.852.2.2,0,0,1,.005-.06l.029-.174a2.858,2.858,0,0,1,.224-.642,3.257,3.257,0,0,1,.648-.859,3.346,3.346,0,0,1,1.219-.738,3.146,3.146,0,0,1,.821-.156,2.866,2.866,0,0,1,.9.106,3.99,3.99,0,0,1,1.689,1.035,7.626,7.626,0,0,1,1.283,1.776c.37.663.7,1.374,1.1,2.063a11.2,11.2,0,0,0,2.877,3.412,6.433,6.433,0,0,0,3.363,1.316,5.138,5.138,0,0,0,2.419-.365A7.958,7.958,0,0,0,281.094,95.308Z" transform="translate(-263.707 -86.39)" fill="#455a64"/></g><g transform="translate(23.36 8.275)"><path d="M290.834,97.769a.9.9,0,0,1-.206.14,4.4,4.4,0,0,1-.61.3,5.857,5.857,0,0,1-.963.3,6.215,6.215,0,0,1-2.463.051,5.9,5.9,0,0,1-.974-.264,4.42,4.42,0,0,1-.621-.275.924.924,0,0,1-.212-.131c.011-.023.325.143.864.317a6.734,6.734,0,0,0,.965.232,6.643,6.643,0,0,0,2.416-.05,6.723,6.723,0,0,0,.954-.272C290.516,97.925,290.822,97.747,290.834,97.769Z" transform="translate(-284.785 -97.767)" fill="#455a64"/></g></g><g transform="translate(8.241 99.558)"><g transform="translate(3.632 89.741)"><path d="M259.338,418.924l-.563,12.888s12.911,4.9,13.039,7.293l-25.029-.2.054-20.117Z" transform="translate(-246.785 -418.793)" fill="#12263f"/><g transform="translate(3.523 11.834)"><path d="M253.769,439.82a1.022,1.022,0,0,0-.716,1.161.982.982,0,0,0,1.144.72,1.077,1.077,0,0,0,.752-1.233,1.019,1.019,0,0,0-1.273-.616" transform="translate(-253.033 -439.779)" fill="#e0e0e0"/></g><g transform="translate(0 18.09)" opacity="0.6"><path d="M246.785,452.9l.085-2.027,23.965.945s1.111.493.978,1.277Z" transform="translate(-246.785 -450.874)" fill="#fff"/></g><g transform="translate(10.105 12.779)"><path d="M267,441.571c0,.122-.616.173-1.221.561-.615.373-.929.9-1.04.85-.113-.025.075-.754.815-1.211S267.024,441.46,267,441.571Z" transform="translate(-264.705 -441.455)" fill="#263238"/></g><g transform="translate(13.342 13.951)"><path d="M272.117,443.584c.027.118-.5.323-.923.836-.434.5-.543,1.059-.665,1.053-.115.019-.194-.7.339-1.327S272.115,443.467,272.117,443.584Z" transform="translate(-270.445 -443.533)" fill="#263238"/></g><g transform="translate(16.337 15.053)"><path d="M275.9,447.59c-.112.025-.277-.586.042-1.254s.893-.929.943-.827c.068.1-.305.457-.559,1.009S276.021,447.579,275.9,447.59Z" transform="translate(-275.756 -445.488)" fill="#263238"/></g><g transform="translate(9.596 9.495)"><path d="M266.406,436.08c-.052.111-.611-.062-1.3-.02s-1.232.255-1.294.149c-.07-.089.458-.537,1.273-.575S266.467,435.984,266.406,436.08Z" transform="translate(-263.803 -435.631)" fill="#263238"/></g><g transform="translate(12.233 9.798)"><path d="M268.766,436.168a20.97,20.97,0,0,1,.034,3.1l-.1-.153c1.462.555,3.406,1.3,5.471,2.278a29.364,29.364,0,0,1,5.546,3.194,5.924,5.924,0,0,1,1.373,1.4c.26.4.226.709.185.694a1.743,1.743,0,0,0-.319-.6,6.963,6.963,0,0,0-1.417-1.254,36.309,36.309,0,0,0-5.545-3.051c-2.051-.968-3.974-1.75-5.409-2.364l-.106-.046.006-.107A20.949,20.949,0,0,1,268.766,436.168Z" transform="translate(-268.479 -436.168)" fill="#263238"/></g></g><path d="M240.344,259.647v11.681l4.608,37.3s-1.46,17.493-2.357,27.366c-.779,8.576.494,23.509.494,23.509h13.661l4.888-49.8,3.034-31.061,5.5-18.4Z" transform="translate(-240.344 -259.647)" fill="#1565c0"/><g transform="translate(7.317 84.569)"><path d="M270.221,412.687l-3.578,12.395s11.4,7.8,10.959,10.155l-24.282-6.075,4.783-19.541Z" transform="translate(-253.32 -409.621)" fill="#12263f"/><g transform="translate(5.109 12.521)"><path d="M263.35,431.835a1.022,1.022,0,0,0-.969.96.982.982,0,0,0,.943.968,1.077,1.077,0,0,0,1.02-1.022,1.019,1.019,0,0,0-1.093-.9" transform="translate(-262.381 -431.825)" fill="#e0e0e0"/></g><g transform="translate(0 17.591)" opacity="0.6"><path d="M253.32,442.767l.559-1.951,23.072,6.554s.963.741.651,1.472Z" transform="translate(-253.32 -440.816)" fill="#fff"/></g><g transform="translate(11.2 15.18)"><path d="M275.73,436.8c-.034.118-.64.023-1.319.258-.685.218-1.114.656-1.211.582-.1-.05.25-.715,1.078-.985S275.783,436.7,275.73,436.8Z" transform="translate(-273.182 -436.542)" fill="#263238"/></g><g transform="translate(14.001 17.024)"><path d="M280.179,439.913c0,.122-.566.195-1.094.6-.54.386-.777.9-.894.867-.116-.009-.024-.724.642-1.21S280.2,439.8,280.179,439.913Z" transform="translate(-278.148 -439.81)" fill="#263238"/></g><g transform="translate(16.648 18.709)"><path d="M282.91,444.626c-.114,0-.131-.635.336-1.208s1.086-.693,1.111-.581c.042.114-.4.372-.781.849S283.031,444.644,282.91,444.626Z" transform="translate(-282.843 -442.798)" fill="#263238"/></g><g transform="translate(11.693 11.734)"><path d="M276.612,431.217c-.077.1-.58-.2-1.261-.327s-1.257-.041-1.293-.158.572-.414,1.372-.259S276.694,431.139,276.612,431.217Z" transform="translate(-274.056 -430.431)" fill="#263238"/></g></g><g transform="translate(7.59 0.797)"><path d="M281.32,261.06l.627,6.353-.758,46.13L270.378,350.6l-2.619,8.987L253.8,356.959l10.756-95.886Z" transform="translate(-253.804 -261.06)" fill="#1565c0"/></g><g transform="translate(7.438 13.765)"><path d="M280.781,324.539s-.015.075-.053.219l-.176.641c-.162.572-.4,1.4-.7,2.482L277.17,337.2l-9.411,32.454-.031.107-.109-.021-13.955-2.621-.128-.024.024-.128c.712-3.76,1.456-7.69,2.214-11.7,2.254-11.867,4.38-23.059,6.238-32.838v.04c-2.311-14.507-4.154-26.076-5.212-32.718l.006.017-2.331-4.24-.594-1.1c-.133-.247-.193-.377-.193-.377s.078.12.218.363l.619,1.083,2.376,4.215,0,.008,0,.01,5.336,32.7,0,.02,0,.02-6.209,32.843c-.76,4.006-1.505,7.936-2.218,11.7l-.1-.152,13.952,2.635-.14.086,9.5-32.428,2.746-9.3.74-2.47c.085-.275.15-.485.2-.635S280.781,324.539,280.781,324.539Z" transform="translate(-253.535 -284.057)" fill="#455a64"/></g><g transform="translate(25.005 4.579)"><path d="M292.281,267.769a4.391,4.391,0,0,1-.76,1.114,10.268,10.268,0,0,1-5.5,3.348,4.393,4.393,0,0,1-1.339.164,12.6,12.6,0,0,0,7.593-4.627Z" transform="translate(-284.688 -267.767)" fill="#455a64"/></g></g><g transform="translate(34.188 33.653)"><g transform="translate(28.199)"><g transform="translate(1.261)"><path d="M345.53,143.65a.589.589,0,0,0-.131-.813.292.292,0,0,0-.209-.062c-.279.046-1.014.584-1.581.593s-1.529-.164-2.095.361a17.728,17.728,0,0,0-2.121,4.034c-.175.626-.789,6.123-.789,6.123Z" transform="translate(-338.604 -142.772)" fill="#ffbf9d"/></g><g transform="translate(0.245 0.158)"><path d="M347.136,143.052c-.03.034-6.772,3.01-9.733,4.316a1.006,1.006,0,0,0-.288,1.651h0a1.053,1.053,0,0,0,1.2.188l9.675-4.715.8-1.211Z" transform="translate(-336.801 -143.052)" fill="#263238"/></g><g transform="translate(0 0.123)"><path d="M339.807,149.092l2.15-1.583,2.838-4.119s1.162-.69,1.764-.255.8.938.519,1.5c0,0,1.6.383,1.718.92a6.113,6.113,0,0,1-.232,1.843,3.23,3.23,0,0,1,.012,1.534,2.479,2.479,0,0,0-.2.99,3.01,3.01,0,0,1,.593,2.571,15.586,15.586,0,0,1-3.321,4.95,21.763,21.763,0,0,1-2.9,1.648l-1.238,2.6-5.14-4.654Z" transform="translate(-336.367 -142.991)" fill="#ffbf9d"/></g><g transform="translate(4.104 0.699)"><path d="M347.878,144.013a1.152,1.152,0,0,1-.129.222l-.383.583c-.327.49-.785,1.163-1.3,1.9l-.726,1.04a2.543,2.543,0,0,1-.369.423,1.823,1.823,0,0,1-.412.268,3.419,3.419,0,0,1-.666.223,1.123,1.123,0,0,1-.253.046,1.264,1.264,0,0,1,.241-.086,4.2,4.2,0,0,0,.644-.25c.554-.232.923-1.007,1.453-1.724.511-.739.979-1.405,1.322-1.884l.411-.564A1.252,1.252,0,0,1,347.878,144.013Z" transform="translate(-343.645 -144.013)" fill="#ff9a6c"/></g><g transform="translate(8.996 1.796)"><path d="M352.322,149.144a31.488,31.488,0,0,1,1.748-3.187,15.615,15.615,0,0,1-.828,1.619A15.836,15.836,0,0,1,352.322,149.144Z" transform="translate(-352.321 -145.957)" fill="#ff9a6c"/></g><g transform="translate(8.503 6.658)"><path d="M352.616,155.479c-.016,0-.024-.092-.077-.226a.953.953,0,0,0-.334-.43.971.971,0,0,0-.521-.165c-.144,0-.233.019-.239,0s.08-.061.236-.077a.892.892,0,0,1,.582.154.874.874,0,0,1,.345.493C352.648,155.383,352.628,155.48,352.616,155.479Z" transform="translate(-351.446 -154.579)" fill="#ff9a6c"/></g><g transform="translate(10.563 7.66)"><path d="M356.6,157.025c-.01.011-.089-.048-.212-.145a2.519,2.519,0,0,0-.5-.328.965.965,0,0,0-.568-.092.576.576,0,0,0-.212.108c-.015,0,.024-.124.192-.18a.9.9,0,0,1,.63.069,1.78,1.78,0,0,1,.509.368C356.545,156.938,356.605,157.015,356.6,157.025Z" transform="translate(-355.099 -156.357)" fill="#ff9a6c"/></g><g transform="translate(11.137 4.532)"><path d="M356.119,152.44a4.485,4.485,0,0,1,.471-.843,4.414,4.414,0,0,1,.56-.786,8.908,8.908,0,0,1-1.031,1.629Z" transform="translate(-356.117 -150.81)" fill="#ff9a6c"/></g><g transform="translate(5.965 5.488)"><path d="M348,153.368c-.017,0-.014-.089-.054-.217a.807.807,0,0,0-.29-.414.829.829,0,0,0-.486-.149c-.134,0-.218.028-.223.012s.071-.065.218-.087a.778.778,0,0,1,.552.139.763.763,0,0,1,.3.483C348.041,153.281,348.01,153.37,348,153.368Z" transform="translate(-346.946 -152.505)" fill="#ff9a6c"/></g><g transform="translate(0.779 4.678)"><path d="M338.364,152.726c-.012-.014.093-.094.186-.273a.928.928,0,0,0,.05-.747.981.981,0,0,0-.535-.53c-.186-.077-.318-.074-.317-.092a.523.523,0,0,1,.343.023.975.975,0,0,1,.607.561.934.934,0,0,1-.084.822C338.5,152.675,338.369,152.736,338.364,152.726Z" transform="translate(-337.748 -151.067)" fill="#455a64"/></g></g><g transform="translate(0 11.373)"><path d="M297.877,170.916l8.154,6.978,10.01-14.953,6.508,3.839s-9.755,22.455-12.4,24.439-4.874,1.47-8.275-.1-15.516-13.768-15.516-13.768Z" transform="translate(-286.359 -162.941)" fill="#ffbf9d"/><g transform="translate(19.614 14.853)"><path d="M321.49,195.587c-.08-.012.143-1.422.043-3.164s-.458-3.121-.38-3.141a10.739,10.739,0,0,1,.337,6.305Z" transform="translate(-321.143 -189.281)" fill="#ff9a6c"/></g></g></g><g transform="translate(0 35.36)"><g transform="translate(0 5.999)"><path d="M238.156,156.659s6.932.1,7.032,8.74a144.772,144.772,0,0,1-1.764,20.2l-17.694-3.118s2.2-16.085,4.069-20.717C231.685,157.1,235.287,155.873,238.156,156.659Z" transform="translate(-225.73 -156.438)" fill="#12263f"/></g><g transform="translate(5.291)"><path d="M245.538,145.8l-.22,1.409s-9.457,6.248-9.992,7.861c-.829,2.5.979,23.623,1.777,29.61s.96,19.18.96,19.18a18.325,18.325,0,0,0-1.458,5.124,6.316,6.316,0,0,0,1.458,4.112c10.146,3.312,22.542.77,35.951-2.288l-.126-3.8L269.5,165.712s1.277-10.733-3.958-13.84c-.575-.341-5.143-2.936-5.143-2.936Z" transform="translate(-235.113 -145.8)" fill="#12263f"/></g><g transform="translate(30.922 17.901)" opacity="0.3"><path d="M280.567,177.545a32.019,32.019,0,0,0,3.116,12.738,37.733,37.733,0,0,0,7.954,11.039l-1.419-12.356Z" transform="translate(-280.567 -177.545)"/></g><g transform="translate(29.339 5.939)"><g transform="translate(0.102 0.06)"><path d="M287.362,157.914c-1.658-1.341-4.741-2.071-6.5-.864a5.3,5.3,0,0,0-2.135,2.628c-1.5,4.391-.6,9.112.6,12.616s7.009,10.253,7.009,10.253l14.347-8.708s-9.6-11.639-10.6-12.841A25.4,25.4,0,0,0,287.362,157.914Z" transform="translate(-277.94 -156.438)" fill="#12263f"/></g><path d="M287.283,157.868a2.494,2.494,0,0,1,.3.242,10.634,10.634,0,0,1,.792.8c.664.732,1.541,1.874,2.725,3.264l9.59,11.538.087.105-.117.071-13.555,8.243-.785.476-.1.058-.072-.085c-1.6-1.9-3.1-3.8-4.433-5.721a30.6,30.6,0,0,1-1.83-2.916,12.072,12.072,0,0,1-.706-1.523c-.193-.519-.346-1.039-.5-1.554a18.815,18.815,0,0,1-.136-11.237,4.874,4.874,0,0,1,1.258-1.948,4.216,4.216,0,0,1,3.513-1.346,6.629,6.629,0,0,1,1.486.254,7.029,7.029,0,0,1,1.9.839,3.357,3.357,0,0,1,.577.435c-.011.015-.2-.153-.6-.391a7.385,7.385,0,0,0-1.9-.786,6.625,6.625,0,0,0-1.465-.228,4.764,4.764,0,0,0-1.732.226,5.158,5.158,0,0,0-2.859,3,18.721,18.721,0,0,0,.193,11.112c.152.509.307,1.029.5,1.537a11.949,11.949,0,0,0,.7,1.488,30.635,30.635,0,0,0,1.821,2.889c1.334,1.9,2.825,3.808,4.421,5.7l-.167-.027.785-.477,13.568-8.22-.03.176-9.516-11.6c-1.168-1.4-2.031-2.563-2.672-3.306-.32-.373-.58-.647-.761-.826S287.277,157.875,287.283,157.868Z" transform="translate(-277.759 -156.332)" fill="#263238"/></g><g transform="translate(5.306 14.052)"><path d="M235.152,170.72a.922.922,0,0,1,.041.25c.018.195.039.433.066.72.049.667.113,1.563.192,2.653.144,2.278.34,5.354.555,8.754.224,3.419.458,6.511.661,8.746.1,1.087.184,1.981.246,2.646.025.288.046.526.063.721a.127.127,0,1,1-.052.006c-.03-.193-.067-.429-.112-.714-.091-.622-.208-1.524-.329-2.641-.25-2.233-.515-5.326-.739-8.747s-.377-6.518-.479-8.761c-.045-1.092-.081-1.989-.109-2.657-.007-.289-.012-.528-.017-.723A.92.92,0,0,1,235.152,170.72Z" transform="translate(-235.14 -170.72)" fill="#263238"/></g><g transform="translate(9.931 64.195)"><path d="M270.453,259.645a1.09,1.09,0,0,1-.266.083l-.774.188c-.336.083-.751.169-1.233.259s-1.033.2-1.644.293c-1.22.21-2.684.381-4.313.54-1.63.136-3.428.236-5.316.261s-3.689-.051-5.322-.16c-1.631-.132-3.1-.28-4.321-.478-.613-.085-1.164-.186-1.647-.279s-.9-.171-1.235-.254l-.775-.186a1.149,1.149,0,0,1-.266-.082,1.1,1.1,0,0,1,.277.03l.783.138c.338.068.755.136,1.24.209s1.034.167,1.647.239c1.221.175,2.685.3,4.312.421,1.628.094,3.421.152,5.3.138s3.673-.116,5.3-.239c1.624-.145,3.086-.3,4.306-.482.612-.08,1.162-.173,1.645-.254s.9-.148,1.239-.215l.783-.14A1.121,1.121,0,0,1,270.453,259.645Z" transform="translate(-243.341 -259.642)" fill="#263238"/></g></g></g><g transform="translate(45.816 74.794)"><g transform="translate(14.505)"><path d="M94.289,102.671a7.512,7.512,0,0,0-5.731,1.431,7.3,7.3,0,0,0-2.619,3.271,5.022,5.022,0,0,0,.2,4.117,6.37,6.37,0,0,0,3.382,2.663,7.3,7.3,0,0,0,3.6.559,4.123,4.123,0,0,0,3.028-1.864l2.347-4.954A5.123,5.123,0,0,0,94.289,102.671Z" transform="translate(-85.591 -102.556)" fill="#263238"/><g transform="translate(6.624 1.159)"><path d="M121.559,109.739h0a13.286,13.286,0,0,0-17.079-3.359,18.889,18.889,0,0,0-1.662,1.1A14,14,0,0,0,97.362,119.4a15.661,15.661,0,0,0,6.464,11.536l17.84-4.346a36.6,36.6,0,0,0,1.956-9.583,12.761,12.761,0,0,0,.045-1.406A9.761,9.761,0,0,0,121.559,109.739Z" transform="translate(-97.339 -104.61)" fill="#263238"/></g><g transform="translate(8.353 5.142)"><g transform="translate(2.573)"><path d="M104.99,120.074a6.622,6.622,0,0,1,4.981-6.1L118.9,111.7c3.858-.417,6.435,4.33,6.687,8.2a61.4,61.4,0,0,1-.049,12.054c-1.011,6.458-5.957,7.291-5.957,7.291s0,3.071,0,4.957l.092,8.207-12.708-9.139-1.993-23.118C104.966,120.042,104.98,120.221,104.99,120.074Z" transform="translate(-104.968 -111.674)" fill="#ffbf9d"/></g><g transform="translate(20.348 12.673)"><path d="M138.141,134.894a.828.828,0,0,1-.8.837.792.792,0,0,1-.855-.744.828.828,0,0,1,.8-.838A.793.793,0,0,1,138.141,134.894Z" transform="translate(-136.489 -134.148)" fill="#263238"/></g><g transform="translate(18.816 10.018)"><path d="M137.044,130.306c-.1.109-.731-.354-1.622-.35s-1.543.452-1.64.343c-.047-.048.057-.244.341-.451a2.272,2.272,0,0,1,1.312-.408,2.178,2.178,0,0,1,1.291.413C137,130.063,137.095,130.258,137.044,130.306Z" transform="translate(-133.772 -129.44)" fill="#263238"/></g><g transform="translate(12.66 12.673)"><path d="M124.508,134.894a.828.828,0,0,1-.8.837.793.793,0,0,1-.855-.744.829.829,0,0,1,.8-.838A.792.792,0,0,1,124.508,134.894Z" transform="translate(-122.856 -134.148)" fill="#263238"/></g><g transform="translate(10.53 10.185)"><path d="M122.35,130.6c-.1.108-.732-.354-1.622-.35s-1.543.451-1.64.342c-.047-.048.055-.243.341-.451a2.265,2.265,0,0,1,1.312-.408,2.185,2.185,0,0,1,1.291.414C122.306,130.358,122.4,130.553,122.35,130.6Z" transform="translate(-119.077 -129.735)" fill="#263238"/></g><g transform="translate(16.114 10.331)"><path d="M129.414,137.418a5.919,5.919,0,0,1,1.446-.264c.227-.024.443-.069.48-.225a1.154,1.154,0,0,0-.153-.674q-.322-.825-.677-1.731A29.82,29.82,0,0,1,128.99,130a29.811,29.811,0,0,1,1.882,4.395q.339.912.648,1.741a1.315,1.315,0,0,1,.12.893.571.571,0,0,1-.373.333,1.521,1.521,0,0,1-.386.055A5.774,5.774,0,0,1,129.414,137.418Z" transform="translate(-128.98 -129.995)" fill="#263238"/></g><g transform="translate(8.623 25.275)"><path d="M115.7,156.5s2.1,4.434,8.56,3.815l0-1.518A16.268,16.268,0,0,1,115.7,156.5Z" transform="translate(-115.697 -156.495)" fill="#ff9a6c"/></g><g transform="translate(9.418 6.873)"><path d="M121.17,124.526c-.087.242-.977.13-2.022.258-1.048.107-1.89.415-2.029.2-.062-.1.084-.332.425-.567a3.542,3.542,0,0,1,3.086-.347C121.014,124.222,121.207,124.411,121.17,124.526Z" transform="translate(-117.105 -123.862)" fill="#263238"/></g><g transform="translate(18.117 6.743)"><path d="M135.567,124.551c-.156.2-.77-.006-1.508-.014-.738-.034-1.363.139-1.507-.072-.063-.1.035-.306.307-.5a2.184,2.184,0,0,1,2.43.07C135.551,124.244,135.636,124.452,135.567,124.551Z" transform="translate(-132.533 -123.631)" fill="#263238"/></g><g transform="translate(0 12.731)"><path d="M103.885,134.6c-.068-.186-3.436-1.4-3.48,2.179-.043,3.477,3.465,2.792,3.472,2.693S103.885,134.6,103.885,134.6Z" transform="translate(-100.404 -134.25)" fill="#ffbf9d"/><g transform="translate(0.872 1.134)"><path d="M103.491,139.019c-.015-.011-.061.042-.164.088a.6.6,0,0,1-.453.005,1.5,1.5,0,0,1-.681-1.351,2,2,0,0,1,.178-.866.7.7,0,0,1,.46-.461.308.308,0,0,1,.356.169c.046.1.023.167.041.173s.076-.058.048-.2a.385.385,0,0,0-.135-.219.457.457,0,0,0-.334-.092.852.852,0,0,0-.638.533,2.05,2.05,0,0,0-.219.967,1.573,1.573,0,0,0,.87,1.51.649.649,0,0,0,.555-.087C103.484,139.1,103.5,139.025,103.491,139.019Z" transform="translate(-101.95 -136.262)" fill="#ff9a6c"/></g></g><g transform="translate(1.137 17.198)"><g transform="translate(0.072 0.028)"><path d="M103.356,142.233a.686.686,0,1,0,.162.052" transform="translate(-102.549 -142.223)" fill="#fff"/></g><path d="M103.463,142.263a.935.935,0,0,1,.313.467.591.591,0,0,1-.136.546.608.608,0,0,1-1.069-.341.589.589,0,0,1,.2-.524.941.941,0,0,1,.526-.2c0-.008-.054-.036-.163-.038a.714.714,0,0,0-.434.152.7.7,0,0,0-.279.628.747.747,0,0,0,1.323.421.7.7,0,0,0,.135-.673.708.708,0,0,0-.266-.374C103.528,142.265,103.467,142.255,103.463,142.263Z" transform="translate(-102.421 -142.173)" fill="#263238"/></g></g><g transform="translate(21.371 23.211)"><g transform="translate(0 0.583)"><path d="M123.638,145.38a1.281,1.281,0,0,1,1.042-.622,1.665,1.665,0,0,1,1.547.692,1.035,1.035,0,0,1,.1.745c-.051.129-.01.065-.1.156a2.911,2.911,0,0,1-1.162.786,1.25,1.25,0,0,1-1.339-.434A1.277,1.277,0,0,1,123.638,145.38Z" transform="translate(-123.49 -144.752)" fill="#ff9a6c"/></g><g transform="translate(0.155)"><path d="M123.889,143.718c.143-.015.188.944,1.039,1.587s1.866.492,1.88.625c.016.06-.219.2-.65.228a2.388,2.388,0,0,1-1.567-.468,2.077,2.077,0,0,1-.81-1.333C123.727,143.958,123.823,143.716,123.889,143.718Z" transform="translate(-123.765 -143.718)" fill="#263238"/></g></g><g transform="translate(9.005 4.034)"><path d="M119.092,110.35a1.435,1.435,0,0,0-1.165-.542,18.455,18.455,0,0,0-16.367,7.055l.992,6.012c-.421.748,1.554,2.252,2.411,2.2a2.305,2.305,0,0,0,1.829-1.605c.6-1.569.255-3.578,1.482-4.725a5.352,5.352,0,0,1,2.613-1.009,13.4,13.4,0,0,0,4.948-2.093,8.668,8.668,0,0,0,3.236-4.224A1.351,1.351,0,0,0,119.092,110.35Z" transform="translate(-101.56 -109.709)" fill="#263238"/></g><g transform="translate(6.493 4.661)"><path d="M98.572,127.284a3.01,3.01,0,0,1-.338-.63,11.944,11.944,0,0,1-.657-1.837,13.48,13.48,0,0,1,2.627-12.16,11.96,11.96,0,0,1,1.356-1.4,2.976,2.976,0,0,1,.568-.435c.038.042-.764.677-1.768,1.962a13.972,13.972,0,0,0-2.589,11.984C98.156,126.352,98.624,127.262,98.572,127.284Z" transform="translate(-97.105 -110.821)" fill="#455a64"/></g></g><g transform="translate(10.317 82.338)"><g transform="translate(15.344 96.836)"><g transform="translate(1.153)"><path d="M107.418,421.222l2.045,17.65,7.735-1.177.521-17.395Z" transform="translate(-107.418 -420.3)" fill="#263238"/></g><g transform="translate(0 13.896)"><path d="M116.333,444.943s-5.191,4.4-8.083,1.168l-.145-.528-2.7,14.374a1.6,1.6,0,0,0,1.01,1.838,1.487,1.487,0,0,0,1.57-.436c2.1-2.367,9.782-11.5,9.782-11.5l-.306-2.3a7.579,7.579,0,0,0-1.127-2.614Z" transform="translate(-105.373 -444.943)" fill="#263238"/><g transform="translate(1.314 3.193)"><path d="M118.538,450.605,107.7,464.323a1.5,1.5,0,0,0,1.341-.5c5.8-6.611,9.738-11.5,9.738-11.5Z" transform="translate(-107.703 -450.605)" fill="#e0e0e0"/></g><g transform="translate(1.154 8.524)"><path d="M110.5,461.626a4.594,4.594,0,0,0-1.366-1.075,4.493,4.493,0,0,0-1.714-.206c-.015-.036.163-.167.5-.242a2.3,2.3,0,0,1,1.333.141,2.356,2.356,0,0,1,1.05.85C110.5,461.39,110.536,461.61,110.5,461.626Z" transform="translate(-107.418 -460.059)" fill="#455a64"/></g><g transform="translate(0.527 11.247)"><path d="M109.1,465.823a12.126,12.126,0,0,0-1.345-.55,12.021,12.021,0,0,0-1.448-.083,1.648,1.648,0,0,1,1.519-.24C108.712,465.144,109.177,465.777,109.1,465.823Z" transform="translate(-106.308 -464.888)" fill="#455a64"/></g><g transform="translate(1.778 5.839)"><path d="M112.759,456.823a14.956,14.956,0,0,0-2.019-.994,14.8,14.8,0,0,0-2.214-.359,3.271,3.271,0,0,1,2.312.043A3.336,3.336,0,0,1,112.759,456.823Z" transform="translate(-108.525 -455.298)" fill="#455a64"/></g><g transform="translate(2.171 3.239)"><path d="M113.068,451.175c-.033.093-.868-.194-1.927-.155s-1.879.361-1.917.27a3.675,3.675,0,0,1,3.845-.114Z" transform="translate(-109.222 -450.687)" fill="#263238"/></g></g></g><g transform="translate(45.343 102.762)"><path d="M160.372,439.712c-.179-.273-1.8-6.179-1.8-6.179l10.013-2.725L170,439.321Z" transform="translate(-158.573 -430.808)" fill="#263238"/><g transform="translate(0.739 6.015)"><path d="M170.16,441.475l.339,1.5s11.02,4.49,11.162,6.675l-21.778.158.268-8.021C163.4,443.342,166.439,443.076,170.16,441.475Z" transform="translate(-159.884 -441.475)" fill="#263238"/><g transform="translate(0 6.503)"><path d="M159.884,454.84l.059-1.832,20.851.519s.972.436.868,1.155Z" transform="translate(-159.884 -453.008)" fill="#e0e0e0"/></g><g transform="translate(8.715 1.465)"><path d="M177.316,444.173c0,.112-.534.166-1.054.53s-.8.835-.895.792c-.1-.021.056-.691.694-1.118S177.339,444.07,177.316,444.173Z" transform="translate(-175.34 -444.072)" fill="#455a64"/></g><g transform="translate(11.549 2.497)"><path d="M181.8,445.948c.025.108-.434.3-.792.777s-.459.976-.565.972c-.1.018-.178-.636.278-1.218S181.8,445.841,181.8,445.948Z" transform="translate(-180.365 -445.903)" fill="#455a64"/></g><g transform="translate(14.169 3.471)"><path d="M185.141,449.564c-.1.025-.248-.532.021-1.146s.765-.861.81-.769c.061.092-.26.422-.474.93S185.246,449.553,185.141,449.564Z" transform="translate(-185.01 -447.63)" fill="#455a64"/></g></g></g><g transform="translate(21.276 2.837)"><path d="M134.973,255.7s5.528,24.776,10.2,53.346c3.842,23.5,5.542,48.937,5.542,48.937l-11.315.663s-6.894-29.139-12.263-50.089c-4.951-19.32-8.978-29.456-8.978-29.456L115.894,253.6Z" transform="translate(-115.894 -253.603)" fill="#263238"/></g><path d="M87.3,248.572s-9.924,13.416-9.089,27.419c.5,8.378,17.464,82.822,17.464,82.822l10.049-.342-3.211-79.08,3.4-25.888Z" transform="translate(-78.163 -248.572)" fill="#263238"/></g><g transform="translate(48.753 46.234)"><path d="M147.488,184.546a2.056,2.056,0,0,1,.053.416c.023.307.052.7.089,1.2.08,1.039.134,2.546.17,4.409.069,3.726-.1,8.874-.478,14.542s-.692,10.8-.764,14.519c-.041,1.859-.055,3.365-.042,4.4,0,.493,0,.891,0,1.2a2.036,2.036,0,0,1-.023.419,2.05,2.05,0,0,1-.043-.417c-.015-.307-.035-.7-.06-1.2-.052-1.04-.073-2.548-.061-4.411.012-3.727.3-8.868.669-14.535s.582-10.8.572-14.52c-.006-1.859-.026-3.365-.067-4.4-.011-.493-.02-.891-.028-1.2A2.026,2.026,0,0,1,147.488,184.546Z" transform="translate(-146.326 -184.546)" fill="#263238"/></g><g transform="translate(0 33.582)"><g transform="translate(44.861 3.648)"><g transform="translate(24.604 9.669)"><g transform="translate(1.039)"><path d="M197.559,185.79l-6.052,2.223-6.609,8.947,1.8,3.128,1.785-1.677s6.807-1.267,7.292-2.237a1.875,1.875,0,0,0-.067-1.8,4.194,4.194,0,0,0,.055-1.888,1.226,1.226,0,0,0-.855-.94.937.937,0,0,0,.429-1.26,1.639,1.639,0,0,0-.983-1.131s4.06-1.932,4.42-2.479a.452.452,0,0,0-.042-.545A1.011,1.011,0,0,0,197.559,185.79Z" transform="translate(-184.898 -185.725)" fill="#ffbf9d"/></g><g transform="translate(0 1.283)"><path d="M183.055,196.086l1.223-1.714,2.64-4.786L192.8,188s.99.463-.378,2.218a3.557,3.557,0,0,1-3.284,1.4s.418,3.817-.621,5.522-3.843,1.853-3.843,1.853Z" transform="translate(-183.055 -188)" fill="#ffbf9d"/></g><g transform="translate(5.525 1.305)"><path d="M192.855,197.425a1.437,1.437,0,0,0,.258-.378,5.578,5.578,0,0,0,.484-1.166,6.558,6.558,0,0,0-.164-4.169l-.093.171.21-.034a7.142,7.142,0,0,0,2.222-.648,2.938,2.938,0,0,0,1.34-1.392,2.194,2.194,0,0,0,.187-1.318.965.965,0,0,0-.177-.452c-.021.01.051.167.084.467a2.227,2.227,0,0,1-.246,1.223,2.821,2.821,0,0,1-1.288,1.264,7.358,7.358,0,0,1-2.16.607l-.21.034-.15.025.057.147a6.708,6.708,0,0,1,.226,4.026A13.025,13.025,0,0,1,192.855,197.425Z" transform="translate(-192.852 -188.039)" fill="#ff9a6c"/></g><g transform="translate(7.015 6.013)"><path d="M199.372,196.39a5.534,5.534,0,0,0-.6.217c-.385.144-.95.327-1.64.6a5.876,5.876,0,0,0-1.1.544,1.192,1.192,0,0,0-.488.553.91.91,0,0,0,.114.8,1.4,1.4,0,0,0,.618.529,1.332,1.332,0,0,0,.827.047c.132-.024.26-.05.389-.067a2.969,2.969,0,0,0,.412-.095c.268-.079.53-.177.793-.279l.7-.275-.077-.237a6.094,6.094,0,0,0-1.342.764l-.591.4a6.146,6.146,0,0,0-.583.388.871.871,0,0,0-.332.658.58.58,0,0,0,.123.364.729.729,0,0,0,.28.2,2.533,2.533,0,0,0,1.106.15,5.159,5.159,0,0,0,1.523-.405,2.446,2.446,0,0,0,.517-.251,2.925,2.925,0,0,0-.546.164,5.828,5.828,0,0,1-1.5.323,2.441,2.441,0,0,1-1.021-.165.4.4,0,0,1-.275-.382.649.649,0,0,1,.263-.484,6.419,6.419,0,0,1,.566-.363l.6-.4a6.061,6.061,0,0,1,1.288-.727l-.077-.238-.7.275c-.261.1-.519.2-.775.273a2.7,2.7,0,0,1-.378.089c-.138.019-.27.047-.4.071a1.111,1.111,0,0,1-.7-.027,1.178,1.178,0,0,1-.52-.435.677.677,0,0,1-.1-.6,1,1,0,0,1,.4-.456,6.069,6.069,0,0,1,1.051-.553c.675-.286,1.235-.5,1.612-.669A2.246,2.246,0,0,0,199.372,196.39Z" transform="translate(-195.495 -196.389)" fill="#ff9a6c"/></g><g transform="translate(6.669 3.477)"><path d="M198.648,191.895a4.122,4.122,0,0,0-1.25.438,9.512,9.512,0,0,0-1.259.718c-.227.155-.459.325-.691.515a1.28,1.28,0,0,0-.565.826.664.664,0,0,0,.214.524.9.9,0,0,0,.455.225,2.9,2.9,0,0,0,.872-.012,10.37,10.37,0,0,0,1.4-.3,3.783,3.783,0,0,0,1.23-.493c-.014-.031-.482.144-1.271.32a13.128,13.128,0,0,1-1.389.248,2.847,2.847,0,0,1-.8,0,.52.52,0,0,1-.473-.49,1.091,1.091,0,0,1,.471-.649c.225-.188.449-.359.668-.515a11.733,11.733,0,0,1,1.21-.752C198.188,192.109,198.661,191.933,198.648,191.895Z" transform="translate(-194.882 -191.891)" fill="#ff9a6c"/></g></g><path d="M152.833,192.583l-6.07-19.461a5.59,5.59,0,0,0-3.633-3.7l-3.707-.84,4.1,31.592.919,2.371c2.168,4.834,6.916,4.016,11.1,1.881.151-.077.3-.156.439-.238l12.247-9.866-4.051-7.3Z" transform="translate(-139.423 -168.578)" fill="#455a64"/><g transform="translate(12.008 24.056)"><path d="M160.767,216.743c.075,0,.1-1.3.514-2.817s1.025-2.649.959-2.687a6.988,6.988,0,0,0-1.192,2.619A7.157,7.157,0,0,0,160.767,216.743Z" transform="translate(-160.718 -211.238)" fill="#263238"/></g></g><g transform="translate(20.187 0.637)"><path d="M95.666,176.342l4.1,38.278,22.719,1.669,1.81-1.547-.629-28.9-8.161-20.586h0c-.97,1.841-2.83,2.465-5.072,2.293a8.371,8.371,0,0,1-4.225-1.6l-3.754-2.7Z" transform="translate(-95.666 -163.239)" fill="#fff"/></g><g transform="translate(7.933 0.637)"><path d="M92.979,163.239l-2.768,3.011-13,3.111,7.609,36.792-5.794,14.239a35.709,35.709,0,0,0-1.517,4.6l-3.569,13.967s12.292,3.346,15.455,1.52,7.028-19.589,8.2-23.806,2.929-16.751,2.109-23.428-2.9-14.164-3.606-17.561S92.979,163.239,92.979,163.239Z" transform="translate(-73.936 -163.239)" fill="#455a64"/></g><g transform="translate(0 6.759)"><path d="M73.421,206.425l2.923-11.37L71.073,174.1s-2.464,1.758-4.1,8.192c-1.713,6.737-7.442,25.287-7.09,29.621s23.256,12.2,23.256,12.2l.937-12.066Z" transform="translate(-59.867 -174.095)" fill="#455a64"/></g><g transform="translate(40.045)"><path d="M130.882,162.109l1.789,2.773,7.464,1.887S142.1,176.6,142.1,179.3s-1.111,32.56-1.111,33.966,5.389,20.5,4.92,21.671-6.092,1.992-6.092,1.992-2.108-16.517-2.108-22.14-.234-19.446-1.406-26.24-5.389-23.663-5.389-23.663Z" transform="translate(-130.882 -162.109)" fill="#455a64"/></g><g transform="translate(41.833 2.773)"><path d="M139.218,220.069a.487.487,0,0,1-.011-.14c0-.11,0-.245,0-.411.006-.385.013-.912.023-1.577.032-1.4.077-3.371.132-5.8.114-4.9.312-11.662.434-19.133.009-.934.022-1.857.014-2.765s-.1-1.791-.162-2.672c-.142-1.757-.281-3.45-.445-5.059s-.347-3.135-.589-4.55a19.446,19.446,0,0,0-1.092-3.823,49.655,49.655,0,0,0-2.455-5.24l-.753-1.384-.2-.36a.513.513,0,0,1-.06-.127.482.482,0,0,1,.086.112l.223.346c.191.306.466.761.8,1.358a44.413,44.413,0,0,1,2.549,5.219,19.3,19.3,0,0,1,1.14,3.857c.254,1.423.447,2.953.619,4.565s.318,3.307.463,5.064c.069.876.171,1.77.168,2.692s0,1.837-.012,2.772c-.122,7.476-.353,14.239-.522,19.135-.095,2.429-.173,4.4-.227,5.8q-.05,1-.079,1.576c-.011.165-.021.3-.028.409A.5.5,0,0,1,139.218,220.069Z" transform="translate(-134.054 -167.027)" fill="#263238"/></g><g transform="translate(23.384 4.393)"><path d="M111.064,210.078a2.106,2.106,0,0,1-.066-.421c-.03-.277-.067-.686-.1-1.215-.068-1.056-.135-2.587-.1-4.48.015-.947.056-1.984.131-3.094a13.47,13.47,0,0,0-.439-3.475,57.148,57.148,0,0,0-2.695-7.68c-1.127-2.671-2.3-5.179-3.377-7.452a30.224,30.224,0,0,1-1.442-3.281,27.671,27.671,0,0,1-.764-3.015c-.376-1.86-.58-3.379-.713-4.429-.064-.526-.108-.934-.133-1.212a2.169,2.169,0,0,1-.02-.425,2.422,2.422,0,0,1,.081.418q.07.453.188,1.2c.169,1.044.4,2.557.805,4.4a28.654,28.654,0,0,0,.793,2.982,31.032,31.032,0,0,0,1.457,3.244c1.1,2.268,2.274,4.777,3.4,7.455a55.087,55.087,0,0,1,2.686,7.727,13.456,13.456,0,0,1,.418,3.551c-.085,1.107-.138,2.139-.167,3.082-.06,1.886-.025,3.415.007,4.471.019.506.035.911.047,1.216A2.51,2.51,0,0,1,111.064,210.078Z" transform="translate(-101.336 -169.899)" fill="#263238"/></g><g transform="translate(30.549 36.017)"><path d="M150.206,233.613l-6.4,8.645a1.168,1.168,0,0,1-1.154.452l-27.664-5.228a1.166,1.166,0,0,1-.893-1.506l2.985-9.188a1.166,1.166,0,0,1,1.322-.787l31.075,5.772A1.166,1.166,0,0,1,150.206,233.613Z" transform="translate(-114.043 -225.981)" fill="#263238"/></g><g transform="translate(7.104 38.323)"><path d="M72.467,231.592a2.675,2.675,0,0,1,.93-.751,5.693,5.693,0,0,1,5.586-.076,2.656,2.656,0,0,1,.95.726c-.029.039-.391-.236-1.044-.536a6.163,6.163,0,0,0-5.391.073C72.852,231.346,72.5,231.63,72.467,231.592Z" transform="translate(-72.466 -230.07)" fill="#263238"/></g><g transform="translate(13.651 53.01)" opacity="0.3"><path d="M84.075,259.347,95,263.366l1.139-4.535,5.176,1.046.7-2.621-8.124-1.139-.081,3.76-8.492-3.2Z" transform="translate(-84.075 -256.117)"/></g><g transform="translate(23.469 41.625)"><path d="M102.151,239.971s2.186-1.847,2.863-2.263,2.968-1.926,4.009-1.77l1.042.156-.937,2.759s8.382-1.25,9.527.1-1.25,1.614-2.5,1.77-5.264.833-5.264.833,10.47-1.145,11.2,0-1.016,1.405-1.016,1.405l-6.935,2.759-.8.312-.8,1.042s-2.847,1.978-3.732,1.718-7.328-1.485-7.328-1.485Z" transform="translate(-101.487 -235.926)" fill="#ffbf9d"/><g transform="translate(7.945 7.131)"><path d="M115.577,250.217a8.227,8.227,0,0,1,1.623-.495,40.789,40.789,0,0,1,8.1-1.135,8.176,8.176,0,0,1,1.7.03,11.309,11.309,0,0,1-1.684.182c-1.04.089-2.474.228-4.051.448s-2.993.48-4.018.681A11.291,11.291,0,0,1,115.577,250.217Z" transform="translate(-115.577 -248.572)" fill="#ff9a6c"/></g><g transform="translate(8.897 9.968)"><path d="M117.265,254.428a8.486,8.486,0,0,1,3.075-.8,8.518,8.518,0,0,1-3.075.8Z" transform="translate(-117.264 -253.604)" fill="#ff9a6c"/></g></g><g transform="translate(49.999 13.086)"><path d="M149.608,185.316a1.832,1.832,0,0,1,.049.384c.021.284.049.65.082,1.105.074.96.124,2.353.157,4.073.064,3.443-.1,8.2-.441,13.436s-.639,9.978-.705,13.414c-.038,1.718-.051,3.109-.039,4.07,0,.456,0,.823,0,1.107a1.934,1.934,0,0,1-.021.387,1.878,1.878,0,0,1-.039-.385c-.014-.284-.033-.651-.056-1.106-.048-.961-.067-2.355-.056-4.076.011-3.443.275-8.193.618-13.43s.537-9.979.528-13.416c-.006-1.718-.024-3.109-.062-4.069-.011-.456-.019-.823-.026-1.107A1.938,1.938,0,0,1,149.608,185.316Z" transform="translate(-148.535 -185.316)" fill="#263238"/></g><g transform="translate(12.318 7.846)"><path d="M86.707,194.7a3.789,3.789,0,0,1-.049-.77c-.007-.5-.038-1.211-.1-2.093a35.773,35.773,0,0,0-3.545-13.257c-.387-.795-.717-1.431-.959-1.863a3.861,3.861,0,0,1-.342-.692,3.754,3.754,0,0,1,.443.633c.272.416.633,1.039,1.047,1.827a31.9,31.9,0,0,1,3.567,13.339c.034.889.033,1.609,0,2.106A3.845,3.845,0,0,1,86.707,194.7Z" transform="translate(-81.712 -176.023)" fill="#263238"/></g></g><g transform="translate(43.44 198.624)"><path d="M136.9,454.792" transform="translate(-136.904 -454.792)" fill="none" stroke="#4e585d" stroke-miterlimit="10" stroke-width="1"/></g></g></g></g></svg>