<svg xmlns="http://www.w3.org/2000/svg" width="336.305" height="241.305" viewBox="0 0 336.305 241.305"><g transform="translate(-1012.211 -1246.071)"><ellipse cx="115.749" cy="118.003" rx="115.749" ry="118.003" transform="translate(1117.018 1246.071)" fill="#e6e6e6"/><ellipse cx="105.376" cy="105.376" rx="105.376" ry="105.376" transform="translate(1012.211 1276.623)" fill="#e6e6e6"/><g transform="translate(912.189 1199.746)"><g transform="translate(204.817 204.287)"><g transform="translate(49.96 57.324)"><g transform="translate(0.027 0)"><path d="M408.337,419.328v14.425H410.6v1.566h-2.261v9.655H366.065v-8.785H369.2v-1.914h-3.131V431.4h-1.392v-1.3h1.653V419.328Z" transform="translate(-364.673 -419.328)" fill="#fafafa"/></g><path d="M377.27,419.37v25.443H366.045v-8.785h3.131v-1.753l-3.131.059v-2.87l-1.419,0,.027-1.483,1.653-.043V419.328Z" transform="translate(-364.626 -419.328)" fill="#e0e0e0"/><g transform="translate(11.844 15.624)"><path d="M385.445,446.951c0,.088,7.65.16,17.083.16s17.084-.072,17.084-.16-7.647-.16-17.084-.16S385.445,446.863,385.445,446.951Z" transform="translate(-385.445 -446.791)" fill="#e0e0e0"/></g><g transform="translate(11.844 14.158)"><path d="M385.445,444.375c0,.089,7.65.16,17.083.16s17.084-.071,17.084-.16-7.647-.16-17.084-.16S385.445,444.287,385.445,444.375Z" transform="translate(-385.445 -444.215)" fill="#e0e0e0"/></g><g transform="translate(9.65 10.215)"><path d="M381.588,437.443c0,.089,7.65.16,17.083.16s17.084-.071,17.084-.16-7.648-.16-17.084-.16S381.588,437.355,381.588,437.443Z" transform="translate(-381.588 -437.283)" fill="#e0e0e0"/></g><g transform="translate(9.439 20.961)"><path d="M381.218,456.333c0,.088,7.649.16,17.083.16s17.084-.072,17.084-.16-7.647-.16-17.084-.16S381.218,456.245,381.218,456.333Z" transform="translate(-381.218 -456.173)" fill="#e0e0e0"/></g></g><g transform="translate(0 43.505)"><g transform="translate(3.365 3.225)"><g transform="translate(2.177)"><path d="M320.646,401.925l-.929,17.1a1.155,1.155,0,0,1-1.144,1.092l-30.764.225a1.154,1.154,0,0,1-1.162-1.146l-.1-13.308a1.154,1.154,0,0,1,1.153-1.162l18.921-.017a1.153,1.153,0,0,0,.815-.338L310.7,401.1a1.154,1.154,0,0,1,.808-.338l7.976-.059A1.154,1.154,0,0,1,320.646,401.925Z" transform="translate(-286.549 -400.708)" fill="#e8505b"/></g><g transform="translate(2.177)" opacity="0.3"><path d="M320.646,401.925l-.929,17.1a1.155,1.155,0,0,1-1.144,1.092l-30.764.225a1.154,1.154,0,0,1-1.162-1.146l-.1-13.308a1.154,1.154,0,0,1,1.153-1.162l18.921-.017a1.153,1.153,0,0,0,.815-.338L310.7,401.1a1.154,1.154,0,0,1,.808-.338l7.976-.059A1.154,1.154,0,0,1,320.646,401.925Z" transform="translate(-286.549 -400.708)"/></g><g transform="translate(2.153 1.757)"><g transform="translate(0 0)"><rect width="33.614" height="20.086" transform="translate(33.76 20.086) rotate(179.58)" fill="#f5f5f5"/></g></g><g transform="translate(0 2.712)"><path d="M321.177,406.3l-2.413,20.965a.741.741,0,0,1-.732.657l-32.758.24a.742.742,0,0,1-.745-.678l-1.8-20.934a.742.742,0,0,1,.734-.806l36.974-.271A.742.742,0,0,1,321.177,406.3Z" transform="translate(-282.723 -405.475)" fill="#ebebeb"/></g></g><g transform="translate(12.416)"><g transform="translate(2.176)"><path d="M336.556,396.256l-.93,17.1a1.155,1.155,0,0,1-1.144,1.092l-30.764.225a1.154,1.154,0,0,1-1.163-1.146l-.1-13.308a1.154,1.154,0,0,1,1.153-1.162l18.921-.017a1.152,1.152,0,0,0,.815-.338l3.265-3.263a1.155,1.155,0,0,1,.807-.338l7.976-.058A1.154,1.154,0,0,1,336.556,396.256Z" transform="translate(-302.458 -395.039)" fill="#e0e0e0"/></g><g transform="translate(2.153 1.757)"><rect width="33.614" height="20.086" transform="matrix(-1, 0.007, -0.007, -1, 33.76, 20.086)" fill="#f5f5f5"/></g><g transform="translate(0 2.712)"><path d="M337.086,400.633,334.673,421.6a.742.742,0,0,1-.732.657l-32.758.24a.742.742,0,0,1-.745-.679l-1.8-20.933a.741.741,0,0,1,.734-.806l36.974-.271A.742.742,0,0,1,337.086,400.633Z" transform="translate(-298.633 -399.806)" fill="#e0e0e0"/></g></g><g transform="translate(22.616 4.003)"><g transform="translate(2.177)"><path d="M354.485,403.292l-.93,17.1a1.154,1.154,0,0,1-1.144,1.092l-30.764.225a1.154,1.154,0,0,1-1.163-1.146l-.1-13.307a1.154,1.154,0,0,1,1.153-1.163l18.92-.016a1.155,1.155,0,0,0,.815-.338l3.264-3.263a1.154,1.154,0,0,1,.808-.338l7.976-.058A1.153,1.153,0,0,1,354.485,403.292Z" transform="translate(-320.388 -402.076)" fill="#ebebeb"/></g><g transform="translate(2.153 1.756)"><g transform="translate(0 0)"><rect width="33.614" height="20.086" transform="translate(33.76 20.086) rotate(179.58)" fill="#fafafa"/></g></g><g transform="translate(0 2.712)"><path d="M355.016,407.67,352.6,428.634a.743.743,0,0,1-.732.658l-32.758.24a.742.742,0,0,1-.745-.679l-1.8-20.933a.743.743,0,0,1,.734-.806l36.974-.271A.742.742,0,0,1,355.016,407.67Z" transform="translate(-316.562 -406.843)" fill="#ebebeb"/></g></g><g transform="translate(22.616 10.394)"><path d="M316.562,413.309V442.39h41.953V413.309Zm13.695,5.232a2.147,2.147,0,0,1,2.147-2.147h10.269a2.147,2.147,0,0,1,0,4.294H332.4A2.147,2.147,0,0,1,330.257,418.541Z" transform="translate(-316.562 -413.309)" fill="#f5f5f5"/></g><g transform="translate(0 10.394)"><path d="M276.808,413.309V442.39h22.616V413.309Z" transform="translate(-276.808 -413.309)" fill="#e0e0e0"/></g></g><g transform="translate(173.533)"><g transform="translate(7.563 25.646)"><rect width="41.283" height="3.203" fill="#ebebeb"/><g transform="translate(29.947)"><rect width="11.336" height="3.203" fill="#e0e0e0"/></g></g><g transform="translate(0.06 28.849)"><path d="M584.2,369.276V383.7h-2.261v1.566H584.2v9.654h42.271v-8.785h-3.131v-1.913h3.131v-2.87h1.392v-1.305h-1.652V369.276Z" transform="translate(-581.942 -369.276)" fill="#f5f5f5"/></g><g transform="translate(33.367 28.849)"><path d="M640.489,369.318V394.76h11.225v-8.785h-3.131v-1.753h3.131v-2.87h1.392v-1.465h-1.653V369.276Z" transform="translate(-640.489 -369.276)" fill="#e0e0e0"/></g><g transform="translate(0 44.473)"><path d="M616,396.9c0,.089-7.649.16-17.083.16s-17.084-.072-17.084-.16,7.647-.159,17.084-.159S616,396.81,616,396.9Z" transform="translate(-581.837 -396.739)" fill="#e0e0e0"/></g><g transform="translate(0 43.007)"><path d="M616,394.323c0,.088-7.649.16-17.083.16s-17.084-.072-17.084-.16,7.647-.16,17.084-.16S616,394.235,616,394.323Z" transform="translate(-581.837 -394.163)" fill="#e0e0e0"/></g><g transform="translate(2.194 39.063)"><path d="M619.861,387.391c0,.088-7.65.16-17.083.16s-17.084-.072-17.084-.16,7.648-.16,17.084-.16S619.861,387.3,619.861,387.391Z" transform="translate(-585.694 -387.231)" fill="#e0e0e0"/></g><g transform="translate(2.405 49.81)"><path d="M620.232,406.28c0,.089-7.649.16-17.083.16s-17.084-.072-17.084-.16,7.647-.159,17.084-.159S620.232,406.192,620.232,406.28Z" transform="translate(-586.065 -406.121)" fill="#e0e0e0"/></g><g transform="translate(4.795 57.55)"><g transform="translate(0.06 0)"><path d="M592.632,419.727v14.425h-2.261v1.566h2.261v9.654H634.9v-8.785h-3.131v-1.913H634.9V431.8H636.3v-1.3h-1.652V419.727Z" transform="translate(-590.371 -419.727)" fill="#f5f5f5"/></g><g transform="translate(33.367)"><path d="M648.918,419.768v25.443h11.225v-8.785h-3.131v-1.753l3.131.059v-2.87l1.419,0-.027-1.483-1.653-.043V419.726Z" transform="translate(-648.918 -419.726)" fill="#e0e0e0"/></g><g transform="translate(0 15.624)"><path d="M624.433,447.349c0,.089-7.649.16-17.083.16s-17.084-.071-17.084-.16,7.648-.16,17.084-.16S624.433,447.261,624.433,447.349Z" transform="translate(-590.266 -447.189)" fill="#e0e0e0"/></g><g transform="translate(0 14.159)"><path d="M624.433,444.774c0,.088-7.649.16-17.083.16s-17.084-.072-17.084-.16,7.648-.16,17.084-.16S624.433,444.686,624.433,444.774Z" transform="translate(-590.266 -444.614)" fill="#e0e0e0"/></g><g transform="translate(2.194 10.215)"><path d="M628.29,437.842c0,.088-7.65.16-17.083.16s-17.084-.072-17.084-.16,7.648-.16,17.084-.16S628.29,437.754,628.29,437.842Z" transform="translate(-594.123 -437.682)" fill="#e0e0e0"/></g><g transform="translate(2.405 20.961)"><path d="M628.661,456.731c0,.089-7.649.16-17.083.16s-17.084-.071-17.084-.16,7.647-.16,17.084-.16S628.661,456.643,628.661,456.731Z" transform="translate(-594.494 -456.571)" fill="#e0e0e0"/></g></g><g transform="translate(4.181)"><g transform="translate(0.06)"><path d="M591.553,318.567v14.425h-2.261v1.566h2.261v9.655h42.272v-8.785h-3.131v-1.913h3.131v-2.87h1.392v-1.305h-1.653V318.567Z" transform="translate(-589.292 -318.567)" fill="#f5f5f5"/></g><g transform="translate(33.368 0)"><path d="M647.839,318.609v25.443h11.225v-8.785h-3.131v-1.753l3.131.059V330.7l1.419,0-.027-1.483-1.653-.043V318.567Z" transform="translate(-647.839 -318.567)" fill="#e0e0e0"/></g><g transform="translate(0 15.624)"><path d="M623.354,346.19c0,.089-7.649.16-17.083.16s-17.085-.071-17.085-.16,7.648-.16,17.085-.16S623.354,346.1,623.354,346.19Z" transform="translate(-589.187 -346.03)" fill="#e0e0e0"/></g><g transform="translate(0 14.159)"><path d="M623.354,343.615c0,.088-7.649.16-17.083.16s-17.085-.072-17.085-.16,7.648-.16,17.085-.16S623.354,343.527,623.354,343.615Z" transform="translate(-589.187 -343.455)" fill="#e0e0e0"/></g><g transform="translate(2.194 10.215)"><path d="M627.211,336.683c0,.088-7.649.16-17.083.16s-17.085-.072-17.085-.16,7.648-.16,17.085-.16S627.211,336.595,627.211,336.683Z" transform="translate(-593.044 -336.523)" fill="#e0e0e0"/></g><g transform="translate(2.405 20.961)"><path d="M627.582,355.572c0,.089-7.65.16-17.083.16s-17.084-.071-17.084-.16,7.648-.16,17.084-.16S627.582,355.484,627.582,355.572Z" transform="translate(-593.415 -355.412)" fill="#e0e0e0"/></g></g><g transform="translate(4.795 54.348)"><rect width="41.283" height="3.203" fill="#ebebeb"/><g transform="translate(29.947)"><rect width="11.336" height="3.203" fill="#e0e0e0"/></g></g></g></g><g transform="translate(127.115 53.473)"><g transform="translate(0)"><g transform="translate(0.148 0.148)"><rect width="277.752" height="167.536" fill="#fff"/></g><path d="M418.127,221.157c0-.934-.045-64.888-.116-167.536l.116.115L140.4,53.769h-.022l.148-.148c0,59.355-.007,115.994-.011,167.536l-.137-.137,277.752.137-277.752.137h-.137v-.137c0-51.542-.007-108.18-.011-167.536v-.148h.17l277.731.032h.115v.115C418.172,156.269,418.128,220.224,418.127,221.157Z" transform="translate(-140.227 -53.473)" fill="#263238"/><g transform="translate(35.934 28.566)"><path d="M203.944,103.685s-1.495,13.663.427,21.145l18.257-.8s-3.912-13.478-1.51-19.449Z" transform="translate(-203.391 -103.685)" fill="#e0e0e0"/></g><g transform="translate(36.35 28.578)"><path d="M204.121,103.706s.125,14.751.875,19.252l18.5-.876s-1.625-14.5-1-18.376Z" transform="translate(-204.121 -103.706)" fill="#75f4d4"/><g transform="translate(3.173 6.168)"><path d="M222.113,114.575c.005.081-2.771.315-6.2.521s-6.212.307-6.217.226,2.77-.315,6.2-.522S222.109,114.494,222.113,114.575Z" transform="translate(-209.698 -114.547)" fill="#fff"/></g><g transform="translate(3.178 9.292)"><path d="M222.122,120.068c.005.082-2.771.315-6.2.521s-6.212.307-6.217.226,2.77-.315,6.2-.522S222.118,119.986,222.122,120.068Z" transform="translate(-209.707 -120.039)" fill="#fff"/></g><g transform="translate(5.374 12.342)"><path d="M220.642,125.446a42.433,42.433,0,0,1-7.074.426,42.442,42.442,0,0,1,7.074-.426Z" transform="translate(-213.568 -125.4)" fill="#fff"/></g></g><g transform="translate(36.032 50.636)"><path d="M203.562,142.478s.125,14.752.875,19.252l18.5-.876s-1.625-14.5-1-18.377Z" transform="translate(-203.562 -142.478)" fill="#1565c0"/><g transform="translate(3.172 6.168)"><path d="M221.554,153.348c.005.081-2.771.315-6.2.521s-6.212.307-6.217.225,2.77-.315,6.2-.521S221.549,153.267,221.554,153.348Z" transform="translate(-209.138 -153.32)" fill="#fff"/></g><g transform="translate(3.177 9.293)"><path d="M221.563,158.84c0,.082-2.771.315-6.2.521s-6.212.307-6.217.226,2.77-.315,6.2-.522S221.558,158.759,221.563,158.84Z" transform="translate(-209.147 -158.812)" fill="#fff"/></g><g transform="translate(5.374 12.342)"><path d="M220.083,164.219a42.432,42.432,0,0,1-7.074.426,42.438,42.438,0,0,1,7.074-.426Z" transform="translate(-213.009 -164.173)" fill="#fff"/></g></g><g transform="translate(36.032 75.62)"><path d="M203.562,186.4s.125,14.752.875,19.252l18.5-.875s-1.625-14.5-1-18.377Z" transform="translate(-203.562 -186.395)" fill="#263238"/><g transform="translate(3.172 6.168)"><path d="M221.554,197.265c.005.081-2.771.315-6.2.521s-6.212.307-6.217.225,2.77-.315,6.2-.521S221.549,197.184,221.554,197.265Z" transform="translate(-209.138 -197.237)" fill="#fff"/></g><g transform="translate(3.177 9.293)"><path d="M221.563,202.757c0,.081-2.771.315-6.2.521s-6.212.307-6.217.225,2.77-.315,6.2-.521S221.558,202.676,221.563,202.757Z" transform="translate(-209.147 -202.729)" fill="#fff"/></g><g transform="translate(5.374 12.342)"><path d="M220.083,208.136a42.437,42.437,0,0,1-7.074.426,42.442,42.442,0,0,1,7.074-.426Z" transform="translate(-213.009 -208.09)" fill="#fff"/></g></g><g transform="translate(33.873 104.842)"><path d="M199.768,237.76s.125,14.751.875,19.252l18.5-.876s-1.625-14.5-1-18.376Z" transform="translate(-199.768 -237.76)" fill="#455a64"/><g transform="translate(3.173 6.168)"><path d="M217.76,248.629c.005.081-2.771.315-6.2.521s-6.212.307-6.217.225,2.77-.315,6.2-.521S217.756,248.548,217.76,248.629Z" transform="translate(-205.345 -248.601)" fill="#fff"/></g><g transform="translate(3.177 9.292)"><path d="M217.769,254.121c.005.082-2.771.315-6.2.521s-6.212.307-6.217.226,2.77-.315,6.2-.521S217.764,254.04,217.769,254.121Z" transform="translate(-205.353 -254.093)" fill="#fff"/></g><g transform="translate(5.374 12.342)"><path d="M216.289,259.5a42.433,42.433,0,0,1-7.074.426,42.442,42.442,0,0,1,7.074-.426Z" transform="translate(-209.215 -259.454)" fill="#fff"/></g></g><g transform="translate(58.398 104.97)"><path d="M242.877,237.984s.125,14.752.875,19.252l18.5-.875s-1.625-14.5-1-18.377Z" transform="translate(-242.877 -237.984)" fill="#263238"/><g transform="translate(3.173 6.168)"><path d="M260.869,248.854c.005.082-2.771.315-6.2.522s-6.212.307-6.217.225,2.77-.315,6.2-.521S260.865,248.772,260.869,248.854Z" transform="translate(-248.454 -248.825)" fill="#fff"/></g><g transform="translate(3.178 9.293)"><path d="M260.878,254.346c.005.081-2.771.315-6.2.521s-6.212.307-6.217.225,2.77-.315,6.2-.521S260.874,254.265,260.878,254.346Z" transform="translate(-248.463 -254.318)" fill="#fff"/></g><g transform="translate(5.374 12.342)"><path d="M259.4,259.725a42.433,42.433,0,0,1-7.074.426,42.433,42.433,0,0,1,7.074-.426Z" transform="translate(-252.324 -259.679)" fill="#fff"/></g></g><g transform="translate(78.913 106.028)"><g transform="translate(0 0)"><path d="M278.937,239.844s.125,14.751.875,19.252l18.5-.875s-1.625-14.5-1-18.377Z" transform="translate(-278.937 -239.844)" fill="#1565c0"/></g><g transform="translate(3.173 6.168)"><path d="M296.929,250.713c.005.082-2.771.315-6.2.521s-6.212.307-6.217.226,2.77-.315,6.2-.522S296.925,250.632,296.929,250.713Z" transform="translate(-284.514 -250.685)" fill="#fff"/></g><g transform="translate(3.178 9.292)"><path d="M296.938,256.206c.005.082-2.771.315-6.2.521s-6.212.307-6.216.226,2.77-.315,6.2-.522S296.934,256.124,296.938,256.206Z" transform="translate(-284.523 -256.177)" fill="#fff"/></g><g transform="translate(5.374 12.342)"><path d="M295.458,261.584a42.437,42.437,0,0,1-7.074.426,42.614,42.614,0,0,1,7.074-.426Z" transform="translate(-288.384 -261.538)" fill="#fff"/></g></g><g transform="translate(54.942 131.25)"><path d="M236.8,284.179s.125,14.751.875,19.252l18.5-.876s-1.625-14.5-1-18.376Z" transform="translate(-236.802 -284.179)" fill="#455a64"/><g transform="translate(3.173 6.168)"><path d="M254.794,295.048c.005.081-2.771.315-6.2.521s-6.212.307-6.217.225,2.77-.315,6.2-.521S254.79,294.967,254.794,295.048Z" transform="translate(-242.379 -295.02)" fill="#fff"/></g><g transform="translate(3.178 9.292)"><path d="M254.8,300.54c.005.082-2.771.315-6.2.521s-6.212.307-6.217.226,2.77-.315,6.2-.522S254.8,300.459,254.8,300.54Z" transform="translate(-242.388 -300.512)" fill="#fff"/></g><g transform="translate(5.374 12.342)"><path d="M253.323,305.919a42.433,42.433,0,0,1-7.074.426,42.442,42.442,0,0,1,7.074-.426Z" transform="translate(-246.249 -305.873)" fill="#fff"/></g></g><g transform="translate(114.324 97.371)"><path d="M341.18,224.627s.125,14.751.875,19.252l18.5-.875s-1.625-14.5-1-18.377Z" transform="translate(-341.18 -224.627)" fill="#263238"/><g transform="translate(3.173 6.168)"><path d="M359.173,235.5c0,.082-2.771.315-6.2.522s-6.212.307-6.217.225,2.77-.315,6.2-.521S359.168,235.415,359.173,235.5Z" transform="translate(-346.757 -235.468)" fill="#fff"/></g><g transform="translate(3.178 9.292)"><path d="M359.181,240.989c.005.082-2.771.315-6.2.522s-6.212.307-6.217.225,2.77-.315,6.2-.521S359.177,240.907,359.181,240.989Z" transform="translate(-346.766 -240.96)" fill="#fff"/></g><g transform="translate(5.375 12.342)"><path d="M357.7,246.368a42.435,42.435,0,0,1-7.073.426,42.426,42.426,0,0,1,7.073-.426Z" transform="translate(-350.628 -246.321)" fill="#fff"/></g></g><g transform="translate(154.49 131.998)"><g transform="translate(0)"><path d="M411.783,285.494s.125,14.751.875,19.252l18.5-.875s-1.625-14.5-1-18.377Z" transform="translate(-411.783 -285.494)" fill="#455a64"/></g><g transform="translate(3.173 6.168)"><path d="M429.775,296.363c.005.081-2.771.315-6.2.521s-6.212.307-6.217.226,2.77-.315,6.2-.522S429.771,296.282,429.775,296.363Z" transform="translate(-417.36 -296.335)" fill="#fff"/></g><g transform="translate(3.177 9.292)"><path d="M429.784,301.856c.005.082-2.771.315-6.2.521s-6.212.307-6.217.226,2.771-.315,6.2-.522S429.779,301.774,429.784,301.856Z" transform="translate(-417.368 -301.827)" fill="#fff"/></g><g transform="translate(5.374 12.342)"><path d="M428.3,307.234a42.433,42.433,0,0,1-7.074.426,42.443,42.443,0,0,1,7.074-.426Z" transform="translate(-421.23 -307.188)" fill="#fff"/></g></g><g transform="translate(177.324 132.312)"><path d="M451.92,286.046s.125,14.751.875,19.252l18.5-.875s-1.625-14.5-1-18.377Z" transform="translate(-451.92 -286.046)" fill="#455a64"/><g transform="translate(3.173 6.168)"><path d="M469.912,296.916c.005.082-2.771.315-6.2.522s-6.212.307-6.217.225,2.77-.315,6.2-.521S469.908,296.834,469.912,296.916Z" transform="translate(-457.497 -296.887)" fill="#fff"/></g><g transform="translate(3.178 9.292)"><path d="M469.921,302.408c.005.082-2.771.315-6.2.522s-6.212.307-6.217.225,2.77-.315,6.2-.521S469.917,302.326,469.921,302.408Z" transform="translate(-457.506 -302.379)" fill="#fff"/></g><g transform="translate(5.374 12.342)"><path d="M468.441,307.787a42.424,42.424,0,0,1-7.074.426,42.45,42.45,0,0,1,7.074-.426Z" transform="translate(-461.367 -307.74)" fill="#fff"/></g></g><g transform="translate(200.159 132.626)"><path d="M492.057,286.6s.125,14.752.875,19.252l18.5-.876s-1.625-14.5-1-18.377Z" transform="translate(-492.057 -286.598)" fill="#263238"/><g transform="translate(3.173 6.168)"><path d="M510.05,297.468c0,.081-2.771.315-6.2.521s-6.212.307-6.217.225,2.77-.315,6.2-.521S510.045,297.387,510.05,297.468Z" transform="translate(-497.634 -297.44)" fill="#fff"/></g><g transform="translate(3.178 9.293)"><path d="M510.058,302.96c.005.081-2.771.315-6.2.521s-6.212.307-6.217.226,2.77-.315,6.2-.522S510.054,302.879,510.058,302.96Z" transform="translate(-497.643 -302.932)" fill="#fff"/></g><g transform="translate(5.375 12.342)"><path d="M508.578,308.339a42.443,42.443,0,0,1-7.073.426,42.426,42.426,0,0,1,7.073-.426Z" transform="translate(-501.505 -308.293)" fill="#fff"/></g></g><g transform="translate(227.612 131.766)"><path d="M540.313,285.085s.125,14.751.875,19.252l18.5-.875s-1.625-14.5-1-18.377Z" transform="translate(-540.313 -285.085)" fill="#455a64"/><g transform="translate(3.172 6.168)"><path d="M558.3,295.954c.005.082-2.771.315-6.2.521s-6.212.307-6.217.226,2.771-.315,6.2-.522S558.3,295.873,558.3,295.954Z" transform="translate(-545.889 -295.926)" fill="#fff"/></g><g transform="translate(3.177 9.292)"><path d="M558.314,301.447c0,.082-2.771.315-6.2.521s-6.212.307-6.217.226,2.77-.315,6.2-.522S558.309,301.365,558.314,301.447Z" transform="translate(-545.898 -301.418)" fill="#fff"/></g><g transform="translate(5.374 12.342)"><path d="M556.834,306.825a42.445,42.445,0,0,1-7.074.426,42.6,42.6,0,0,1,7.074-.426Z" transform="translate(-549.76 -306.779)" fill="#fff"/></g></g><g transform="translate(247.512 133.894)"><path d="M575.293,288.826s.125,14.751.876,19.252l18.5-.875s-1.625-14.5-1-18.377Z" transform="translate(-575.293 -288.826)" fill="#455a64"/><g transform="translate(3.173 6.168)"><path d="M593.286,299.7c.005.082-2.771.315-6.2.521s-6.212.307-6.217.226,2.77-.315,6.2-.522S593.281,299.614,593.286,299.7Z" transform="translate(-580.87 -299.667)" fill="#fff"/></g><g transform="translate(3.178 9.292)"><path d="M593.295,305.188c0,.082-2.771.315-6.2.521s-6.212.307-6.217.226,2.77-.315,6.2-.522S593.29,305.106,593.295,305.188Z" transform="translate(-580.879 -305.159)" fill="#fff"/></g><g transform="translate(5.375 12.342)"><path d="M591.815,310.566a42.442,42.442,0,0,1-7.074.426,42.6,42.6,0,0,1,7.074-.426Z" transform="translate(-584.741 -310.52)" fill="#fff"/></g></g><g transform="translate(154.407 105.19)"><path d="M411.637,238.371s.125,14.751.875,19.252l18.5-.876s-1.625-14.5-1-18.376Z" transform="translate(-411.637 -238.371)" fill="#455a64"/><g transform="translate(3.172 6.168)"><path d="M429.629,249.24c.005.081-2.771.315-6.2.521s-6.212.307-6.217.225,2.77-.315,6.2-.521S429.624,249.159,429.629,249.24Z" transform="translate(-417.213 -249.212)" fill="#fff"/></g><g transform="translate(3.177 9.292)"><path d="M429.638,254.732c0,.082-2.771.315-6.2.521s-6.212.307-6.217.226,2.77-.315,6.2-.522S429.633,254.651,429.638,254.732Z" transform="translate(-417.222 -254.704)" fill="#fff"/></g><g transform="translate(5.374 12.342)"><path d="M428.158,260.111a42.438,42.438,0,0,1-7.074.426,42.447,42.447,0,0,1,7.074-.426Z" transform="translate(-421.084 -260.065)" fill="#fff"/></g></g><g transform="translate(178.561 105.261)"><g transform="translate(0 0)"><path d="M454.094,238.5s.125,14.751.875,19.252l18.5-.875s-1.625-14.5-1-18.377Z" transform="translate(-454.094 -238.496)" fill="#75f4d4"/></g><g transform="translate(3.173 6.168)"><path d="M472.086,249.365c.005.082-2.771.315-6.2.521s-6.212.307-6.217.226,2.77-.315,6.2-.522S472.082,249.284,472.086,249.365Z" transform="translate(-459.671 -249.337)" fill="#fff"/></g><g transform="translate(3.177 9.292)"><path d="M472.095,254.858c.005.082-2.771.315-6.2.521s-6.212.307-6.218.226,2.771-.315,6.2-.522S472.09,254.776,472.095,254.858Z" transform="translate(-459.679 -254.829)" fill="#fff"/></g><g transform="translate(5.374 12.342)"><path d="M470.615,260.236a42.437,42.437,0,0,1-7.074.426,42.6,42.6,0,0,1,7.074-.426Z" transform="translate(-463.541 -260.19)" fill="#fff"/></g></g><g transform="translate(226.164 105.27)"><path d="M537.769,238.512s.125,14.752.875,19.252l18.5-.875s-1.625-14.5-1-18.377Z" transform="translate(-537.769 -238.512)" fill="#455a64"/><g transform="translate(3.173 6.168)"><path d="M555.762,249.382c0,.081-2.771.315-6.2.521s-6.212.307-6.217.225,2.77-.315,6.2-.521S555.757,249.3,555.762,249.382Z" transform="translate(-543.346 -249.354)" fill="#fff"/></g><g transform="translate(3.178 9.293)"><path d="M555.77,254.874c.005.081-2.771.315-6.2.521s-6.213.307-6.217.226,2.77-.315,6.2-.522S555.766,254.793,555.77,254.874Z" transform="translate(-543.355 -254.846)" fill="#fff"/></g><g transform="translate(5.375 12.342)"><path d="M554.29,260.253a42.427,42.427,0,0,1-7.073.426,42.433,42.433,0,0,1,7.073-.426Z" transform="translate(-547.217 -260.207)" fill="#fff"/></g></g><g transform="translate(64.754 75.62)"><path d="M254.048,186.4s.125,14.752.876,19.252l18.5-.875s-1.625-14.5-1-18.377Z" transform="translate(-254.048 -186.395)" fill="#263238"/><g transform="translate(3.173 6.168)"><path d="M272.041,197.265c0,.081-2.771.315-6.2.521s-6.212.307-6.217.225,2.77-.315,6.2-.521S272.036,197.184,272.041,197.265Z" transform="translate(-259.625 -197.237)" fill="#fff"/></g><g transform="translate(3.178 9.293)"><path d="M272.05,202.757c0,.081-2.771.315-6.2.521s-6.212.307-6.217.225,2.77-.315,6.2-.521S272.045,202.676,272.05,202.757Z" transform="translate(-259.634 -202.729)" fill="#fff"/></g><g transform="translate(5.375 12.342)"><path d="M270.57,208.136a42.437,42.437,0,0,1-7.074.426,42.433,42.433,0,0,1,7.074-.426Z" transform="translate(-263.496 -208.09)" fill="#fff"/></g></g><g transform="translate(57.403 28.578)"><path d="M241.127,103.706s.125,14.751.876,19.252l18.5-.876s-1.625-14.5-1-18.376Z" transform="translate(-241.127 -103.706)" fill="#75f4d4"/><g transform="translate(3.173 6.168)"><path d="M259.12,114.575c.005.081-2.771.315-6.2.521s-6.212.307-6.217.226,2.77-.315,6.2-.522S259.115,114.494,259.12,114.575Z" transform="translate(-246.704 -114.547)" fill="#fff"/></g><g transform="translate(3.178 9.292)"><path d="M259.129,120.068c0,.082-2.771.315-6.2.521s-6.212.307-6.217.226,2.77-.315,6.2-.522S259.124,119.986,259.129,120.068Z" transform="translate(-246.713 -120.039)" fill="#fff"/></g><g transform="translate(5.375 12.342)"><path d="M257.649,125.446a42.432,42.432,0,0,1-7.074.426,42.433,42.433,0,0,1,7.074-.426Z" transform="translate(-250.575 -125.4)" fill="#fff"/></g></g><g transform="translate(57.808 50.718)"><path d="M241.839,142.623s.125,14.752.876,19.252l18.5-.875s-1.625-14.5-1-18.377Z" transform="translate(-241.839 -142.623)" fill="#1565c0"/><g transform="translate(3.173 6.168)"><path d="M259.832,153.493c0,.081-2.771.315-6.2.521s-6.212.307-6.217.225,2.77-.315,6.2-.521S259.827,153.412,259.832,153.493Z" transform="translate(-247.416 -153.465)" fill="#fff"/></g><g transform="translate(3.178 9.293)"><path d="M259.841,158.985c0,.081-2.771.315-6.2.521s-6.212.307-6.217.225,2.77-.315,6.2-.521S259.836,158.9,259.841,158.985Z" transform="translate(-247.425 -158.957)" fill="#fff"/></g><g transform="translate(5.375 12.342)"><path d="M258.361,164.364a42.429,42.429,0,0,1-7.074.426,42.437,42.437,0,0,1,7.074-.426Z" transform="translate(-251.287 -164.318)" fill="#fff"/></g></g><g transform="translate(80.461 28.578)"><path d="M281.657,103.706s.125,14.751.875,19.252l18.5-.876s-1.625-14.5-1-18.376Z" transform="translate(-281.657 -103.706)" fill="#75f4d4"/><g transform="translate(3.173 6.168)"><path d="M299.65,114.575c0,.081-2.771.315-6.2.521s-6.212.307-6.217.226,2.77-.315,6.2-.522S299.645,114.494,299.65,114.575Z" transform="translate(-287.234 -114.547)" fill="#fff"/></g><g transform="translate(3.178 9.292)"><path d="M299.658,120.068c.005.082-2.771.315-6.2.521s-6.212.307-6.217.226,2.77-.315,6.2-.522S299.654,119.986,299.658,120.068Z" transform="translate(-287.243 -120.039)" fill="#fff"/></g><g transform="translate(5.374 12.342)"><path d="M298.178,125.446a42.432,42.432,0,0,1-7.074.426,42.441,42.441,0,0,1,7.074-.426Z" transform="translate(-291.104 -125.4)" fill="#fff"/></g></g><g transform="translate(103.518 28.578)"><path d="M322.187,103.706s.125,14.751.875,19.252l18.5-.876s-1.625-14.5-1-18.376Z" transform="translate(-322.187 -103.706)" fill="#1565c0"/><g transform="translate(3.172 6.168)"><path d="M340.179,114.575c.005.081-2.771.315-6.2.521s-6.212.307-6.217.226,2.771-.315,6.2-.522S340.174,114.494,340.179,114.575Z" transform="translate(-327.763 -114.547)" fill="#fff"/></g><g transform="translate(3.177 9.292)"><path d="M340.188,120.068c0,.082-2.771.315-6.2.521s-6.212.307-6.217.226,2.77-.315,6.2-.522S340.183,119.986,340.188,120.068Z" transform="translate(-327.772 -120.039)" fill="#fff"/></g><g transform="translate(5.374 12.342)"><path d="M338.708,125.446a42.433,42.433,0,0,1-7.074.426,42.443,42.443,0,0,1,7.074-.426Z" transform="translate(-331.634 -125.4)" fill="#fff"/></g></g><g transform="translate(126.576 28.578)"><path d="M362.716,103.706s.125,14.751.875,19.252l18.5-.876s-1.625-14.5-1-18.376Z" transform="translate(-362.716 -103.706)" fill="#1565c0"/><g transform="translate(3.173 6.168)"><path d="M380.709,114.575c0,.081-2.771.315-6.2.521s-6.212.307-6.217.226,2.77-.315,6.2-.522S380.7,114.494,380.709,114.575Z" transform="translate(-368.293 -114.547)" fill="#fff"/></g><g transform="translate(3.178 9.292)"><path d="M380.717,120.068c.005.082-2.771.315-6.2.521s-6.212.307-6.217.226,2.77-.315,6.2-.522S380.713,119.986,380.717,120.068Z" transform="translate(-368.302 -120.039)" fill="#fff"/></g><g transform="translate(5.375 12.342)"><path d="M379.237,125.446a42.431,42.431,0,0,1-7.073.426,42.43,42.43,0,0,1,7.073-.426Z" transform="translate(-372.164 -125.4)" fill="#fff"/></g></g><g transform="translate(157.396 31.845)"><g transform="translate(0)"><path d="M416.89,109.448s.125,14.752.875,19.252l18.5-.876s-1.625-14.5-1-18.377Z" transform="translate(-416.89 -109.448)" fill="#1565c0"/></g><g transform="translate(3.173 6.168)"><path d="M434.883,120.318c0,.081-2.771.315-6.2.521s-6.212.307-6.217.225,2.77-.315,6.2-.521S434.878,120.237,434.883,120.318Z" transform="translate(-422.467 -120.29)" fill="#fff"/></g><g transform="translate(3.178 9.293)"><path d="M434.891,125.81c.005.081-2.771.315-6.2.521s-6.212.307-6.217.226,2.77-.315,6.2-.522S434.887,125.729,434.891,125.81Z" transform="translate(-422.476 -125.782)" fill="#fff"/></g><g transform="translate(5.375 12.342)"><path d="M433.411,131.189a42.433,42.433,0,0,1-7.073.426,42.433,42.433,0,0,1,7.073-.426Z" transform="translate(-426.338 -131.143)" fill="#fff"/></g></g><g transform="translate(178.039 32.16)"><g transform="translate(0)"><path d="M453.177,110s.125,14.752.875,19.252l18.5-.875s-1.625-14.5-1-18.377Z" transform="translate(-453.177 -110.003)" fill="#1565c0"/></g><g transform="translate(3.173 6.168)"><path d="M471.169,120.873c.005.081-2.771.315-6.2.521s-6.212.307-6.217.225,2.77-.315,6.2-.521S471.165,120.792,471.169,120.873Z" transform="translate(-458.754 -120.845)" fill="#fff"/></g><g transform="translate(3.178 9.293)"><path d="M471.178,126.365c.005.082-2.771.315-6.2.521s-6.212.307-6.217.226,2.77-.315,6.2-.522S471.174,126.284,471.178,126.365Z" transform="translate(-458.763 -126.337)" fill="#fff"/></g><g transform="translate(5.374 12.342)"><path d="M469.7,131.744a42.433,42.433,0,0,1-7.074.426,42.447,42.447,0,0,1,7.074-.426Z" transform="translate(-462.624 -131.698)" fill="#fff"/></g></g><g transform="translate(200.841 32.821)"><path d="M493.256,111.165s.125,14.752.876,19.252l18.5-.875s-1.625-14.5-1-18.377Z" transform="translate(-493.256 -111.165)" fill="#1565c0"/><g transform="translate(3.173 6.168)"><path d="M511.249,122.035c0,.081-2.771.315-6.2.521s-6.212.307-6.217.225,2.77-.315,6.2-.521S511.244,121.954,511.249,122.035Z" transform="translate(-498.833 -122.007)" fill="#fff"/></g><g transform="translate(3.178 9.293)"><path d="M511.258,127.527c0,.081-2.771.315-6.2.521s-6.212.307-6.217.225,2.77-.315,6.2-.521S511.253,127.446,511.258,127.527Z" transform="translate(-498.842 -127.499)" fill="#fff"/></g><g transform="translate(5.375 12.342)"><path d="M509.778,132.906a42.43,42.43,0,0,1-7.074.426,42.43,42.43,0,0,1,7.074-.426Z" transform="translate(-502.704 -132.86)" fill="#fff"/></g></g><g transform="translate(227.941 32.057)"><path d="M540.892,109.822s.125,14.752.875,19.252l18.5-.875s-1.625-14.5-1-18.377Z" transform="translate(-540.892 -109.822)" fill="#1565c0"/><g transform="translate(3.173 6.168)"><path d="M558.884,120.692c.005.081-2.771.315-6.2.521s-6.213.307-6.217.225,2.77-.315,6.2-.521S558.88,120.611,558.884,120.692Z" transform="translate(-546.469 -120.664)" fill="#fff"/></g><g transform="translate(3.177 9.293)"><path d="M558.893,126.184c.005.081-2.771.315-6.2.521s-6.212.307-6.217.225,2.77-.315,6.2-.521S558.888,126.1,558.893,126.184Z" transform="translate(-546.477 -126.156)" fill="#fff"/></g><g transform="translate(5.374 12.342)"><path d="M557.413,131.563a42.432,42.432,0,0,1-7.074.426,42.444,42.444,0,0,1,7.074-.426Z" transform="translate(-550.339 -131.517)" fill="#fff"/></g></g><g transform="translate(230.195 56.105)"><path d="M544.854,152.092s.125,14.752.876,19.252l18.5-.875s-1.625-14.5-1-18.377Z" transform="translate(-544.854 -152.092)" fill="#75f4d4"/><g transform="translate(3.173 6.168)"><path d="M562.847,162.962c.005.082-2.771.315-6.2.522s-6.212.307-6.217.225,2.77-.315,6.2-.521S562.842,162.88,562.847,162.962Z" transform="translate(-550.431 -162.933)" fill="#fff"/></g><g transform="translate(3.178 9.293)"><path d="M562.856,168.454c0,.081-2.771.315-6.2.521s-6.212.307-6.217.225,2.77-.315,6.2-.521S562.851,168.373,562.856,168.454Z" transform="translate(-550.44 -168.426)" fill="#fff"/></g><g transform="translate(5.375 12.342)"><path d="M561.376,173.833a42.432,42.432,0,0,1-7.074.426,42.427,42.427,0,0,1,7.074-.426Z" transform="translate(-554.302 -173.787)" fill="#fff"/></g></g><g transform="translate(244.198 34.119)"><path d="M569.467,113.446s.125,14.751.875,19.252l18.5-.875s-1.625-14.5-1-18.377Z" transform="translate(-569.467 -113.446)" fill="#455a64"/><g transform="translate(3.173 6.168)"><path d="M587.459,124.316c.005.082-2.771.315-6.2.522s-6.212.307-6.217.225,2.77-.315,6.2-.521S587.455,124.234,587.459,124.316Z" transform="translate(-575.044 -124.287)" fill="#fff"/></g><g transform="translate(3.177 9.292)"><path d="M587.468,129.808c.005.082-2.771.315-6.2.522s-6.212.307-6.217.225,2.771-.315,6.2-.521S587.463,129.726,587.468,129.808Z" transform="translate(-575.052 -129.78)" fill="#fff"/></g><g transform="translate(5.374 12.342)"><path d="M585.988,135.187a42.429,42.429,0,0,1-7.074.426,42.447,42.447,0,0,1,7.074-.426Z" transform="translate(-578.914 -135.14)" fill="#fff"/></g></g><g transform="translate(162.394 43.889)"><path d="M425.677,130.62s.125,14.751.875,19.252l18.5-.875s-1.625-14.5-1-18.377Z" transform="translate(-425.677 -130.62)" fill="#455a64"/><g transform="translate(3.172 6.168)"><path d="M443.669,141.49c.005.082-2.771.315-6.2.522s-6.212.307-6.217.225,2.77-.315,6.2-.521S443.664,141.408,443.669,141.49Z" transform="translate(-431.253 -141.461)" fill="#fff"/></g><g transform="translate(3.177 9.293)"><path d="M443.678,146.982c0,.081-2.771.315-6.2.521s-6.212.307-6.217.225,2.77-.315,6.2-.521S443.673,146.9,443.678,146.982Z" transform="translate(-431.262 -146.954)" fill="#fff"/></g><g transform="translate(5.374 12.342)"><path d="M442.2,152.361a42.435,42.435,0,0,1-7.074.426,42.435,42.435,0,0,1,7.074-.426Z" transform="translate(-435.124 -152.314)" fill="#fff"/></g></g><g transform="translate(160.067 76.628)"><path d="M421.585,188.167s.125,14.751.875,19.252l18.5-.875s-1.625-14.5-1-18.377Z" transform="translate(-421.585 -188.167)" fill="#75f4d4"/><g transform="translate(3.173 6.168)"><path d="M439.578,199.037c0,.082-2.771.315-6.2.521s-6.212.307-6.217.226,2.77-.315,6.2-.522S439.573,198.955,439.578,199.037Z" transform="translate(-427.162 -199.008)" fill="#fff"/></g><g transform="translate(3.178 9.292)"><path d="M439.586,204.529c.005.082-2.771.315-6.2.521s-6.212.307-6.217.226,2.77-.315,6.2-.521S439.582,204.447,439.586,204.529Z" transform="translate(-427.171 -204.5)" fill="#fff"/></g><g transform="translate(5.375 12.342)"><path d="M438.106,209.908a42.513,42.513,0,0,1-7.073.425,42.518,42.518,0,0,1,7.073-.425Z" transform="translate(-431.033 -209.861)" fill="#fff"/></g></g><g transform="translate(81.152 42.269)"><g transform="translate(2.248 2.318)"><path d="M305.507,131.846s1.495,13.663-.427,21.144l-18.256-.8s3.912-13.479,1.51-19.449Z" transform="translate(-286.824 -131.846)" fill="#ebebeb"/></g><path d="M285.021,127.771s-1.149,15.494-2.149,18.619l16.627,1.75,2.5-2.375s1.769-13.667,1.52-17.542Z" transform="translate(-282.872 -127.771)" fill="#455a64"/><g transform="translate(16.627 17.869)"><path d="M312.473,159.181l-.375,2.5,2.5-2.375Z" transform="translate(-312.098 -159.181)" fill="#263238"/></g><g transform="translate(4.51 6.122)"><path d="M303.478,140.238a12.74,12.74,0,0,1-1.863-.221l-4.475-.631-4.485-.559a12.736,12.736,0,0,1-1.856-.273,10.819,10.819,0,0,1,1.876.064c1.156.085,2.75.242,4.5.474s3.333.5,4.47.719A10.846,10.846,0,0,1,303.478,140.238Z" transform="translate(-290.799 -138.533)" fill="#fff"/></g><g transform="translate(4.305 9.695)"><path d="M302.6,146.36a10.191,10.191,0,0,1-1.8-.063c-1.108-.082-2.635-.23-4.315-.442s-3.2-.449-4.291-.645a10.26,10.26,0,0,1-1.757-.386,11.432,11.432,0,0,1,1.789.179l4.3.559,4.3.527A11.483,11.483,0,0,1,302.6,146.36Z" transform="translate(-290.439 -144.812)" fill="#fff"/></g><g transform="translate(4.287 12.876)"><path d="M301.547,151.914a106.545,106.545,0,0,1-11.14-1.5,106.9,106.9,0,0,1,11.14,1.5Z" transform="translate(-290.407 -150.404)" fill="#fff"/></g></g><g transform="translate(41.608 60.942)"><path d="M215.512,160.594s-1.149,15.494-2.149,18.619l16.627,1.751,2.5-2.375s1.769-13.667,1.519-17.543Z" transform="translate(-213.363 -160.594)" fill="#455a64"/><g transform="translate(16.627 17.869)"><path d="M242.964,192l-.375,2.5,2.5-2.375Z" transform="translate(-242.589 -192.004)" fill="#263238"/></g><g transform="translate(4.51 6.123)"><path d="M233.969,173.061a12.744,12.744,0,0,1-1.863-.221l-4.475-.631-4.485-.56a12.74,12.74,0,0,1-1.856-.273,10.938,10.938,0,0,1,1.876.065c1.156.085,2.75.241,4.5.474s3.333.5,4.47.719A10.934,10.934,0,0,1,233.969,173.061Z" transform="translate(-221.29 -171.357)" fill="#fff"/></g><g transform="translate(4.305 9.695)"><path d="M233.09,179.183a10.213,10.213,0,0,1-1.8-.063c-1.108-.082-2.635-.23-4.315-.442s-3.2-.449-4.291-.645a10.2,10.2,0,0,1-1.757-.386,11.408,11.408,0,0,1,1.789.179l4.3.558,4.3.527A11.517,11.517,0,0,1,233.09,179.183Z" transform="translate(-220.93 -177.635)" fill="#fff"/></g><g transform="translate(4.287 12.876)"><path d="M232.038,184.737a53.267,53.267,0,0,1-5.589-.6,53.284,53.284,0,0,1-5.551-.895,53.592,53.592,0,0,1,5.59.6A53.571,53.571,0,0,1,232.038,184.737Z" transform="translate(-220.898 -183.227)" fill="#fff"/></g></g><g transform="translate(12.381 31.597)"><rect width="13.894" height="3.176" fill="#f59d36"/></g><g transform="translate(12.381 107.438)"><rect width="13.894" height="3.176" transform="translate(0 0)" fill="#263238"/></g><g transform="translate(12.381 133.099)"><rect width="13.894" height="3.176" fill="#263238"/></g><g transform="translate(65.394 12.847)"><rect width="47.957" height="3.176" fill="#e0e0e0"/></g><g transform="translate(160.922 12.847)"><rect width="47.957" height="3.176" transform="translate(0)" fill="#e0e0e0"/></g><g transform="translate(232.134 12.847)"><rect width="22.904" height="3.176" fill="#e0e0e0"/></g><g transform="translate(10 26.313)"><path d="M408.966,99.872c0,.082-56.229.148-125.575.148-69.37,0-125.587-.066-125.587-.148s56.217-.148,125.587-.148C352.737,99.724,408.966,99.791,408.966,99.872Z" transform="translate(-157.804 -99.724)" fill="#263238"/></g><g transform="translate(10 101.805)"><g transform="translate(0 0)"><path d="M408.966,232.57c0,.082-56.229.148-125.575.148-69.37,0-125.587-.067-125.587-.148s56.217-.148,125.587-.148C352.737,232.422,408.966,232.489,408.966,232.57Z" transform="translate(-157.804 -232.422)" fill="#263238"/></g></g><g transform="translate(10 153.623)"><path d="M408.966,323.652c0,.082-56.229.148-125.575.148-69.37,0-125.587-.066-125.587-.148s56.217-.148,125.587-.148C352.737,323.5,408.966,323.57,408.966,323.652Z" transform="translate(-157.804 -323.504)" fill="#263238"/></g><g transform="translate(10 128.36)"><path d="M408.966,279.246c0,.082-56.229.148-125.575.148-69.37,0-125.587-.067-125.587-.148s56.217-.148,125.587-.148C352.737,279.1,408.966,279.165,408.966,279.246Z" transform="translate(-157.804 -279.098)" fill="#263238"/></g><g transform="translate(31.136 11.138)"><path d="M195.1,216.365c-.081,0-.148-32.085-.148-71.654s.067-71.661.148-71.661.149,32.077.149,71.661S195.187,216.365,195.1,216.365Z" transform="translate(-194.957 -73.051)" fill="#263238"/></g><g transform="translate(147.177 12.114)"><g transform="translate(0)"><path d="M399.077,217.848c-.082,0-.148-32.032-.148-71.537s.066-71.544.148-71.544.148,32.025.148,71.544S399.159,217.848,399.077,217.848Z" transform="translate(-398.929 -74.767)" fill="#263238"/></g></g><g transform="translate(222.327 12.847)"><path d="M531.172,219.156c-.081,0-.148-32.037-.148-71.547s.067-71.554.148-71.554.149,32.03.149,71.554S531.254,219.156,531.172,219.156Z" transform="translate(-531.024 -76.055)" fill="#263238"/></g><g transform="translate(154.641 72.262)"><g transform="translate(0)"><path d="M433.723,181.7a1.5,1.5,0,0,1,.226.083l.655.27a12.675,12.675,0,0,1,2.318,1.427,13.461,13.461,0,0,1,2.937,3.146,13.653,13.653,0,0,1,2.164,5.266,13.456,13.456,0,0,1-.6,6.857,14.912,14.912,0,0,1-4.518,6.475,14.466,14.466,0,0,1-8.073,3.246,15.81,15.81,0,0,1-9.137-1.957,15.52,15.52,0,0,1-6.322-6.88,13.54,13.54,0,0,1-1.03-8.629,13.681,13.681,0,0,1,3.813-6.9,11.788,11.788,0,0,1,2.948-2.085,12.781,12.781,0,0,1,3.138-1.113,19.642,19.642,0,0,1,5.691-.356,35.754,35.754,0,0,1,4.268.575c1.161.22,2.054.427,2.659.569l.686.17a1.408,1.408,0,0,1,.232.068,1.428,1.428,0,0,1-.238-.038l-.693-.141c-.609-.123-1.505-.311-2.667-.513a37.325,37.325,0,0,0-4.257-.524,19.671,19.671,0,0,0-5.633.395,12.646,12.646,0,0,0-3.082,1.112,11.611,11.611,0,0,0-2.88,2.058,13.461,13.461,0,0,0-3.717,6.783,13.284,13.284,0,0,0,1.026,8.448,15.256,15.256,0,0,0,6.205,6.746,15.56,15.56,0,0,0,8.965,1.925,14.215,14.215,0,0,0,7.924-3.167,14.688,14.688,0,0,0,4.46-6.347,13.278,13.278,0,0,0,.625-6.738,14.661,14.661,0,0,0-.835-2.863,14.893,14.893,0,0,0-1.26-2.347,13.47,13.47,0,0,0-5.144-4.612l-.64-.3A1.5,1.5,0,0,1,433.723,181.7Z" transform="translate(-412.049 -180.493)" fill="#263238"/></g></g><g transform="translate(182.293 67.007)"><g transform="translate(0)"><path d="M460.655,179.493c-.051-.064,2.226-1.96,5.084-4.234s5.217-4.067,5.268-4-2.224,1.959-5.084,4.234S460.707,179.557,460.655,179.493Z" transform="translate(-460.655 -171.255)" fill="#263238"/></g></g><g transform="translate(181.688 67.399)"><g transform="translate(0)"><path d="M469.184,180.138a3.565,3.565,0,0,1-.73.1l-2,.174c-1.694.134-4.04.3-6.645.465l-.214.014.063-.2.077-.247a25.953,25.953,0,0,1,2.863-6.221c.472-.741.889-1.316,1.191-1.7a3.562,3.562,0,0,1,.5-.576,4.043,4.043,0,0,1-.406.643c-.272.405-.661,1-1.106,1.744a28.841,28.841,0,0,0-2.759,6.2l-.076.245-.151-.19c2.606-.164,4.953-.3,6.651-.377l2.009-.081A3.59,3.59,0,0,1,469.184,180.138Z" transform="translate(-459.591 -171.944)" fill="#263238"/></g></g><g transform="translate(246.019 82.65)"><g transform="translate(0 0)"><path d="M581.935,227.2c-.024-.011.175-.432.493-1.207a22.158,22.158,0,0,0,1.065-3.374,21.226,21.226,0,0,0-6.867-21.084,22.091,22.091,0,0,0-2.847-2.1c-.713-.439-1.121-.662-1.109-.685a1.432,1.432,0,0,1,.31.135c.2.1.5.234.858.451a19.579,19.579,0,0,1,2.925,2.04,21.071,21.071,0,0,1,6.934,21.293,19.487,19.487,0,0,1-1.163,3.371c-.163.388-.329.671-.428.87A1.408,1.408,0,0,1,581.935,227.2Z" transform="translate(-572.669 -198.752)" fill="#263238"/></g></g><g transform="translate(252.941 105.573)"><path d="M592.45,241.348a13.253,13.253,0,0,1-1.5,1.311l-1.681,1.359-1,.794a2.157,2.157,0,0,1-1.291.648.824.824,0,0,1-.664-.456,2.814,2.814,0,0,1-.232-.671q-.163-.64-.316-1.237l-.518-2.1a13.215,13.215,0,0,1-.4-1.952,13.338,13.338,0,0,1,.607,1.9c.172.619.367,1.319.579,2.082l.333,1.232c.1.415.249.888.635.905s.747-.316,1.092-.581l1.01-.781,1.72-1.308A13.369,13.369,0,0,1,592.45,241.348Z" transform="translate(-584.836 -239.045)" fill="#263238"/></g><g transform="translate(90.146 73.306)"><g transform="translate(0 0)"><path d="M324.09,182.331c.02.08-5.652,1.591-12.667,3.375s-12.721,3.167-12.741,3.088,5.65-1.59,12.668-3.375S324.069,182.251,324.09,182.331Z" transform="translate(-298.682 -182.327)" fill="#263238"/></g><g transform="translate(1.151 3.014)"><path d="M328.632,187.628c.022.079-6.213,1.885-13.923,4.034s-13.981,3.827-14,3.749,6.211-1.885,13.924-4.034S328.61,187.549,328.632,187.628Z" transform="translate(-300.706 -187.625)" fill="#263238"/></g><g transform="translate(4.614 7.999)"><path d="M333.5,196.391c.019.08-5.944,1.576-13.317,3.341s-13.369,3.134-13.388,3.054,5.943-1.576,13.318-3.342S333.478,196.312,333.5,196.391Z" transform="translate(-306.792 -196.388)" fill="#263238"/></g></g><g transform="translate(88.825 125.351)"><g transform="translate(1.114 0.128)"><path d="M298.318,281.958l4.525,23.9,45.186-8.554-7.853-23.271Z" transform="translate(-298.318 -274.034)" fill="#ebebeb"/></g><g transform="translate(0.173 0.128)"><rect width="43.558" height="21.551" transform="translate(0 8.102) rotate(-10.72)" fill="#fff"/></g><path d="M343.339,295.112s-.032-.133-.084-.383-.126-.628-.221-1.105c-.191-.977-.47-2.4-.828-4.224-.707-3.661-1.726-8.938-2.983-15.442l.128.088-42.788,8.139h0l.118-.174c1.41,7.463,2.763,14.627,4,21.176l-.163-.111,30.733-5.75,8.88-1.642,2.377-.432.618-.109c.139-.023.216-.032.216-.032s-.063.018-.2.045l-.6.122-2.343.461-8.834,1.712-30.8,5.9-.137.026-.026-.137c-1.242-6.549-2.6-13.711-4.016-21.174l-.028-.146.146-.027h0l42.8-8.064.109-.02.02.108c1.214,6.542,2.2,11.848,2.88,15.529.332,1.819.592,3.236.769,4.211.084.471.148.833.195,1.09S343.339,295.112,343.339,295.112Z" transform="translate(-296.36 -273.809)" fill="#263238"/><g transform="translate(5.146 9.705)"><g transform="translate(0.171 0.15)"><rect width="12.043" height="12.043" transform="matrix(0.983, -0.186, 0.186, 0.983, 0, 2.24)" fill="#fff"/></g><path d="M319.649,302.851a1.678,1.678,0,0,1-.058-.229c-.035-.167-.081-.379-.137-.643l-.491-2.412c-.411-2.086-.989-5.018-1.681-8.526l.15.1L305.6,293.4c-.027.038.222-.327.117-.171v0l0,.007,0,.013,0,.025.01.051.019.1.038.2.076.4q.077.4.152.8.151.8.3,1.582.294,1.566.575,3.06c.37,1.987.721,3.862,1.042,5.584l-.15-.1,8.55-1.552,2.425-.425.648-.108a1.592,1.592,0,0,1,.234-.03,1,1,0,0,1-.2.052l-.618.133-2.384.485-8.606,1.7-.125.024-.024-.127-1.071-5.579q-.284-1.491-.583-3.058-.149-.783-.3-1.582-.075-.4-.152-.8l-.076-.4-.039-.2-.019-.1-.01-.051,0-.025,0-.013v-.009c-.106.154.143-.213.118-.176l11.836-2.22.127-.024.023.126c.645,3.551,1.184,6.519,1.567,8.631.177,1.011.318,1.815.419,2.4l.1.624A1.029,1.029,0,0,1,319.649,302.851Z" transform="translate(-305.405 -290.868)" fill="#263238"/><g transform="translate(2.272 3.134)"><path d="M321.37,305.226c-.026,0-.066-.305-.234-.845a4.184,4.184,0,0,0-1.253-1.989l-.011-.009a4.407,4.407,0,0,0-1.466-.891,4.592,4.592,0,0,0-1.991-.227l-.263.026.142-.225a3,3,0,0,0,.108-2.836,2.681,2.681,0,0,0-1.05-1.176,2.824,2.824,0,0,0-1.6-.375,3.032,3.032,0,0,0-1.736.647,2.594,2.594,0,0,0-.918,1.493,3.029,3.029,0,0,0,.972,2.956l.142.112-.155.094a5.144,5.144,0,0,0-1.784,1.82,5.48,5.48,0,0,0-.684,1.861,7.407,7.407,0,0,0-.043,1.741,1.79,1.79,0,0,1-.1-.451,4.883,4.883,0,0,1,0-1.312,5.433,5.433,0,0,1,.651-1.941,5.288,5.288,0,0,1,1.832-1.934l-.013.206a3.277,3.277,0,0,1-1.1-3.213,2.877,2.877,0,0,1,1.012-1.661,3.315,3.315,0,0,1,1.9-.714,3.107,3.107,0,0,1,1.768.419,2.959,2.959,0,0,1,1.159,1.306,3.252,3.252,0,0,1-.148,3.1l-.121-.2a4.772,4.772,0,0,1,2.094.27,4.531,4.531,0,0,1,1.518.965l-.01-.009a4.1,4.1,0,0,1,1.242,2.119,4.438,4.438,0,0,1,.122.646A.73.73,0,0,1,321.37,305.226Z" transform="translate(-309.397 -296.377)" fill="#263238"/></g></g><g transform="translate(21.665 7.485)"><g transform="translate(0 0.012)"><path d="M334.442,288.928l10.26-1.942" transform="translate(-334.442 -286.986)" fill="#fff"/></g><path d="M344.7,286.977a92.213,92.213,0,0,1-10.26,1.943,92.22,92.22,0,0,1,10.26-1.943Z" transform="translate(-334.442 -286.966)" fill="#263238"/><g transform="translate(0.451 3.897)"><g transform="translate(0 0.048)"><path d="M335.235,294.293l2.073-.393" transform="translate(-335.235 -293.9)" fill="#fff"/></g><path d="M337.307,293.864c.015.08-.436.233-1.009.342s-1.048.131-1.064.051.436-.233,1.009-.342S337.292,293.783,337.307,293.864Z" transform="translate(-335.234 -293.816)" fill="#263238"/></g><g transform="translate(1.236 5.004)"><path d="M354.959,295.768c.015.08-4.08.923-9.145,1.882s-9.185,1.671-9.2,1.591,4.078-.923,9.145-1.882S354.944,295.688,354.959,295.768Z" transform="translate(-336.614 -295.762)" fill="#263238"/></g><g transform="translate(1.628 7.057)"><path d="M355.752,299.377c.015.08-4.1.927-9.2,1.892s-9.237,1.681-9.252,1.6,4.1-.927,9.2-1.892S355.737,299.3,355.752,299.377Z" transform="translate(-337.304 -299.371)" fill="#263238"/></g><g transform="translate(2.079 9.5)"><path d="M356.234,303.67a3.374,3.374,0,0,1-.7.192l-1.935.414c-1.636.337-3.9.782-6.4,1.257s-4.775.887-6.421,1.171l-1.952.321a3.469,3.469,0,0,1-.724.078,3.389,3.389,0,0,1,.7-.192l1.935-.414c1.636-.337,3.9-.782,6.4-1.257s4.774-.887,6.42-1.171l1.952-.321A3.467,3.467,0,0,1,356.234,303.67Z" transform="translate(-338.097 -303.664)" fill="#263238"/></g></g><g transform="translate(18.773 5.71)"><path d="M333.813,285.25a.446.446,0,0,1,.113-.069l.344-.178a11.776,11.776,0,0,1,1.382-.554,12.7,12.7,0,0,1,5.431-.506,11.625,11.625,0,0,1,3.646,1.05,5.007,5.007,0,0,1,1.682,1.323,2.543,2.543,0,0,1,.51,2.207,3.728,3.728,0,0,1-1.4,1.931,11.629,11.629,0,0,1-2.124,1.256,19.75,19.75,0,0,1-4.881,1.672,11.78,11.78,0,0,1-5.158-.069,7.541,7.541,0,0,1-2.291-.945,3.775,3.775,0,0,1-1.558-1.811,2.656,2.656,0,0,1,.25-2.253,5.506,5.506,0,0,1,1.455-1.566,14.311,14.311,0,0,1,3.332-1.812,14.716,14.716,0,0,1,5.376-.957,13.427,13.427,0,0,1,1.485.111l.382.061a.44.44,0,0,1,.129.031.453.453,0,0,1-.133,0l-.385-.032c-.337-.028-.837-.055-1.479-.055a15.136,15.136,0,0,0-5.3,1.037,14.282,14.282,0,0,0-3.258,1.812,5.284,5.284,0,0,0-1.379,1.5,2.394,2.394,0,0,0-.22,2.032,3.511,3.511,0,0,0,1.456,1.666,7.307,7.307,0,0,0,2.208.9,11.55,11.55,0,0,0,5.031.059,19.658,19.658,0,0,0,4.81-1.642,11.4,11.4,0,0,0,2.076-1.217,3.472,3.472,0,0,0,1.315-1.776,2.276,2.276,0,0,0-.452-1.982,4.777,4.777,0,0,0-1.589-1.263,11.548,11.548,0,0,0-3.56-1.06,12.977,12.977,0,0,0-5.37.409c-.613.188-1.08.367-1.392.5l-.356.15A.445.445,0,0,1,333.813,285.25Z" transform="translate(-329.359 -283.846)" fill="#2ec49f"/></g><g transform="translate(35.501 1.706)"><path d="M358.763,281.906a55.151,55.151,0,0,1,6.264-5.095,54.968,54.968,0,0,1-6.264,5.095Z" transform="translate(-358.761 -276.808)" fill="#2ec49f"/></g><g transform="translate(35.133 4.112)"><path d="M362.321,283.21a22.657,22.657,0,0,1-3.549.881l-.429.088-.228.046.055-.225a7.637,7.637,0,0,1,1.285-2.962c.076.038-.591,1.28-1,3.031l-.172-.178.429-.089A22.656,22.656,0,0,1,362.321,283.21Z" transform="translate(-358.115 -281.036)" fill="#2ec49f"/></g><g transform="translate(21.648 8.86)"><path d="M345.721,289.4a110.676,110.676,0,0,1-11.309,1.736,110.745,110.745,0,0,1,11.309-1.736Z" transform="translate(-334.412 -289.383)" fill="#2ec49f"/></g><g transform="translate(14.905 2.172)"><path d="M327.793,279.791a2.627,2.627,0,1,1-3.07-2.093A2.628,2.628,0,0,1,327.793,279.791Z" transform="translate(-322.569 -277.638)" fill="#f59d36"/><path d="M325.195,282.911a2.642,2.642,0,0,1-.486-5.238,2.7,2.7,0,0,1,.492-.046,2.646,2.646,0,0,1,2.595,2.15h0a2.647,2.647,0,0,1-2.6,3.134Zm.006-5.256a2.631,2.631,0,0,0-.486.045,2.613,2.613,0,1,0,3.053,2.082h0A2.618,2.618,0,0,0,325.2,277.655Z" transform="translate(-322.558 -277.627)" fill="#263238"/></g></g></g></g><g transform="translate(278.977 112.149)"><g transform="translate(53.692)"><g transform="translate(20.245 9.995)"><path d="M549.893,174.181c.014,3.381,4.45,5.572,4.283,8.949-.071,1.449-1.013,2.722-1.235,4.156-.3,1.927.723,3.788,1.061,5.71.7,3.957-1.723,8.031-5.183,10.073s-7.73,2.317-11.692,1.644" transform="translate(-537.127 -174.181)" fill="#263238"/></g><g transform="translate(0 8.292)"><path d="M507.395,171.188c.075,1.818-1.174,3.4-2.424,4.719s-2.637,2.7-2.956,4.486c-.564,3.173,2.462,6.234,1.716,9.369-.4,1.681-1.828,3-2.131,4.7a5.915,5.915,0,0,0,1.6,4.585c1.057,1.293,2.335,1.15,3.262,2.54a13.67,13.67,0,0,0,4.093,3.88c3.436,2.028,7.724-.609,9.427-1.052" transform="translate(-501.542 -171.188)" fill="#263238"/></g><g transform="translate(5.757)"><path d="M539.53,168.573c.1-1.642-1.38-2.962-2.891-3.613s-3.2-.934-4.54-1.9a22.008,22.008,0,0,1-2.942-3.216,10.129,10.129,0,0,0-17.176,4.1c-.663,2.323-.35,5.1,1.445,6.719,2.084,1.875,5.273,1.576,8.035,1.1s5.887-.927,8.127.758a11.756,11.756,0,0,1,2.89,4.114c.8,1.491,1.81,3.019,3.39,3.62s3.78-.278,3.9-1.965" transform="translate(-511.661 -156.612)" fill="#263238"/></g><g transform="translate(3.832 7.111)"><path d="M531.824,173.355l-14.472-4.192c-4.658-.655-7.965,4.994-8.422,9.677-.508,5.2-.923,11.572-.439,15.483.973,7.864,6.933,9.066,6.933,9.066s-.067,2.29-.149,5.08a8.4,8.4,0,0,0,7.994,8.638h0a8.4,8.4,0,0,0,8.787-7.85l2.133-33.027A2.753,2.753,0,0,0,531.824,173.355Z" transform="translate(-508.277 -169.111)" fill="#ffbe9d"/><g transform="translate(1.653 12.841)"><g transform="translate(0 1.726)"><path d="M511.184,195.589a1,1,0,0,0,.932,1.045.96.96,0,0,0,1.065-.869,1,1,0,0,0-.931-1.046A.96.96,0,0,0,511.184,195.589Z" transform="translate(-511.182 -194.716)" fill="#263238"/></g><g transform="translate(0.009)"><path d="M511.212,192.67c.12.135.9-.4,1.978-.361,1.079.024,1.852.607,1.974.478.059-.056-.059-.3-.4-.56a2.756,2.756,0,0,0-1.574-.545,2.649,2.649,0,0,0-1.58.451C511.273,192.377,511.153,192.61,511.212,192.67Z" transform="translate(-511.198 -191.682)" fill="#263238"/></g></g><g transform="translate(12.18 13.407)"><g transform="translate(0 1.441)"><path d="M529.689,196.084a1,1,0,0,0,.932,1.045.96.96,0,0,0,1.065-.869,1,1,0,0,0-.932-1.046A.96.96,0,0,0,529.689,196.084Z" transform="translate(-529.687 -195.211)" fill="#263238"/></g><g transform="translate(0.084)"><path d="M529.849,193.666c.12.135.9-.4,1.979-.361,1.078.024,1.852.607,1.973.479.06-.057-.058-.3-.4-.56a2.756,2.756,0,0,0-1.574-.545,2.647,2.647,0,0,0-1.58.451C529.911,193.372,529.79,193.6,529.849,193.666Z" transform="translate(-529.835 -192.677)" fill="#263238"/></g></g><g transform="translate(5.363 13.289)"><path d="M520.426,201.446a7.154,7.154,0,0,0-1.742-.377c-.275-.038-.534-.1-.573-.291a1.4,1.4,0,0,1,.212-.811l.888-2.07a36.206,36.206,0,0,0,2.02-5.427,36.1,36.1,0,0,0-2.451,5.251q-.447,1.091-.854,2.084a1.6,1.6,0,0,0-.18,1.077.7.7,0,0,0,.439.419,1.9,1.9,0,0,0,.466.081A7.015,7.015,0,0,0,520.426,201.446Z" transform="translate(-517.703 -192.47)" fill="#263238"/></g><g transform="translate(7.084 31.951)"><path d="M520.793,227.6a18.9,18.9,0,0,0,10.464-2.326c-.089.016-3.059,5.345-10.528,4.284Z" transform="translate(-520.729 -225.274)" fill="#eb996e"/></g><g transform="translate(8.338 24.2)"><path d="M523.048,212.331a1.947,1.947,0,0,1,1.769-.662,1.775,1.775,0,0,1,1.2.7,1.125,1.125,0,0,1,.042,1.29,1.306,1.306,0,0,1-1.427.309,4.078,4.078,0,0,1-1.351-.871,1.193,1.193,0,0,1-.3-.329.359.359,0,0,1,.015-.4" transform="translate(-522.932 -211.649)" fill="#e8505b"/></g><g transform="translate(7.698 23.121)"><path d="M525.347,209.753c-.175-.016-.218,1.155-1.249,1.952s-2.274.626-2.289.789c-.019.073.27.237.8.27a2.921,2.921,0,0,0,1.908-.592,2.543,2.543,0,0,0,.972-1.64C525.548,210.044,525.428,209.749,525.347,209.753Z" transform="translate(-521.808 -209.753)" fill="#263238"/></g><g transform="translate(11.853 11.749)"><path d="M529.117,190.5c.1.3,1.179.2,2.44.391,1.265.171,2.273.577,2.451.319.079-.123-.089-.405-.493-.7a4.3,4.3,0,0,0-3.726-.541C529.318,190.139,529.076,190.362,529.117,190.5Z" transform="translate(-529.112 -189.763)" fill="#263238"/></g><g transform="translate(2.156 9.664)"><path d="M512.09,187.153c.181.251.934.023,1.828.042.895-.013,1.645.221,1.828-.029.081-.122-.03-.371-.353-.615a2.649,2.649,0,0,0-2.947-.01C512.123,186.782,512.011,187.03,512.09,187.153Z" transform="translate(-512.066 -186.098)" fill="#263238"/></g></g><g transform="translate(10.87 6.15)"><path d="M539.379,199.636c-2.165.365-2.321-.736-3.881-2.282a7.069,7.069,0,0,1-1.97-6.029c.305-1.913,1.4-3.834.8-5.674-.8-2.432-4.149-3.28-4.967-5.708-.474-1.411.044-3.027-.5-4.412a5.221,5.221,0,0,0-3.141-2.6,13.466,13.466,0,0,1-3.778-1.786c-1.077-.894-1.714-2.537-.963-3.718a74.164,74.164,0,0,1,16.958,4.7,6.6,6.6,0,0,1,3.3,2.293,6.908,6.908,0,0,1,.559,4.214q-.831,10.519-1.661,21.038" transform="translate(-520.649 -167.423)" fill="#263238"/></g><g transform="translate(33.195 17.331)"><path d="M561.729,192.31a6.006,6.006,0,0,1,11.427-1.713,8.508,8.508,0,0,1-.534,7.131c-1.291,2.627-3.841,4.982-6.759,4.756-2.746-.213-4.882-2.7-5.59-5.361s-.3-5.477.118-8.2" transform="translate(-559.89 -187.076)" fill="#263238"/></g><g transform="translate(36.16 18.546)"><path d="M565.164,203.993a1.386,1.386,0,0,0,.424-.441,3.85,3.85,0,0,0,.634-1.546,7.481,7.481,0,0,0,.009-2.474c-.129-.926-.409-1.9-.6-2.932a7.272,7.272,0,0,1-.077-2.9c.188-.866.622-1.592.824-2.274a2.98,2.98,0,0,0,.1-1.671,1,1,0,0,0-.287-.543c-.027.015.093.2.156.572a3.1,3.1,0,0,1-.2,1.564,19.791,19.791,0,0,0-.9,2.283,7.266,7.266,0,0,0,.048,3.033c.2,1.052.485,2.023.626,2.916a7.814,7.814,0,0,1,.065,2.385A4.938,4.938,0,0,1,565.164,203.993Z" transform="translate(-565.102 -189.212)" fill="#455a64"/></g><g transform="translate(36.635 23.936)"><path d="M565.939,198.688A3.816,3.816,0,0,0,567.1,199.9a6.864,6.864,0,0,0,7.726.384,3.808,3.808,0,0,0,1.276-1.091c-.04-.046-.5.4-1.4.88a7.149,7.149,0,0,1-7.465-.372C566.4,199.138,565.983,198.647,565.939,198.688Z" transform="translate(-565.937 -198.686)" fill="#455a64"/></g><g transform="translate(36.981 25.175)"><path d="M566.55,200.865a3.568,3.568,0,0,0,.623,1.25,8.563,8.563,0,0,0,5.558,3.59,3.589,3.589,0,0,0,1.4.055,13.082,13.082,0,0,0-1.346-.292,9.745,9.745,0,0,1-5.41-3.5A13.263,13.263,0,0,0,566.55,200.865Z" transform="translate(-566.546 -200.864)" fill="#455a64"/></g><g transform="translate(10.985 3.651)"><path d="M544.535,195.278s.035-.028.089-.094a2.845,2.845,0,0,0,.226-.306,4.171,4.171,0,0,0,.559-1.351,4.814,4.814,0,0,0-.052-2.314,4.415,4.415,0,0,0-1.741-2.507,10.782,10.782,0,0,1-2.835-2.245,2.346,2.346,0,0,1-.366-1.85,10.427,10.427,0,0,1,.746-2.008,5.842,5.842,0,0,0,.049-4.674,5.118,5.118,0,0,0-1.523-2.022,6.205,6.205,0,0,0-2.367-1.072c-.841-.221-1.682-.36-2.459-.622a4.831,4.831,0,0,1-2.038-1.2,3.445,3.445,0,0,1-.833-2.081,17.582,17.582,0,0,0-.3-2.286,7.841,7.841,0,0,0-1.992-3.768,6.189,6.189,0,0,0-3.27-1.756,4.939,4.939,0,0,0-3.038.361,4.779,4.779,0,0,0-1.8,1.458,4.059,4.059,0,0,0-.655,1.308,2.078,2.078,0,0,0-.092.5,4.991,4.991,0,0,1,.853-1.727,4.716,4.716,0,0,1,4.684-1.661,5.967,5.967,0,0,1,3.111,1.716,7.592,7.592,0,0,1,1.887,3.639,17.671,17.671,0,0,1,.278,2.255,3.768,3.768,0,0,0,.912,2.271,5.14,5.14,0,0,0,2.176,1.3c.814.275,1.658.414,2.481.63a5.878,5.878,0,0,1,2.243,1.008,4.788,4.788,0,0,1,1.425,1.886,5.528,5.528,0,0,1-.032,4.419,10.575,10.575,0,0,0-.751,2.075,2.645,2.645,0,0,0,.427,2.066,10.746,10.746,0,0,0,2.927,2.281,4.231,4.231,0,0,1,1.7,2.362,4.764,4.764,0,0,1,.105,2.235A5.261,5.261,0,0,1,544.535,195.278Z" transform="translate(-520.85 -163.029)" fill="#455a64"/></g><g transform="translate(10.271 1.035)"><path d="M544.173,171.44a.86.86,0,0,0,.107-.358,1.682,1.682,0,0,0-.226-1.047,2.658,2.658,0,0,0-1.273-1.124,4.12,4.12,0,0,0-2.244-.146c-.825.129-1.685.429-2.621.579a3.465,3.465,0,0,1-2.815-.536,6.256,6.256,0,0,1-1.585-2.869,11.67,11.67,0,0,0-1.7-3.279,10.823,10.823,0,0,0-5.8-4.019,6.2,6.2,0,0,0-3.128-.019,4.864,4.864,0,0,0-2.337,1.406,3.612,3.612,0,0,0-.932,2.045,3.557,3.557,0,0,0,.2,1.685,2.71,2.71,0,0,0,.56.913,1.1,1.1,0,0,0,.281.244,3.787,3.787,0,0,1-.715-1.2,3.514,3.514,0,0,1-.14-1.615,3.444,3.444,0,0,1,.922-1.906,4.648,4.648,0,0,1,2.23-1.294,5.961,5.961,0,0,1,2.977.051,10.623,10.623,0,0,1,5.6,3.917,11.466,11.466,0,0,1,1.662,3.188,6.486,6.486,0,0,0,1.7,3,2.976,2.976,0,0,0,1.525.63,5.275,5.275,0,0,0,1.534-.059c.972-.17,1.819-.482,2.618-.621a3.981,3.981,0,0,1,2.129.085,2.564,2.564,0,0,1,1.231,1.013,1.7,1.7,0,0,1,.273.974C544.2,171.314,544.152,171.434,544.173,171.44Z" transform="translate(-519.596 -158.431)" fill="#455a64"/></g></g><g transform="translate(0 44.028)"><g transform="translate(4.718 21.228)"><path d="M436.369,281.378s-4.334-6.771-5.091-7.338-7.48-2.9-8.047-2.714-8.642,1.707-7.7,2.653,6.575-.191,6.575-.191l.764.366s-4.865.858-5.883,1.469c-.936.562-.593,1.714.3,1.607s5.117-1,5.372-.828-4.592,1.22-5.11,1.538c-.7.428-.748,1.681.14,1.605.523-.045,5.09-1.305,5.09-1.305a39.132,39.132,0,0,0-3.944,1.785c-.54.53-.092,1.314.693,1.128.539-.128,3.087-1.4,3.809-1.566,0,0,.68.17,1.317,1.529.3.634,1.668,4.6,4.054,4.507a7.493,7.493,0,0,1,4.218,1.627Z" transform="translate(-415.457 -271.315)" fill="#ffbe9d"/><g transform="translate(0.093 2.201)"><path d="M415.621,275.666a3.727,3.727,0,0,0,1.482.383,8.726,8.726,0,0,0,1.67.042c.618-.08,1.293-.186,2-.3l1.506-.246-.092-.007a21.822,21.822,0,0,0,3.51,1.038,21.747,21.747,0,0,0-3.392-1.382l-.04-.015-.051.008-1.495.227-1.979.323a10.775,10.775,0,0,1-1.617.04C416.2,275.733,415.634,275.61,415.621,275.666Z" transform="translate(-415.621 -275.184)" fill="#eb996e"/></g></g><g transform="translate(20.07 6.842)"><path d="M486.906,246.029s-4.588,2.78-6.275,6.217-10.5,26.475-10.5,26.475l-22.139-11-5.55,9.477,20.873,16.59a13.759,13.759,0,0,0,9.286,1.9h0c4.992-.752,7.445-.869,9.161-5.616l5.552-15.364-1.184-28.179" transform="translate(-442.443 -246.029)" fill="#f59d36"/><g transform="translate(31.696 13.446)" opacity="0.3"><path d="M504.7,269.664c-5.1,7.407-5.951,10.888-6.491,19.866-.18,2.978-.018,6.194,1.774,8.579.653.868,1.918,1.611,2.755.918.818-.678.235-1.929-.036-2.957-1.588-6.036-2.155-10.685-1.026-16s.835-5.221,3.024-10.189" transform="translate(-498.156 -269.664)"/></g><g transform="translate(27.583 32.676)"><path d="M493.71,312.688a20.882,20.882,0,0,0-2.779-9.222,5.065,5.065,0,0,1,.829,1.175,14.956,14.956,0,0,1,1.992,6.608A5.084,5.084,0,0,1,493.71,312.688Z" transform="translate(-490.927 -303.466)" fill="#263238"/></g></g><g transform="translate(54.526)"><path d="M506.247,309.479l-3.239,55.648H556.05s-1.57-27.874-3.546-39.783c-2.064-21.048-8.631-24.166-13.236-34.322l2.6-49.242-11.226-5.192L530.188,234l-17.434,2.111c-.009.027-.514,5.239-.514,5.239s-1.6,4.623-2.5,7.013c-2.81,7.417-6.656,16.284-6.089,22.77.257,2.937,4.284,22.5,4.284,22.5l-1.557,15.806Z" transform="translate(-503.008 -234.002)" fill="#f59d36"/></g><g transform="translate(54.591 11.691)"><path d="M510.431,254.552a2.614,2.614,0,0,1-.138.429c-.113.3-.263.7-.451,1.208-.4,1.046-1.014,2.546-1.775,4.4s-1.662,4.055-2.471,6.568a47.567,47.567,0,0,0-1.893,8.358,27.2,27.2,0,0,0,.092,8.53c.448,2.6,1.145,4.884,1.6,6.835.477,1.947.753,3.547.933,4.653q.1.8.165,1.279a2.516,2.516,0,0,1,.038.448,2.685,2.685,0,0,1-.1-.44q-.082-.476-.22-1.269c-.214-1.1-.521-2.685-1.022-4.621-.477-1.941-1.2-4.219-1.663-6.839a27.021,27.021,0,0,1-.117-8.615,46.433,46.433,0,0,1,1.927-8.4c.827-2.521,1.756-4.723,2.537-6.565l1.861-4.359.5-1.187A2.582,2.582,0,0,1,510.431,254.552Z" transform="translate(-503.121 -254.552)" fill="#263238"/></g><g transform="translate(59.668 59.411)" opacity="0.3"><path d="M512.133,341.883c-.554,2.726,1.648,5.4,4.257,6.37s5.494.655,8.257.329l19.252-2.267c1.015-.12,2.2-.354,2.635-1.279a2.322,2.322,0,0,0,.019-1.644,6.161,6.161,0,0,0-3.239-3.572,13.677,13.677,0,0,0-4.785-1.194c-6.625-.668-13.282.513-19.837,1.689" transform="translate(-512.047 -338.433)"/></g><g transform="translate(42.614 6.842)"><g transform="translate(0 39.069)"><g transform="translate(0.178 0.162)"><path d="M484.335,322.02l4.894.444,2.143,1.083s-.51-.548-.959-1.113a17.24,17.24,0,0,0-2.171-1.8l-3.648-.375s-2.045-.154-2.176-1.566l2.783-.269s-2.883-.2-2.816-1.642l2.11-.374a.659.659,0,0,1-.663-.769l5.813-.649,5.56,3.943,5.372,4.751,1.208.052.424,7.759s-4.766-.584-6.066-1.228-7.078-5.861-7.078-5.861-3.028-.266-3.863-.988A2.208,2.208,0,0,1,484.335,322.02Z" transform="translate(-482.383 -314.988)" fill="#ffbe9d"/></g><path d="M503.249,331.486a.253.253,0,0,1-.076,0l-.224-.019-.874-.1c-.765-.092-1.889-.234-3.319-.476a19.477,19.477,0,0,1-2.355-.519,3.977,3.977,0,0,1-1.211-.672q-.576-.422-1.169-.9c-1.583-1.281-3.323-2.79-5.209-4.472l.065.028a16.484,16.484,0,0,1-2.737-.471,5.206,5.206,0,0,1-.7-.243,2.474,2.474,0,0,1-.339-.179l-.162-.117-.141-.128a2.964,2.964,0,0,1-.488-.6,1.851,1.851,0,0,1-.282-.755l-.017-.143.152.014,4.894.437.025,0,.022.011,2.144,1.08-.157.209-.684-.793-.344-.4a4.523,4.523,0,0,0-.373-.362c-.533-.468-1.119-.911-1.711-1.344l.065.025-2.188-.224-1.125-.115c-.187-.022-.38-.033-.578-.067a4,4,0,0,1-.577-.139,2.6,2.6,0,0,1-.966-.525,1.506,1.506,0,0,1-.511-.993l-.01-.135.133-.013,2.782-.268,0,.27a6.319,6.319,0,0,1-1.784-.405,2.453,2.453,0,0,1-.791-.492,1.167,1.167,0,0,1-.365-.887l.007-.11.107-.016,2.235-.322.007.261a1.109,1.109,0,0,1-.623-.274.8.8,0,0,1-.238-.646l.008-.108.106-.013,5.77-.677.046-.005.038.027,5.551,3.956.005,0,0,0,5.353,4.772-.047-.019,4.953.276,1.315.084.338.027a.47.47,0,0,1,.114.016.5.5,0,0,1-.115.005l-.339-.006-1.316-.043-4.956-.2h-.027l-.021-.018-5.39-4.731.009.007-5.57-3.93.084.022-5.768.694.114-.121a.54.54,0,0,0,.159.44.865.865,0,0,0,.466.2l.954.122-.947.138-2.234.327.114-.126a.9.9,0,0,0,.287.684,2.216,2.216,0,0,0,.7.434,6.079,6.079,0,0,0,1.7.383l0,.27-2.782.27.122-.148a1.229,1.229,0,0,0,.423.816,2.343,2.343,0,0,0,.866.468,3.728,3.728,0,0,0,.539.129c.179.031.366.042.558.064l1.126.116,2.19.225.037,0,.029.021c.6.439,1.185.881,1.732,1.363a4.85,4.85,0,0,1,.395.386l.348.405.673.782.44.511-.6-.3-2.141-1.085.047.014-4.893-.451.135-.129a1.661,1.661,0,0,0,.244.64,2.71,2.71,0,0,0,.447.55,2.8,2.8,0,0,0,1.234.613,16.368,16.368,0,0,0,2.692.475l.038,0,.027.024c1.875,1.688,3.605,3.208,5.173,4.5q.588.484,1.154.909a3.821,3.821,0,0,0,1.161.66,19.877,19.877,0,0,0,2.329.542c1.423.26,2.544.422,3.305.535l.869.129.222.036A.275.275,0,0,1,503.249,331.486Z" transform="translate(-482.07 -314.703)" fill="#eb996e"/><g transform="translate(2.951 3.262)"><path d="M494.4,323.14a5.027,5.027,0,0,1-1-.621c-.6-.411-1.406-.995-2.292-1.653l-.243-.181.087.027c-1.033.042-1.956.065-2.622.069a4.406,4.406,0,0,1-1.074-.047,4.419,4.419,0,0,1,1.066-.139c.663-.053,1.584-.108,2.617-.155l.048,0,.039.029.244.181c.885.658,1.678,1.266,2.243,1.718A5.057,5.057,0,0,1,494.4,323.14Z" transform="translate(-487.257 -320.437)" fill="#eb996e"/></g><g transform="translate(2.186 1.023)"><path d="M493.2,318.85a4.443,4.443,0,0,1-.913-.566c-.547-.378-1.3-.917-2.128-1.533l.1.026-.326.034c-1.1.114-2.106.2-2.833.253a5.081,5.081,0,0,1-1.181.026,5.091,5.091,0,0,1,1.161-.217c.721-.1,1.72-.218,2.824-.332l.327-.034.053-.005.042.032c.828.621,1.558,1.186,2.076,1.6A4.43,4.43,0,0,1,493.2,318.85Z" transform="translate(-485.912 -316.501)" fill="#eb996e"/></g></g><g transform="translate(18.218)"><g transform="translate(0.148)"><path d="M556.18,297.076a13.764,13.764,0,0,0,2.119-9.36l-4.237-24.905c-.481-4.164-1.074-9.85-3.96-12.89-1.984-2.091-4.4-3.914-6.771-3.892l-5.084,14.426,1.911,27.876-25.806,4.619v11.31s19.718-.651,30.689-.953a13.755,13.755,0,0,0,11.139-6.232Z" transform="translate(-514.352 -246.029)" fill="#f59d36"/></g><g transform="translate(0 21.079)"><path d="M556.068,313.049a1.244,1.244,0,0,1-.114.188l-.362.539a14.324,14.324,0,0,1-1.656,1.88,13.746,13.746,0,0,1-8.379,3.685c-7.884.3-18.866.639-31.311,1.038l-.152.005v-.152c0-2.389,0-4.9,0-7.448V308.8l.122-.022,25.81-4.592-.1.131c-.68-6.439-1.24-11.743-1.632-15.453-.186-1.838-.332-3.279-.433-4.277q-.067-.722-.1-1.121c-.022-.254-.023-.385-.023-.385s.026.129.06.381.08.638.139,1.118l.5,4.27c.416,3.706,1.011,9.006,1.734,15.442l.012.111-.11.02-25.8,4.647.122-.145v3.862c0,2.552,0,5.059,0,7.448l-.151-.146,31.306-.939A13.729,13.729,0,0,0,550.6,317.8a14.093,14.093,0,0,0,3.265-2.217,15.66,15.66,0,0,0,1.685-1.835l.382-.522A1.405,1.405,0,0,1,556.068,313.049Z" transform="translate(-514.092 -283.081)" fill="#263238"/></g><g transform="translate(22.816 0.934)"><path d="M563.375,247.674c.024.057-.871.392-2.153,1.215a15.139,15.139,0,0,0-2.1,1.641,15.394,15.394,0,0,0-3.7,5.327,15.168,15.168,0,0,0-.807,2.543c-.325,1.489-.327,2.445-.389,2.441a2.887,2.887,0,0,1-.018-.669,5.645,5.645,0,0,1,.052-.783,9.367,9.367,0,0,1,.149-1.031,13.881,13.881,0,0,1,.76-2.6,14.738,14.738,0,0,1,3.771-5.424,13.938,13.938,0,0,1,2.177-1.619,9.334,9.334,0,0,1,.915-.5,5.72,5.72,0,0,1,.716-.322A2.915,2.915,0,0,1,563.375,247.674Z" transform="translate(-554.198 -247.671)" fill="#263238"/></g></g></g><g transform="translate(64.104 2.506)"><path d="M537.978,238.409a2.014,2.014,0,0,1-.627.431,19.676,19.676,0,0,1-1.913.775c-1.623.615-3.761,1.7-6.2,2.764a18.936,18.936,0,0,1-6.585,1.716,9.874,9.874,0,0,1-2.069-.11,5.165,5.165,0,0,1-.551-.113c-.125-.032-.189-.053-.187-.063a18.234,18.234,0,0,0,2.8.076,20.294,20.294,0,0,0,6.48-1.78c2.425-1.054,4.592-2.118,6.245-2.687.825-.291,1.5-.481,1.938-.683S537.963,238.387,537.978,238.409Z" transform="translate(-519.843 -238.407)" fill="#263238"/></g><g transform="translate(0 25.461)"><path d="M427.234,298.857l-2.562-20.1-17.508.86,1.222,20.177Z" transform="translate(-407.164 -278.756)" fill="#1565c0"/><g transform="translate(12.787 0.678)"><g transform="translate(0.186 0.182)"><path d="M439.447,284.479a1.615,1.615,0,0,1-1.881.03c-.583-.338-1.034-.863-1.591-1.242-1.666-1.133-4.034-.818-5.643-2.029-.225-.169-.448-.448-.331-.7.109-.237.426-.269.686-.267l6.672.05" transform="translate(-429.968 -280.268)" fill="#ffbe9d"/></g><path d="M437.218,280.18a2.67,2.67,0,0,0-.721-.08c-.465-.026-1.137-.052-1.967-.075l-2.918-.063-.844-.012a1.321,1.321,0,0,0-.976.22.562.562,0,0,0-.1.624,1.158,1.158,0,0,0,.342.426,4.352,4.352,0,0,0,.846.5,25.6,25.6,0,0,0,3.472.931,5.018,5.018,0,0,1,1.379.6c.392.257.721.572,1.055.832a2.347,2.347,0,0,0,1.886.632c.492-.1.649-.373.632-.374a1.954,1.954,0,0,1-.653.228,2.276,2.276,0,0,1-1.695-.694c-.312-.262-.632-.592-1.049-.885a5.17,5.17,0,0,0-1.455-.675,29.692,29.692,0,0,1-3.415-.941,4.063,4.063,0,0,1-.766-.451c-.219-.17-.329-.4-.212-.5.112-.121.418-.119.7-.114h.843l2.919-.019c.831-.011,1.5-.026,1.968-.045A2.672,2.672,0,0,0,437.218,280.18Z" transform="translate(-429.641 -279.947)" fill="#eb996e"/></g><g transform="translate(3.776 6.094)"><path d="M425.254,290.144a1.991,1.991,0,0,1-.5.244,12.418,12.418,0,0,1-1.425.5,6.213,6.213,0,0,1-2.247.243,4.258,4.258,0,0,1-1.314-.33,5.542,5.542,0,0,1-1.2-.793,1.091,1.091,0,0,0-.578-.23.8.8,0,0,0-.536.211,4.58,4.58,0,0,0-.742,1.031,1.389,1.389,0,0,1-1.044.7,1.508,1.508,0,0,1-1.034-.37,2.553,2.553,0,0,1-.741-1.34,1.738,1.738,0,0,1-.091-.548,2.348,2.348,0,0,1,.2.514,2.635,2.635,0,0,0,.762,1.211,1.306,1.306,0,0,0,.884.288,1.146,1.146,0,0,0,.837-.61,4.545,4.545,0,0,1,.782-1.1,1.08,1.08,0,0,1,.731-.283,1.357,1.357,0,0,1,.739.28,5.524,5.524,0,0,0,1.146.771,4.076,4.076,0,0,0,1.224.323,6.381,6.381,0,0,0,2.167-.174C424.5,290.382,425.237,290.092,425.254,290.144Z" transform="translate(-413.801 -289.467)" fill="#fff"/></g><g transform="translate(4.218 9.741)"><path d="M426.413,295.917c0,.082-2.643.265-5.91.408a59.175,59.175,0,0,1-5.924.112c0-.081,2.643-.265,5.911-.408S426.41,295.835,426.413,295.917Z" transform="translate(-414.579 -295.878)" fill="#fff"/></g><g transform="translate(5.581 12.657)"><path d="M426.232,301.016a6.1,6.1,0,0,1-1.331.35c-.831.175-1.984.388-3.263.585s-2.444.341-3.288.423a6.153,6.153,0,0,1-1.375.067,6.563,6.563,0,0,1,1.348-.275l3.27-.508,3.271-.5A6.637,6.637,0,0,1,426.232,301.016Z" transform="translate(-416.975 -301.003)" fill="#fff"/></g></g><g transform="translate(55.315 31.317)"><path d="M533.268,290.206a1.387,1.387,0,0,1-.242.221l-.731.584c-.642.5-1.575,1.217-2.8,2.007a16.812,16.812,0,0,1-4.647,2.145,9.777,9.777,0,0,1-6.222-.211,26.25,26.25,0,0,1-5.278-3.374,11.71,11.71,0,0,0-4.509-2.187,5.829,5.829,0,0,0-3.338.167,9.079,9.079,0,0,0-1.107.58,3.34,3.34,0,0,1,1.063-.687,5.768,5.768,0,0,1,3.424-.266,11.683,11.683,0,0,1,4.626,2.17,26.922,26.922,0,0,0,5.228,3.32,9.6,9.6,0,0,0,6.043.223,17.162,17.162,0,0,0,4.605-2.058c1.231-.76,2.181-1.452,2.843-1.921l.764-.539A1.41,1.41,0,0,1,533.268,290.206Z" transform="translate(-504.394 -289.049)" fill="#fafafa"/></g><g transform="translate(85.05 20.331)"><path d="M572.015,270.634c-.015.053-.876-.207-2.3-.416a19.785,19.785,0,0,0-2.516-.2,19.4,19.4,0,0,0-6.092.88,19.827,19.827,0,0,0-2.356.906c-1.307.6-2.058,1.1-2.087,1.05a2.561,2.561,0,0,1,.505-.379,13.117,13.117,0,0,1,1.492-.86,17.264,17.264,0,0,1,2.364-.977,18.037,18.037,0,0,1,6.181-.893,17.244,17.244,0,0,1,2.544.267,13.037,13.037,0,0,1,1.674.4A2.613,2.613,0,0,1,572.015,270.634Z" transform="translate(-556.662 -269.739)" fill="#fafafa"/></g><g transform="translate(86.416 41.716)"><path d="M576.238,307.5a6.073,6.073,0,0,0-2.637.283,15.384,15.384,0,0,0-2.629,1.246,12.369,12.369,0,0,1-3.339,1.4,9.54,9.54,0,0,1-6.431-.89,8.753,8.753,0,0,1-1.639-1.137,3.05,3.05,0,0,1-.5-.531,14.234,14.234,0,0,0,2.235,1.481,9.7,9.7,0,0,0,6.271.787,12.648,12.648,0,0,0,3.273-1.355,14.3,14.3,0,0,1,2.7-1.205,5.472,5.472,0,0,1,1.984-.238A1.968,1.968,0,0,1,576.238,307.5Z" transform="translate(-559.062 -307.328)" fill="#fafafa"/></g><g transform="translate(78.066 51.144)"><path d="M546.622,337.286c-.05-.022.325-.749.656-2.007a11.863,11.863,0,0,0-1.619-9.691c-.722-1.083-1.312-1.648-1.273-1.685a1.93,1.93,0,0,1,.436.373,9.627,9.627,0,0,1,1.01,1.193,11.259,11.259,0,0,1,1.648,9.867,9.642,9.642,0,0,1-.567,1.456A1.918,1.918,0,0,1,546.622,337.286Z" transform="translate(-544.385 -323.901)" fill="#fafafa"/></g><g transform="translate(56.455 17.257)"><path d="M508.411,265.583c-.078.036-.335-.451-.9-.758-.555-.324-1.1-.293-1.113-.378-.032-.075.6-.256,1.26.12S508.492,265.572,508.411,265.583Z" transform="translate(-506.398 -264.336)" fill="#fafafa"/></g><g transform="translate(61.723 6.196)"><path d="M542.716,245c0,.034-.428-.055-1.19.017a6.958,6.958,0,0,0-3,1.114,12.515,12.515,0,0,0-1.76,1.372c-.587.548-1.173,1.185-1.786,1.859a15.671,15.671,0,0,1-4.529,3.853,11.777,11.777,0,0,1-5.848,1.045,20.072,20.072,0,0,1-4.77-.939c-1.32-.414-2.36-.824-3.078-1.108l-.821-.339a.156.156,0,1,1,.021-.056l.841.287c.729.25,1.778.63,3.1,1.016a20.813,20.813,0,0,0,4.725.867,11.684,11.684,0,0,0,5.7-1.038,15.751,15.751,0,0,0,4.458-3.772c.62-.669,1.215-1.3,1.82-1.855a12.3,12.3,0,0,1,1.815-1.369,6.768,6.768,0,0,1,3.1-1.051,4.194,4.194,0,0,1,.894.034A1.262,1.262,0,0,1,542.716,245Z" transform="translate(-515.658 -244.893)" fill="#fafafa"/></g><g transform="translate(64.255 1.081)"><path d="M537.067,235.9a3.089,3.089,0,0,1-.616.306c-.4.181-1,.42-1.737.693a43.414,43.414,0,0,1-12.049,2.537c-.788.048-1.428.069-1.869.065a3.045,3.045,0,0,1-.687-.031,3.041,3.041,0,0,1,.682-.084c.44-.032,1.075-.084,1.857-.159a53.809,53.809,0,0,0,12-2.525c.746-.247,1.349-.455,1.764-.6A3.083,3.083,0,0,1,537.067,235.9Z" transform="translate(-520.108 -235.902)" fill="#fafafa"/></g><g transform="translate(34.918 34.68)"><path d="M468.76,310.2c-.01,0-.031-.051-.064-.156a2.745,2.745,0,0,1-.105-.47,5.1,5.1,0,0,1,.064-1.771,9.489,9.489,0,0,1,.9-2.465c.448-.884,1.044-1.785,1.6-2.759A10.707,10.707,0,0,0,472.4,299.7a5.956,5.956,0,0,0,.051-2.529,8.467,8.467,0,0,0-.84-2.21,1.935,1.935,0,0,1,.388.52,5.661,5.661,0,0,1,.657,1.646,5.926,5.926,0,0,1,.01,2.633,10.433,10.433,0,0,1-1.244,2.966c-.567.985-1.167,1.879-1.619,2.737a9.947,9.947,0,0,0-.942,2.384A6.778,6.778,0,0,0,468.76,310.2Z" transform="translate(-468.542 -294.96)" fill="#fafafa"/></g><g transform="translate(58.258 69.718)"><path d="M550.64,358.534a2.421,2.421,0,0,1-.39-.2,11.324,11.324,0,0,0-1.115-.562,12.732,12.732,0,0,0-4.453-.979,21.726,21.726,0,0,0-6.724.849c-2.477.674-5.1,1.755-7.914,2.724a26.329,26.329,0,0,1-8.219,1.686,19.583,19.583,0,0,1-6.761-1.107,18.723,18.723,0,0,1-4.143-2.051c-.454-.3-.8-.554-1.019-.737a2.464,2.464,0,0,1-.335-.283c.021-.027.491.352,1.415.923a19.9,19.9,0,0,0,10.837,2.983,26.536,26.536,0,0,0,8.129-1.694c2.8-.965,5.434-2.041,7.938-2.708a21.445,21.445,0,0,1,6.807-.794,12.3,12.3,0,0,1,4.489,1.083,8.869,8.869,0,0,1,1.1.616A2.454,2.454,0,0,1,550.64,358.534Z" transform="translate(-509.568 -356.549)" fill="#fafafa"/></g><g transform="translate(56.782 89.386)"><path d="M553.541,394.334a8.024,8.024,0,0,1-1.556,1.128A12.8,12.8,0,0,1,547,397.038a18.344,18.344,0,0,1-3.63.044,24.708,24.708,0,0,1-4.1-.745c-2.844-.734-5.825-1.966-9-3.075a28.315,28.315,0,0,0-9.225-1.867,15.343,15.343,0,0,0-4.065.542c-1.246.339-2.394.741-3.481.982a7.065,7.065,0,0,1-5.15-.445,3.718,3.718,0,0,1-1.1-.912,2.292,2.292,0,0,1-.279-.413c.013-.009.107.135.324.374a3.914,3.914,0,0,0,1.112.85,7.036,7.036,0,0,0,5.047.342c1.069-.251,2.206-.662,3.463-1.015a15.407,15.407,0,0,1,4.129-.578,28.154,28.154,0,0,1,9.323,1.86c3.188,1.114,6.155,2.348,8.972,3.091a24.994,24.994,0,0,0,4.049.764,18.473,18.473,0,0,0,3.584-.007,13.116,13.116,0,0,0,4.952-1.468,7.731,7.731,0,0,0,.7-.414,5.284,5.284,0,0,0,.5-.334A3.2,3.2,0,0,1,553.541,394.334Z" transform="translate(-506.974 -391.121)" fill="#fafafa"/></g><g transform="translate(54.843 106.612)"><path d="M554.663,424.152a.491.491,0,0,1-.123-.061l-.344-.2a13.96,13.96,0,0,0-1.349-.72,16.685,16.685,0,0,0-5.409-1.426,27.857,27.857,0,0,0-8.291.55c-3.086.616-6.4,1.656-9.939,2.513a42.387,42.387,0,0,1-5.242.952,35.567,35.567,0,0,1-13.252-1.068,33.337,33.337,0,0,1-5.309-1.946c-.609-.274-1.065-.523-1.376-.687l-.35-.192a.069.069,0,1,1,.014-.027l.364.166c.319.147.781.378,1.4.635a36.2,36.2,0,0,0,5.316,1.849,36.1,36.1,0,0,0,13.165.982,42.975,42.975,0,0,0,5.2-.952c3.528-.853,6.847-1.888,9.954-2.492a27.515,27.515,0,0,1,8.366-.49,16.171,16.171,0,0,1,5.436,1.53A10.228,10.228,0,0,1,554.663,424.152Z" transform="translate(-503.565 -421.401)" fill="#fafafa"/></g><g transform="translate(57.357 48.317)"><path d="M526.8,321.426c-.027.055-.989-.481-2.654-1.059a21.109,21.109,0,0,0-2.987-.786,21.01,21.01,0,0,0-7.525-.027,21.136,21.136,0,0,0-2.992.765c-1.67.565-2.635,1.095-2.662,1.04a3.867,3.867,0,0,1,.666-.39,7.848,7.848,0,0,1,.815-.395c.325-.138.689-.315,1.112-.453a19.116,19.116,0,0,1,3.012-.836,19.948,19.948,0,0,1,7.626.028,19.132,19.132,0,0,1,3.007.857c.422.142.784.32,1.108.461a8,8,0,0,1,.812.4A3.873,3.873,0,0,1,526.8,321.426Z" transform="translate(-507.984 -318.931)" fill="#fafafa"/></g><g transform="translate(55.599 123.688)"><path d="M555.4,454.787a.436.436,0,0,1-.122-.055l-.342-.186c-.147-.087-.335-.185-.56-.294s-.481-.241-.78-.367a18.546,18.546,0,0,0-5.283-1.4,32.139,32.139,0,0,0-8.119.164c-3.047.377-6.36,1.08-9.9,1.493a58.55,58.55,0,0,1-18.136-.733,54.413,54.413,0,0,1-5.351-1.343c-.625-.183-1.1-.359-1.425-.466l-.367-.131a.436.436,0,0,1-.122-.055.471.471,0,0,1,.131.026l.376.1c.331.089.811.247,1.439.412,1.251.353,3.076.816,5.357,1.248a60.4,60.4,0,0,0,18.063.645c3.518-.411,6.834-1.106,9.9-1.47a31.567,31.567,0,0,1,8.18-.1,17.888,17.888,0,0,1,5.3,1.5c.3.135.555.27.773.394s.406.224.548.32l.328.212A.464.464,0,0,1,555.4,454.787Z" transform="translate(-504.894 -451.415)" fill="#fafafa"/></g></g></g><g transform="translate(116.343 98.792)"><g transform="translate(0 0)"><g transform="translate(1.541 133.175)"><path d="M165.336,422.561l1.146-51.974-40.38-3.366s-2.15,20.8-2.1,23.586c.024,1.326,6.089,14.266,6.089,14.266l-.064,17.488Z" transform="translate(-124.001 -367.221)" fill="#263238"/><g transform="translate(11.756 9.554)"><path d="M160.531,384.015a4.2,4.2,0,0,1-.337.752c-.237.474-.6,1.152-1.079,1.968a22.337,22.337,0,0,1-4.688,5.727,13.345,13.345,0,0,1-6.7,3.072,9.416,9.416,0,0,1-2.253.037,5.514,5.514,0,0,1-.6-.093c-.138-.027-.208-.046-.207-.056a14.948,14.948,0,0,0,3.035-.1,13.734,13.734,0,0,0,6.537-3.092,23.989,23.989,0,0,0,4.7-5.608c.5-.8.889-1.458,1.156-1.914A4.6,4.6,0,0,1,160.531,384.015Z" transform="translate(-144.665 -384.014)" fill="#455a64"/></g></g><g transform="translate(8.281)"><g transform="translate(0 9.341)"><g transform="translate(4.639)"><path d="M145.2,197.075l18.231,4.746.618-15.879s7.7-.863,8.118-8.5-.156-25.255-.156-25.255h0a26.6,26.6,0,0,0-26.843,2.218l-1.17.824Z" transform="translate(-144.002 -149.552)" fill="#b78876"/><g transform="translate(10.222 33.022)"><path d="M171.816,210.855a17.793,17.793,0,0,1-9.847-3.258s2.121,5.6,9.78,5.24Z" transform="translate(-161.969 -207.597)" fill="#aa6550"/></g></g><g transform="translate(0 13.314)"><path d="M141.091,173.272c-.128-.062-5.187-1.778-5.243,3.456s5.211,4.211,5.221,4.061S141.091,173.272,141.091,173.272Z" transform="translate(-135.847 -172.955)" fill="#b78876"/><g transform="translate(1.328 1.683)"><path d="M140.5,180.065c-.023-.017-.092.063-.247.131a.91.91,0,0,1-.682.007,2.256,2.256,0,0,1-1.022-2.036,3.023,3.023,0,0,1,.269-1.3,1.054,1.054,0,0,1,.693-.692.464.464,0,0,1,.535.255c.069.147.035.251.062.261s.113-.086.073-.3a.58.58,0,0,0-.2-.331.689.689,0,0,0-.5-.139,1.283,1.283,0,0,0-.961.8,3.1,3.1,0,0,0-.332,1.456,2.368,2.368,0,0,0,1.306,2.274.979.979,0,0,0,.836-.13C140.486,180.191,140.515,180.074,140.5,180.065Z" transform="translate(-138.181 -175.913)" fill="#aa6550"/></g></g><g transform="translate(14.304 7.478)"><g transform="translate(0.571 4.332)"><g transform="translate(11.559 0.273)"><g transform="translate(1.845 1.292)"><path d="M187.738,174.1a1.093,1.093,0,0,1-1.1,1.056,1.045,1.045,0,0,1-1.083-1.033,1.092,1.092,0,0,1,1.1-1.057A1.046,1.046,0,0,1,187.738,174.1Z" transform="translate(-185.555 -173.062)" fill="#263238"/></g><path d="M186.625,172.033c-.141.137-.942-.511-2.117-.558-1.173-.064-2.061.5-2.182.354-.06-.067.089-.317.476-.575a3,3,0,0,1,1.755-.46,2.88,2.88,0,0,1,1.678.622C186.584,171.709,186.695,171.972,186.625,172.033Z" transform="translate(-182.313 -170.791)" fill="#263238"/></g><g transform="translate(1.879 1.484)"><path d="M167.481,173.953a1.093,1.093,0,0,1-1.1,1.056,1.046,1.046,0,0,1-1.084-1.033,1.094,1.094,0,0,1,1.1-1.058A1.047,1.047,0,0,1,167.481,173.953Z" transform="translate(-165.298 -172.919)" fill="#263238"/></g><path d="M166.308,171.552c-.142.137-.944-.511-2.118-.558-1.173-.064-2.061.5-2.182.354-.06-.066.088-.317.476-.575a3,3,0,0,1,1.755-.46,2.88,2.88,0,0,1,1.678.622C166.265,171.229,166.376,171.492,166.308,171.552Z" transform="translate(-161.994 -170.311)" fill="#263238"/><g transform="translate(8.071 0.324)"><path d="M176.316,180.693a7.771,7.771,0,0,1,1.923-.263c.3-.018.588-.066.647-.269a1.529,1.529,0,0,0-.163-.9l-.79-2.322a39.223,39.223,0,0,1-1.737-6.061,39.42,39.42,0,0,1,2.221,5.907c.262.815.514,1.591.752,2.335a1.737,1.737,0,0,1,.105,1.184.752.752,0,0,1-.512.418,2.016,2.016,0,0,1-.513.049A7.628,7.628,0,0,1,176.316,180.693Z" transform="translate(-176.182 -170.88)" fill="#263238"/></g></g><path d="M166.375,163.678c-.13.315-1.3.113-2.682.22-1.388.08-2.517.436-2.688.142-.076-.141.131-.433.594-.723a4.676,4.676,0,0,1,4.09-.275C166.187,163.267,166.431,163.528,166.375,163.678Z" transform="translate(-160.99 -162.696)" fill="#263238"/><g transform="translate(12.164 1.121)"><path d="M186.364,165.974c-.218.258-1.016-.054-1.988-.108-.971-.089-1.805.1-1.983-.184-.077-.139.064-.4.435-.638a2.883,2.883,0,0,1,3.2.236C186.359,165.568,186.461,165.847,186.364,165.974Z" transform="translate(-182.372 -164.667)" fill="#263238"/></g></g></g><g transform="translate(2.012)"><path d="M173.956,140.436a2.824,2.824,0,0,0-.935-2.566,2,2,0,0,0-2.6.083,2.338,2.338,0,0,0-1.888-2.918c-1.244-.133-2.347.764-3.566,1.043a5.68,5.68,0,0,1-3.552-.564c-1.112-.5-2.143-1.178-3.271-1.645a9.786,9.786,0,0,0-12.75,5.208,4.344,4.344,0,0,0-4.678,1.546,7.128,7.128,0,0,0-1.3,4.97,15.952,15.952,0,0,0,.728,3.468c0,.1-.018.194-.021.293-.1,4.208.164,9.165,1.957,9.269,3.124.181,2.631-5.741,2.631-5.741,3.9-1.319,2.716-7.128,3.713-7.959s3.09-2.772,10.947,1.677a15.579,15.579,0,0,0,9.487,1.438c.067-.012.135-.019.2-.032L169.1,148c.025-.005.043-.018.067-.024a7.237,7.237,0,0,0,2.1-.786,4.077,4.077,0,0,0,1.778-1.815,2.232,2.232,0,0,0-.336-2.412A4.9,4.9,0,0,0,173.956,140.436Z" transform="translate(-139.385 -133.133)" fill="#263238"/></g><g transform="translate(20.029 33.494)"><path d="M174.721,193.448a5.257,5.257,0,0,1-.738,1.306,1.774,1.774,0,0,1-1.292.678,1.593,1.593,0,0,1-1.315-.791,2.548,2.548,0,0,1-.31-1.547c.043-.481.288-1.049.77-1.085a1.211,1.211,0,0,1,.577.154l2.479,1.13" transform="translate(-171.053 -192.007)" fill="#aa6550"/></g><g transform="translate(19.687 33.226)"><path d="M173.366,195.277a3.65,3.65,0,0,1-1.338-.224,1.922,1.922,0,0,1-.977-.967,2.027,2.027,0,0,1,.038-1.651,1.782,1.782,0,0,1,.236-.368c.1-.1.085-.1.194-.076s.264.117.4.176l.407.187c.531.241,1.011.453,1.417.625a4.579,4.579,0,0,0,1.356.472,4.618,4.618,0,0,0-1.218-.759c-.389-.209-.855-.45-1.376-.712l-.4-.2a4.425,4.425,0,0,0-.452-.209.592.592,0,0,0-.375-.005.7.7,0,0,0-.287.208,2.168,2.168,0,0,0-.3.467,2.365,2.365,0,0,0-.009,2.021,2.159,2.159,0,0,0,1.236,1.089,2.039,2.039,0,0,0,1.091.089C173.254,195.382,173.375,195.3,173.366,195.277Z" transform="translate(-170.452 -191.536)" fill="#263238"/></g><g transform="translate(10.521 6.826)"><path d="M154.416,149.362a4.581,4.581,0,0,1,.036-.926,3.609,3.609,0,0,1,1.287-2.1,4.864,4.864,0,0,1,3.49-.99,14.989,14.989,0,0,1,4.43,1.191,24.126,24.126,0,0,0,2.286.77,12.062,12.062,0,0,0,6.012.033,11.691,11.691,0,0,0,2.4-.9,6.931,6.931,0,0,0,.608-.34.994.994,0,0,0,.2-.137c-.012-.02-.3.151-.847.4a12.989,12.989,0,0,1-2.4.823,12.371,12.371,0,0,1-3.735.283A12.14,12.14,0,0,1,166,147.1c-.743-.2-1.495-.478-2.264-.769a14.835,14.835,0,0,0-4.5-1.187,4.985,4.985,0,0,0-3.6,1.076,3.623,3.623,0,0,0-1.271,2.2A2.107,2.107,0,0,0,154.416,149.362Z" transform="translate(-154.341 -145.132)" fill="#455a64"/></g><g transform="translate(4.098 8.94)"><path d="M143.053,163.631c.007,0,.044-.05.108-.156s.153-.266.259-.477a9.874,9.874,0,0,0,.69-1.875,10.5,10.5,0,0,0,.323-2.948,26.319,26.319,0,0,0-.531-3.581,6.964,6.964,0,0,1,.143-3.514,3.562,3.562,0,0,1,.789-1.3,2.679,2.679,0,0,1,1.13-.674,2.51,2.51,0,0,1,1.885.129,3.645,3.645,0,0,1,.569.436,1.462,1.462,0,0,0-.526-.513,2.538,2.538,0,0,0-1.973-.205,2.811,2.811,0,0,0-1.217.7,3.7,3.7,0,0,0-.852,1.361,7.045,7.045,0,0,0-.17,3.622,28.2,28.2,0,0,1,.546,3.553,10.829,10.829,0,0,1-.27,2.9,11.43,11.43,0,0,1-.616,1.876C143.156,163.392,143.036,163.622,143.053,163.631Z" transform="translate(-143.051 -148.847)" fill="#455a64"/></g><g transform="translate(9.816 2.603)"><path d="M153.174,145.513a1.583,1.583,0,0,0,.01-.307c0-.224,0-.515,0-.878a10.166,10.166,0,0,1,.489-3.16,5.618,5.618,0,0,1,1.1-1.885,3.951,3.951,0,0,1,2.107-1.266,5.178,5.178,0,0,1,2.731.229A12.649,12.649,0,0,1,162.3,139.6a22.662,22.662,0,0,0,2.653,1.512,8.3,8.3,0,0,0,2.772.681,8.848,8.848,0,0,0,2.574-.205,9.9,9.9,0,0,0,2.114-.767,8.494,8.494,0,0,0,2.549-1.995,5.359,5.359,0,0,0,.53-.705,1.571,1.571,0,0,0,.159-.263,1.586,1.586,0,0,0-.2.237,6.661,6.661,0,0,1-.558.674,8.815,8.815,0,0,1-2.555,1.91,9.924,9.924,0,0,1-2.083.727,8.762,8.762,0,0,1-2.519.181,8.163,8.163,0,0,1-2.7-.675,22.859,22.859,0,0,1-2.625-1.5,12.759,12.759,0,0,0-2.733-1.375,5.366,5.366,0,0,0-2.846-.222,4.129,4.129,0,0,0-2.2,1.345,5.724,5.724,0,0,0-1.115,1.958,9.71,9.71,0,0,0-.426,3.212c.006.383.023.679.038.88A1.592,1.592,0,0,0,153.174,145.513Z" transform="translate(-153.101 -137.707)" fill="#455a64"/></g></g><g transform="translate(0 35.255)"><g transform="translate(19.981)"><g transform="translate(29.918)"><path d="M211.716,237.421l23.012-25.838,3.266-4.565s7.96-9.85,8.6-10.894c.745-1.206,1.5-1.137,1.93-.832.664.475.626,1.631.019,2.686-.21.365-3.751,5.982-3.751,5.982a15.6,15.6,0,0,1,2.037-.847c1.49-.539,3.824.071,5.8,1.381s2.408,1.852,1.935,2.641a1.173,1.173,0,0,1-.865.515,3.346,3.346,0,0,1-1.894-.451c-3.9-2.327-4.837-.784-4.837-.784l-.521.58s2.92-.168,4.114,1.389a2.228,2.228,0,0,1,.385.769,2.966,2.966,0,0,1-.144,5.115,1.233,1.233,0,0,1-1.4.005,1.582,1.582,0,0,1-.356-.7,2.448,2.448,0,0,0-.155-.39l-1.431,1.505s-3.4,3.21-4.716,4.774l-20.319,25.387c-2.64,3.832-6.637,7-10.422,4.3h0C207.881,246.2,208.221,241.082,211.716,237.421Z" transform="translate(-209.002 -195.103)" fill="#b78876"/><g transform="translate(26.892 12.301)"><g transform="translate(0.001 0.042)"><path d="M256.274,221.122a1.729,1.729,0,0,0,2.01.145c.643-.326,1.158-.86,1.777-1.232,1.85-1.111,4.362-.631,6.157-1.829.25-.167.506-.452.4-.732-.1-.259-.439-.313-.717-.326l-7.137-.35" transform="translate(-256.274 -216.798)" fill="#b78876"/></g><path d="M258.757,216.767a2.868,2.868,0,0,1,.775-.042c.5,0,1.219.013,2.108.039l3.124.109.9.037a1.419,1.419,0,0,1,1.03.294.6.6,0,0,1,.068.673,1.248,1.248,0,0,1-.391.435,4.664,4.664,0,0,1-.935.485,27.39,27.39,0,0,1-3.768.786,5.4,5.4,0,0,0-1.511.558c-.435.251-.806.569-1.179.826a2.519,2.519,0,0,1-2.055.562c-.519-.141-.671-.439-.653-.439a2.091,2.091,0,0,0,.684.283,2.436,2.436,0,0,0,1.854-.639c.349-.262.711-.6,1.175-.883a5.537,5.537,0,0,1,1.6-.633,31.95,31.95,0,0,0,3.708-.8,4.4,4.4,0,0,0,.847-.435c.244-.169.376-.412.257-.518-.112-.136-.44-.152-.746-.164l-.9-.051-3.12-.2c-.887-.062-1.606-.119-2.1-.168A2.876,2.876,0,0,1,258.757,216.767Z" transform="translate(-256.271 -216.725)" fill="#aa6550"/></g><g transform="translate(37.442 10.638)"><path d="M274.819,215.057a2.939,2.939,0,0,1,1.043-.857,2.276,2.276,0,0,1,1.422-.1,5.846,5.846,0,0,1,1.661.725,9.326,9.326,0,0,0,1.679.848,3,3,0,0,0,1.552.142,1.167,1.167,0,0,0,.835-.638.679.679,0,0,0,.085-.375c-.024-.007-.056.127-.175.327a1.1,1.1,0,0,1-.782.5,2.964,2.964,0,0,1-1.435-.189,10.215,10.215,0,0,1-1.627-.846,5.658,5.658,0,0,0-1.744-.734,2.384,2.384,0,0,0-1.55.173,2.117,2.117,0,0,0-.8.68C274.845,214.917,274.805,215.051,274.819,215.057Z" transform="translate(-274.817 -213.803)" fill="#aa6550"/></g><g transform="translate(35.06 2.464)"><path d="M275.343,199.435a7.465,7.465,0,0,0-.711,1.112l-1.644,2.719-1.685,2.695a7.465,7.465,0,0,0-.671,1.137,5.887,5.887,0,0,0,.825-1.033c.476-.663,1.1-1.6,1.755-2.661s1.206-2.042,1.582-2.767A5.92,5.92,0,0,0,275.343,199.435Z" transform="translate(-270.63 -199.434)" fill="#aa6550"/></g><g transform="translate(37.931 13.925)"><path d="M275.675,219.609a1.574,1.574,0,0,0,.407.076,1.224,1.224,0,0,1,.893.5.656.656,0,0,1,0,.65,3.494,3.494,0,0,1-.5.7,1.48,1.48,0,0,0-.413.966,1.261,1.261,0,0,0,.583.979,1.431,1.431,0,0,0,1.12.164,1.79,1.79,0,0,0,.9-.527,5.8,5.8,0,0,0,.872-1.458,3.413,3.413,0,0,0,.288-1.107.764.764,0,0,0-.06-.416c-.023,0,0,.15-.042.406a4.045,4.045,0,0,1-.356,1.041,6.211,6.211,0,0,1-.882,1.371,1.415,1.415,0,0,1-1.7.3,1.012,1.012,0,0,1-.469-.769,1.266,1.266,0,0,1,.346-.806,3.493,3.493,0,0,0,.515-.76.853.853,0,0,0-.044-.836,1.281,1.281,0,0,0-1.039-.5A1.083,1.083,0,0,0,275.675,219.609Z" transform="translate(-275.675 -219.58)" fill="#aa6550"/></g><g transform="translate(39.846 14.192)"><path d="M279.226,223.61c-.009-.009-.114.093-.166.339a1.148,1.148,0,0,0,.3.985,1.531,1.531,0,0,0,1.472.383,2.5,2.5,0,0,0,1.471-1.143,3.032,3.032,0,0,0,.451-1.806,2.891,2.891,0,0,0-.507-1.431,2.736,2.736,0,0,0-.719-.721c-.2-.133-.327-.177-.335-.164a4.766,4.766,0,0,1,.9.986,2.853,2.853,0,0,1,.421,1.344,2.892,2.892,0,0,1-.432,1.652,2.33,2.33,0,0,1-1.307,1.048,1.362,1.362,0,0,1-1.281-.28,1.092,1.092,0,0,1-.327-.841C279.178,223.737,279.247,223.621,279.226,223.61Z" transform="translate(-279.042 -220.05)" fill="#aa6550"/></g><g transform="translate(31.453 15.043)"><path d="M266.644,225.621c.014-.019-.164-.186-.544-.326a2.489,2.489,0,0,0-1.615-.016l.155.172a7.463,7.463,0,0,0,.341-.829,5.664,5.664,0,0,0,.295-3.076,14.329,14.329,0,0,1-.544,2.991c-.1.288-.208.56-.32.807l-.124.273.279-.1a2.607,2.607,0,0,1,1.487-.07C266.423,225.536,266.627,225.652,266.644,225.621Z" transform="translate(-264.289 -221.546)" fill="#aa6550"/></g><g transform="translate(39.819 9.579)"><path d="M279.038,211.94c-.069-.006-.1.533.262,1.052s.877.68.9.613-.369-.306-.679-.763S279.114,211.933,279.038,211.94Z" transform="translate(-278.994 -211.94)" fill="#aa6550"/></g></g><g transform="translate(0 18.752)"><path d="M166.133,228.284l21.354,21.123,15.633-16.085,2.977-1.3,3.937-3.955,9.11,10.264-19.3,25.234a18.065,18.065,0,0,1-10.016,6.563h0a18.069,18.069,0,0,1-16.985-4.636l-16.429-16.1" transform="translate(-156.414 -228.064)" fill="#2ec49f"/></g><g transform="translate(31.068 40.094)"><path d="M213.087,277.847a14.558,14.558,0,0,1-.048-1.84,31.234,31.234,0,0,0-.347-4.4,25.976,25.976,0,0,0-1.079-4.279,16.813,16.813,0,0,1-.585-1.744,1.621,1.621,0,0,1,.245.433c.142.286.327.709.537,1.24a20.864,20.864,0,0,1,1.175,4.3,24.029,24.029,0,0,1,.263,4.452c-.021.571-.048,1.031-.083,1.348A1.627,1.627,0,0,1,213.087,277.847Z" transform="translate(-211.024 -265.578)" fill="#263238"/></g><g transform="translate(16.224 25.899)" opacity="0.3"><path d="M184.931,240.627c3.377,3.224,4.218,7.4,6.1,11.671,2.218,5.031,6.212,9.92,7.749,15.2a7.9,7.9,0,0,1,.06,4.846c-.558,1.545-2.179,3.4-3.817,3.514l-3.435-.9Z" transform="translate(-184.931 -240.627)"/></g><g transform="translate(49.816 23.682)"><path d="M252.564,247.642c-.064.051-2.038-2.351-4.408-5.364s-4.24-5.5-4.176-5.547,2.038,2.351,4.409,5.364S252.628,247.591,252.564,247.642Z" transform="translate(-243.978 -236.73)" fill="#263238"/></g></g><g transform="translate(63.423 71.135)"><path d="M239.007,325.987l-6.232,18.987,16.454-7.465,5.337-17.368Z" transform="translate(-232.775 -320.141)" fill="#455a64"/></g><g transform="translate(0 7.958)"><path d="M135.006,209.092,132.6,214.92a72.632,72.632,0,0,1-6.611,11.167c-3.79,4.926-4.695,20.863-4.695,20.863l3.6,48.89-1.231,2.387c-.562,1.09-.271,5.071.953,5.13l40.523,1.882c.979.048,1.629-3.382,1.575-4.361l-3.264-59.054-6.569-16.113-2.112-3.16-.049-3.977-14.1-4.365a8.93,8.93,0,0,1-5.612-5.118Z" transform="translate(-121.292 -209.092)" fill="#2ec49f"/></g><g transform="translate(4.362 79.381)" opacity="0.3"><path d="M128.96,338.471c6.156,3.924,12.368,7.877,19.207,10.431s14.57,3.532,21.6,1.563l-.223-5.084L130.82,334.636Z" transform="translate(-128.96 -334.636)"/></g><g transform="translate(1.358 26.273)"><path d="M137.793,241.3s-11.089-.957-13.378,12.887,1.4,43.879,2.468,44.13c0,0,19.829,8.464,40.46,10.477l14.478-2.655L180.1,292.378l-10.654.563s-.469-2.66-4.482-3.78c-5.789-1.616-17.437-4.3-17.437-4.3s.519-13.807.629-17.854,1.513-21.636-7.734-24.927" transform="translate(-123.679 -241.284)" fill="#2ec49f"/></g><g transform="translate(35.585 24.578)"><path d="M183.843,238.3a2.62,2.62,0,0,1,.2.412l.527,1.206,1.888,4.455L189.225,251q.388.936.8,1.916a10.5,10.5,0,0,1,.683,2.077,13.281,13.281,0,0,1,.233,2.249q.063,1.136.127,2.3c.362,6.224.693,11.86.851,15.944.081,2.042.127,3.7.142,4.837q0,.824.005,1.316a2.675,2.675,0,0,1-.019.459,2.669,2.669,0,0,1-.04-.458q-.022-.492-.061-1.314c-.057-1.171-.137-2.814-.235-4.831-.242-4.1-.572-9.725-.938-15.936q-.063-1.167-.126-2.305a13.084,13.084,0,0,0-.223-2.205,10.248,10.248,0,0,0-.661-2.028l-.786-1.919-2.706-6.646-1.8-4.492-.476-1.227A2.657,2.657,0,0,1,183.843,238.3Z" transform="translate(-183.842 -238.305)" fill="#263238"/></g><g transform="translate(11.307 13.515)"><path d="M163.2,222.758a3.148,3.148,0,0,1-.122.588c-.1.379-.252.931-.484,1.622a28.561,28.561,0,0,1-2.508,5.451l-.079.132-.119-.1a23.253,23.253,0,0,0-6.09-3.4c-1.952-.8-3.853-1.489-5.52-2.276a20.849,20.849,0,0,1-4.191-2.514,11.715,11.715,0,0,1-2.294-2.366,6.734,6.734,0,0,1-.482-.756,1.238,1.238,0,0,1-.141-.279c.03-.019.234.361.715.965a12.655,12.655,0,0,0,2.33,2.27,21.632,21.632,0,0,0,4.177,2.432c1.658.766,3.557,1.443,5.518,2.249a22.779,22.779,0,0,1,6.146,3.474l-.2.033a31.264,31.264,0,0,0,2.586-5.367c.251-.679.43-1.222.551-1.593A3.425,3.425,0,0,1,163.2,222.758Z" transform="translate(-141.166 -218.859)" fill="#263238"/></g><g transform="translate(1.253 26.26)"><path d="M140.34,242.071s.262.1.766.3c.246.114.542.282.893.477a9.494,9.494,0,0,1,1.117.839,11.154,11.154,0,0,1,2.39,3.063,20.19,20.19,0,0,1,1.8,4.97,53.449,53.449,0,0,1,.9,14.324c-.189,5.572-.4,11.884-.64,18.811l-.093-.122c3.532.819,7.266,1.7,11.161,2.665,1.947.483,3.935.983,5.952,1.532a7.518,7.518,0,0,1,4.905,3.943l-.133-.081,10.654-.567.133-.007.016.133,1.726,13.758.018.138-.137.025-13.47,2.471-1.007.185-.021,0-.02,0c-3.713-.4-7.365-.93-10.93-1.629s-7.048-1.513-10.434-2.439a165.692,165.692,0,0,1-19.135-6.43l.022.007a.451.451,0,0,1-.108-.063.413.413,0,0,1-.051-.062.577.577,0,0,1-.069-.116,2.12,2.12,0,0,1-.094-.221c-.051-.146-.1-.291-.135-.436-.079-.291-.146-.581-.209-.872-.125-.581-.23-1.162-.329-1.74-.2-1.157-.363-2.305-.516-3.443-.3-2.276-.552-4.51-.765-6.693-.423-4.368-.707-8.538-.866-12.474s-.186-7.639-.045-11.068a45.136,45.136,0,0,1,1.167-9.378,15.929,15.929,0,0,1,3.551-6.739,11.885,11.885,0,0,1,4.722-3.123,12.491,12.491,0,0,1,3.467-.724,8.474,8.474,0,0,1,.913-.018,2.611,2.611,0,0,1,.308.022s-.1,0-.309,0-.509.008-.909.041a12.775,12.775,0,0,0-3.441.761,11.863,11.863,0,0,0-4.659,3.128,15.842,15.842,0,0,0-3.485,6.695,45.25,45.25,0,0,0-1.128,9.344c-.13,3.423-.09,7.12.075,11.051s.46,8.1.89,12.458c.217,2.181.468,4.411.774,6.682.155,1.136.323,2.281.519,3.433.1.576.2,1.154.329,1.728.061.287.129.574.206.857.039.141.081.28.129.416.027.063.049.135.081.19a.354.354,0,0,0,.044.076l.018.026s0-.007-.006,0a.155.155,0,0,0-.024.071l.039-.063a166.134,166.134,0,0,0,19.1,6.4c3.38.923,6.862,1.718,10.414,2.43s7.2,1.226,10.9,1.623l-.041,0,1.007-.185,13.471-2.469-.119.163c-.592-4.736-1.171-9.373-1.719-13.76l.149.125-10.654.558-.089,0-.044-.085a7.244,7.244,0,0,0-4.725-3.8c-2.012-.55-4-1.052-5.943-1.538-3.891-.967-7.624-1.857-11.152-2.682l-.1-.023,0-.1c.253-6.926.482-13.238.686-18.81a53.7,53.7,0,0,0-.839-14.285,20.221,20.221,0,0,0-1.758-4.951,11.178,11.178,0,0,0-2.344-3.059,9.7,9.7,0,0,0-1.1-.847c-.346-.2-.637-.371-.879-.49C140.593,242.191,140.34,242.071,140.34,242.071Z" transform="translate(-123.495 -241.261)" fill="#263238"/></g><g transform="translate(46.349 79.394)"><path d="M202.786,347.574c-.081-.006.056-2.9.308-6.468s.522-6.454.6-6.448-.056,2.9-.308,6.469S202.868,347.58,202.786,347.574Z" transform="translate(-202.763 -334.658)" fill="#263238"/></g><g transform="translate(16.223 69.839)"><path d="M149.812,325.329a1.348,1.348,0,0,1,.134-.455,7.153,7.153,0,0,1,.587-1.151,11.247,11.247,0,0,1,2.934-3.072,22.136,22.136,0,0,1,3.68-2.115,9.457,9.457,0,0,1,1.623-.67,11.282,11.282,0,0,1-1.529.857,28.931,28.931,0,0,0-3.6,2.166,12.541,12.541,0,0,0-2.934,2.948C150.1,324.72,149.861,325.349,149.812,325.329Z" transform="translate(-149.808 -317.862)" fill="#263238"/></g><g transform="translate(5.159 93.949)"><path d="M157.675,363.387a1.007,1.007,0,0,1-.276.065l-.8.13c-.7.113-1.709.229-2.965.329s-2.757.159-4.424.149c-1.666-.025-3.5-.123-5.411-.337s-3.719-.546-5.348-.9-3.076-.762-4.275-1.15-2.161-.726-2.813-.993l-.75-.309a1.038,1.038,0,0,1-.254-.126,1.019,1.019,0,0,1,.275.071l.768.255c.662.234,1.63.546,2.834.9s2.651.73,4.272,1.083,3.422.649,5.324.873,3.723.319,5.381.358c1.658.024,3.153-.007,4.406-.085s2.267-.157,2.965-.234l.807-.075A1.013,1.013,0,0,1,157.675,363.387Z" transform="translate(-130.36 -360.242)" fill="#263238"/></g><g transform="translate(57.955 71.884)"><path d="M247.475,324.522c-.427-.609-1.138-.514-1.741-.077l-2.012,1.339a8.517,8.517,0,0,1-1.783.745l-.854.154a6.535,6.535,0,0,1-4.828-1.027l-.344-.234s5.51-1.25,6.346-1.966l.025-.022a1.153,1.153,0,0,0-.989-1.962l-6.945,1.065a14.217,14.217,0,0,0-6.295,2.62,44.309,44.309,0,0,1-4.893,3.205l1.207,10.518,1.97-.488,3.6.315a12.868,12.868,0,0,0,7.023-1.39,13.811,13.811,0,0,0,2.722-1.613,19.931,19.931,0,0,0,.828-2.62s1.363-.85,1.415-1.431a9.283,9.283,0,0,0-.108-1.63s3.489-2.071,4.4-2.79C247.841,325.946,247.861,325.073,247.475,324.522Z" transform="translate(-223.162 -321.457)" fill="#b78876"/><g transform="translate(14.567 8.514)"><path d="M248.767,338.532a10.34,10.34,0,0,0,4.248-2.106c-.038-.055-.932.519-2.1,1.1S248.746,338.468,248.767,338.532Z" transform="translate(-248.766 -336.423)" fill="#aa6550"/></g><g transform="translate(15.309 11.503)"><path d="M250.072,342.816a3.342,3.342,0,0,0,2.244-1.135,44.019,44.019,0,0,1-2.244,1.135Z" transform="translate(-250.071 -341.676)" fill="#aa6550"/></g><g transform="translate(11.701 3.341)"><path d="M243.73,327.332a4.021,4.021,0,0,0,.839.593,11.315,11.315,0,0,0,2.241,1.069,7.878,7.878,0,0,0,2.453.41,3.3,3.3,0,0,0,1.024-.1,13.249,13.249,0,0,1-3.4-.527,15.485,15.485,0,0,1-2.234-.993A5.367,5.367,0,0,0,243.73,327.332Z" transform="translate(-243.729 -327.329)" fill="#aa6550"/></g></g><g transform="translate(12.895 15.594)" opacity="0.3"><path d="M143.958,222.513a21.04,21.04,0,0,0,6.426,6.288,60.411,60.411,0,0,0,7.975,4.364,7.959,7.959,0,0,0,3.976,1.108,1.814,1.814,0,0,0,1.055-.372,2.291,2.291,0,0,0,.6-1.436,46.6,46.6,0,0,0,.409-8.133,29.3,29.3,0,0,1-3.26,7.652s-2.2-1.906-8.978-4.649C145.272,224.551,143.958,222.513,143.958,222.513Z" transform="translate(-143.958 -222.513)"/></g></g><g transform="translate(20.973 152.587)"><g transform="translate(0 0)"><path d="M158.424,419.783c-.082,0-.189-4.127-.24-9.218s-.026-9.221.056-9.222.189,4.126.24,9.219S158.506,419.782,158.424,419.783Z" transform="translate(-158.158 -401.343)" fill="#455a64"/></g></g></g></g><g transform="translate(109.811 287.335)"><g transform="translate(0 0)"><path d="M434.133,464.693c0,.082-72.608.148-162.153.148-89.577,0-162.169-.066-162.169-.148s72.592-.148,162.169-.148C361.525,464.545,434.133,464.611,434.133,464.693Z" transform="translate(-109.811 -464.545)" fill="#263238"/></g></g></g></g></svg>