<svg xmlns="http://www.w3.org/2000/svg" width="79" height="69" viewBox="0 0 79 69"><g transform="translate(-911 -1083)"><g transform="translate(1844.16 3552.906)"><g transform="translate(-923.16 -2464.906)"><path d="M-863.438-2418.789c-.048.126-.107.25-.143.38a4.818,4.818,0,0,1-4.707,3.59q-7.615.008-15.231,0h-.72c.412,1.247.785,2.428,1.208,3.59.051.14.368.249.568.26a3.865,3.865,0,0,1,3.61,3.745,1.9,1.9,0,0,1-2.022,2.037q-6.171.006-12.341,0h-12.341a2.009,2.009,0,0,1-2.161-2.533,3.894,3.894,0,0,1,3.657-3.249c.17-.01.439-.1.482-.215.363-1,.686-2.006,1.018-3.013.061-.186.109-.377.18-.622h-.711q-7.525,0-15.05,0a4.79,4.79,0,0,1-5.015-5.036q0-15.2,0-30.4a4.786,4.786,0,0,1,5.034-5.015q16.375,0,32.749,0h.731c.121-.582.2-1.138.354-1.671a10.435,10.435,0,0,1,8.713-7.853,2.574,2.574,0,0,0,.339-.111h2.408a2.421,2.421,0,0,0,.338.111,10.477,10.477,0,0,1,8.642,7.537c.187.565.277,1.161.412,1.743Zm-1.952-29.3c-3.036,3.645-6.807,5.231-11.4,3.98-4.617-1.258-7.1-4.536-7.857-9.24h-.594q-16.37,0-32.74,0a2.961,2.961,0,0,0-3.257,3.295q0,13.421,0,26.842v.692h.776c5.6,0,11.2-.065,16.791.041a4.166,4.166,0,0,0,3.838-1.594,1.218,1.218,0,0,1,.868-.359c3.23-.025,6.463.074,9.688-.054a3.844,3.844,0,0,1,3.712,1.574,1.01,1.01,0,0,0,.934.4q9.328-.017,18.657-.009c.193,0,.385-.018.584-.027Zm-55.785,27.492c-.319,2.419.929,3.857,3.286,3.857h49.173c.14,0,.281,0,.421,0a3,3,0,0,0,2.834-3.856h-.711c-5.878,0-11.757-.06-17.634.04a4.106,4.106,0,0,1-3.78-1.585,1.215,1.215,0,0,0-.865-.365c-2.688-.028-5.381.077-8.063-.052a3.779,3.779,0,0,0-3.661,1.55,1.067,1.067,0,0,1-.985.422q-9.63-.02-19.26-.009Zm38.471-33.724a8.724,8.724,0,0,0,8.644,8.682,8.727,8.727,0,0,0,8.7-8.631,8.723,8.723,0,0,0-8.675-8.711A8.72,8.72,0,0,0-882.7-2454.321Zm-2.32,43.345c-.38-1.149-.759-2.221-1.083-3.31a.651.651,0,0,0-.759-.542c-3.988.017-7.976.01-11.965.01-1.476,0-1.477,0-1.935,1.388-.265.8-.525,1.608-.8,2.453Zm4.214,3.839a1.937,1.937,0,0,0-2.19-1.9q-10.29,0-20.58,0c-.14,0-.282-.006-.421.007a1.847,1.847,0,0,0-1.761,1.893Z" transform="translate(923.16 2464.906)" fill="#083142"/><path d="M-863.753-2314.051c-2.368,0-4.736.009-7.1,0a4.392,4.392,0,0,1-4.32-5.334q1.547-7.188,3.174-14.359a4.346,4.346,0,0,1,4.314-3.417q3.943-.01,7.886,0a4.347,4.347,0,0,1,4.368,3.425q1.621,7.173,3.176,14.36a4.39,4.39,0,0,1-4.33,5.325C-858.977-2314.042-861.365-2314.051-863.753-2314.051Zm-4.78-21.016a2.473,2.473,0,0,0-1.592,1.874c-1.034,4.649-2.085,9.295-3.1,13.948a2.519,2.519,0,0,0,2.682,3.272q3.04.005,6.081,0c2.589,0,5.178.013,7.766,0a2.479,2.479,0,0,0,2.514-3.1c-.427-2.037-.888-4.066-1.339-6.1q-.9-4.044-1.806-8.085a2.344,2.344,0,0,0-1.573-1.789c0,1.514,0,2.937,0,4.36a5.879,5.879,0,0,1-.064,1.078,4.826,4.826,0,0,1-5.267,3.991,4.841,4.841,0,0,1-4.295-4.9C-868.535-2332-868.533-2333.485-868.533-2335.067Zm7.687-.142h-5.745c0,1.714-.078,3.4.023,5.072a2.828,2.828,0,0,0,2.824,2.6,2.829,2.829,0,0,0,2.875-2.612C-860.767-2331.82-860.846-2333.5-860.846-2335.208Z" transform="translate(881.056 2352.58)" fill="#ff6148"/><path d="M-651.466-2239.237v-1.851h21.109v1.851Z" transform="translate(684.246 2268.092)" fill="#ff6148"/><path d="M-651.577-2175.226v-1.835h21.125v1.835Z" transform="translate(684.344 2211.79)" fill="#ff6148"/><path d="M-619.54-2271.165v-1.849h17.278v1.849Z" transform="translate(656.172 2296.166)" fill="#ff6148"/><path d="M-651.459-2207.306v-1.853h15.33v1.853Z" transform="translate(684.24 2240.015)" fill="#ff6148"/><path d="M-503.851-2207.2H-507.6v-1.87h3.751Z" transform="translate(557.74 2239.935)" fill="#ff6148"/><path d="M-651.466-2273.08h1.854v1.865h-1.854Z" transform="translate(684.246 2296.224)" fill="#ff6148"/><path d="M-555.659-2145.338h1.854v1.865h-1.854Z" transform="translate(599.999 2183.895)" fill="#ff6148"/><path d="M-523.693-2145.307h1.847v1.858h-1.847Z" transform="translate(571.889 2183.867)" fill="#ff6148"/><path d="M-491.745-2145.3h1.844v1.855h-1.844Z" transform="translate(543.796 2183.858)" fill="#ff6148"/><path d="M-715.214-2097.413h1.846v1.847h-1.846Z" transform="translate(740.303 2141.752)" fill="#ff6148"/><path d="M-681.44-2095.462h-1.848v-1.859h1.848Z" transform="translate(712.229 2141.671)" fill="#ff6148"/><path d="M-651.435-2097.4h1.847v1.858h-1.847Z" transform="translate(684.219 2141.744)" fill="#ff6148"/><path d="M-557.533-2397.223l-3.487-3.488,1.4-1.243,2.033,2.154,7.074-7.085,1.279,1.366Z" transform="translate(604.713 2413.885)" fill="#ff6148"/><path d="M-569.57-2426.008h-1.836c-.32-3.009,2.606-6.791,6.662-6.683v1.872a5.109,5.109,0,0,0-3.374,1.42A5.034,5.034,0,0,0-569.57-2426.008Z" transform="translate(613.867 2436.58)" fill="#ff6148"/></g></g><rect width="79" height="69" transform="translate(911 1083)" fill="none"/></g></svg>