<svg xmlns="http://www.w3.org/2000/svg" width="79" height="69" viewBox="0 0 79 69"><g transform="translate(-299 -1083)"><g transform="translate(1236.189 1961.48)"><g transform="translate(-932.19 -872.479)"><path d="M-897.912-872.477h32.07c1.663,0,2.093.416,2.094,2.081q.007,16.6.01,33.2a2.158,2.158,0,0,1-.659,1.606q-4.277,4.274-8.55,8.552a2.115,2.115,0,0,1-1.6.659q-18.539-.026-37.078-.018-9.286,0-18.573.008c-1.546,0-1.982-.418-1.982-1.956q0-19.008,0-38.015c0-1.448,0-2.9,0-4.343.007-1.224.51-1.736,1.726-1.777.178-.006.356,0,.535,0Zm31.34,2.839H-929.34v40.41h53.7v-.694q0-3.208,0-6.415c0-1.39.53-1.919,1.929-1.922q3.207-.005,6.415,0h.722Zm-2.018,34.2h-4.2v4.181Z" transform="translate(932.182 872.479)" fill="#083142"/><path d="M-902.123-511.684q14,0,27.992.011a5.6,5.6,0,0,1,1.686.269c2.517.813,5.022,1.663,7.527,2.513,1.012.343,1.419,1.087,1,1.935a1.649,1.649,0,0,1-.85.754c-2.736.955-5.485,1.871-8.239,2.774a3.648,3.648,0,0,1-1.12.126q-28.059.009-56.119,0c-1.467,0-1.946-.487-1.945-1.965,0-1.537,0-3.073.006-4.61.007-1.335.486-1.812,1.8-1.812Zm27.142,2.84h-45.954v2.714h45.954Zm-54.388,2.757c1.786,0,3.513.007,5.24-.016a.5.5,0,0,0,.334-.356c.031-.791.016-1.584.016-2.374h-5.589Zm57.271-.592,2.515-.829-2.577-.857c0,.542,0,.985,0,1.427A1.524,1.524,0,0,0-872.1-506.679Z" transform="translate(932.19 559.909)" fill="#083142"/><path d="M-853.6-795.44h-3.155c-1.244,0-1.771-.527-1.773-1.793q-.007-4.31,0-8.62v-.745c-3.975,0-7.891,0-11.806,0a6.609,6.609,0,0,1-.864-.05,1.267,1.267,0,0,1-1.236-1.371c-.014-2.048,0-4.1,0-6.232-.26-.012-.493-.031-.726-.031-1.782,0-3.564,0-5.345,0a1.484,1.484,0,0,1-1.665-1.637q-.027-3.942,0-7.884a1.53,1.53,0,0,1,1.715-1.667q7.968-.011,15.936,0c1.414,0,1.914.463,1.929,1.859.028,2.577.012,5.155-.02,7.732-.014,1.117-.549,1.6-1.666,1.6-2.425,0-4.85,0-7.326,0v4.876h11.078v-9.061c0-.4-.012-.8,0-1.2a1.444,1.444,0,0,1,1.585-1.561c1.087-.007,2.174,0,3.342,0,0-.69-.009-1.328,0-1.965a1.356,1.356,0,0,1,1.514-1.525q6.847-.017,13.694,0a1.356,1.356,0,0,1,1.507,1.532q.009,3.307,0,6.615a1.423,1.423,0,0,1-1.539,1.612q-6.815.03-13.631,0a1.419,1.419,0,0,1-1.535-1.6c0-.6,0-1.194,0-1.831h-2.088v8.972h2.088c0-.85-.005-1.67,0-2.489.009-1.108.507-1.679,1.6-1.684q6.749-.03,13.5,0c1.1,0,1.609.576,1.612,1.676q.006,3.174,0,6.348c0,1.281-.445,1.755-1.694,1.759-3.131.008-6.262-.006-9.393-.012-1.422,0-2.845.011-4.266-.02a1.293,1.293,0,0,1-1.351-1.4c-.012-.418,0-.836,0-1.272a2.578,2.578,0,0,0-.382-.071c-.555-.006-1.111,0-1.712,0v8.318h2.092c0-.836,0-1.673,0-2.51,0-1.092.5-1.6,1.57-1.6q6.782,0,13.564,0a1.385,1.385,0,0,1,1.572,1.539q.009,3.307,0,6.615a1.434,1.434,0,0,1-1.609,1.595q-6.749.009-13.5,0a1.436,1.436,0,0,1-1.612-1.59C-853.6-794.6-853.6-794.977-853.6-795.44Zm-9.81-27.193h-13.929v5.506h13.929Zm23.7.725h-11.056v4.1h11.056Zm-11.054,15.258h11.047v-4.128h-11.047Zm11.054,7.1h-11.046v4.073h11.046Z" transform="translate(887.141 831.764)" fill="#ff6148"/><path d="M-879.8-595.317h18.084v2.708H-879.8Z" transform="translate(886.801 632.363)" fill="#083142"/><path d="M-869.268-657.579v2.673h-10.46v-2.673Z" transform="translate(886.74 686.303)" fill="#083142"/><path d="M-869.4-626.316v2.7h-10.474v-2.7Z" transform="translate(886.867 659.218)" fill="#083142"/><path d="M-531.383-816.859h-3.385v-2.724h3.385Z" transform="translate(587.888 826.653)" fill="#083142"/><path d="M-489.438-816.835h-3.393v-2.734h3.393Z" transform="translate(551.556 826.641)" fill="#083142"/><path d="M-531.475-785.694h-3.384v-2.744h3.384Z" transform="translate(587.967 799.671)" fill="#083142"/><path d="M-489.386-788.324v2.719h-3.39v-2.719Z" transform="translate(551.508 799.572)" fill="#083142"/><path d="M-531.415-754.568h-3.4v-2.74h3.4Z" transform="translate(587.928 772.702)" fill="#083142"/><path d="M-489.469-754.607h-3.386v-2.738h3.386Z" transform="translate(551.577 772.734)" fill="#083142"/><path d="M-534.987-722.734v-2.712h3.41v2.712Z" transform="translate(588.077 745.099)" fill="#083142"/><path d="M-492.941-722.852v-2.726h3.393v2.726Z" transform="translate(551.651 745.213)" fill="#083142"/><path d="M-788.145-657.71V-655h-2.745v-2.706Z" transform="translate(809.775 686.416)" fill="#083142"/></g></g><rect width="79" height="69" transform="translate(299 1083)" fill="none"/></g></svg>