<svg xmlns="http://www.w3.org/2000/svg" width="79" height="69" viewBox="0 0 79 69"><g transform="translate(-1255 -1088)"><g transform="translate(2040.205 3960.51)"><g transform="translate(-770.204 -2867.51)"><path d="M-731.635-2867.51a8.342,8.342,0,0,1,.6,2.14c.038,11.119.027,22.239.027,33.359v1.66a4.159,4.159,0,0,1,4.068,1.093c.128.139.622-.017.931-.1a3.468,3.468,0,0,1,4.6,3.429c.045,1.816-.026,3.634,0,5.451a10.76,10.76,0,0,1-1.825,5.592,7.032,7.032,0,0,0-1.1,4.167,4.6,4.6,0,0,1-.543,1.629h-17.666a17.78,17.78,0,0,1-.515-2.934A3.511,3.511,0,0,0-744-2814.3c-1.361-1.733-3.019-2.177-5.172-2.131-6.362.137-12.729.051-19.093.048-1.687,0-1.916-.207-1.919-1.848q-.016-8.958,0-17.915c0-.173,0-.346.008-.519.029-.735.323-1.418,1.122-1.2a1.755,1.755,0,0,1,1.013,1.293c.086,3.373.047,6.749.047,10.125,0,2.542,0,5.083,0,7.69h19.425c-.468-.49-.834-.867-1.194-1.25a3.9,3.9,0,0,1-.09-5.476,3.9,3.9,0,0,1,5.478.13c.432.418.824.877,1.454,1.554.053-.673.1-1.025.1-1.376.006-3.852,0-7.7.006-11.554,0-2.328,1.477-3.974,3.519-3.956,2.061.018,3.5,1.645,3.506,3.986.007,1.813,0,3.626,0,5.458h2.489v-33.921H-768v1.419q0,7.919,0,15.838c0,.3.109.671-.025.9a10.176,10.176,0,0,1-1.032,1.264c-.371-.4-1.02-.768-1.061-1.2-.14-1.459-.07-2.938-.071-4.408,0-4.717-.025-9.434.027-14.15a7.638,7.638,0,0,1,.6-2.012Zm4.708,56.083a27.808,27.808,0,0,1,1.573-4.127,12.209,12.209,0,0,0,1.775-7.418,20.41,20.41,0,0,1-.006-2.464c.026-.848-.131-1.62-1.082-1.8-.935-.174-1.386.321-1.579,1.272-.075.372-.755.931-1.054.872a1.616,1.616,0,0,1-1.05-1.042c-.181-.935-.026-2.1-1.35-2.112s-1.18,1.171-1.392,2.1a1.545,1.545,0,0,1-1.134.891c-.289.027-.769-.562-.932-.969a5,5,0,0,1-.054-1.413c-.06-.844-.535-1.534-1.357-1.36-.482.1-.879.855-1.194,1.386-.152.256.084.732-.053,1.011-.251.509-.57,1.236-1,1.353-.865.234-1.184-.51-1.217-1.271-.039-.907-.013-1.816-.015-2.725,0-2.594,0-5.19-.016-7.784,0-.8-.417-1.486-1.206-1.333-.5.1-.96.774-1.287,1.287-.178.28-.047.759-.048,1.148q0,6.033,0,12.066a2.136,2.136,0,0,1-1.3,2.2,2.186,2.186,0,0,1-2.586-.636c-.407-.447-.847-.865-1.286-1.282-.948-.9-1.778-.989-2.488-.275s-.638,1.534.292,2.475c1.581,1.6,3.113,3.257,4.79,4.75,1.525,1.358,2.68,2.779,2.276,4.973-.01.056.1.134.172.236Z" transform="translate(770.204 2867.51)" fill="#083142"/><path d="M-730.862-2815.2q-5.642,0-11.284,0c-1.573,0-1.745-.17-1.755-1.687s.019-3.025-.008-4.537c-.018-.982.418-1.424,1.4-1.423q11.609.01,23.217,0c1.044,0,1.472.478,1.445,1.513-.04,1.511-.051,3.026,0,4.537.043,1.168-.428,1.625-1.6,1.614C-723.253-2815.219-727.058-2815.2-730.862-2815.2Zm-10.87-5.416a12.974,12.974,0,0,1-.012,1.681c-.173,1.224.257,1.618,1.537,1.6,6.227-.066,12.455-.029,18.682-.033.455,0,.91-.045,1.358-.068v-3.183Z" transform="translate(750.737 2834.442)" fill="#ff6148"/><path d="M-733.144-2770.37c0,2.854-.026,5.709.012,8.563.016,1.169-.449,1.617-1.625,1.591q-3.763-.085-7.529,0c-1.151.023-1.653-.381-1.647-1.571q.043-8.562,0-17.126c0-1.114.5-1.574,1.56-1.571,2.553.007,5.106.015,7.659,0,1.169-.009,1.6.551,1.581,1.686C-733.17-2775.993-733.144-2773.181-733.144-2770.37Zm-8.5-7.755v15.632h6.246v-15.632Z" transform="translate(750.754 2803.084)" fill="#ff6148"/><path d="M-730.621-2843.52q5.52,0,11.04,0c.346,0,.774-.1,1.018.063.38.255.871.693.876,1.061s-.455.855-.833,1.1c-.28.183-.756.08-1.144.08q-10.975,0-21.951,0c-.388,0-.867.1-1.142-.083-.374-.252-.824-.742-.813-1.117s.507-.8.89-1.048c.247-.161.673-.058,1.019-.058Q-736.142-2843.521-730.621-2843.52Z" transform="translate(750.486 2849.772)" fill="#ff6148"/><path d="M-683.8-2778.166h-4.406c-.76,0-1.431-.179-1.451-1.09-.021-.971.669-1.214,1.482-1.216q4.471-.012,8.942,0c.8,0,1.521.2,1.515,1.181-.006,1-.754,1.126-1.546,1.125Z" transform="translate(710.574 2803.075)" fill="#ff6148"/><path d="M-687.4-2755.335c-.387,0-.849.133-1.142-.033-.392-.221-.932-.7-.9-1.021a1.616,1.616,0,0,1,.918-1.126,3.184,3.184,0,0,1,1.9-.042,5.575,5.575,0,0,1,1.477,1.114c-.493.379-.965.792-1.491,1.118-.187.115-.505.018-.763.018Z" transform="translate(710.413 2786.199)" fill="#ff6148"/><path d="M-687.4-2732.355c-.388,0-.852.134-1.145-.032-.392-.223-.928-.7-.9-1.029a1.616,1.616,0,0,1,.914-1.135,3.187,3.187,0,0,1,1.909-.033,5.6,5.6,0,0,1,1.476,1.117c-.492.379-.963.792-1.489,1.119-.187.116-.506.018-.765.018Z" transform="translate(710.414 2769.195)" fill="#ff6148"/><path d="M-767.341-2771.322c-.764.474-1.253,1.008-1.579.923-.42-.11-.709-.717-1.055-1.11.378-.314.751-.867,1.136-.875S-768.055-2771.86-767.341-2771.322Z" transform="translate(770.034 2797.083)" fill="#ff6148"/></g></g><rect width="79" height="69" transform="translate(1255 1088)" fill="none"/></g></svg>