<svg xmlns="http://www.w3.org/2000/svg" width="79" height="69" viewBox="0 0 79 69"><g transform="translate(-606 -1083)"><g transform="translate(1538.268 2659.436)"><g transform="translate(-924.268 -1573.435)"><path d="M-860.683-1536.466h-6.077v4.112c-.85,0-1.634-.023-2.414.016a.763.763,0,0,0-.573.331,25.765,25.765,0,0,1-4.3,6.791,2.455,2.455,0,0,0-.145.283c.327.276.691.6,1.076.9a.651.651,0,0,1,.182,1.022,3.5,3.5,0,0,0-.3.67c.044.051.056.079.071.082,1.152.18,1.346.907,1.253,1.948a21.934,21.934,0,0,0,0,3.332.839.839,0,0,1-.739,1.016,5.373,5.373,0,0,0-.56.206,1.108,1.108,0,0,0,.038.251c.461,1.115.457,1.11-.375,1.935-.85.843-1.718,1.669-2.524,2.553-.385.423-.714.519-1.185.2a4.426,4.426,0,0,0-.637-.289l-.508,1.314h-5.521l-.5-1.252c-.059,0-.087-.015-.1-.005-.986.742-1.633.23-2.305-.538a33.561,33.561,0,0,0-2.4-2.405c-.357-.333-.452-.611-.17-1.027a3.652,3.652,0,0,0,.29-.674c-.468-.464-1.635-.13-1.27-1.359a24.369,24.369,0,0,1-6.89-.393,25.99,25.99,0,0,1-6.614-2.322c-.56.638-1.18,1.316-1.759,2.026a1.1,1.1,0,0,0-.159.649c-.011,2.181-.007,4.362-.007,6.543v.734h-18.47v-.645q0-7.505,0-15.011a7.2,7.2,0,0,1,5.465-7.16,11.636,11.636,0,0,0,1.16-.356c.205-.081.537-.275.525-.387a1.229,1.229,0,0,0-.368-.777c-.735-.584-1.526-1.095-2.282-1.653a10.452,10.452,0,0,1-4.5-8.95,10.519,10.519,0,0,1,9.047-10.073,2.71,2.71,0,0,1,.76-.092c1.042.19,1.568-.374,2.135-1.162a23.8,23.8,0,0,1,11.07-8.487.791.791,0,0,0,.606-.869,8.246,8.246,0,0,1,7.435-7.961,8.246,8.246,0,0,1,8.712,6.211,7.29,7.29,0,0,1,.235,1.7.814.814,0,0,0,.636.917,24.041,24.041,0,0,1,9.037,6.017,1.4,1.4,0,0,1,.217.235,2.866,2.866,0,0,0,2.942,1.353c3.332-.1,6.669-.033,10-.033h.746Zm-11.187,4.078h-11.308v-18.453h4.1v-6.177h3.019a20.989,20.989,0,0,0-8.524-5.7c-1.417,3.547-3.957,5.684-7.85,5.69-3.914.006-6.476-2.132-7.9-5.7a21.575,21.575,0,0,0-10.232,7.792c1.652,0,3.271-.016,4.889,0a4.108,4.108,0,0,1,3.939,3.478,3.773,3.773,0,0,1-2.445,4.181c-.286.119-.577.224-.888.345l.287.561a17.378,17.378,0,0,1,2.071,8.1.575.575,0,0,1-.492.663c-.736.212-1.447.51-2.183.72-.343.1-.472.268-.411.588a2.254,2.254,0,0,1-1,2.3c-.43.347-.778.793-1.188,1.167a11.82,11.82,0,0,1-.961.7c.072.438-.01,1.135.294,1.551a27.189,27.189,0,0,0,2.361,2.535,6.432,6.432,0,0,1,.522-.67q3.212-3.228,6.439-6.441a3.994,3.994,0,0,1,6.281.432.946.946,0,0,0,.629.3,3.11,3.11,0,0,1,3.036,3.167c.005.62,0,1.24,0,1.86a3.085,3.085,0,0,1-3.193,3.191c-1.368.005-2.737-.006-4.1.009a1,1,0,0,0-.638.176c-1.605,1.565-3.189,3.151-4.844,4.8a22.825,22.825,0,0,0,11.759,2.1,8.183,8.183,0,0,0-.005-.936c-.13-1.072-.053-2.012,1.33-2.257a4.183,4.183,0,0,0-.295-.638c-.309-.455-.188-.77.2-1.129.86-.8,1.675-1.648,2.508-2.479.9-.9.9-.9,2.091-.415a.513.513,0,0,0,.153,0l.5-1.253h5.516c.088.227.171.443.257.659s.169.415.265.651c.447-.2.864-.551,1.212-.493.373.063.68.512,1.043.816A21.83,21.83,0,0,0-871.87-1532.388Zm-9.236-16.368v14.306H-868.9v-14.306Zm-33.914,6.148c-.3,0-.53.008-.759,0a1.091,1.091,0,0,0-1.2.655,1.181,1.181,0,0,0,.351,1.39c.351.345.678.717,1.051,1.035a1.541,1.541,0,0,1,.57,1.33c-.039,1.646-.019,3.293-.008,4.94a.936.936,0,0,0,.144.588c.938.988,1.9,1.951,2.822,2.883a2.014,2.014,0,0,0,1.028-2.584h-1.936v-2.043c1.033,0,2.033-.016,3.031.008a1.467,1.467,0,0,0,1.013-.394,2.47,2.47,0,0,0,1.057-2.539c-.022-.125.013-.258-.005-.384-.053-.378.091-.571.472-.68.716-.2,1.412-.481,2.125-.7.35-.105.445-.258.407-.64a15.818,15.818,0,0,0-2.337-6.64.891.891,0,0,0-.659-.319c-1.945-.025-3.891-.016-5.837-.013-.977,0-1.327.365-1.33,1.37C-915.022-1544.45-915.02-1543.558-915.02-1542.607Zm38-8.216h10.273v12.257h4.023v-16.316h-14.3Zm-31.5,30.68c-.521-.567-.86-.98-1.245-1.344a6.973,6.973,0,0,0-1.28-1.056q-3.9-2.212-7.837-4.352a2.207,2.207,0,0,0-3.043.847,2.167,2.167,0,0,0,1.038,3.021q3.879,2.117,7.758,4.234a5.089,5.089,0,0,0,6.587-.945q3.491-3.49,6.98-6.981c.16-.161.31-.331.381-.407l-2.479-2.55L-908.34-1523c.3.285.656.59.96.942a.544.544,0,0,1,.041.517C-907.667-1521.1-908.049-1520.7-908.527-1520.142Zm-13.635,8.255H-907.9v-4.411a2.159,2.159,0,0,0-.293.044,7.266,7.266,0,0,1-5.926-.684c-2.445-1.362-4.911-2.684-7.37-4.02-.21-.114-.431-.207-.712-.34,0,3.134,0,6.149,0,9.164A1.639,1.639,0,0,0-922.162-1511.888Zm29.724-47.158a6.2,6.2,0,0,0,6.142-6.172,6.192,6.192,0,0,0-6.17-6.141,6.191,6.191,0,0,0-6.142,6.17A6.2,6.2,0,0,0-892.438-1559.046Zm5.916,37.294c-.283.346-.522.929-.909,1.053a1.131,1.131,0,0,0-.9,1.449,1.644,1.644,0,0,1,0,.512,1.046,1.046,0,0,0,.935,1.4c.5.1.962,1.107.68,1.507-.564.8-.232,1.307.4,1.8a2.086,2.086,0,0,1,.408.407.9.9,0,0,0,1.393.267,1.167,1.167,0,0,1,1.675.606,1.118,1.118,0,0,0,1.483.921,1.466,1.466,0,0,1,.511,0c.769.151,1.164-.166,1.348-.921a1.226,1.226,0,0,1,1.558-.675c.749.5,1.235.261,1.695-.368a1.791,1.791,0,0,1,.409-.405.965.965,0,0,0,.3-1.5,1.192,1.192,0,0,1,.552-1.6c.972-.21,1.109-.811.995-1.627a1.2,1.2,0,0,1,0-.384,1.023,1.023,0,0,0-.9-1.358,1.206,1.206,0,0,1-.689-1.547c.507-.744.256-1.23-.35-1.7a2.138,2.138,0,0,1-.454-.45.929.929,0,0,0-1.445-.27,1.2,1.2,0,0,1-1.635-.592,1.152,1.152,0,0,0-1.524-.955,1.446,1.446,0,0,1-.511,0c-.743-.146-1.12.172-1.306.888a1.218,1.218,0,0,1-1.538.714c-.773-.511-1.266-.252-1.749.383a4.417,4.417,0,0,1-.725.724.518.518,0,0,0-.121.772A10.077,10.077,0,0,1-886.522-1521.752Zm-13.708-9.523c1,.978,1.958,1.922,2.933,2.846a.815.815,0,0,0,.514.165q2.083.019,4.167,0a1.062,1.062,0,0,0,1.178-1.2c.01-.491,0-.983,0-1.475,0-1.073-.342-1.457-1.418-1.394a1.571,1.571,0,0,1-1.826-1.013,1.813,1.813,0,0,0-2.962-.525C-898.5-1533.065-899.3-1532.206-900.23-1531.274Zm-9.8,6.89c.554-.583,1.062-1.163,1.621-1.688a.646.646,0,0,0,.1-1c-.488-.585-1.01-1.143-1.64-1.849l-2.032,2.348a6.517,6.517,0,0,0-.514-.719c-1.156-1.172-2.314-2.342-3.495-3.489a.915.915,0,0,0-.684-.264,12.937,12.937,0,0,0-2.147.618,15.366,15.366,0,0,0-1.716.945l.072.221a5.881,5.881,0,0,1,3.723,1.142C-914.549-1526.889-912.343-1525.67-910.031-1524.385Z" transform="translate(924.268 1573.435)" fill="#083142"/><path d="M-572.161-1362.884v-1.96h8.179v1.96Z" transform="translate(617.326 1391.6)" fill="#ff6148"/><path d="M-571.874-1333.057h8.126v2h-8.126Z" transform="translate(617.076 1363.891)" fill="#ff6148"/><path d="M-572.064-1298.9v-1.979h8.152v1.979Z" transform="translate(617.241 1335.842)" fill="#ff6148"/><path d="M-811.327-1341.268a1.037,1.037,0,0,1,1.056.982,1.041,1.041,0,0,1-1.016,1.091,1.043,1.043,0,0,1-1.055-.986A1.03,1.03,0,0,1-811.327-1341.268Z" transform="translate(826.699 1371.049)" fill="#ff6148"/><path d="M-700.01-1547.374l8.132,4.889-8.132,4.882Zm2.092,6.013,1.913-1.127-1.913-1.121Z" transform="translate(728.776 1550.717)" fill="#ff6148"/><path d="M-618.072-1184.127a5.135,5.135,0,0,1-5.157,5.164,5.14,5.14,0,0,1-5.148-5.174,5.135,5.135,0,0,1,5.19-5.13A5.132,5.132,0,0,1-618.072-1184.127Zm-2.072.029a3.109,3.109,0,0,0-3.032-3.1,3.107,3.107,0,0,0-3.129,3.063,3.111,3.111,0,0,0,3.031,3.1A3.11,3.11,0,0,0-620.145-1184.1Z" transform="translate(666.331 1238.545)" fill="#ff6148"/></g></g><rect width="79" height="69" transform="translate(606 1083)" fill="none"/></g></svg>