<svg xmlns="http://www.w3.org/2000/svg" width="1242" height="374.831" viewBox="0 0 1242 374.831">
  <g id="Grupo_1044020" data-name="Grupo 1044020" transform="translate(-179 -3926.352)">
    <rect id="Rectángulo_35685" data-name="Rectángulo 35685" width="97.944" height="8.212" transform="translate(1126.734 4267.834)" fill="none" stroke="#8f9294" stroke-linecap="round" stroke-linejoin="round" stroke-width="1"/>
    <rect id="Rectángulo_45471" data-name="Rectángulo 45471" width="614" height="374.831" rx="10" transform="translate(807 3926.352)" fill="#083142"/>
    <rect id="Rectángulo_45472" data-name="Rectángulo 45472" width="616" height="374.831" rx="10" transform="translate(179 3926.352)" fill="#083142"/>
    <text id="Establecer_con_base_a_los_recursos_disponibles_especialmente_los_humanos_el_conocimiento_y_el_esfuerzo_que_se_requiere_para_realizar_la_actividad_el_periodo_de_tiempo_que_tomaría_realizar_cada_actividad_del_proyecto." data-name="Establecer con base a los recursos disponibles, especialmente los humanos, el conocimiento y el esfuerzo que se requiere para realizar la actividad el periodo de tiempo que tomaría realizar cada actividad del proyecto." transform="translate(849 4139.084)" fill="#fff" font-size="16" font-family="SegoeUI, Segoe UI"><tspan x="0" y="17">Establecer con base a los recursos disponibles, especialmente los </tspan><tspan x="0" y="41">humanos, el conocimiento y el esfuerzo que se requiere para realizar la </tspan><tspan x="0" y="65">actividad el periodo de tiempo que tomaría realizar cada actividad del </tspan><tspan x="0" y="89">proyecto.</tspan></text>
    <text id="Se_debe_tener_en_cuenta_los_recursos_que_se_disponen_Humanos_económicos_tecnológicos_e_información_de_esta_manera_se_pueden_planear_la_realización_de_las_actividades_de_manera_objetiva." data-name="Se debe tener en cuenta los recursos que se disponen (Humanos, económicos, tecnológicos, e información), de esta manera se pueden planear la realización de las actividades de manera objetiva." transform="translate(215 4139.084)" fill="#fff" font-size="16" font-family="SegoeUI, Segoe UI"><tspan x="0" y="17">Se debe tener en cuenta los recursos que se disponen (Humanos, económicos, </tspan><tspan x="0" y="41">tecnológicos, e información), de esta manera se pueden planear la realización </tspan><tspan x="0" y="65">de las actividades de manera objetiva.</tspan></text>
    <text id="Recursos_disponibles" data-name="Recursos disponibles" transform="translate(215 4085)" fill="#ffb476" font-size="18" font-family="SegoeUI-Bold, Segoe UI" font-weight="700"><tspan x="0" y="19">Recursos disponibles</tspan></text>
    <text id="Tiempo_estimado_de_realización" data-name="Tiempo estimado de realización" transform="translate(849 4085)" fill="#ffb476" font-size="18" font-family="SegoeUI-Bold, Segoe UI" font-weight="700"><tspan x="0" y="19">Tiempo estimado de realización</tspan></text>
    <path id="Trazado_196289" data-name="Trazado 196289" d="M2394.232,1529.13a1.738,1.738,0,1,1-1.719,1.738A1.729,1.729,0,0,1,2394.232,1529.13Z" transform="translate(-769.54 6662.661) rotate(-90)" fill="#fff"/>
    <path id="Trazado_196290" data-name="Trazado 196290" d="M2394.232,1484.682a1.738,1.738,0,1,1-1.719,1.737A1.729,1.729,0,0,1,2394.232,1484.682Z" transform="translate(-745.768 6662.661) rotate(-90)" fill="#fff"/>
    <path id="Trazado_196291" data-name="Trazado 196291" d="M2394.232,1440.234a1.738,1.738,0,1,1-1.719,1.738A1.73,1.73,0,0,1,2394.232,1440.234Z" transform="translate(-721.994 6662.661) rotate(-90)" fill="#fff"/>
    <path id="Trazado_196292" data-name="Trazado 196292" d="M2394.232,1395.787a1.738,1.738,0,1,1-1.719,1.738A1.729,1.729,0,0,1,2394.232,1395.787Z" transform="translate(-698.223 6662.661) rotate(-90)" fill="#fff"/>
    <path id="Trazado_196293" data-name="Trazado 196293" d="M2432.123,1529.13a1.738,1.738,0,1,1-1.719,1.738A1.728,1.728,0,0,1,2432.123,1529.13Z" transform="translate(-769.54 6682.926) rotate(-90)" fill="#fff"/>
    <path id="Trazado_196294" data-name="Trazado 196294" d="M2432.123,1484.682a1.738,1.738,0,1,1-1.719,1.737A1.728,1.728,0,0,1,2432.123,1484.682Z" transform="translate(-745.768 6682.926) rotate(-90)" fill="#fff"/>
    <path id="Trazado_196295" data-name="Trazado 196295" d="M2432.123,1440.234a1.738,1.738,0,1,1-1.719,1.738A1.729,1.729,0,0,1,2432.123,1440.234Z" transform="translate(-721.994 6682.926) rotate(-90)" fill="#fff"/>
    <path id="Trazado_196296" data-name="Trazado 196296" d="M2432.123,1395.787a1.738,1.738,0,1,1-1.719,1.738A1.728,1.728,0,0,1,2432.123,1395.787Z" transform="translate(-698.223 6682.926) rotate(-90)" fill="#fff"/>
    <path id="Trazado_196297" data-name="Trazado 196297" d="M2394.232,1351.439a1.738,1.738,0,1,1-1.719,1.738A1.729,1.729,0,0,1,2394.232,1351.439Z" transform="translate(-674.503 6662.661) rotate(-90)" fill="#fff"/>
    <path id="Trazado_196298" data-name="Trazado 196298" d="M2432.123,1351.439a1.738,1.738,0,1,1-1.719,1.738A1.728,1.728,0,0,1,2432.123,1351.439Z" transform="translate(-674.503 6682.926) rotate(-90)" fill="#fff"/>
    <path id="Trazado_196982" data-name="Trazado 196982" d="M2394.232,1529.13a1.738,1.738,0,1,1-1.719,1.738A1.729,1.729,0,0,1,2394.232,1529.13Z" transform="translate(-146.644 6662.661) rotate(-90)" fill="#fff"/>
    <path id="Trazado_196983" data-name="Trazado 196983" d="M2394.232,1484.682a1.738,1.738,0,1,1-1.719,1.737A1.729,1.729,0,0,1,2394.232,1484.682Z" transform="translate(-122.871 6662.661) rotate(-90)" fill="#fff"/>
    <path id="Trazado_196984" data-name="Trazado 196984" d="M2394.232,1440.234a1.738,1.738,0,1,1-1.719,1.738A1.73,1.73,0,0,1,2394.232,1440.234Z" transform="translate(-99.098 6662.661) rotate(-90)" fill="#fff"/>
    <path id="Trazado_196985" data-name="Trazado 196985" d="M2394.232,1395.787a1.738,1.738,0,1,1-1.719,1.738A1.729,1.729,0,0,1,2394.232,1395.787Z" transform="translate(-75.326 6662.661) rotate(-90)" fill="#fff"/>
    <path id="Trazado_196986" data-name="Trazado 196986" d="M2432.123,1529.13a1.738,1.738,0,1,1-1.719,1.738A1.728,1.728,0,0,1,2432.123,1529.13Z" transform="translate(-146.644 6682.926) rotate(-90)" fill="#fff"/>
    <path id="Trazado_196987" data-name="Trazado 196987" d="M2432.123,1484.682a1.738,1.738,0,1,1-1.719,1.737A1.728,1.728,0,0,1,2432.123,1484.682Z" transform="translate(-122.871 6682.926) rotate(-90)" fill="#fff"/>
    <path id="Trazado_196988" data-name="Trazado 196988" d="M2432.123,1440.234a1.738,1.738,0,1,1-1.719,1.738A1.729,1.729,0,0,1,2432.123,1440.234Z" transform="translate(-99.098 6682.926) rotate(-90)" fill="#fff"/>
    <path id="Trazado_196989" data-name="Trazado 196989" d="M2432.123,1395.787a1.738,1.738,0,1,1-1.719,1.738A1.728,1.728,0,0,1,2432.123,1395.787Z" transform="translate(-75.326 6682.926) rotate(-90)" fill="#fff"/>
    <path id="Trazado_196990" data-name="Trazado 196990" d="M2394.232,1351.439a1.738,1.738,0,1,1-1.719,1.738A1.729,1.729,0,0,1,2394.232,1351.439Z" transform="translate(-51.606 6662.661) rotate(-90)" fill="#fff"/>
    <path id="Trazado_196991" data-name="Trazado 196991" d="M2432.123,1351.439a1.738,1.738,0,1,1-1.719,1.738A1.728,1.728,0,0,1,2432.123,1351.439Z" transform="translate(-51.606 6682.926) rotate(-90)" fill="#fff"/>
    <rect id="Rectángulo_356093" data-name="Rectángulo 356093" width="116" height="116" transform="translate(215 3953)" fill="none"/>
    <path id="Polígono_49" data-name="Polígono 49" d="M10.459,0,20.918,15.9H0Z" transform="translate(239.897 3996.901) rotate(90)" fill="#f59d36"/>
    <path id="Trazado_199614" data-name="Trazado 199614" d="M-21.847-509.5a1.909,1.909,0,0,1-.787-1.714c.027-3.552.01-7.1.013-10.657,0-1.333.387-1.716,1.717-1.72.748,0,1.5-.02,2.243.007a1.215,1.215,0,0,1,1.3,1.228,1.206,1.206,0,0,1-1.33,1.182c-.452.014-.9,0-1.492,0,0,1.047-.021,2.051.026,3.051.006.127.364.331.566.339.88.038,1.762.017,2.644.017H-2.06c0-1.057,0-2.011,0-2.964,0-.57-.428-.438-.747-.438q-4.728-.009-9.455,0c-.24,0-.482.008-.721-.011a1.12,1.12,0,0,1-1.124-1.134,1.151,1.151,0,0,1,1.015-1.244,3.34,3.34,0,0,1,.718-.03q4.687,0,9.375,0h.944c0-1.258,0-2.427,0-3.6,0-2.05.154-2.207,2.163-2.207H18.282v-5.67c-.632.261-1.236.52-1.847.762a25.145,25.145,0,0,1-29.709-8.571c-.594-.81-.6-1.52-.02-1.984.611-.488,1.347-.3,1.961.525A22.447,22.447,0,0,0,4.515-535.08,22.4,22.4,0,0,0,17.838-537.6a.908.908,0,0,0,.522-.949c.007-2.52.021-2.608,2.564-2.484a3.246,3.246,0,0,0,3.056-1.4c.681-.92,1.428-1.791,1.939-2.427a23.514,23.514,0,0,1-.316-2.494c-.034-2.692-.013-5.385-.013-8.185-.878,0-1.7-.01-2.513,0a1.368,1.368,0,0,1-1.467-.744c-.29-.671.046-1.16.517-1.626,2.05-2.029,4.076-4.083,6.133-6.105a.934.934,0,0,0,.3-1.172c-3.375-8.553-9.578-13.578-18.668-15.019-.395-.063-.795-.094-1.193-.13a2.746,2.746,0,0,0-.4.035v.95q0,10.577,0,21.154c0,1.416-.328,1.745-1.74,1.745H-15.6a21.8,21.8,0,0,0,1.2,6.26c.068.2.155.4.222.6a1.263,1.263,0,0,1-.649,1.736,1.193,1.193,0,0,1-1.608-.892c-.458-1.474-.891-2.96-1.232-4.464-.234-1.031-.3-2.1-.447-3.24h-4.549c-.828,0-1.656.006-2.484,0-1.09-.01-1.521-.426-1.507-1.5a33.049,33.049,0,0,1,5.941-18.792A33.415,33.415,0,0,1-1.723-590.222a32.22,32.22,0,0,1,8.541-1.169c1.028-.006,1.469.423,1.473,1.448.009,2.348,0,4.7,0,7.068,1.3.2,2.573.306,3.807.59,9.828,2.26,16.184,8.277,19.248,17.85a4.079,4.079,0,0,0,.889,1.538c1.625,1.7,3.3,3.346,4.976,4.995a1.393,1.393,0,0,1,.506,1.633c-.27.636-.848.744-1.472.736-.8-.011-1.593,0-2.493,0v1.315c0,2.511,0,5.021,0,7.532,0,1.166-.427,1.581-1.6,1.589-.908.006-1.817-.017-2.724.014a.95.95,0,0,0-.668.273c-.869,1.2-1.7,2.435-2.6,3.746h.8c3.526,0,7.051.011,10.577,0,3.94-.016,3.623-.229,3.611,3.653,0,.5,0,1,0,1.405a38.783,38.783,0,0,1,4.118.52,13.072,13.072,0,0,1,9.987,10.874,4.551,4.551,0,0,0,.147.533v2.885a2.559,2.559,0,0,0-.148.437,13.205,13.205,0,0,1-9.863,10.868c-.56.142-1.126.263-1.689.394ZM5.832-588.887c-16.9.452-29.877,15-29.932,29.975H5.832Zm25.627,66.215a10.783,10.783,0,0,0,10.753,10.75,10.82,10.82,0,0,0,10.769-10.751,10.784,10.784,0,0,0-10.81-10.775A10.742,10.742,0,0,0,31.459-522.672Zm-51.609,10.688H-2.1v-3.273H-20.149ZM.405-523.646H18.291v-3.263H.405Zm.023,5.829H18.3v-3.291H.428Zm17.881,2.558H.442v3.28H18.309Zm20.423-23.325h-17.9v3.3c.215.015.374.036.532.036q8.169,0,16.338,0c.16,0,.363.044.47-.035.215-.159.52-.38.535-.593C38.767-536.756,38.732-537.638,38.732-538.584Zm-12.9-19.43c.181.018.308.037.436.041,1.443.05,1.736.343,1.736,1.755q0,3.886,0,7.772v.858h3.325v-.932q0-3.806,0-7.612c0-1.537.244-1.782,1.807-1.843a.825.825,0,0,0,.236-.051L29.614-561.8Zm-5.023,46.051H34.33c-.871-.915-1.78-1.772-2.564-2.732a1.5,1.5,0,0,0-1.335-.627c-2.91.025-5.82.011-8.73.011h-.889ZM20.8-529.4c3.307,0,6.526,0,9.746-.008a.589.589,0,0,0,.41-.176c.839-1.043,1.661-2.1,2.49-3.155H20.8Zm9.075,11.59-.838-3.3h-8.2v3.3Zm-.239-9.114H20.834v3.274H28.99Z" transform="translate(266.547 4561.392)" fill="#fff"/>
    <path id="Trazado_199615" data-name="Trazado 199615" d="M380.872-210.155c0-1.241-.669-1.859-2.053-1.888a4.127,4.127,0,0,1-4.255-3.059,4.471,4.471,0,0,1,2.461-5.26c.393-.18.635-.321.644-.833a1.121,1.121,0,0,1,1.243-1.166,1.084,1.084,0,0,1,1.132,1.185c-.008.477.228.618.6.789a4.285,4.285,0,0,1,2.645,3.8,1.228,1.228,0,0,1-1.029,1.466c-.71.094-1.244-.379-1.385-1.227-.207-1.253-.869-1.934-1.918-1.975a2.028,2.028,0,0,0-2.115,2.031,1.745,1.745,0,0,0,1.952,1.826c2.345.037,4.034,1.282,4.432,3.267a4.641,4.641,0,0,1-2.621,5.3,1.141,1.141,0,0,0-.521.727c-.143.753-.569,1.238-1.223,1.235a1.2,1.2,0,0,1-1.191-1.249c-.009-.488-.255-.614-.615-.779a4.316,4.316,0,0,1-2.609-3.574c-.124-.961.3-1.588,1.061-1.676.715-.083,1.2.409,1.343,1.348a2,2,0,0,0,2.2,1.848A1.98,1.98,0,0,0,380.872-210.155Z" transform="translate(-70.107 4251.622)" fill="#fff"/>
    <path id="Polígono_50" data-name="Polígono 50" d="M10.584,0,21.167,16.087H0Z" transform="translate(873.086 4006.012) rotate(90)" fill="#f59d36"/>
    <path id="Trazado_199616" data-name="Trazado 199616" d="M72.665-1155.578a17.076,17.076,0,0,1-.773,2.1,6.47,6.47,0,0,1-5.489,3.746c-2.622.168-5.263.038-7.951.038v-2.752c2.308,0,4.589.014,6.871-.01a6.132,6.132,0,0,0,1.711-.223,4.037,4.037,0,0,0,2.833-3.784c.025-7.361.012-14.721.01-22.082a1.89,1.89,0,0,0-.072-.322c-2.54,0-5.082-.019-7.623.014-.58.007-.773.485-.489.985,2.246,3.958.815,7.333-3.631,8.457a7.822,7.822,0,0,1-6.924-1.314,4.743,4.743,0,0,1-1.044-6.961c.149-.212.313-.594.22-.752a1.023,1.023,0,0,0-.754-.417c-2.46-.031-4.921-.018-7.461-.018-.015.32-.04.6-.04.875,0,2.2-.011,4.4,0,6.607a3.356,3.356,0,0,1-1.886,3.268,3.29,3.29,0,0,1-3.737-.446c-1.087-.845-2.188-.813-2.948.3a11.628,11.628,0,0,0-1.139,2.846c-.064.19.149.466.214.708a2.608,2.608,0,0,1,.232,1.072c-.275,1.266.485,1.963,1.358,2.553.889.6,1.682.211,2.452-.386a3.164,3.164,0,0,1,3.516-.358,3.209,3.209,0,0,1,1.92,2.975c.041,1.825.012,3.651.013,5.477v.926h2.875v2.759H36.49c0,.941.012,1.773,0,2.6a1.426,1.426,0,0,1-1.614,1.6c-.956.014-1.915-.027-2.868.025a.937.937,0,0,0-.659.463,27.672,27.672,0,0,0-1.114,2.727,1.031,1.031,0,0,0,.16.863c.653.736,1.384,1.4,2.068,2.11a1.27,1.27,0,0,1,.018,2.048q-2.864,2.915-5.775,5.782a1.409,1.409,0,0,1-2.155-.012c-.693-.659-1.339-1.368-2.047-2.009a.95.95,0,0,0-.785-.221c-1.1.42-2.176.913-3.312,1.4,0,1.066.01,2.166,0,3.265-.013,1.13-.52,1.634-1.662,1.638q-3.913.015-7.826,0c-1.129,0-1.625-.518-1.636-1.662-.011-1.1,0-2.2,0-3.244-1.151-.5-2.229-.985-3.331-1.412a.859.859,0,0,0-.72.189c-.685.624-1.317,1.3-1.983,1.95a1.458,1.458,0,0,1-2.341.037q-2.813-2.782-5.6-5.594a1.351,1.351,0,0,1,0-2.247c.665-.687,1.367-1.339,2.012-2.044a.86.86,0,0,0,.192-.72c-.429-1.1-.92-2.179-1.42-3.332-1.04,0-2.139.009-3.238,0-1.146-.011-1.658-.507-1.663-1.636q-.017-3.912,0-7.824c0-1.147.5-1.649,1.635-1.662,1.1-.013,2.2,0,3.264,0,.5-1.16,1.009-2.259,1.447-3.385a.9.9,0,0,0-.256-.71c-.628-.681-1.308-1.314-1.952-1.982a1.439,1.439,0,0,1-.014-2.278q2.781-2.814,5.6-5.594a1.441,1.441,0,0,1,2.28,0c.689.663,1.339,1.368,2.044,2.012a.853.853,0,0,0,.723.171c1.1-.428,2.176-.917,3.317-1.41,0-.942.038-1.927-.01-2.908-.051-1.053.238-1.829,1.4-2.055v-1.6q0-13.432,0-26.864c0-4.095,1.826-6.478,5.776-7.547.051-.014.092-.065.137-.1H66.752c.186.063.37.137.559.186a6.908,6.908,0,0,1,4.778,4.025c.244.544.387,1.132.576,1.7ZM11.447-1181.66c2.5,0,4.9.012,7.3-.014a3.9,3.9,0,0,0,1.018-.3,4.1,4.1,0,0,0-.363-1,4.68,4.68,0,0,1,.634-6.439,8.122,8.122,0,0,1,10.65.009,4.728,4.728,0,0,1,.6,6.509c-.184.245-.378.7-.27.889.122.214.577.325.889.329,2.26.026,4.521.016,6.782.01a4.433,4.433,0,0,0,.589-.082c0-2.576-.014-5.1.005-7.617a3.237,3.237,0,0,1,1.911-3.07,3.254,3.254,0,0,1,3.594.385c1.328.993,2.481.823,3.372-.577a5.335,5.335,0,0,0,.332-5.311c-.852-1.895-2.159-2.227-3.861-1.044a3.36,3.36,0,0,1-5.209-1.886,6.212,6.212,0,0,1-.14-1.547c-.015-1.873-.006-3.745-.006-5.679h-.96q-11.13,0-22.26,0c-2.9,0-4.6,1.693-4.605,4.576q0,7.824,0,15.648Zm30.609-26.429c0,2.1-.012,4.072.014,6.04,0,.285.137.758.306.806a1.247,1.247,0,0,0,.914-.242,4.693,4.693,0,0,1,6.678.792,7.781,7.781,0,0,1,1.561,7.183,6.177,6.177,0,0,1-3.49,4.5,4.562,4.562,0,0,1-4.878-.774c-.627-.474-1.092-.168-1.1.655-.017,1.883-.006,3.766-.006,5.649,0,.595,0,1.189,0,1.818h3.863c1.275,0,2.55-.013,3.825,0a3.266,3.266,0,0,1,3.078,1.9,3.254,3.254,0,0,1-.367,3.595c-1.011,1.365-.825,2.529.624,3.421a5.39,5.39,0,0,0,5.317.269c1.426-.648,2.436-2.119,1.023-3.844a3.286,3.286,0,0,1,1.82-5.2,5.3,5.3,0,0,1,1.372-.143c2.4-.013,4.793-.006,7.271-.006v-.932q0-10.429,0-20.858c0-2.959-1.676-4.638-4.628-4.639q-11.126,0-22.253,0Zm-46.01,44.265c.793.761,1.5,1.446,2.215,2.123a1.622,1.622,0,0,1,.273,2.117c-.681,1.462-1.29,2.96-1.857,4.47-.345.92-.7,1.263-1.7,1.272-.977.009-1.954,0-2.95,0v5.564c1.007,0,1.959-.006,2.911,0,1.067.008,1.387.332,1.751,1.318q.823,2.229,1.822,4.392c.44.955.454,1.443-.286,2.178-.7.69-1.426,1.345-2.09,1.968l4.053,4.042c.617-.649,1.263-1.352,1.936-2.03.787-.792,1.238-.785,2.242-.312,1.382.65,2.791,1.257,4.227,1.773,1.179.423,1.458.675,1.463,1.9,0,.942,0,1.885,0,2.8h5.566c0-1.026.016-2.005-.005-2.983a1.589,1.589,0,0,1,1.217-1.665q2.345-.883,4.632-1.918a1.557,1.557,0,0,1,1.973.278c.7.727,1.4,1.461,2.068,2.154l3.948-3.95a.172.172,0,0,0-.047-.084c-.631-.64-1.266-1.274-1.9-1.914a1.594,1.594,0,0,1-.342-2.241c.665-1.438,1.272-2.906,1.822-4.392.366-.99.682-1.309,1.752-1.317.973-.007,1.947,0,2.9,0v-5.564c-1,0-1.923,0-2.849,0-1.121-.007-1.43-.32-1.808-1.357-.533-1.461-1.129-2.9-1.789-4.313-.488-1.041-.493-1.473.346-2.309.668-.665,1.353-1.313,1.919-1.861l-3.967-3.977c-.613.619-1.279,1.3-1.96,1.974a1.577,1.577,0,0,1-2.177.311c-1.439-.663-2.9-1.279-4.39-1.828-1-.368-1.331-.687-1.34-1.733-.008-.975,0-1.95,0-2.928H10.055c0,1.044-.011,2.026,0,3.008a1.587,1.587,0,0,1-1.255,1.636q-2.27.836-4.477,1.843c-.95.434-1.433.444-2.174-.308-.685-.7-1.335-1.425-2.012-2.152-.281.265-.43.4-.573.542C-1.567-1166.175-2.7-1165.058-3.954-1163.824Zm43.227-15.054H38.43q-3.347,0-6.694,0A3.327,3.327,0,0,1,28.5-1180.8a3.27,3.27,0,0,1,.444-3.66,2.011,2.011,0,0,0-.422-3.158,5.544,5.544,0,0,0-6.278-.034,2.03,2.03,0,0,0-.443,3.217,3.267,3.267,0,0,1,.41,3.665,3.3,3.3,0,0,1-3.172,1.9c-2.231,0-4.463,0-6.694,0-.279,0-.559.025-.83.038v4.133c1.772,0,3.48-.007,5.188,0,1.2.006,1.691.5,1.7,1.685.01,1.1,0,2.2,0,3.222,1.141.49,2.195.97,3.274,1.38a.939.939,0,0,0,.791-.176c.65-.575,1.242-1.215,1.859-1.827.961-.951,1.635-.957,2.592-.009s1.911,1.916,2.93,2.939c.2-.436.352-.771.511-1.1,1.51-3.161,5.033-4.477,7.823-2.17a.869.869,0,0,0,.768.152.974.974,0,0,0,.307-.739C39.282-1173.808,39.273-1176.27,39.273-1178.878Zm-7.693,22.257c1.115,0,2.213-.012,3.31,0a1.421,1.421,0,0,1,1.6,1.607c.014.829,0,1.659,0,2.506h2.783c0-1.988.016-3.92-.015-5.852a3.636,3.636,0,0,0-.321-1,4.144,4.144,0,0,0-1,.354,4.717,4.717,0,0,1-6.655-.91c-.253-.3-.492-.613-.738-.92l-.255.024c-.036.312-.186.667-.087.928C30.611-1158.8,31.093-1157.755,31.579-1156.621Z" transform="translate(883.373 5179.871)" fill="#fff"/>
    <path id="Trazado_199617" data-name="Trazado 199617" d="M303.9-877.76a2.192,2.192,0,0,1-2.016.885c-7.01-.028-14.021,0-21.032-.043a3.519,3.519,0,0,1-1.9-.625c-2.69-1.913-5.327-3.9-7.977-5.866a3.842,3.842,0,0,1-1.125-5.347,3.838,3.838,0,0,1,5.293-1.063c1.2.673,2.395,1.361,3.708,2.109v-1.081q0-7.082,0-14.163a4.213,4.213,0,0,1,4.117-4.537,4.276,4.276,0,0,1,4.228,4.542c.008,2.227,0,4.454,0,6.781a4.4,4.4,0,0,1,4.143.836,4.285,4.285,0,0,1,5.558-.032,2,2,0,0,0,.279-.133,4.116,4.116,0,0,1,6.559,2.311,1.918,1.918,0,0,0,.157.3Zm-2.79-1.913c0-4.235.014-8.37-.012-12.5a1.334,1.334,0,0,0-1.315-1.361,1.394,1.394,0,0,0-1.446,1.316c-.162.917-.625,1.4-1.362,1.414s-1.243-.478-1.418-1.37c-.181-.921-.648-1.392-1.383-1.4s-1.243.5-1.4,1.381-.657,1.388-1.393,1.383-1.23-.51-1.391-1.4-.654-1.4-1.406-1.363a1.4,1.4,0,0,0-1.37,1.319c-.2,1.008-.736,1.514-1.514,1.437s-1.27-.7-1.273-1.68c-.008-2.317,0-4.634,0-6.95,0-1.274.018-2.549-.01-3.823a1.377,1.377,0,0,0-1.329-1.437,1.418,1.418,0,0,0-1.438,1.427c-.016.231-.005.463-.005.695q0,8.427,0,16.855a1.673,1.673,0,0,1-.766,1.711,1.647,1.647,0,0,1-1.777-.29c-1.751-1.074-3.5-2.156-5.277-3.183a1.834,1.834,0,0,0-1.28-.239,1.239,1.239,0,0,0-.753.91,1.874,1.874,0,0,0,.655,1.278c2.592,1.9,5.226,3.739,7.866,5.57a1.945,1.945,0,0,0,1.041.284c2.868.022,5.735.013,8.6.013Z" transform="translate(652.14 4929.351)" fill="#fff"/>
    <path id="Trazado_199618" data-name="Trazado 199618" d="M53.1-926.9A12.532,12.532,0,0,1,65.647-939.43,12.548,12.548,0,0,1,78.14-927.016,12.533,12.533,0,0,1,65.678-914.4,12.528,12.528,0,0,1,53.1-926.9Zm2.782-.036a9.754,9.754,0,0,0,9.694,9.757,9.768,9.768,0,0,0,9.781-9.763,9.758,9.758,0,0,0-9.655-9.709A9.748,9.748,0,0,0,55.882-926.933Z" transform="translate(830.592 4955.725)" fill="#fff"/>
    <path id="Trazado_199619" data-name="Trazado 199619" d="M98.551-899.512a5.58,5.58,0,0,1,5.593,5.557,5.576,5.576,0,0,1-5.579,5.569,5.575,5.575,0,0,1-5.548-5.513A5.571,5.571,0,0,1,98.551-899.512Zm2.809,5.53a2.791,2.791,0,0,0-2.79-2.745,2.792,2.792,0,0,0-2.767,2.853,2.794,2.794,0,0,0,2.832,2.7A2.8,2.8,0,0,0,101.36-893.982Z" transform="translate(797.629 4922.762)" fill="#fff"/>
    <rect id="Rectángulo_356094" data-name="Rectángulo 356094" width="116" height="116" transform="translate(849 3953)" fill="none"/>
  </g>
</svg>
