<svg xmlns="http://www.w3.org/2000/svg" width="716" height="503" viewBox="0 0 716 503">
  <g id="Grupo_1044016" data-name="Grupo 1044016" transform="translate(-442 -1142)">
    <g id="Grupo_1043857" data-name="Grupo 1043857" transform="translate(157 -142)">
      <rect id="Rectángulo_356161" data-name="Rectángulo 356161" width="715" height="53" transform="translate(285 1734)" fill="#f6f6f6"/>
      <text id="Nota:_Tomado_de_Cisco_IBSG_2011_." data-name="Nota: Tomado de Cisco IBSG (2011)." transform="translate(309 1765)" fill="#12263f" font-size="14" font-family="SegoeUI-Bold, Segoe UI" font-weight="700"><tspan x="0" y="0">Nota:</tspan><tspan y="0" xml:space="preserve" font-family="SegoeUI, Segoe UI" font-weight="400"> Tomado de Cisco IBSG (2011).</tspan></text>
    </g>
    <g id="Grupo_1043855" data-name="Grupo 1043855" transform="translate(52 -6875)">
      <text id="Figura_13._Internet_de_las_cosas_red_de_redes" data-name="Figura 13. Internet de las cosas red de redes" transform="translate(403 8020)" fill="#12263f" font-size="13" font-family="SegoeUI-Bold, Segoe UI" font-weight="700"><tspan x="0" y="14">Figura 13. </tspan><tspan y="14" font-family="SegoeUI, Segoe UI" font-weight="400">Internet de las cosas red de redes</tspan></text>
      <rect id="Rectángulo_27413" data-name="Rectángulo 27413" width="4" height="21" transform="translate(390 8017)" fill="#ff6148"/>
    </g>
    <g id="Grupo_1043865" data-name="Grupo 1043865" transform="translate(97)">
      <g id="Grupo_1043864" data-name="Grupo 1043864">
        <rect id="Rectángulo_43725" data-name="Rectángulo 43725" width="716" height="134" transform="translate(345 1331)" fill="#fee6d1"/>
        <text id="_1._Redes_individuales" data-name="1. Redes individuales" transform="translate(809 1376)" fill="#12263f" font-size="12" font-family="SegoeUI-Bold, Segoe UI" font-weight="700"><tspan x="0" y="0">1.</tspan><tspan y="0" xml:space="preserve" font-family="SegoeUI, Segoe UI" font-weight="400"> Redes individuales</tspan></text>
        <text id="_2._Conectadas" data-name="2. Conectadas" transform="translate(809 1399)" fill="#12263f" font-size="12" font-family="SegoeUI, Segoe UI"><tspan x="0" y="0">2. Conectadas</tspan></text>
        <text id="_3._Con_seguridad_análisis_y_administración" data-name="3. Con seguridad, análisis y administración" transform="translate(809 1421)" fill="#12263f" font-size="12" font-family="SegoeUI, Segoe UI"><tspan x="0" y="0">3. Con seguridad, análisis y administración</tspan></text>
        <g id="Elipse_5184" data-name="Elipse 5184" transform="translate(403 1210)" fill="#f8f5f4" stroke="#083142" stroke-width="1">
          <ellipse cx="187.5" cy="188" rx="187.5" ry="188" stroke="none"/>
          <ellipse cx="187.5" cy="188" rx="187" ry="187.5" fill="none"/>
        </g>
        <path id="Trazado_191644" data-name="Trazado 191644" d="M-8702.5-9381.741l-117.9-72.159v-106.858l120.13-76.73,108.392,79.415V-9453.9Z" transform="translate(9298.488 10902.744)" fill="none" stroke="#083142" stroke-width="1"/>
        <path id="Trazado_191645" data-name="Trazado 191645" d="M-8659.885-9626v255.181" transform="translate(9252.23 10900.132)" fill="none" stroke="#083142" stroke-width="1"/>
        <ellipse id="Elipse_5185" data-name="Elipse 5185" cx="38.5" cy="39" rx="38.5" ry="39" transform="translate(552 1235)" fill="#ffb476"/>
        <text id="Transporte" transform="translate(561 1278)" fill="#12263f" font-size="12" font-family="SegoeUI, Segoe UI"><tspan x="0" y="0">Transporte</tspan></text>
        <circle id="Elipse_5186" data-name="Elipse 5186" cx="38.5" cy="38.5" r="38.5" transform="translate(552 1483)" fill="#ffb476"/>
        <text id="Ecológico" transform="translate(564 1525)" fill="#12263f" font-size="12" font-family="SegoeUI, Segoe UI"><tspan x="0" y="0">Ecológico</tspan></text>
        <path id="Trazado_191646" data-name="Trazado 191646" d="M0,0V251.43" transform="translate(704.647 1344.632) rotate(65)" fill="none" stroke="#083142" stroke-width="1"/>
        <ellipse id="Elipse_5187" data-name="Elipse 5187" cx="38.5" cy="39" rx="38.5" ry="39" transform="translate(430 1409)" fill="#ffb476"/>
        <text id="Página_de_Inicio" data-name="Página de 
Inicio" transform="translate(470 1443)" fill="#12263f" font-size="12" font-family="SegoeUI, Segoe UI"><tspan x="-27.601" y="0">Página de </tspan><tspan x="-14.186" y="18">Inicio</tspan></text>
        <circle id="Elipse_5188" data-name="Elipse 5188" cx="38.5" cy="38.5" r="38.5" transform="translate(663 1309)" fill="#ffb476"/>
        <text id="Energía" transform="translate(680 1352)" fill="#12263f" font-size="12" font-family="SegoeUI, Segoe UI"><tspan x="0" y="0">Energía</tspan></text>
        <path id="Trazado_191647" data-name="Trazado 191647" d="M0,0V251.43" transform="translate(705.558 1448.894) rotate(114)" fill="none" stroke="#083142" stroke-width="1"/>
        <ellipse id="Elipse_5189" data-name="Elipse 5189" cx="38.5" cy="39" rx="38.5" ry="39" transform="translate(663 1409)" fill="#ffb476"/>
        <text id="Otros" transform="translate(687 1452)" fill="#12263f" font-size="12" font-family="SegoeUI, Segoe UI"><tspan x="0" y="0">Otros</tspan></text>
        <circle id="Elipse_5190" data-name="Elipse 5190" cx="38.5" cy="38.5" r="38.5" transform="translate(430 1309)" fill="#ffb476"/>
        <text id="Educación" transform="translate(440 1352)" fill="#12263f" font-size="12" font-family="SegoeUI, Segoe UI"><tspan x="0" y="0">Educación</tspan></text>
        <ellipse id="Elipse_5191" data-name="Elipse 5191" cx="50.5" cy="50" rx="50.5" ry="50" transform="translate(540 1348)" fill="#ff6148"/>
        <text id="Empresa" transform="translate(564 1401)" fill="#fff" font-size="13" font-family="SegoeUI-Bold, Segoe UI" font-weight="700"><tspan x="0" y="0">Empresa</tspan></text>
        <path id="Trazado_191648" data-name="Trazado 191648" d="M-8597.613-9617.521l161.434,91.818-62.308-3.545" transform="translate(9238.074 10898.205)" fill="none" stroke="#ff6148" stroke-width="1"/>
        <path id="Polígono_61" data-name="Polígono 61" d="M4.636,0,9.272,7.727H0Z" transform="translate(632.954 1281.624) rotate(-60)" fill="#ff6148"/>
        <path id="Polígono_62" data-name="Polígono 62" d="M4.636,0,9.272,7.727H0Z" transform="matrix(0.035, -0.999, 0.999, 0.035, 735.816, 1373.671)" fill="#ff6148"/>
        <path id="Trazado_191649" data-name="Trazado 191649" d="M-8414.693-9469.5l-88.4,5.881" transform="translate(9216.59 10864.557)" fill="none" stroke="#ff6148" stroke-width="1"/>
        <path id="Polígono_63" data-name="Polígono 63" d="M4.636,0,9.272,7.727H0Z" transform="translate(709.712 1405.641) rotate(-91)" fill="#ff6148"/>
        <path id="Trazado_191650" data-name="Trazado 191650" d="M-8483.943-9469.5l-19.152,2.5" transform="translate(9285.84 10886.964)" fill="none" stroke="#ff6148" stroke-width="1"/>
        <g id="Polígono_64" data-name="Polígono 64" transform="translate(777.816 1425.035) rotate(-97)" fill="#ff6148">
          <path d="M 8.389039039611816 7.226780891418457 L 0.8830994963645935 7.226780891418457 L 4.636069297790527 0.9718339443206787 L 8.389039039611816 7.226780891418457 Z" stroke="none"/>
          <path d="M 4.636069297790527 1.943650245666504 L 1.766189575195312 6.726780891418457 L 7.505949020385742 6.726780891418457 L 4.636069297790527 1.943650245666504 M 4.636069297790527 9.5367431640625e-07 L 9.272139549255371 7.726780891418457 L -9.5367431640625e-07 7.726780891418457 L 4.636069297790527 9.5367431640625e-07 Z" stroke="none" fill="#ff6148"/>
        </g>
        <rect id="Rectángulo_43726" data-name="Rectángulo 43726" width="4" height="134" transform="translate(345 1331)" fill="#ff6148"/>
      </g>
      <text id="Internet_de_las_cosas" data-name="Internet de las cosas" transform="translate(522 1195)" fill="#12263f" font-size="15" font-family="SegoeUIBlack, Segoe UI"><tspan x="0" y="0">Internet de las cosas</tspan></text>
    </g>
  </g>
</svg>
