<svg xmlns="http://www.w3.org/2000/svg" xmlns:xlink="http://www.w3.org/1999/xlink" width="1030" height="396.922" viewBox="0 0 1030 396.922">
  <defs>
    <linearGradient id="linear-gradient" x1="-6.708" y1="0.719" x2="-6.708" y2="0.705" gradientUnits="objectBoundingBox">
      <stop offset="0" stop-color="#fff"/>
      <stop offset="1" stop-color="#d2e6ee"/>
    </linearGradient>
    <linearGradient id="linear-gradient-2" x1="-8.893" y1="0.733" x2="-8.893" y2="0.715" xlink:href="#linear-gradient"/>
  </defs>
  <g id="Grupo_1044022" data-name="Grupo 1044022" transform="translate(-285 -579)">
    <rect id="Rectángulo_37180" data-name="Rectángulo 37180" width="1030" height="396.922" rx="13" transform="translate(285 579)" fill="#fee6d1"/>
    <text id="En_el_diagrama_anterior_la_infraestructura_cliente-servidor_muestra_a_varios_computadores_de_la_empresa_conectados_a_la_internet_con_el_fin_de_realizar_consultas_o_intercambios_de_datos_en_la_web._Todo_contenido_de_información_de_página_web_está_en_una_b" data-name="En el diagrama anterior, la infraestructura cliente-servidor muestra a varios computadores de la empresa conectados a la internet, con el fin de realizar consultas o intercambios de datos en la web. Todo contenido de información de página web está en una b" transform="translate(883 727)" fill="#12263f" font-size="16" font-family="SegoeUI, Segoe UI"><tspan x="0" y="17">En el diagrama anterior, la infraestructura cliente-</tspan><tspan x="0" y="41">servidor muestra a varios computadores de la </tspan><tspan x="0" y="65">empresa conectados a la internet, con el fin de </tspan><tspan x="0" y="89">realizar consultas o intercambios de datos en la </tspan><tspan x="0" y="113">web. Todo contenido de información de página </tspan><tspan x="0" y="137">web está en una base de datos dentro de un </tspan><tspan x="0" y="161">servidor.</tspan></text>
    <g id="Grupo_1043898" data-name="Grupo 1043898" transform="translate(327.069 600.117)">
      <text id="Figura_12._Arquitectura_cliente_-_servidor" data-name="Figura 12. Arquitectura cliente - servidor" transform="translate(13 3)" fill="#12263f" font-size="13" font-family="SegoeUI-Bold, Segoe UI" font-weight="700"><tspan x="0" y="14">Figura 12. </tspan><tspan y="14" font-family="SegoeUI, Segoe UI" font-weight="400">Arquitectura cliente - servidor</tspan></text>
      <rect id="Rectángulo_27413" data-name="Rectángulo 27413" width="4" height="21" fill="#ff6148"/>
    </g>
    <g id="Grupo_1043908" data-name="Grupo 1043908" transform="translate(327.069 644)">
      <g id="Grupo_1043903" data-name="Grupo 1043903" transform="translate(150.404 235.077)">
        <rect id="Rectángulo_356191" data-name="Rectángulo 356191" width="134" height="48" rx="10" transform="translate(-0.404 10.923)" fill="#ffb476"/>
        <text id="PC_-_Cliente" data-name="PC - Cliente" transform="translate(35.596 25.923)" fill="#12263f" font-size="16" font-family="SegoeUI-Bold, Segoe UI" font-weight="700"><tspan x="-43.672" y="17">PC - Cliente</tspan></text>
        <g id="hombre" transform="translate(8 0)">
          <g id="Grupo_1043902" data-name="Grupo 1043902">
            <g id="Grupo_1043901" data-name="Grupo 1043901" transform="translate(0 0)">
              <circle id="Elipse_6087" data-name="Elipse 6087" cx="6.177" cy="6.177" r="6.177" transform="translate(11.413 2.215)" fill="#12263f"/>
              <path id="Trazado_770880" data-name="Trazado 770880" d="M128.408.046a2.746,2.746,0,0,0-3.2,2.2l-.089.343-.185.686c-.069.254-.158.515-.24.776-.165.515-.35,1.036-.563,1.544a19.85,19.85,0,0,1-1.482,2.9,15.833,15.833,0,0,1-4.118,4.584,14.412,14.412,0,0,1-5.538,2.436,18.449,18.449,0,0,1-3.15.419l-1.778.041q-1.057.021-2.128.124a19.525,19.525,0,0,0-8.592,2.69,13.877,13.877,0,0,0-3.665,3.26,12.73,12.73,0,0,0-2.244,4.516,11.425,11.425,0,0,0-.377,2.567v.686a7.475,7.475,0,0,0,.069.776,8.967,8.967,0,0,0,.288,1.373,16.677,16.677,0,0,0,1.922,4.118,36.209,36.209,0,0,0,2.368,3.349,40.043,40.043,0,0,0,2.649,3.047,2.745,2.745,0,0,0,2.546.776L99.728,67.969a2.745,2.745,0,0,0,2.512,2.876h.233a2.745,2.745,0,0,0,2.745-2.423l2.958-25.029h.947l2.958,25.029a2.745,2.745,0,0,0,2.745,2.423h.227a2.745,2.745,0,0,0,2.519-2.876L116.2,39.213V21.678a20.583,20.583,0,0,0,2.546-1.009,18.942,18.942,0,0,0,3.83-2.368,20.994,20.994,0,0,0,5.545-6.815,24.252,24.252,0,0,0,1.606-3.96c.213-.686.384-1.373.542-2.059.069-.371.137-.7.192-1.057l.082-.542.069-.625A2.746,2.746,0,0,0,128.408.046ZM101.1,37.017a34.2,34.2,0,0,1-2.5-3.939,12.355,12.355,0,0,1-1.1-2.745,2.644,2.644,0,0,1-.075-.487,1.054,1.054,0,0,1,0-.158v-.254a5.987,5.987,0,0,1,.247-1.139,6.863,6.863,0,0,1,3.191-3.788l.24-.13Z" transform="translate(-91.06 0)" fill="#12263f"/>
            </g>
          </g>
        </g>
      </g>
      <g id="Grupo_1043906" data-name="Grupo 1043906" transform="translate(150.404)">
        <rect id="Rectángulo_356191-2" data-name="Rectángulo 356191" width="134" height="48" rx="10" transform="translate(0 10.923)" fill="#ffb476"/>
        <text id="PC_-_Cliente-2" data-name="PC - Cliente" transform="translate(36 25.923)" fill="#12263f" font-size="16" font-family="SegoeUI-Bold, Segoe UI" font-weight="700"><tspan x="-43.672" y="17">PC - Cliente</tspan></text>
        <g id="hombre-2" data-name="hombre" transform="translate(8 0)">
          <g id="Grupo_1043902-2" data-name="Grupo 1043902">
            <g id="Grupo_1043901-2" data-name="Grupo 1043901" transform="translate(0 0)">
              <circle id="Elipse_6087-2" data-name="Elipse 6087" cx="6.177" cy="6.177" r="6.177" transform="translate(11.413 2.215)" fill="#12263f"/>
              <path id="Trazado_770880-2" data-name="Trazado 770880" d="M128.408.046a2.746,2.746,0,0,0-3.2,2.2l-.089.343-.185.686c-.069.254-.158.515-.24.776-.165.515-.35,1.036-.563,1.544a19.85,19.85,0,0,1-1.482,2.9,15.833,15.833,0,0,1-4.118,4.584,14.412,14.412,0,0,1-5.538,2.436,18.449,18.449,0,0,1-3.15.419l-1.778.041q-1.057.021-2.128.124a19.525,19.525,0,0,0-8.592,2.69,13.877,13.877,0,0,0-3.665,3.26,12.73,12.73,0,0,0-2.244,4.516,11.425,11.425,0,0,0-.377,2.567v.686a7.475,7.475,0,0,0,.069.776,8.967,8.967,0,0,0,.288,1.373,16.677,16.677,0,0,0,1.922,4.118,36.209,36.209,0,0,0,2.368,3.349,40.043,40.043,0,0,0,2.649,3.047,2.745,2.745,0,0,0,2.546.776L99.728,67.969a2.745,2.745,0,0,0,2.512,2.876h.233a2.745,2.745,0,0,0,2.745-2.423l2.958-25.029h.947l2.958,25.029a2.745,2.745,0,0,0,2.745,2.423h.227a2.745,2.745,0,0,0,2.519-2.876L116.2,39.213V21.678a20.583,20.583,0,0,0,2.546-1.009,18.942,18.942,0,0,0,3.83-2.368,20.994,20.994,0,0,0,5.545-6.815,24.252,24.252,0,0,0,1.606-3.96c.213-.686.384-1.373.542-2.059.069-.371.137-.7.192-1.057l.082-.542.069-.625A2.746,2.746,0,0,0,128.408.046ZM101.1,37.017a34.2,34.2,0,0,1-2.5-3.939,12.355,12.355,0,0,1-1.1-2.745,2.644,2.644,0,0,1-.075-.487,1.054,1.054,0,0,1,0-.158v-.254a5.987,5.987,0,0,1,.247-1.139,6.863,6.863,0,0,1,3.191-3.788l.24-.13Z" transform="translate(-91.06 0)" fill="#12263f"/>
            </g>
          </g>
        </g>
      </g>
      <g id="Grupo_1043904" data-name="Grupo 1043904" transform="translate(0 235.077)">
        <rect id="Rectángulo_356191-3" data-name="Rectángulo 356191" width="134" height="48" rx="10" transform="translate(0 10.923)" fill="#ffb476"/>
        <text id="PC_-_Cliente-3" data-name="PC - Cliente" transform="translate(36 25.923)" fill="#12263f" font-size="16" font-family="SegoeUI-Bold, Segoe UI" font-weight="700"><tspan x="-43.672" y="17">PC - Cliente</tspan></text>
        <g id="hombre-3" data-name="hombre" transform="translate(8 0)">
          <g id="Grupo_1043902-3" data-name="Grupo 1043902">
            <g id="Grupo_1043901-3" data-name="Grupo 1043901" transform="translate(0 0)">
              <circle id="Elipse_6087-3" data-name="Elipse 6087" cx="6.177" cy="6.177" r="6.177" transform="translate(11.413 2.215)" fill="#12263f"/>
              <path id="Trazado_770880-3" data-name="Trazado 770880" d="M128.408.046a2.746,2.746,0,0,0-3.2,2.2l-.089.343-.185.686c-.069.254-.158.515-.24.776-.165.515-.35,1.036-.563,1.544a19.85,19.85,0,0,1-1.482,2.9,15.833,15.833,0,0,1-4.118,4.584,14.412,14.412,0,0,1-5.538,2.436,18.449,18.449,0,0,1-3.15.419l-1.778.041q-1.057.021-2.128.124a19.525,19.525,0,0,0-8.592,2.69,13.877,13.877,0,0,0-3.665,3.26,12.73,12.73,0,0,0-2.244,4.516,11.425,11.425,0,0,0-.377,2.567v.686a7.475,7.475,0,0,0,.069.776,8.967,8.967,0,0,0,.288,1.373,16.677,16.677,0,0,0,1.922,4.118,36.209,36.209,0,0,0,2.368,3.349,40.043,40.043,0,0,0,2.649,3.047,2.745,2.745,0,0,0,2.546.776L99.728,67.969a2.745,2.745,0,0,0,2.512,2.876h.233a2.745,2.745,0,0,0,2.745-2.423l2.958-25.029h.947l2.958,25.029a2.745,2.745,0,0,0,2.745,2.423h.227a2.745,2.745,0,0,0,2.519-2.876L116.2,39.213V21.678a20.583,20.583,0,0,0,2.546-1.009,18.942,18.942,0,0,0,3.83-2.368,20.994,20.994,0,0,0,5.545-6.815,24.252,24.252,0,0,0,1.606-3.96c.213-.686.384-1.373.542-2.059.069-.371.137-.7.192-1.057l.082-.542.069-.625A2.746,2.746,0,0,0,128.408.046ZM101.1,37.017a34.2,34.2,0,0,1-2.5-3.939,12.355,12.355,0,0,1-1.1-2.745,2.644,2.644,0,0,1-.075-.487,1.054,1.054,0,0,1,0-.158v-.254a5.987,5.987,0,0,1,.247-1.139,6.863,6.863,0,0,1,3.191-3.788l.24-.13Z" transform="translate(-91.06 0)" fill="#12263f"/>
            </g>
          </g>
        </g>
      </g>
      <g id="Grupo_1043905" data-name="Grupo 1043905" transform="translate(0)">
        <rect id="Rectángulo_356191-4" data-name="Rectángulo 356191" width="134" height="48" rx="10" transform="translate(0 10.923)" fill="#ffb476"/>
        <text id="PC_-_Cliente-4" data-name="PC - Cliente" transform="translate(36 25.923)" fill="#12263f" font-size="16" font-family="SegoeUI-Bold, Segoe UI" font-weight="700"><tspan x="-43.672" y="17">PC - Cliente</tspan></text>
        <g id="hombre-4" data-name="hombre" transform="translate(8 0)">
          <g id="Grupo_1043902-4" data-name="Grupo 1043902">
            <g id="Grupo_1043901-4" data-name="Grupo 1043901" transform="translate(0 0)">
              <circle id="Elipse_6087-4" data-name="Elipse 6087" cx="6.177" cy="6.177" r="6.177" transform="translate(11.413 2.215)" fill="#12263f"/>
              <path id="Trazado_770880-4" data-name="Trazado 770880" d="M128.408.046a2.746,2.746,0,0,0-3.2,2.2l-.089.343-.185.686c-.069.254-.158.515-.24.776-.165.515-.35,1.036-.563,1.544a19.85,19.85,0,0,1-1.482,2.9,15.833,15.833,0,0,1-4.118,4.584,14.412,14.412,0,0,1-5.538,2.436,18.449,18.449,0,0,1-3.15.419l-1.778.041q-1.057.021-2.128.124a19.525,19.525,0,0,0-8.592,2.69,13.877,13.877,0,0,0-3.665,3.26,12.73,12.73,0,0,0-2.244,4.516,11.425,11.425,0,0,0-.377,2.567v.686a7.475,7.475,0,0,0,.069.776,8.967,8.967,0,0,0,.288,1.373,16.677,16.677,0,0,0,1.922,4.118,36.209,36.209,0,0,0,2.368,3.349,40.043,40.043,0,0,0,2.649,3.047,2.745,2.745,0,0,0,2.546.776L99.728,67.969a2.745,2.745,0,0,0,2.512,2.876h.233a2.745,2.745,0,0,0,2.745-2.423l2.958-25.029h.947l2.958,25.029a2.745,2.745,0,0,0,2.745,2.423h.227a2.745,2.745,0,0,0,2.519-2.876L116.2,39.213V21.678a20.583,20.583,0,0,0,2.546-1.009,18.942,18.942,0,0,0,3.83-2.368,20.994,20.994,0,0,0,5.545-6.815,24.252,24.252,0,0,0,1.606-3.96c.213-.686.384-1.373.542-2.059.069-.371.137-.7.192-1.057l.082-.542.069-.625A2.746,2.746,0,0,0,128.408.046ZM101.1,37.017a34.2,34.2,0,0,1-2.5-3.939,12.355,12.355,0,0,1-1.1-2.745,2.644,2.644,0,0,1-.075-.487,1.054,1.054,0,0,1,0-.158v-.254a5.987,5.987,0,0,1,.247-1.139,6.863,6.863,0,0,1,3.191-3.788l.24-.13Z" transform="translate(-91.06 0)" fill="#12263f"/>
            </g>
          </g>
        </g>
      </g>
      <path id="Trazado_770881" data-name="Trazado 770881" d="M8270-10971.347v65.18h258.07" transform="translate(-8203 11028)" fill="none" stroke="#083142" stroke-width="1"/>
      <path id="Trazado_770883" data-name="Trazado 770883" d="M8270-10888.673v-82.674h258.07" transform="translate(-8203 11134.928)" fill="none" stroke="#083142" stroke-width="1"/>
      <path id="Trazado_770882" data-name="Trazado 770882" d="M8270-10971.348v26.6h108.07v19.51" transform="translate(-8052.453 11028.001)" fill="none" stroke="#083142" stroke-width="1"/>
      <path id="Trazado_770884" data-name="Trazado 770884" d="M8270-10897.857v-42.395h108.07v-31.1" transform="translate(-8052.453 11144.112)" fill="none" stroke="#083142" stroke-width="1"/>
      <line id="Línea_1890" data-name="Línea 1890" x2="88" transform="translate(377.5 146.5)" fill="none" stroke="#083142" stroke-width="1"/>
      <g id="Grupo_1043907" data-name="Grupo 1043907" transform="translate(424.862 70.845)">
        <text id="Server" transform="translate(0 134.796)" fill="#12263f" font-size="16" font-family="SegoeUI-Bold, Segoe UI" font-weight="700"><tspan x="-24.086" y="17">Server</tspan></text>
        <g id="Grupo_1043899" data-name="Grupo 1043899" transform="translate(5.798 0)">
          <path id="Path_69560" data-name="Path 69560" d="M120.312,97.244l-33.5,19.342a2.459,2.459,0,0,0-1.119,1.942v92.1a2.448,2.448,0,0,0,1.119,1.931l33.5,19.342a2.459,2.459,0,0,0,2.237,0l33.5-19.342a2.448,2.448,0,0,0,1.119-1.931v-92.1a2.459,2.459,0,0,0-1.118-1.942l-33.5-19.342a2.459,2.459,0,0,0-2.237,0Z" transform="translate(-85.69 -96.877)" fill="#f6f6f6"/>
          <path id="Path_69561" data-name="Path 69561" d="M155.3,117.465v92.09a2.48,2.48,0,0,1-1.118,1.952l-33.5,19.342a2.269,2.269,0,0,1-1.119.264V136.427a2.28,2.28,0,0,0,1.119-.274l13.427-7.752,20.077-11.591.306-.253.4-.327A2.247,2.247,0,0,1,155.3,117.465Z" transform="translate(-83.819 -95.814)" fill="#e8e8e8"/>
          <g id="Group_29207" data-name="Group 29207" transform="translate(4.2 30.564)">
            <path id="Path_69562" data-name="Path 69562" d="M90.8,126.008,115.882,140.5a2.48,2.48,0,0,1,1.129,1.942v9.55c0,.718-.506,1-1.129.644L90.8,138.133a2.48,2.48,0,0,1-1.129-1.942v-9.55C89.67,125.924,90.177,125.639,90.8,126.008Z" transform="translate(-89.67 -125.847)" fill="#455a64"/>
            <path id="Path_69563" data-name="Path 69563" d="M91.67,130.039a2.364,2.364,0,0,0,1.119,1.857l20.883,12.061c.623.359,1.119.106,1.119-.57a2.364,2.364,0,0,0-1.119-1.857L92.789,129.449C92.166,129.09,91.67,129.343,91.67,130.039Z" transform="translate(-89.56 -125.657)" fill="#50b4b9"/>
            <path id="Path_69564" data-name="Path 69564" d="M91.67,134.619a2.364,2.364,0,0,0,1.119,1.857l20.883,12.061c.623.359,1.119.106,1.119-.57a2.385,2.385,0,0,0-1.119-1.857l-20.883-12.1C92.166,133.691,91.67,133.944,91.67,134.619Z" transform="translate(-89.56 -125.403)" fill="#263238"/>
            <path id="Path_69565" data-name="Path 69565" d="M92.789,134.007l11.491,6.637v2.427l-11.491-6.637a2.364,2.364,0,0,1-1.119-1.857C91.67,133.944,92.166,133.691,92.789,134.007Z" transform="translate(-89.56 -125.404)" fill="#50b4b9"/>
          </g>
          <g id="Group_29208" data-name="Group 29208" transform="translate(4.2 47.548)">
            <path id="Path_69566" data-name="Path 69566" d="M90.8,142.1l25.083,14.488a2.48,2.48,0,0,1,1.129,1.942v9.55c0,.718-.506,1-1.129.654L90.8,154.244A2.49,2.49,0,0,1,89.67,152.3v-9.5C89.67,142,90.177,141.739,90.8,142.1Z" transform="translate(-89.67 -141.941)" fill="#455a64"/>
            <path id="Path_69567" data-name="Path 69567" d="M91.67,146.118a2.385,2.385,0,0,0,1.119,1.868l20.883,12.051c.623.359,1.119.106,1.119-.559a2.385,2.385,0,0,0-1.119-1.868L92.789,145.548C92.166,145.2,91.67,145.453,91.67,146.118Z" transform="translate(-89.56 -141.75)" fill="#50b4b9"/>
            <path id="Path_69568" data-name="Path 69568" d="M91.67,150.718a2.385,2.385,0,0,0,1.119,1.868l20.883,12.061c.623.348,1.119.095,1.119-.57a2.385,2.385,0,0,0-1.119-1.868L92.789,150.159C92.166,149.8,91.67,150.053,91.67,150.718Z" transform="translate(-89.56 -141.496)" fill="#263238"/>
            <path id="Path_69569" data-name="Path 69569" d="M92.789,150.159l17.8,10.278v2.427l-17.8-10.278a2.385,2.385,0,0,1-1.119-1.868C91.67,150.053,92.166,149.8,92.789,150.159Z" transform="translate(-89.56 -141.496)" fill="#50b4b9"/>
          </g>
          <g id="Group_29209" data-name="Group 29209" transform="translate(4.2 64.551)">
            <path id="Path_69570" data-name="Path 69570" d="M90.8,158.208,115.882,172.7a2.48,2.48,0,0,1,1.129,1.942v9.5c0,.718-.506,1.055-1.129.644L90.8,170.343A2.48,2.48,0,0,1,89.67,168.4v-9.55C89.67,158.145,90.177,157.849,90.8,158.208Z" transform="translate(-89.67 -158.055)" fill="#455a64"/>
            <path id="Path_69571" data-name="Path 69571" d="M91.67,162.228a2.364,2.364,0,0,0,1.119,1.91L113.672,176.2c.623.359,1.119.106,1.119-.57a2.364,2.364,0,0,0-1.119-1.857L92.789,161.659C92.166,161.3,91.67,161.553,91.67,162.228Z" transform="translate(-89.56 -157.865)" fill="#50b4b9"/>
            <path id="Path_69572" data-name="Path 69572" d="M91.67,166.828a2.385,2.385,0,0,0,1.119,1.857l20.883,12.082c.623.359,1.119.106,1.119-.57a2.364,2.364,0,0,0-1.119-1.857L92.789,166.259C92.166,165.9,91.67,166.153,91.67,166.828Z" transform="translate(-89.56 -157.611)" fill="#263238"/>
            <path id="Path_69573" data-name="Path 69573" d="M92.789,166.259l7.292,4.221v2.427l-7.292-4.221a2.364,2.364,0,0,1-1.119-1.857C91.67,166.153,92.166,165.9,92.789,166.259Z" transform="translate(-89.56 -157.611)" fill="#50b4b9"/>
          </g>
          <g id="Group_29210" data-name="Group 29210" transform="translate(4.2 81.56)">
            <path id="Path_69574" data-name="Path 69574" d="M90.8,174.307l25.083,14.457a2.48,2.48,0,0,1,1.129,1.942v9.5c0,.718-.507,1.055-1.129.654L90.8,186.453a2.48,2.48,0,0,1-1.129-1.91v-9.55C89.67,174.244,90.177,173.99,90.8,174.307Z" transform="translate(-89.67 -174.173)" fill="#455a64"/>
            <path id="Path_69575" data-name="Path 69575" d="M91.67,178.328a2.385,2.385,0,0,0,1.119,1.868l20.883,12.051c.623.359,1.119.106,1.119-.559a2.385,2.385,0,0,0-1.119-1.868L92.789,177.758C92.166,177.41,91.67,177.663,91.67,178.328Z" transform="translate(-89.56 -173.984)" fill="#50b4b9"/>
            <path id="Path_69576" data-name="Path 69576" d="M91.67,182.928a2.385,2.385,0,0,0,1.119,1.868l20.883,12.061c.623.348,1.119.095,1.119-.57a2.364,2.364,0,0,0-1.119-1.857L92.789,182.369C92.166,181.989,91.67,182.264,91.67,182.928Z" transform="translate(-89.56 -173.73)" fill="#263238"/>
            <path id="Path_69577" data-name="Path 69577" d="M92.789,182.369l11.491,6.637v2.48l-11.491-6.637a2.385,2.385,0,0,1-1.119-1.868C91.67,182.263,92.166,181.989,92.789,182.369Z" transform="translate(-89.56 -173.73)" fill="#50b4b9"/>
          </g>
          <g id="Group_29211" data-name="Group 29211" transform="translate(4.2 98.54)">
            <path id="Path_69578" data-name="Path 69578" d="M90.8,190.418l25.083,14.488a2.48,2.48,0,0,1,1.129,1.942v9.518c0,.717-.506,1-1.129.644L90.8,202.553a2.48,2.48,0,0,1-1.129-1.942v-9.5C89.67,190.344,90.177,190.059,90.8,190.418Z" transform="translate(-89.67 -190.264)" fill="#455a64"/>
            <path id="Path_69579" data-name="Path 69579" d="M91.67,194.438a2.364,2.364,0,0,0,1.119,1.857l20.883,12.061c.623.359,1.119.106,1.119-.57a2.364,2.364,0,0,0-1.119-1.857L92.789,193.869C92.166,193.51,91.67,193.763,91.67,194.438Z" transform="translate(-89.56 -190.074)" fill="#50b4b9"/>
            <path id="Path_69580" data-name="Path 69580" d="M91.67,199.038a2.364,2.364,0,0,0,1.119,1.857l20.883,12.061c.623.359,1.119.106,1.119-.57a2.385,2.385,0,0,0-1.119-1.857L92.789,198.469C92.166,198.11,91.67,198.363,91.67,199.038Z" transform="translate(-89.56 -189.82)" fill="#263238"/>
            <path id="Path_69581" data-name="Path 69581" d="M92.789,198.469l15.7,9.064v2.427l-15.7-9.064a2.364,2.364,0,0,1-1.119-1.857C91.67,198.363,92.166,198.11,92.789,198.469Z" transform="translate(-89.56 -189.82)" fill="#50b4b9"/>
          </g>
          <g id="Group_29212" data-name="Group 29212" transform="translate(38.885 31.622)">
            <path id="Path_69582" data-name="Path 69582" d="M124.65,140.924c1.161-.675,2.111,0,2.111,1.372v55.526a4.78,4.78,0,0,1-2.11,3.8c-1.161.675-2.11.063-2.11-1.361V144.733A4.823,4.823,0,0,1,124.65,140.924Z" transform="translate(-122.54 -126.087)" fill="#37474f"/>
            <path id="Path_69584" data-name="Path 69584" d="M124.6,198.763a2.427,2.427,0,0,0,1.055-1.9V170.24l-2.11,1.214v26.624C123.551,198.795,124.025,199.1,124.6,198.763Z" transform="translate(-122.485 -124.453)" fill="#50b4b9"/>
            <path id="Path_69585" data-name="Path 69585" d="M130.63,137.474c1.161-.675,2.111-.063,2.111,1.372v55.516a4.79,4.79,0,0,1-2.111,3.809c-1.161.675-2.11.063-2.11-1.361V141.284a4.823,4.823,0,0,1,2.11-3.809Z" transform="translate(-122.21 -126.278)" fill="#37474f"/>
            <path id="Path_69586" data-name="Path 69586" d="M130.575,196.878a2.427,2.427,0,0,0,1.055-1.9V139.294c0-.718-.475-1.055-1.055-.686a2.427,2.427,0,0,0-1.055,1.9v55.685C129.52,196.9,130.027,197.216,130.575,196.878Z" transform="translate(-122.154 -126.208)" fill="#50b4b9"/>
            <path id="Path_69587" data-name="Path 69587" d="M136.61,134.014c1.161-.675,2.11-.063,2.11,1.372V190.9a4.823,4.823,0,0,1-2.11,3.809c-1.161.675-2.11.063-2.11-1.372V137.834A4.8,4.8,0,0,1,136.61,134.014Z" transform="translate(-121.879 -126.469)" fill="#37474f"/>
            <path id="Path_69588" data-name="Path 69588" d="M136.555,193.428a2.385,2.385,0,0,0,1.055-1.9V135.844c0-.718-.464-1.055-1.055-.686a2.427,2.427,0,0,0-1.055,1.9v55.685C135.5,193.449,136.028,193.766,136.555,193.428Z" transform="translate(-121.824 -126.399)" fill="#263238"/>
            <path id="Path_69589" data-name="Path 69589" d="M136.555,192.721a2.385,2.385,0,0,0,1.055-1.9V147.81l-2.11,1.214v43.011C135.5,192.742,136.028,193.048,136.555,192.721Z" transform="translate(-121.824 -125.692)" fill="#50b4b9"/>
            <path id="Path_69590" data-name="Path 69590" d="M142.59,130.574c1.15-.675,2.11-.063,2.11,1.361v55.526a4.844,4.844,0,0,1-2.11,3.809c-1.161.675-2.11.063-2.11-1.372V134.373a4.822,4.822,0,0,1,2.11-3.8Z" transform="translate(-121.549 -126.659)" fill="#37474f"/>
            <path id="Path_69591" data-name="Path 69591" d="M142.535,189.978a2.4,2.4,0,0,0,1.055-1.91V132.394c0-.718-.464-1.055-1.055-.686a2.385,2.385,0,0,0-1.055,1.9v55.685C141.48,190,141.955,190.305,142.535,189.978Z" transform="translate(-121.494 -126.589)" fill="#263238"/>
            <path id="Path_69592" data-name="Path 69592" d="M142.535,187.512a2.4,2.4,0,0,0,1.055-1.91V176.21l-2.11,1.213v9.392C141.48,187.533,141.955,187.839,142.535,187.512Z" transform="translate(-121.494 -124.123)" fill="#50b4b9"/>
            <path id="Path_69593" data-name="Path 69593" d="M148.561,127.124c1.161-.675,2.11-.063,2.11,1.361v55.505a4.854,4.854,0,0,1-2.11,3.809c-1.161.675-2.11.053-2.11-1.372V130.923A4.78,4.78,0,0,1,148.561,127.124Z" transform="translate(-121.219 -126.849)" fill="#37474f"/>
            <path id="Path_69594" data-name="Path 69594" d="M148.505,186.528a2.427,2.427,0,0,0,1.055-1.91V128.944c0-.718-.475-1.055-1.055-.686a2.353,2.353,0,0,0-1.055,1.9v55.674C147.461,186.549,147.925,186.855,148.505,186.528Z" transform="translate(-121.164 -126.78)" fill="#263238"/>
            <path id="Path_69595" data-name="Path 69595" d="M148.505,185.079a2.4,2.4,0,0,0,1.055-1.9V154.14l-2.111,1.214v29.04C147.461,185.111,147.925,185.417,148.505,185.079Z" transform="translate(-121.164 -125.342)" fill="#57cc98"/>
            <path id="Path_69583" data-name="Path 69583" d="M124.6,200.328a2.427,2.427,0,0,0,1.055-1.9V142.744c0-.718-.475-1.055-1.055-.686a2.385,2.385,0,0,0-1.055,1.9v55.685C123.551,200.36,124.025,200.666,124.6,200.328Z" transform="translate(-122.485 -126.018)" fill="#263238"/>
          </g>
          <g id="Group_29215" data-name="Group 29215" transform="translate(38.896 97.833)">
            <path id="Path_69596" data-name="Path 69596" d="M123.447,205.682l27.647-15.966c.485-.285.9-.053.9.517V200.3a2.026,2.026,0,0,1-.9,1.562l-27.647,15.955a.556.556,0,0,1-.9-.517V207.233a1.963,1.963,0,0,1,.9-1.551Z" transform="translate(-122.55 -189.595)" fill="#37474f"/>
            <g id="Group_29213" data-name="Group 29213" transform="translate(2.037 3.684)">
              <path id="Path_69597" data-name="Path 69597" d="M124.48,208.465c0,.675.5.929,1.119.57l23.131-13.359a2.4,2.4,0,0,0,1.119-1.857c0-.675-.506-.929-1.119-.57L125.6,206.608a2.385,2.385,0,0,0-1.119,1.857Z" transform="translate(-124.48 -193.086)" fill="#263238"/>
              <path id="Path_69598" data-name="Path 69598" d="M124.48,208.265c0,.675.5.929,1.119.57l16.82-9.708V196.7l-16.82,9.719a2.385,2.385,0,0,0-1.118,1.847Z" transform="translate(-124.48 -192.886)" fill="#50b4b9"/>
            </g>
            <g id="Group_29214" data-name="Group 29214" transform="translate(2.037 8.548)">
              <path id="Path_69599" data-name="Path 69599" d="M124.48,213.075c0,.665.5.918,1.119.559l23.131-13.349a2.416,2.416,0,0,0,1.119-1.868c0-.665-.506-.918-1.119-.559L125.6,211.207A2.385,2.385,0,0,0,124.48,213.075Z" transform="translate(-124.48 -197.695)" fill="#263238"/>
              <path id="Path_69600" data-name="Path 69600" d="M124.48,212.558c0,.665.5.918,1.119.559l6.331-3.641V207.05l-6.331,3.641A2.385,2.385,0,0,0,124.48,212.558Z" transform="translate(-124.48 -197.179)" fill="#50b4b9"/>
            </g>
          </g>
          <path id="Path_69601" data-name="Path 69601" d="M156.019,116.587l-33.5-19.342a2.459,2.459,0,0,0-2.237,0l-33.5,19.342a.675.675,0,0,0-.422.865.686.686,0,0,0,.422.433l33.5,19.342a2.554,2.554,0,0,0,2.248,0l33.493-19.342a.7.7,0,0,0,.433-.865A.676.676,0,0,0,156.019,116.587Z" transform="translate(-85.656 -96.877)" fill="url(#linear-gradient)"/>
          <path id="Path_69602" data-name="Path 69602" d="M120.315,132.507,94.335,117.5a1.477,1.477,0,0,1-.675-1.161v-.876a1.488,1.488,0,0,1,.675-1.171l25.98-15.005a1.52,1.52,0,0,1,1.351,0l25.99,15.005a1.5,1.5,0,0,1,.665,1.171v.876a1.5,1.5,0,0,1-.665,1.161l-25.99,15.005A1.519,1.519,0,0,1,120.315,132.507Z" transform="translate(-85.25 -96.758)" fill="#263238"/>
          <path id="Path_69603" data-name="Path 69603" d="M94.315,115.048l25.98,15.005a1.52,1.52,0,0,0,1.351,0l25.99-15.005a.412.412,0,0,0,.253-.517.422.422,0,0,0-.253-.264l-25.99-14.488a1.52,1.52,0,0,0-1.351,0l-25.98,14.488a.412.412,0,0,0-.264.528A.422.422,0,0,0,94.315,115.048Z" transform="translate(-85.229 -96.731)" fill="url(#linear-gradient-2)"/>
          <path id="Path_69604" data-name="Path 69604" d="M120.991,129.439v2.427a1.382,1.382,0,0,1-.675-.158L94.335,116.7a1.488,1.488,0,0,1-.675-1.171v-.865a1.477,1.477,0,0,1,.549-1.055c-.243.211-.2.5.127.686l25.98,15.005a1.383,1.383,0,0,0,.675.137Z" transform="translate(-85.25 -95.958)" fill="#37474f"/>
          <path id="Path_69605" data-name="Path 69605" d="M119.875,125.35,102.295,115.2a1.467,1.467,0,0,1-.665-1.161v-.876a1.5,1.5,0,0,1,.665-1.171l11.333-6.542a4.5,4.5,0,0,0,1.129-1.055l5.382-7.249a.9.9,0,0,1,1.087-.137l17.58,10.141a1.5,1.5,0,0,1,.665,1.171v5.73a1.467,1.467,0,0,1-.665,1.161l-17.58,10.151A1.519,1.519,0,0,1,119.875,125.35Z" transform="translate(-84.81 -96.883)" fill="#263238"/>
          <path id="Path_69606" data-name="Path 69606" d="M121.206,122.922l11.27-6.511a3.95,3.95,0,0,0,.58-.433,4.064,4.064,0,0,0,.549-.58l5.382-7.249a.686.686,0,0,0-.106-.95l-.106-.063-17.57-10.13a.9.9,0,0,0-1.14.232l-5.382,7.249a4.137,4.137,0,0,1-1.055,1.055L102.275,112a.4.4,0,0,0-.264.517.412.412,0,0,0,.264.264l17.57,10.141a1.488,1.488,0,0,0,1.361,0Z" transform="translate(-84.79 -96.882)" fill="#455a64"/>
          <path id="Path_69607" data-name="Path 69607" d="M138.15,107.136l-17.58-10.13a.9.9,0,0,0-1.14.232l-5.382,7.249a3.5,3.5,0,0,1-.549.57L132.431,116a4.757,4.757,0,0,0,.549-.58l5.382-7.249a.675.675,0,0,0-.116-.95Z" transform="translate(-84.154 -96.882)" fill="#37474f"/>
          <g id="Group_29218" data-name="Group 29218" transform="translate(21.435 11.003)">
            <path id="Path_69608" data-name="Path 69608" d="M106.327,111.38a1.72,1.72,0,0,1,1.572,0,.485.485,0,0,1,.306.612.475.475,0,0,1-.306.3,1.72,1.72,0,0,1-1.572,0,.464.464,0,0,1-.3-.6A.475.475,0,0,1,106.327,111.38Z" transform="translate(-106.003 -107.096)" fill="#50b4b9"/>
            <path id="Path_69609" data-name="Path 69609" d="M109.317,113.11a1.72,1.72,0,0,1,1.572,0,.475.475,0,0,1,.306.6.485.485,0,0,1-.306.306,1.72,1.72,0,0,1-1.572,0,.485.485,0,0,1-.306-.612A.475.475,0,0,1,109.317,113.11Z" transform="translate(-105.839 -107)" fill="#50b4b9"/>
            <path id="Path_69610" data-name="Path 69610" d="M112.307,114.83a1.72,1.72,0,0,1,1.572,0,.475.475,0,0,1,.3.612.5.5,0,0,1-.3.306,1.794,1.794,0,0,1-1.572,0,.485.485,0,0,1,0-.918Z" transform="translate(-105.673 -106.905)" fill="#263238"/>
            <path id="Path_69611" data-name="Path 69611" d="M115.287,116.56a1.741,1.741,0,0,1,1.583,0,.475.475,0,0,1,.3.612.454.454,0,0,1-.3.3,1.741,1.741,0,0,1-1.583,0,.485.485,0,0,1-.3-.612.454.454,0,0,1,.3-.3Z" transform="translate(-105.508 -106.81)" fill="#263238"/>
            <path id="Path_69612" data-name="Path 69612" d="M108.567,110.09a1.72,1.72,0,0,1,1.572,0,.475.475,0,0,1,.306.6.485.485,0,0,1-.306.306,1.72,1.72,0,0,1-1.572,0,.485.485,0,0,1-.306-.612.475.475,0,0,1,.306-.3Z" transform="translate(-105.88 -107.167)" fill="#50b4b9"/>
            <ellipse id="Ellipse_3376" data-name="Ellipse 3376" cx="1.119" cy="0.644" rx="1.119" ry="0.644" transform="translate(5.515 4.548)" fill="#263238"/>
            <path id="Path_69613" data-name="Path 69613" d="M114.547,113.54a1.72,1.72,0,0,1,1.572,0,.485.485,0,0,1,.306.612.475.475,0,0,1-.306.3,1.72,1.72,0,0,1-1.572,0,.485.485,0,0,1-.306-.612A.475.475,0,0,1,114.547,113.54Z" transform="translate(-105.55 -106.976)" fill="#50b4b9"/>
            <ellipse id="Ellipse_3377" data-name="Ellipse 3377" cx="1.119" cy="0.644" rx="1.119" ry="0.644" transform="translate(11.815 8.199)" fill="#263238"/>
            <path id="Path_69614" data-name="Path 69614" d="M110.807,108.79a1.815,1.815,0,0,1,1.583,0,.485.485,0,0,1,.3.612.5.5,0,0,1-.3.306,1.815,1.815,0,0,1-1.583,0,.485.485,0,0,1,0-.918Z" transform="translate(-105.756 -107.238)" fill="#263238"/>
            <path id="Path_69615" data-name="Path 69615" d="M113.8,110.52a1.72,1.72,0,0,1,1.572,0,.485.485,0,0,1,.306.612.475.475,0,0,1-.306.3,1.72,1.72,0,0,1-1.572,0,.485.485,0,0,1-.306-.612.5.5,0,0,1,.306-.3Z" transform="translate(-105.591 -107.143)" fill="#50b4b9"/>
            <path id="Path_69616" data-name="Path 69616" d="M116.787,112.25a1.72,1.72,0,0,1,1.572,0,.475.475,0,0,1,.306.6.486.486,0,0,1-.306.306,1.72,1.72,0,0,1-1.572,0,.485.485,0,0,1-.306-.612A.475.475,0,0,1,116.787,112.25Z" transform="translate(-105.426 -107.048)" fill="#263238"/>
            <path id="Path_69617" data-name="Path 69617" d="M118.3,118.25a1.72,1.72,0,0,1,1.572,0,.485.485,0,0,1,.306.612.475.475,0,0,1-.306.3,1.72,1.72,0,0,1-1.572,0,.485.485,0,0,1-.306-.612A.475.475,0,0,1,118.3,118.25Z" transform="translate(-105.343 -106.716)" fill="#50b4b9"/>
            <path id="Path_69618" data-name="Path 69618" d="M120.537,116.95a1.815,1.815,0,0,1,1.583,0,.485.485,0,0,1,.3.612.5.5,0,0,1-.3.306,1.741,1.741,0,0,1-1.583,0,.485.485,0,0,1,0-.918Z" transform="translate(-105.219 -106.788)" fill="#263238"/>
            <path id="Path_69619" data-name="Path 69619" d="M119.777,114.01a1.72,1.72,0,0,1,1.572,0,.485.485,0,0,1,.306.612.475.475,0,0,1-.306.3,1.72,1.72,0,0,1-1.572,0,.475.475,0,0,1-.306-.6A.485.485,0,0,1,119.777,114.01Z" transform="translate(-105.261 -106.95)" fill="#263238"/>
            <ellipse id="Ellipse_3378" data-name="Ellipse 3378" cx="1.119" cy="0.644" rx="1.119" ry="0.644" transform="translate(7.088)" fill="#50b4b9"/>
            <path id="Path_69620" data-name="Path 69620" d="M116.017,109.23a1.741,1.741,0,0,1,1.583,0,.485.485,0,0,1,0,.908,1.741,1.741,0,0,1-1.583,0,.475.475,0,0,1-.3-.612A.454.454,0,0,1,116.017,109.23Z" transform="translate(-105.468 -107.214)" fill="#263238"/>
            <ellipse id="Ellipse_3379" data-name="Ellipse 3379" cx="1.119" cy="0.644" rx="1.119" ry="0.644" transform="translate(13.398 3.641)" fill="#50b4b9"/>
            <path id="Path_69621" data-name="Path 69621" d="M122.017,112.68a1.72,1.72,0,0,1,1.572,0,.485.485,0,0,1,.306.612.5.5,0,0,1-.306.3,1.72,1.72,0,0,1-1.572,0,.485.485,0,0,1-.306-.612.475.475,0,0,1,.306-.3Z" transform="translate(-105.137 -107.024)" fill="#263238"/>
            <path id="Path_69622" data-name="Path 69622" d="M122.777,115.66a1.741,1.741,0,0,1,1.583,0,.485.485,0,0,1,.3.612.454.454,0,0,1-.3.3,1.741,1.741,0,0,1-1.583,0,.464.464,0,0,1-.3-.6A.475.475,0,0,1,122.777,115.66Z" transform="translate(-105.095 -106.859)" fill="#50b4b9"/>
            <ellipse id="Ellipse_3380" data-name="Ellipse 3380" cx="1.119" cy="0.644" rx="1.119" ry="0.644" transform="translate(19.719 7.249)" fill="#263238"/>
          </g>
          <path id="Path_69623" data-name="Path 69623" d="M120.593,122.285V124.7a1.341,1.341,0,0,1-.707-.148L102.305,114.4a1.488,1.488,0,0,1-.675-1.171v-.876a1.519,1.519,0,0,1,.549-1.055c-.243.222-.2.506.127.7l17.57,10.151a1.4,1.4,0,0,0,.718.137Z" transform="translate(-84.81 -96.086)" fill="#37474f"/>
          <g id="Group_29219" data-name="Group 29219" transform="translate(32.105 2.001)">
            <path id="Path_69624" data-name="Path 69624" d="M116.223,103.8h0a.591.591,0,0,1,.749-.158l15.3,8.832a.443.443,0,0,1,.179.612v.063h0a.6.6,0,0,1-.76.158l-15.29-8.832a.454.454,0,0,1-.19-.612.222.222,0,0,0,.011-.063Z" transform="translate(-116.112 -98.515)" fill="#263238"/>
            <path id="Path_69625" data-name="Path 69625" d="M116.226,103.8h0a.591.591,0,0,1,.749-.158l11.375,6.564-.633.855L116.352,104.5a.443.443,0,0,1-.179-.612Z" transform="translate(-116.115 -98.515)" fill="#50b4b9"/>
            <path id="Path_69626" data-name="Path 69626" d="M117.423,102.192h0a.591.591,0,0,1,.749-.158l15.3,8.832a.454.454,0,0,1,.179.612.223.223,0,0,1,0,.063h0a.6.6,0,0,1-.76.158l-15.29-8.832a.454.454,0,0,1-.19-.612.222.222,0,0,0,.011-.063Z" transform="translate(-116.046 -98.604)" fill="#263238"/>
            <path id="Path_69627" data-name="Path 69627" d="M117.426,102.192h0a.591.591,0,0,1,.749-.158l3.809,2.195-.633.855-3.8-2.195a.443.443,0,0,1-.179-.612Z" transform="translate(-116.049 -98.604)" fill="#50b4b9"/>
            <path id="Path_69628" data-name="Path 69628" d="M118.623,100.582h0a.591.591,0,0,1,.749-.148l15.3,8.832a.443.443,0,0,1,.179.6.222.222,0,0,1,0,.063h0a.58.58,0,0,1-.749.158l-15.3-8.832a.454.454,0,0,1-.179-.612Z" transform="translate(-115.979 -98.692)" fill="#263238"/>
            <path id="Path_69629" data-name="Path 69629" d="M118.626,100.582h0a.6.6,0,0,1,.749-.158l7.967,4.59-.633.855-7.967-4.59a.454.454,0,0,1-.179-.612Z" transform="translate(-115.983 -98.692)" fill="#50b4b9"/>
            <path id="Path_69630" data-name="Path 69630" d="M119.822,99.012h0a.58.58,0,0,1,.749-.158l15.3,8.832a.454.454,0,0,1,.179.6.158.158,0,0,1,0,.063h0a.6.6,0,0,1-.76.148l-15.28-8.843a.464.464,0,0,1-.179-.612Z" transform="translate(-115.912 -98.779)" fill="#263238"/>
            <path id="Path_69631" data-name="Path 69631" d="M119.822,99.012h0a.58.58,0,0,1,.749-.158l13.887,8.009-.633.855-13.813-8.062a.464.464,0,0,1-.179-.612Z" transform="translate(-115.912 -98.779)" fill="#50b4b9"/>
          </g>
        </g>
      </g>
      <g id="Grupo_1043900" data-name="Grupo 1043900" transform="translate(239.671 96)">
        <path id="Path_91911" data-name="Path 91911" d="M5924.629,2526.905a26.086,26.086,0,0,0-4.646-51.43,31.215,31.215,0,0,0-60.982-3.39,26.765,26.765,0,0,0-31.1,25.371,15.169,15.169,0,0,0-4.451-.7,15.661,15.661,0,0,0-5.838,30.142Z" transform="translate(-5795.716 -2449.015)" fill="#00223d"/>
        <text id="Internet" transform="translate(56.328 41)" fill="#fff" font-size="16" font-family="SegoeUI-Bold, Segoe UI" font-weight="700"><tspan x="-30.273" y="17">Internet</tspan></text>
        <g id="Group_39245" data-name="Group 39245" transform="translate(0 50.962)">
          <circle id="Ellipse_3688" data-name="Ellipse 3688" cx="21.193" cy="21.193" r="21.193" fill="#ff6148"/>
          <circle id="Ellipse_3689" data-name="Ellipse 3689" cx="18.02" cy="18.02" r="18.02" transform="translate(3.173 3.173)" fill="#fff"/>
          <g id="Group_39244" data-name="Group 39244" transform="translate(8.738 11.51)">
            <path id="Path_91912" data-name="Path 91912" d="M120.883,469.7a3.942,3.942,0,1,0,3.931,3.942h0a3.931,3.931,0,0,0-3.931-3.942Z" transform="translate(-108.384 -456.249)" fill="#0c7a89"/>
            <path id="Path_91913" data-name="Path 91913" d="M121.164,465.33a8.815,8.815,0,0,0-7.44,4.094,1.224,1.224,0,0,0,.379,1.678,1.169,1.169,0,0,0,.65.195,1.245,1.245,0,0,0,1.083-.563,6.357,6.357,0,0,1,8.783-1.982,6.26,6.26,0,0,1,1.938,1.906,1.213,1.213,0,0,0,1.689.325,1.235,1.235,0,0,0,.347-1.657A8.8,8.8,0,0,0,121.164,465.33Z" transform="translate(-108.666 -456.611)" fill="#0c7a89"/>
            <path id="Path_91914" data-name="Path 91914" d="M121.355,461.44a13.071,13.071,0,0,0-9.746,4.332,1.213,1.213,0,1,0,1.776,1.646h0a10.569,10.569,0,0,1,14.912-.866q.422.39.812.812a1.216,1.216,0,0,0,1.819-1.614h0A12.908,12.908,0,0,0,121.355,461.44Z" transform="translate(-108.857 -456.934)" fill="#0c7a89"/>
            <path id="Path_91915" data-name="Path 91915" d="M133.579,462.023a17.663,17.663,0,0,0-24.16.065,1.214,1.214,0,1,0,1.668,1.765,15.226,15.226,0,0,1,20.836-.054,1.213,1.213,0,0,0,1.668-1.754h0Z" transform="translate(-109.039 -457.279)" fill="#0c7a89"/>
          </g>
        </g>
      </g>
      <path id="Polígono_65" data-name="Polígono 65" d="M5,0l5,9H0Z" transform="translate(388.759 151.5) rotate(-90)" fill="#083142"/>
      <path id="Polígono_66" data-name="Polígono 66" d="M5,0l5,9H0Z" transform="translate(222.428 248.755) rotate(180)" fill="#083142"/>
      <path id="Polígono_67" data-name="Polígono 67" d="M5,0l5,9H0Z" transform="translate(72 248.755) rotate(180)" fill="#083142"/>
      <path id="Polígono_68" data-name="Polígono 68" d="M5,0l5,9H0Z" transform="translate(212.428 55.5)" fill="#083142"/>
      <path id="Polígono_69" data-name="Polígono 69" d="M5,0l5,9H0Z" transform="translate(62 55.5)" fill="#083142"/>
    </g>
    <line id="Línea_1891" data-name="Línea 1891" y2="300" transform="translate(852.5 646.5)" fill="none" stroke="#083142" stroke-width="1" stroke-dasharray="8"/>
  </g>
</svg>
