<svg id="software" xmlns="http://www.w3.org/2000/svg" width="110.778" height="94.211" viewBox="0 0 110.778 94.211">
  <path id="Trazado_771416" data-name="Trazado 771416" d="M7.5,12.682V75.375a4.682,4.682,0,0,0,4.682,4.681H101.1a4.682,4.682,0,0,0,4.681-4.681V12.682A4.682,4.682,0,0,0,101.1,8H12.182A4.682,4.682,0,0,0,7.5,12.682Zm0,0" transform="translate(-5.877 -6.377)" fill="#87d1ea"/>
  <path id="Trazado_771417" data-name="Trazado 771417" d="M421.275,8h-5.193a4.682,4.682,0,0,1,4.682,4.682V75.375a4.682,4.682,0,0,1-4.682,4.681h5.193a4.682,4.682,0,0,0,4.682-4.681V12.682A4.682,4.682,0,0,0,421.275,8Zm0,0" transform="translate(-326.057 -6.377)" fill="#5fa6ce"/>
  <path id="Trazado_771418" data-name="Trazado 771418" d="M7.5,283.02v7.87a4.682,4.682,0,0,0,4.682,4.681H101.1a4.682,4.682,0,0,0,4.681-4.681v-7.87Zm0,0" transform="translate(-5.877 -221.892)" fill="#cae5ed"/>
  <path id="Trazado_771419" data-name="Trazado 771419" d="M420.764,290.89a4.682,4.682,0,0,1-4.682,4.681h5.193c.087,0,.173,0,.259-.008.143-.008.285-.022.424-.042.088-.013.174-.027.26-.045s.151-.034.227-.052A4.7,4.7,0,0,0,425.9,291.6c.012-.078.022-.156.03-.234.015-.158.024-.318.024-.479V283.02h-5.193Zm0,0" transform="translate(-326.057 -221.892)" fill="#9bb8d1"/>
  <path id="Trazado_771420" data-name="Trazado 771420" d="M191.991,341.031l-2.745,12.7h19.632l-2.745-12.7Zm0,0" transform="translate(-148.3 -267.352)" fill="#3a4d7b"/>
  <path id="Trazado_771421" data-name="Trazado 771421" d="M213.495,345.583l-.983-4.552H198.37l-.984,4.552Zm0,0" transform="translate(-154.679 -267.352)" fill="#242e5b"/>
  <path id="Trazado_771422" data-name="Trazado 771422" d="M127.933,394.99h44.8a.866.866,0,0,0,.592-1.5c-5-4.668-13.432-7.734-22.993-7.734s-17.992,3.066-22.993,7.734A.866.866,0,0,0,127.933,394.99Zm0,0" transform="translate(-99.572 -302.402)" fill="#cae5ed"/>
  <path id="Trazado_771423" data-name="Trazado 771423" d="M248.766,393.492c-5-4.668-13.433-7.734-22.993-7.734q-1.235,0-2.441.068c6.922.472,12.947,3.4,16.65,7.666.465.536.156,1.5-.48,1.5h8.671A.866.866,0,0,0,248.766,393.492Zm0,0" transform="translate(-175.011 -302.402)" fill="#9bb8d1"/>
  <path id="Trazado_771424" data-name="Trazado 771424" d="M416.925,212.708l-6.882-11.921a.956.956,0,0,1,.35-1.307l5.131-2.962a.958.958,0,0,0,0-1.658l-20.169-11.643a1.628,1.628,0,0,0-2.443,1.41l0,23.289a.957.957,0,0,0,1.436.829l5.131-2.962a.957.957,0,0,1,1.307.351l6.883,11.92a.957.957,0,0,0,1.307.351l7.6-4.387A.957.957,0,0,0,416.925,212.708Zm0,0" transform="translate(-307.898 -143.51)" fill="#ea6789"/>
  <path id="Trazado_771425" data-name="Trazado 771425" d="M243.736,3.745h41.211a3.063,3.063,0,0,1,3.06,3.06V40.418a1.623,1.623,0,0,0,3.245,0V6.8a6.312,6.312,0,0,0-6.3-6.3H243.736a1.623,1.623,0,0,0,0,3.245Zm0,0" transform="translate(-189.729 -0.5)"/>
  <path id="Trazado_771426" data-name="Trazado 771426" d="M233.882,95.219l12.711,7.338a1.627,1.627,0,0,0,.811.217h0a1.627,1.627,0,0,0,.811-.217l12.711-7.338a1.623,1.623,0,0,0,.811-1.406V79.136a1.622,1.622,0,0,0-.811-1.4l-.011-.007-12.7-7.333a1.623,1.623,0,0,0-1.623,0l-12.7,7.333-.012.007a1.622,1.622,0,0,0-.811,1.4V93.814A1.623,1.623,0,0,0,233.882,95.219Zm2.434-2.342V81.947l.546.315,8.92,5.15V98.341Zm12.711,5.464V87.412l8.919-5.15.546-.315v10.93ZM247.4,73.671l9.465,5.465-1.395.805L247.4,84.6l-8.071-4.659-1.394-.805Zm0,0" transform="translate(-182.642 -55.1)"/>
  <path id="Trazado_771427" data-name="Trazado 771427" d="M109.573,90.474l.093,0a1.622,1.622,0,0,0,1.618-1.531l.227-4.052a1.623,1.623,0,0,0-.888-1.539L107,81.525a1.623,1.623,0,1,0-1.464,2.9l.944.477L96.74,90.521V79.274l.884.579A1.623,1.623,0,0,0,99.4,77.137l-3.4-2.222a1.621,1.621,0,0,0-1.777,0l-3.4,2.222a1.623,1.623,0,1,0,1.777,2.716l.884-.579c0,15.468.047,14.448.042,14.426.008.037.017.068.026.1.322,1.1.444.581,12.918,7.967l-.943.477a1.623,1.623,0,0,0,.733,3.071,1.606,1.606,0,0,0,.73-.175l3.622-1.829a1.622,1.622,0,0,0,.888-1.539l-.227-4.053a1.622,1.622,0,1,0-3.24.182l.058,1.055-9.741-5.623,9.741-5.625-.058,1.056A1.621,1.621,0,0,0,109.573,90.474Zm0,0" transform="translate(-70.604 -58.607)"/>
  <path id="Trazado_771428" data-name="Trazado 771428" d="M110.432,68.887l-6.55-11.345,4.555-2.63a2.58,2.58,0,0,0,0-4.468L88.267,38.8a3.251,3.251,0,0,0-4.877,2.815v18.39H3.245V6.8A3.063,3.063,0,0,1,6.3,3.745H47.517a1.623,1.623,0,1,0,0-3.245H6.3A6.312,6.312,0,0,0,0,6.8V69.5a6.312,6.312,0,0,0,6.3,6.3H41.68l-1.673,7.746q-1.074.275-2.121.607a1.622,1.622,0,1,0,.98,3.093q1.357-.43,2.764-.756a1.66,1.66,0,0,0,.216-.049,40.493,40.493,0,0,1,8.917-.965c7.932,0,15.354,2.211,20.327,5.987H30.436a23.764,23.764,0,0,1,2.82-1.828A1.623,1.623,0,0,0,31.68,86.8a25.477,25.477,0,0,0-5.019,3.6,2.489,2.489,0,0,0,1.7,4.307h44.8a2.488,2.488,0,0,0,1.7-4.307,30.71,30.71,0,0,0-13.342-6.846L59.843,75.8H95.219a6.278,6.278,0,0,0,2.751-.63l.394.681a2.58,2.58,0,0,0,3.524.944l7.6-4.387a2.578,2.578,0,0,0,.945-3.524ZM58.041,82.828a45.165,45.165,0,0,0-14.557-.009L45,75.8H56.522ZM95.219,72.557H6.3A3.062,3.062,0,0,1,3.245,69.5V63.251H83.389V64.9a2.58,2.58,0,0,0,3.87,2.235l4.555-2.629,4.524,7.836A3.064,3.064,0,0,1,95.219,72.557Zm5.623,1.1-.914-1.582c-.016-.031-.034-.062-.052-.091l-5.584-9.671a2.568,2.568,0,0,0-1.566-1.2,2.613,2.613,0,0,0-.673-.089,2.572,2.572,0,0,0-1.285.347l-4.132,2.386.009-22.14,19.171,11.067-4.133,2.386a2.583,2.583,0,0,0-.945,3.524l6.55,11.345Zm0,0" transform="translate(0 -0.5)"/>
</svg>
